<?xml version="1.0" encoding="utf-8" standalone="no"?>
<!DOCTYPE svg PUBLIC "-//W3C//DTD SVG 1.1//EN"
  "http://www.w3.org/Graphics/SVG/1.1/DTD/svg11.dtd">
<!-- Created with matplotlib (https://matplotlib.org/) -->
<svg height="614.274375pt" version="1.1" viewBox="0 0 661.350312 614.274375" width="661.350312pt" xmlns="http://www.w3.org/2000/svg" xmlns:xlink="http://www.w3.org/1999/xlink">
 <defs>
  <style type="text/css">
*{stroke-linecap:butt;stroke-linejoin:round;}
  </style>
 </defs>
 <g id="figure_1">
  <g id="patch_1">
   <path d="M 0 614.274375 
L 661.350312 614.274375 
L 661.350312 0 
L 0 0 
z
" style="fill:#ffffff;"/>
  </g>
  <g id="axes_1">
   <g id="patch_2">
    <path d="M 71.248438 576.718125 
L 629.248438 576.718125 
L 629.248438 22.318125 
L 71.248438 22.318125 
z
" style="fill:#ffffff;"/>
   </g>
   <g id="matplotlib.axis_1">
    <g id="xtick_1">
     <g id="line2d_1">
      <defs>
       <path d="M 0 0 
L 0 3.5 
" id="m57c68ba551" style="stroke:#000000;stroke-width:0.8;"/>
      </defs>
      <g>
       <use style="stroke:#000000;stroke-width:0.8;" x="79.702983" xlink:href="#m57c68ba551" y="576.718125"/>
      </g>
     </g>
     <g id="text_1">
      <!-- −80 -->
      <defs>
       <path d="M 10.59375 35.5 
L 73.1875 35.5 
L 73.1875 27.203125 
L 10.59375 27.203125 
z
" id="DejaVuSans-8722"/>
       <path d="M 31.78125 34.625 
Q 24.75 34.625 20.71875 30.859375 
Q 16.703125 27.09375 16.703125 20.515625 
Q 16.703125 13.921875 20.71875 10.15625 
Q 24.75 6.390625 31.78125 6.390625 
Q 38.8125 6.390625 42.859375 10.171875 
Q 46.921875 13.96875 46.921875 20.515625 
Q 46.921875 27.09375 42.890625 30.859375 
Q 38.875 34.625 31.78125 34.625 
z
M 21.921875 38.8125 
Q 15.578125 40.375 12.03125 44.71875 
Q 8.5 49.078125 8.5 55.328125 
Q 8.5 64.0625 14.71875 69.140625 
Q 20.953125 74.21875 31.78125 74.21875 
Q 42.671875 74.21875 48.875 69.140625 
Q 55.078125 64.0625 55.078125 55.328125 
Q 55.078125 49.078125 51.53125 44.71875 
Q 48 40.375 41.703125 38.8125 
Q 48.828125 37.15625 52.796875 32.3125 
Q 56.78125 27.484375 56.78125 20.515625 
Q 56.78125 9.90625 50.3125 4.234375 
Q 43.84375 -1.421875 31.78125 -1.421875 
Q 19.734375 -1.421875 13.25 4.234375 
Q 6.78125 9.90625 6.78125 20.515625 
Q 6.78125 27.484375 10.78125 32.3125 
Q 14.796875 37.15625 21.921875 38.8125 
z
M 18.3125 54.390625 
Q 18.3125 48.734375 21.84375 45.5625 
Q 25.390625 42.390625 31.78125 42.390625 
Q 38.140625 42.390625 41.71875 45.5625 
Q 45.3125 48.734375 45.3125 54.390625 
Q 45.3125 60.0625 41.71875 63.234375 
Q 38.140625 66.40625 31.78125 66.40625 
Q 25.390625 66.40625 21.84375 63.234375 
Q 18.3125 60.0625 18.3125 54.390625 
z
" id="DejaVuSans-56"/>
       <path d="M 31.78125 66.40625 
Q 24.171875 66.40625 20.328125 58.90625 
Q 16.5 51.421875 16.5 36.375 
Q 16.5 21.390625 20.328125 13.890625 
Q 24.171875 6.390625 31.78125 6.390625 
Q 39.453125 6.390625 43.28125 13.890625 
Q 47.125 21.390625 47.125 36.375 
Q 47.125 51.421875 43.28125 58.90625 
Q 39.453125 66.40625 31.78125 66.40625 
z
M 31.78125 74.21875 
Q 44.046875 74.21875 50.515625 64.515625 
Q 56.984375 54.828125 56.984375 36.375 
Q 56.984375 17.96875 50.515625 8.265625 
Q 44.046875 -1.421875 31.78125 -1.421875 
Q 19.53125 -1.421875 13.0625 8.265625 
Q 6.59375 17.96875 6.59375 36.375 
Q 6.59375 54.828125 13.0625 64.515625 
Q 19.53125 74.21875 31.78125 74.21875 
z
" id="DejaVuSans-48"/>
      </defs>
      <g transform="translate(69.150639 591.316563)scale(0.1 -0.1)">
       <use xlink:href="#DejaVuSans-8722"/>
       <use x="83.789062" xlink:href="#DejaVuSans-56"/>
       <use x="147.412109" xlink:href="#DejaVuSans-48"/>
      </g>
     </g>
    </g>
    <g id="xtick_2">
     <g id="line2d_2">
      <g>
       <use style="stroke:#000000;stroke-width:0.8;" x="147.339347" xlink:href="#m57c68ba551" y="576.718125"/>
      </g>
     </g>
     <g id="text_2">
      <!-- −60 -->
      <defs>
       <path d="M 33.015625 40.375 
Q 26.375 40.375 22.484375 35.828125 
Q 18.609375 31.296875 18.609375 23.390625 
Q 18.609375 15.53125 22.484375 10.953125 
Q 26.375 6.390625 33.015625 6.390625 
Q 39.65625 6.390625 43.53125 10.953125 
Q 47.40625 15.53125 47.40625 23.390625 
Q 47.40625 31.296875 43.53125 35.828125 
Q 39.65625 40.375 33.015625 40.375 
z
M 52.59375 71.296875 
L 52.59375 62.3125 
Q 48.875 64.0625 45.09375 64.984375 
Q 41.3125 65.921875 37.59375 65.921875 
Q 27.828125 65.921875 22.671875 59.328125 
Q 17.53125 52.734375 16.796875 39.40625 
Q 19.671875 43.65625 24.015625 45.921875 
Q 28.375 48.1875 33.59375 48.1875 
Q 44.578125 48.1875 50.953125 41.515625 
Q 57.328125 34.859375 57.328125 23.390625 
Q 57.328125 12.15625 50.6875 5.359375 
Q 44.046875 -1.421875 33.015625 -1.421875 
Q 20.359375 -1.421875 13.671875 8.265625 
Q 6.984375 17.96875 6.984375 36.375 
Q 6.984375 53.65625 15.1875 63.9375 
Q 23.390625 74.21875 37.203125 74.21875 
Q 40.921875 74.21875 44.703125 73.484375 
Q 48.484375 72.75 52.59375 71.296875 
z
" id="DejaVuSans-54"/>
      </defs>
      <g transform="translate(136.787003 591.316563)scale(0.1 -0.1)">
       <use xlink:href="#DejaVuSans-8722"/>
       <use x="83.789062" xlink:href="#DejaVuSans-54"/>
       <use x="147.412109" xlink:href="#DejaVuSans-48"/>
      </g>
     </g>
    </g>
    <g id="xtick_3">
     <g id="line2d_3">
      <g>
       <use style="stroke:#000000;stroke-width:0.8;" x="214.97571" xlink:href="#m57c68ba551" y="576.718125"/>
      </g>
     </g>
     <g id="text_3">
      <!-- −40 -->
      <defs>
       <path d="M 37.796875 64.3125 
L 12.890625 25.390625 
L 37.796875 25.390625 
z
M 35.203125 72.90625 
L 47.609375 72.90625 
L 47.609375 25.390625 
L 58.015625 25.390625 
L 58.015625 17.1875 
L 47.609375 17.1875 
L 47.609375 0 
L 37.796875 0 
L 37.796875 17.1875 
L 4.890625 17.1875 
L 4.890625 26.703125 
z
" id="DejaVuSans-52"/>
      </defs>
      <g transform="translate(204.423366 591.316563)scale(0.1 -0.1)">
       <use xlink:href="#DejaVuSans-8722"/>
       <use x="83.789062" xlink:href="#DejaVuSans-52"/>
       <use x="147.412109" xlink:href="#DejaVuSans-48"/>
      </g>
     </g>
    </g>
    <g id="xtick_4">
     <g id="line2d_4">
      <g>
       <use style="stroke:#000000;stroke-width:0.8;" x="282.612074" xlink:href="#m57c68ba551" y="576.718125"/>
      </g>
     </g>
     <g id="text_4">
      <!-- −20 -->
      <defs>
       <path d="M 19.1875 8.296875 
L 53.609375 8.296875 
L 53.609375 0 
L 7.328125 0 
L 7.328125 8.296875 
Q 12.9375 14.109375 22.625 23.890625 
Q 32.328125 33.6875 34.8125 36.53125 
Q 39.546875 41.84375 41.421875 45.53125 
Q 43.3125 49.21875 43.3125 52.78125 
Q 43.3125 58.59375 39.234375 62.25 
Q 35.15625 65.921875 28.609375 65.921875 
Q 23.96875 65.921875 18.8125 64.3125 
Q 13.671875 62.703125 7.8125 59.421875 
L 7.8125 69.390625 
Q 13.765625 71.78125 18.9375 73 
Q 24.125 74.21875 28.421875 74.21875 
Q 39.75 74.21875 46.484375 68.546875 
Q 53.21875 62.890625 53.21875 53.421875 
Q 53.21875 48.921875 51.53125 44.890625 
Q 49.859375 40.875 45.40625 35.40625 
Q 44.1875 33.984375 37.640625 27.21875 
Q 31.109375 20.453125 19.1875 8.296875 
z
" id="DejaVuSans-50"/>
      </defs>
      <g transform="translate(272.05973 591.316563)scale(0.1 -0.1)">
       <use xlink:href="#DejaVuSans-8722"/>
       <use x="83.789062" xlink:href="#DejaVuSans-50"/>
       <use x="147.412109" xlink:href="#DejaVuSans-48"/>
      </g>
     </g>
    </g>
    <g id="xtick_5">
     <g id="line2d_5">
      <g>
       <use style="stroke:#000000;stroke-width:0.8;" x="350.248438" xlink:href="#m57c68ba551" y="576.718125"/>
      </g>
     </g>
     <g id="text_5">
      <!-- 0 -->
      <g transform="translate(347.067188 591.316563)scale(0.1 -0.1)">
       <use xlink:href="#DejaVuSans-48"/>
      </g>
     </g>
    </g>
    <g id="xtick_6">
     <g id="line2d_6">
      <g>
       <use style="stroke:#000000;stroke-width:0.8;" x="417.884801" xlink:href="#m57c68ba551" y="576.718125"/>
      </g>
     </g>
     <g id="text_6">
      <!-- 20 -->
      <g transform="translate(411.522301 591.316563)scale(0.1 -0.1)">
       <use xlink:href="#DejaVuSans-50"/>
       <use x="63.623047" xlink:href="#DejaVuSans-48"/>
      </g>
     </g>
    </g>
    <g id="xtick_7">
     <g id="line2d_7">
      <g>
       <use style="stroke:#000000;stroke-width:0.8;" x="485.521165" xlink:href="#m57c68ba551" y="576.718125"/>
      </g>
     </g>
     <g id="text_7">
      <!-- 40 -->
      <g transform="translate(479.158665 591.316563)scale(0.1 -0.1)">
       <use xlink:href="#DejaVuSans-52"/>
       <use x="63.623047" xlink:href="#DejaVuSans-48"/>
      </g>
     </g>
    </g>
    <g id="xtick_8">
     <g id="line2d_8">
      <g>
       <use style="stroke:#000000;stroke-width:0.8;" x="553.157528" xlink:href="#m57c68ba551" y="576.718125"/>
      </g>
     </g>
     <g id="text_8">
      <!-- 60 -->
      <g transform="translate(546.795028 591.316563)scale(0.1 -0.1)">
       <use xlink:href="#DejaVuSans-54"/>
       <use x="63.623047" xlink:href="#DejaVuSans-48"/>
      </g>
     </g>
    </g>
    <g id="xtick_9">
     <g id="line2d_9">
      <g>
       <use style="stroke:#000000;stroke-width:0.8;" x="620.793892" xlink:href="#m57c68ba551" y="576.718125"/>
      </g>
     </g>
     <g id="text_9">
      <!-- 80 -->
      <g transform="translate(614.431392 591.316563)scale(0.1 -0.1)">
       <use xlink:href="#DejaVuSans-56"/>
       <use x="63.623047" xlink:href="#DejaVuSans-48"/>
      </g>
     </g>
    </g>
    <g id="text_10">
     <!-- Motif Position -->
     <defs>
      <path d="M 9.8125 72.90625 
L 24.515625 72.90625 
L 43.109375 23.296875 
L 61.8125 72.90625 
L 76.515625 72.90625 
L 76.515625 0 
L 66.890625 0 
L 66.890625 64.015625 
L 48.09375 14.015625 
L 38.1875 14.015625 
L 19.390625 64.015625 
L 19.390625 0 
L 9.8125 0 
z
" id="DejaVuSans-77"/>
      <path d="M 30.609375 48.390625 
Q 23.390625 48.390625 19.1875 42.75 
Q 14.984375 37.109375 14.984375 27.296875 
Q 14.984375 17.484375 19.15625 11.84375 
Q 23.34375 6.203125 30.609375 6.203125 
Q 37.796875 6.203125 41.984375 11.859375 
Q 46.1875 17.53125 46.1875 27.296875 
Q 46.1875 37.015625 41.984375 42.703125 
Q 37.796875 48.390625 30.609375 48.390625 
z
M 30.609375 56 
Q 42.328125 56 49.015625 48.375 
Q 55.71875 40.765625 55.71875 27.296875 
Q 55.71875 13.875 49.015625 6.21875 
Q 42.328125 -1.421875 30.609375 -1.421875 
Q 18.84375 -1.421875 12.171875 6.21875 
Q 5.515625 13.875 5.515625 27.296875 
Q 5.515625 40.765625 12.171875 48.375 
Q 18.84375 56 30.609375 56 
z
" id="DejaVuSans-111"/>
      <path d="M 18.3125 70.21875 
L 18.3125 54.6875 
L 36.8125 54.6875 
L 36.8125 47.703125 
L 18.3125 47.703125 
L 18.3125 18.015625 
Q 18.3125 11.328125 20.140625 9.421875 
Q 21.96875 7.515625 27.59375 7.515625 
L 36.8125 7.515625 
L 36.8125 0 
L 27.59375 0 
Q 17.1875 0 13.234375 3.875 
Q 9.28125 7.765625 9.28125 18.015625 
L 9.28125 47.703125 
L 2.6875 47.703125 
L 2.6875 54.6875 
L 9.28125 54.6875 
L 9.28125 70.21875 
z
" id="DejaVuSans-116"/>
      <path d="M 9.421875 54.6875 
L 18.40625 54.6875 
L 18.40625 0 
L 9.421875 0 
z
M 9.421875 75.984375 
L 18.40625 75.984375 
L 18.40625 64.59375 
L 9.421875 64.59375 
z
" id="DejaVuSans-105"/>
      <path d="M 37.109375 75.984375 
L 37.109375 68.5 
L 28.515625 68.5 
Q 23.6875 68.5 21.796875 66.546875 
Q 19.921875 64.59375 19.921875 59.515625 
L 19.921875 54.6875 
L 34.71875 54.6875 
L 34.71875 47.703125 
L 19.921875 47.703125 
L 19.921875 0 
L 10.890625 0 
L 10.890625 47.703125 
L 2.296875 47.703125 
L 2.296875 54.6875 
L 10.890625 54.6875 
L 10.890625 58.5 
Q 10.890625 67.625 15.140625 71.796875 
Q 19.390625 75.984375 28.609375 75.984375 
z
" id="DejaVuSans-102"/>
      <path id="DejaVuSans-32"/>
      <path d="M 19.671875 64.796875 
L 19.671875 37.40625 
L 32.078125 37.40625 
Q 38.96875 37.40625 42.71875 40.96875 
Q 46.484375 44.53125 46.484375 51.125 
Q 46.484375 57.671875 42.71875 61.234375 
Q 38.96875 64.796875 32.078125 64.796875 
z
M 9.8125 72.90625 
L 32.078125 72.90625 
Q 44.34375 72.90625 50.609375 67.359375 
Q 56.890625 61.8125 56.890625 51.125 
Q 56.890625 40.328125 50.609375 34.8125 
Q 44.34375 29.296875 32.078125 29.296875 
L 19.671875 29.296875 
L 19.671875 0 
L 9.8125 0 
z
" id="DejaVuSans-80"/>
      <path d="M 44.28125 53.078125 
L 44.28125 44.578125 
Q 40.484375 46.53125 36.375 47.5 
Q 32.28125 48.484375 27.875 48.484375 
Q 21.1875 48.484375 17.84375 46.4375 
Q 14.5 44.390625 14.5 40.28125 
Q 14.5 37.15625 16.890625 35.375 
Q 19.28125 33.59375 26.515625 31.984375 
L 29.59375 31.296875 
Q 39.15625 29.25 43.1875 25.515625 
Q 47.21875 21.78125 47.21875 15.09375 
Q 47.21875 7.46875 41.1875 3.015625 
Q 35.15625 -1.421875 24.609375 -1.421875 
Q 20.21875 -1.421875 15.453125 -0.5625 
Q 10.6875 0.296875 5.421875 2 
L 5.421875 11.28125 
Q 10.40625 8.6875 15.234375 7.390625 
Q 20.0625 6.109375 24.8125 6.109375 
Q 31.15625 6.109375 34.5625 8.28125 
Q 37.984375 10.453125 37.984375 14.40625 
Q 37.984375 18.0625 35.515625 20.015625 
Q 33.0625 21.96875 24.703125 23.78125 
L 21.578125 24.515625 
Q 13.234375 26.265625 9.515625 29.90625 
Q 5.8125 33.546875 5.8125 39.890625 
Q 5.8125 47.609375 11.28125 51.796875 
Q 16.75 56 26.8125 56 
Q 31.78125 56 36.171875 55.265625 
Q 40.578125 54.546875 44.28125 53.078125 
z
" id="DejaVuSans-115"/>
      <path d="M 54.890625 33.015625 
L 54.890625 0 
L 45.90625 0 
L 45.90625 32.71875 
Q 45.90625 40.484375 42.875 44.328125 
Q 39.84375 48.1875 33.796875 48.1875 
Q 26.515625 48.1875 22.3125 43.546875 
Q 18.109375 38.921875 18.109375 30.90625 
L 18.109375 0 
L 9.078125 0 
L 9.078125 54.6875 
L 18.109375 54.6875 
L 18.109375 46.1875 
Q 21.34375 51.125 25.703125 53.5625 
Q 30.078125 56 35.796875 56 
Q 45.21875 56 50.046875 50.171875 
Q 54.890625 44.34375 54.890625 33.015625 
z
" id="DejaVuSans-110"/>
     </defs>
     <g transform="translate(316.7125 604.994688)scale(0.1 -0.1)">
      <use xlink:href="#DejaVuSans-77"/>
      <use x="86.279297" xlink:href="#DejaVuSans-111"/>
      <use x="147.460938" xlink:href="#DejaVuSans-116"/>
      <use x="186.669922" xlink:href="#DejaVuSans-105"/>
      <use x="214.453125" xlink:href="#DejaVuSans-102"/>
      <use x="249.658203" xlink:href="#DejaVuSans-32"/>
      <use x="281.445312" xlink:href="#DejaVuSans-80"/>
      <use x="338.123047" xlink:href="#DejaVuSans-111"/>
      <use x="399.304688" xlink:href="#DejaVuSans-115"/>
      <use x="451.404297" xlink:href="#DejaVuSans-105"/>
      <use x="479.1875" xlink:href="#DejaVuSans-116"/>
      <use x="518.396484" xlink:href="#DejaVuSans-105"/>
      <use x="546.179688" xlink:href="#DejaVuSans-111"/>
      <use x="607.361328" xlink:href="#DejaVuSans-110"/>
     </g>
    </g>
   </g>
   <g id="matplotlib.axis_2">
    <g id="ytick_1">
     <g id="line2d_10">
      <defs>
       <path d="M 0 0 
L -3.5 0 
" id="m13c2799483" style="stroke:#000000;stroke-width:0.8;"/>
      </defs>
      <g>
       <use style="stroke:#000000;stroke-width:0.8;" x="71.248438" xlink:href="#m13c2799483" y="522.622598"/>
      </g>
     </g>
     <g id="text_11">
      <!-- −0.0075 -->
      <defs>
       <path d="M 10.6875 12.40625 
L 21 12.40625 
L 21 0 
L 10.6875 0 
z
" id="DejaVuSans-46"/>
       <path d="M 8.203125 72.90625 
L 55.078125 72.90625 
L 55.078125 68.703125 
L 28.609375 0 
L 18.3125 0 
L 43.21875 64.59375 
L 8.203125 64.59375 
z
" id="DejaVuSans-55"/>
       <path d="M 10.796875 72.90625 
L 49.515625 72.90625 
L 49.515625 64.59375 
L 19.828125 64.59375 
L 19.828125 46.734375 
Q 21.96875 47.46875 24.109375 47.828125 
Q 26.265625 48.1875 28.421875 48.1875 
Q 40.625 48.1875 47.75 41.5 
Q 54.890625 34.8125 54.890625 23.390625 
Q 54.890625 11.625 47.5625 5.09375 
Q 40.234375 -1.421875 26.90625 -1.421875 
Q 22.3125 -1.421875 17.546875 -0.640625 
Q 12.796875 0.140625 7.71875 1.703125 
L 7.71875 11.625 
Q 12.109375 9.234375 16.796875 8.0625 
Q 21.484375 6.890625 26.703125 6.890625 
Q 35.15625 6.890625 40.078125 11.328125 
Q 45.015625 15.765625 45.015625 23.390625 
Q 45.015625 31 40.078125 35.4375 
Q 35.15625 39.890625 26.703125 39.890625 
Q 22.75 39.890625 18.8125 39.015625 
Q 14.890625 38.140625 10.796875 36.28125 
z
" id="DejaVuSans-53"/>
      </defs>
      <g transform="translate(20.878125 526.421817)scale(0.1 -0.1)">
       <use xlink:href="#DejaVuSans-8722"/>
       <use x="83.789062" xlink:href="#DejaVuSans-48"/>
       <use x="147.412109" xlink:href="#DejaVuSans-46"/>
       <use x="179.199219" xlink:href="#DejaVuSans-48"/>
       <use x="242.822266" xlink:href="#DejaVuSans-48"/>
       <use x="306.445312" xlink:href="#DejaVuSans-55"/>
       <use x="370.068359" xlink:href="#DejaVuSans-53"/>
      </g>
     </g>
    </g>
    <g id="ytick_2">
     <g id="line2d_11">
      <g>
       <use style="stroke:#000000;stroke-width:0.8;" x="71.248438" xlink:href="#m13c2799483" y="456.242931"/>
      </g>
     </g>
     <g id="text_12">
      <!-- −0.0050 -->
      <g transform="translate(20.878125 460.04215)scale(0.1 -0.1)">
       <use xlink:href="#DejaVuSans-8722"/>
       <use x="83.789062" xlink:href="#DejaVuSans-48"/>
       <use x="147.412109" xlink:href="#DejaVuSans-46"/>
       <use x="179.199219" xlink:href="#DejaVuSans-48"/>
       <use x="242.822266" xlink:href="#DejaVuSans-48"/>
       <use x="306.445312" xlink:href="#DejaVuSans-53"/>
       <use x="370.068359" xlink:href="#DejaVuSans-48"/>
      </g>
     </g>
    </g>
    <g id="ytick_3">
     <g id="line2d_12">
      <g>
       <use style="stroke:#000000;stroke-width:0.8;" x="71.248438" xlink:href="#m13c2799483" y="389.863264"/>
      </g>
     </g>
     <g id="text_13">
      <!-- −0.0025 -->
      <g transform="translate(20.878125 393.662483)scale(0.1 -0.1)">
       <use xlink:href="#DejaVuSans-8722"/>
       <use x="83.789062" xlink:href="#DejaVuSans-48"/>
       <use x="147.412109" xlink:href="#DejaVuSans-46"/>
       <use x="179.199219" xlink:href="#DejaVuSans-48"/>
       <use x="242.822266" xlink:href="#DejaVuSans-48"/>
       <use x="306.445312" xlink:href="#DejaVuSans-50"/>
       <use x="370.068359" xlink:href="#DejaVuSans-53"/>
      </g>
     </g>
    </g>
    <g id="ytick_4">
     <g id="line2d_13">
      <g>
       <use style="stroke:#000000;stroke-width:0.8;" x="71.248438" xlink:href="#m13c2799483" y="323.483597"/>
      </g>
     </g>
     <g id="text_14">
      <!-- 0.0000 -->
      <g transform="translate(29.257813 327.282816)scale(0.1 -0.1)">
       <use xlink:href="#DejaVuSans-48"/>
       <use x="63.623047" xlink:href="#DejaVuSans-46"/>
       <use x="95.410156" xlink:href="#DejaVuSans-48"/>
       <use x="159.033203" xlink:href="#DejaVuSans-48"/>
       <use x="222.65625" xlink:href="#DejaVuSans-48"/>
       <use x="286.279297" xlink:href="#DejaVuSans-48"/>
      </g>
     </g>
    </g>
    <g id="ytick_5">
     <g id="line2d_14">
      <g>
       <use style="stroke:#000000;stroke-width:0.8;" x="71.248438" xlink:href="#m13c2799483" y="257.10393"/>
      </g>
     </g>
     <g id="text_15">
      <!-- 0.0025 -->
      <g transform="translate(29.257813 260.903149)scale(0.1 -0.1)">
       <use xlink:href="#DejaVuSans-48"/>
       <use x="63.623047" xlink:href="#DejaVuSans-46"/>
       <use x="95.410156" xlink:href="#DejaVuSans-48"/>
       <use x="159.033203" xlink:href="#DejaVuSans-48"/>
       <use x="222.65625" xlink:href="#DejaVuSans-50"/>
       <use x="286.279297" xlink:href="#DejaVuSans-53"/>
      </g>
     </g>
    </g>
    <g id="ytick_6">
     <g id="line2d_15">
      <g>
       <use style="stroke:#000000;stroke-width:0.8;" x="71.248438" xlink:href="#m13c2799483" y="190.724263"/>
      </g>
     </g>
     <g id="text_16">
      <!-- 0.0050 -->
      <g transform="translate(29.257813 194.523482)scale(0.1 -0.1)">
       <use xlink:href="#DejaVuSans-48"/>
       <use x="63.623047" xlink:href="#DejaVuSans-46"/>
       <use x="95.410156" xlink:href="#DejaVuSans-48"/>
       <use x="159.033203" xlink:href="#DejaVuSans-48"/>
       <use x="222.65625" xlink:href="#DejaVuSans-53"/>
       <use x="286.279297" xlink:href="#DejaVuSans-48"/>
      </g>
     </g>
    </g>
    <g id="ytick_7">
     <g id="line2d_16">
      <g>
       <use style="stroke:#000000;stroke-width:0.8;" x="71.248438" xlink:href="#m13c2799483" y="124.344596"/>
      </g>
     </g>
     <g id="text_17">
      <!-- 0.0075 -->
      <g transform="translate(29.257813 128.143815)scale(0.1 -0.1)">
       <use xlink:href="#DejaVuSans-48"/>
       <use x="63.623047" xlink:href="#DejaVuSans-46"/>
       <use x="95.410156" xlink:href="#DejaVuSans-48"/>
       <use x="159.033203" xlink:href="#DejaVuSans-48"/>
       <use x="222.65625" xlink:href="#DejaVuSans-55"/>
       <use x="286.279297" xlink:href="#DejaVuSans-53"/>
      </g>
     </g>
    </g>
    <g id="ytick_8">
     <g id="line2d_17">
      <g>
       <use style="stroke:#000000;stroke-width:0.8;" x="71.248438" xlink:href="#m13c2799483" y="57.964929"/>
      </g>
     </g>
     <g id="text_18">
      <!-- 0.0100 -->
      <defs>
       <path d="M 12.40625 8.296875 
L 28.515625 8.296875 
L 28.515625 63.921875 
L 10.984375 60.40625 
L 10.984375 69.390625 
L 28.421875 72.90625 
L 38.28125 72.90625 
L 38.28125 8.296875 
L 54.390625 8.296875 
L 54.390625 0 
L 12.40625 0 
z
" id="DejaVuSans-49"/>
      </defs>
      <g transform="translate(29.257813 61.764148)scale(0.1 -0.1)">
       <use xlink:href="#DejaVuSans-48"/>
       <use x="63.623047" xlink:href="#DejaVuSans-46"/>
       <use x="95.410156" xlink:href="#DejaVuSans-48"/>
       <use x="159.033203" xlink:href="#DejaVuSans-49"/>
       <use x="222.65625" xlink:href="#DejaVuSans-48"/>
       <use x="286.279297" xlink:href="#DejaVuSans-48"/>
      </g>
     </g>
    </g>
    <g id="text_19">
     <!-- Coefficient -->
     <defs>
      <path d="M 64.40625 67.28125 
L 64.40625 56.890625 
Q 59.421875 61.53125 53.78125 63.8125 
Q 48.140625 66.109375 41.796875 66.109375 
Q 29.296875 66.109375 22.65625 58.46875 
Q 16.015625 50.828125 16.015625 36.375 
Q 16.015625 21.96875 22.65625 14.328125 
Q 29.296875 6.6875 41.796875 6.6875 
Q 48.140625 6.6875 53.78125 8.984375 
Q 59.421875 11.28125 64.40625 15.921875 
L 64.40625 5.609375 
Q 59.234375 2.09375 53.4375 0.328125 
Q 47.65625 -1.421875 41.21875 -1.421875 
Q 24.65625 -1.421875 15.125 8.703125 
Q 5.609375 18.84375 5.609375 36.375 
Q 5.609375 53.953125 15.125 64.078125 
Q 24.65625 74.21875 41.21875 74.21875 
Q 47.75 74.21875 53.53125 72.484375 
Q 59.328125 70.75 64.40625 67.28125 
z
" id="DejaVuSans-67"/>
      <path d="M 56.203125 29.59375 
L 56.203125 25.203125 
L 14.890625 25.203125 
Q 15.484375 15.921875 20.484375 11.0625 
Q 25.484375 6.203125 34.421875 6.203125 
Q 39.59375 6.203125 44.453125 7.46875 
Q 49.3125 8.734375 54.109375 11.28125 
L 54.109375 2.78125 
Q 49.265625 0.734375 44.1875 -0.34375 
Q 39.109375 -1.421875 33.890625 -1.421875 
Q 20.796875 -1.421875 13.15625 6.1875 
Q 5.515625 13.8125 5.515625 26.8125 
Q 5.515625 40.234375 12.765625 48.109375 
Q 20.015625 56 32.328125 56 
Q 43.359375 56 49.78125 48.890625 
Q 56.203125 41.796875 56.203125 29.59375 
z
M 47.21875 32.234375 
Q 47.125 39.59375 43.09375 43.984375 
Q 39.0625 48.390625 32.421875 48.390625 
Q 24.90625 48.390625 20.390625 44.140625 
Q 15.875 39.890625 15.1875 32.171875 
z
" id="DejaVuSans-101"/>
      <path d="M 48.78125 52.59375 
L 48.78125 44.1875 
Q 44.96875 46.296875 41.140625 47.34375 
Q 37.3125 48.390625 33.40625 48.390625 
Q 24.65625 48.390625 19.8125 42.84375 
Q 14.984375 37.3125 14.984375 27.296875 
Q 14.984375 17.28125 19.8125 11.734375 
Q 24.65625 6.203125 33.40625 6.203125 
Q 37.3125 6.203125 41.140625 7.25 
Q 44.96875 8.296875 48.78125 10.40625 
L 48.78125 2.09375 
Q 45.015625 0.34375 40.984375 -0.53125 
Q 36.96875 -1.421875 32.421875 -1.421875 
Q 20.0625 -1.421875 12.78125 6.34375 
Q 5.515625 14.109375 5.515625 27.296875 
Q 5.515625 40.671875 12.859375 48.328125 
Q 20.21875 56 33.015625 56 
Q 37.15625 56 41.109375 55.140625 
Q 45.0625 54.296875 48.78125 52.59375 
z
" id="DejaVuSans-99"/>
     </defs>
     <g transform="translate(14.798438 326.398594)rotate(-90)scale(0.1 -0.1)">
      <use xlink:href="#DejaVuSans-67"/>
      <use x="69.824219" xlink:href="#DejaVuSans-111"/>
      <use x="131.005859" xlink:href="#DejaVuSans-101"/>
      <use x="192.529297" xlink:href="#DejaVuSans-102"/>
      <use x="227.734375" xlink:href="#DejaVuSans-102"/>
      <use x="262.939453" xlink:href="#DejaVuSans-105"/>
      <use x="290.722656" xlink:href="#DejaVuSans-99"/>
      <use x="345.703125" xlink:href="#DejaVuSans-105"/>
      <use x="373.486328" xlink:href="#DejaVuSans-101"/>
      <use x="435.009766" xlink:href="#DejaVuSans-110"/>
      <use x="498.388672" xlink:href="#DejaVuSans-116"/>
     </g>
    </g>
   </g>
   <g id="line2d_18">
    <path clip-path="url(#pd4ac5fd0ad)" d="M 96.612074 323.483597 
L 116.902983 323.532879 
L 120.284801 324.134853 
L 123.666619 327.471603 
L 127.048438 339.936489 
L 130.430256 367.845833 
L 133.812074 363.902403 
L 137.193892 310.959103 
L 140.57571 313.560431 
L 143.957528 351.854637 
L 147.339347 366.14343 
L 150.721165 350.087088 
L 154.102983 339.159792 
L 157.484801 341.100387 
L 160.866619 342.622301 
L 164.248438 340.563805 
L 167.630256 300.701143 
L 171.012074 256.241018 
L 174.393892 281.605387 
L 177.77571 336.191344 
L 181.157528 342.049567 
L 184.539347 296.968719 
L 187.921165 267.747377 
L 194.684801 324.710204 
L 198.066619 348.033915 
L 201.448438 376.301332 
L 204.830256 370.088684 
L 208.212074 367.453301 
L 211.593892 372.339662 
L 214.97571 324.246668 
L 218.357528 248.818607 
L 221.739347 236.356325 
L 225.121165 253.468127 
L 228.502983 250.944469 
L 231.884801 255.275043 
L 235.266619 292.051839 
L 238.648438 352.872997 
L 242.030256 392.580061 
L 245.412074 389.736616 
L 248.793892 350.191346 
L 252.17571 296.725906 
L 255.557528 274.188383 
L 258.939347 314.070655 
L 262.321165 377.69812 
L 265.702983 394.857358 
L 269.084801 377.155513 
L 272.466619 368.463234 
L 275.848438 345.990157 
L 279.230256 284.056898 
L 282.612074 229.815207 
L 285.993892 207.776477 
L 289.37571 218.782422 
L 292.757528 245.596336 
L 296.139347 258.269784 
L 299.521165 285.619262 
L 302.902983 272.997822 
L 306.284801 239.095011 
L 309.666619 242.258017 
L 313.048438 316.079471 
L 316.430256 373.632371 
L 319.812074 361.733845 
L 323.193892 362.989255 
L 326.57571 400.55081 
L 329.957528 426.603799 
L 333.339347 424.066297 
L 336.721165 401.387413 
L 340.102983 413.887918 
L 343.484801 433.314454 
L 346.866619 425.001591 
L 350.248438 389.160836 
L 353.630256 325.437691 
L 357.012074 270.634319 
L 360.393892 292.655964 
L 363.77571 363.413608 
L 367.157528 360.132645 
L 370.539347 306.523254 
L 373.921165 289.4476 
L 377.302983 322.039764 
L 380.684801 346.561716 
L 384.066619 351.87061 
L 387.448438 349.57592 
L 390.830256 334.347788 
L 394.212074 312.108251 
L 397.593892 368.564147 
L 400.97571 440.965001 
L 404.357528 397.854064 
L 407.739347 274.050018 
L 411.121165 226.160936 
L 414.502983 284.54062 
L 417.884801 322.291187 
L 421.266619 314.163602 
L 424.648438 315.631629 
L 428.030256 315.978206 
L 431.412074 329.689408 
L 434.793892 314.390052 
L 438.17571 240.683428 
L 441.557528 182.024492 
L 444.939347 221.756287 
L 448.321165 270.996129 
L 451.702983 264.023218 
L 455.084801 230.63696 
L 458.466619 249.651001 
L 461.848438 305.076001 
L 465.230256 345.422528 
L 468.612074 366.343552 
L 471.993892 394.944463 
L 475.37571 422.414078 
L 478.757528 413.968514 
L 482.139347 379.001558 
L 485.521165 332.769656 
L 488.902983 305.700713 
L 492.284801 318.397984 
L 495.666619 332.441303 
L 499.048438 326.452988 
L 502.430256 321.97108 
L 505.812074 328.598914 
L 509.193892 305.652143 
L 512.57571 274.275216 
L 515.957528 289.611536 
L 519.339347 335.095068 
L 522.721165 362.479614 
L 526.102983 353.025347 
L 529.484801 342.26861 
L 532.866619 312.712036 
L 536.248438 246.786879 
L 539.630256 231.948811 
L 543.012074 292.00315 
L 546.393892 326.313294 
L 553.157528 307.730721 
L 556.539347 313.298852 
L 559.921165 307.452581 
L 563.302983 304.715195 
L 566.684801 327.882939 
L 570.066619 348.520621 
L 573.448437 344.120457 
L 576.830256 331.070249 
L 580.212074 324.778961 
L 583.593892 323.578073 
L 590.357528 323.483627 
L 603.884801 323.483597 
L 603.884801 323.483597 
" style="fill:none;stroke:#1f77b4;stroke-linecap:square;stroke-width:1.5;"/>
   </g>
   <g id="line2d_19">
    <path clip-path="url(#pd4ac5fd0ad)" d="M 96.612074 323.483597 
L 113.521165 323.467749 
L 116.902983 322.959885 
L 120.284801 317.150231 
L 123.666619 296.008773 
L 127.048438 285.514909 
L 130.430256 312.172983 
L 133.812074 293.034101 
L 137.193892 242.402978 
L 140.57571 243.703705 
L 143.957528 281.646891 
L 147.339347 287.58359 
L 150.721165 279.601446 
L 154.102983 263.197333 
L 157.484801 258.481786 
L 160.866619 265.989427 
L 164.248438 262.806704 
L 167.630256 226.005837 
L 171.012074 180.672192 
L 174.393892 212.912672 
L 177.77571 263.121583 
L 181.157528 265.874544 
L 184.539347 219.29968 
L 187.921165 193.633551 
L 191.302983 246.31322 
L 194.684801 274.611071 
L 198.066619 271.034214 
L 201.448438 295.044041 
L 204.830256 302.629587 
L 208.212074 291.56711 
L 211.593892 294.483605 
L 214.97571 242.987792 
L 218.357528 153.675757 
L 221.739347 134.908204 
L 225.121165 166.965775 
L 228.502983 163.581049 
L 231.884801 159.588164 
L 235.266619 207.719678 
L 238.648438 276.778698 
L 242.030256 328.766468 
L 245.412074 319.890407 
L 248.793892 278.494517 
L 252.17571 220.492303 
L 255.557528 187.324622 
L 258.939347 217.779225 
L 262.321165 289.908529 
L 265.702983 300.21055 
L 269.084801 275.132247 
L 272.466619 273.827444 
L 275.848438 260.29258 
L 279.230256 189.151707 
L 282.612074 126.407286 
L 285.993892 103.900438 
L 289.37571 108.629672 
L 292.757528 126.604661 
L 296.139347 146.237659 
L 299.521165 177.19443 
L 302.902983 151.514052 
L 306.284801 120.033665 
L 309.666619 118.133339 
L 313.048438 199.741093 
L 316.430256 241.622479 
L 319.812074 226.792312 
L 323.193892 233.033188 
L 326.57571 282.571027 
L 329.957528 313.735783 
L 333.339347 298.827815 
L 336.721165 269.67474 
L 340.102983 299.389004 
L 343.484801 322.828459 
L 346.866619 298.913455 
L 350.248438 259.986204 
L 353.630256 194.691689 
L 357.012074 142.384679 
L 360.393892 166.012637 
L 363.77571 241.151265 
L 367.157528 238.017584 
L 370.539347 197.622353 
L 373.921165 195.016912 
L 377.302983 227.474537 
L 380.684801 235.284288 
L 384.066619 224.920491 
L 387.448438 231.843459 
L 390.830256 224.517188 
L 394.212074 203.48326 
L 397.593892 251.820371 
L 400.97571 330.411877 
L 404.357528 291.17121 
L 407.739347 168.675264 
L 411.121165 127.148396 
L 414.502983 193.944956 
L 417.884801 221.385783 
L 421.266619 195.714124 
L 424.648438 196.032614 
L 428.030256 200.33653 
L 431.412074 231.040761 
L 434.793892 226.634979 
L 438.17571 129.542965 
L 441.557528 47.518125 
L 444.939347 111.262489 
L 448.321165 170.085132 
L 451.702983 156.89627 
L 455.084801 138.228431 
L 458.466619 170.874639 
L 461.848438 216.150144 
L 465.230256 246.25985 
L 468.612074 265.939521 
L 471.993892 295.639878 
L 475.37571 323.536887 
L 478.757528 329.025362 
L 482.139347 299.649302 
L 485.521165 251.41407 
L 488.902983 206.644395 
L 492.284801 216.028393 
L 495.666619 233.39831 
L 499.048438 235.512985 
L 502.430256 243.020756 
L 505.812074 274.466186 
L 509.193892 259.901745 
L 512.57571 198.727282 
L 515.957528 204.312405 
L 519.339347 257.21194 
L 522.721165 292.410642 
L 526.102983 290.319381 
L 529.484801 292.857844 
L 532.866619 255.36501 
L 536.248438 180.560824 
L 539.630256 163.783986 
L 543.012074 220.690523 
L 546.393892 252.160107 
L 549.77571 251.445481 
L 553.157528 237.034157 
L 556.539347 255.843863 
L 559.921165 255.954084 
L 563.302983 245.645512 
L 566.684801 263.369031 
L 570.066619 287.52968 
L 573.448437 291.5431 
L 576.830256 303.330594 
L 580.212074 318.713869 
L 583.593892 323.081503 
L 586.97571 323.471328 
L 603.884801 323.483597 
L 603.884801 323.483597 
" style="fill:none;stroke:#ff7f0e;stroke-linecap:square;stroke-width:1.5;"/>
   </g>
   <g id="line2d_20">
    <path clip-path="url(#pd4ac5fd0ad)" d="M 96.612074 323.483597 
L 113.521165 323.502353 
L 116.902983 324.105874 
L 120.284801 331.119475 
L 123.666619 358.934433 
L 127.048438 394.35807 
L 130.430256 423.518682 
L 133.812074 434.770705 
L 137.193892 379.515229 
L 140.57571 383.417157 
L 143.957528 422.062384 
L 147.339347 444.703271 
L 150.721165 420.57273 
L 154.102983 415.12225 
L 157.484801 423.718988 
L 160.866619 419.255176 
L 164.248438 418.320907 
L 171.012074 331.809844 
L 174.393892 350.298102 
L 177.77571 409.261105 
L 181.157528 418.224589 
L 184.539347 374.637758 
L 187.921165 341.861203 
L 191.302983 346.109621 
L 194.684801 374.809338 
L 198.066619 425.033616 
L 201.448438 457.558623 
L 204.830256 437.547781 
L 208.212074 443.339492 
L 211.593892 450.19572 
L 214.97571 405.505544 
L 218.357528 343.961458 
L 221.739347 337.804445 
L 225.121165 339.970478 
L 228.502983 338.307888 
L 231.884801 350.961923 
L 235.266619 376.384 
L 238.648438 428.967296 
L 242.030256 456.393653 
L 245.412074 459.582824 
L 248.793892 421.888176 
L 252.17571 372.959509 
L 255.557528 361.052144 
L 258.939347 410.362086 
L 262.321165 465.48771 
L 265.702983 489.504166 
L 269.084801 479.178779 
L 272.466619 463.099025 
L 275.848438 431.687733 
L 279.230256 378.962088 
L 282.612074 333.223127 
L 285.993892 311.652515 
L 289.37571 328.935172 
L 292.757528 364.588011 
L 296.139347 370.30191 
L 299.521165 394.044093 
L 302.902983 394.481592 
L 306.284801 358.156357 
L 309.666619 366.382695 
L 313.048438 432.417849 
L 316.430256 505.642262 
L 319.812074 496.675378 
L 323.193892 492.945322 
L 326.57571 518.530593 
L 329.957528 539.471815 
L 333.339347 549.304779 
L 336.721165 533.100087 
L 340.102983 528.386832 
L 343.484801 543.800448 
L 346.866619 551.089727 
L 350.248438 518.335468 
L 353.630256 456.183693 
L 357.012074 398.883959 
L 360.393892 419.299291 
L 363.77571 485.67595 
L 367.157528 482.247706 
L 370.539347 415.424156 
L 373.921165 383.878287 
L 377.302983 416.604991 
L 380.684801 457.839143 
L 384.066619 478.82073 
L 387.448438 467.308382 
L 394.212074 420.733243 
L 400.97571 551.518125 
L 404.357528 504.536917 
L 407.739347 379.424772 
L 411.121165 325.173476 
L 414.502983 375.136283 
L 417.884801 423.196591 
L 421.266619 432.613079 
L 424.648438 435.230643 
L 428.030256 431.619882 
L 431.412074 428.338055 
L 434.793892 402.145125 
L 438.17571 351.823891 
L 441.557528 316.530858 
L 444.939347 332.250084 
L 448.321165 371.907126 
L 451.702983 371.150166 
L 455.084801 323.04549 
L 458.466619 328.427363 
L 461.848438 394.001858 
L 465.230256 444.585206 
L 468.612074 466.747583 
L 475.37571 521.291269 
L 478.757528 498.911666 
L 482.139347 458.353814 
L 485.521165 414.125242 
L 488.902983 404.75703 
L 492.284801 420.767575 
L 495.666619 431.484295 
L 499.048438 417.39299 
L 502.430256 400.921405 
L 505.812074 382.731642 
L 509.193892 351.40254 
L 512.57571 349.82315 
L 515.957528 374.910667 
L 519.339347 412.978197 
L 522.721165 432.548586 
L 526.102983 415.731312 
L 529.484801 391.679377 
L 532.866619 370.059063 
L 536.248438 313.012935 
L 539.630256 300.113637 
L 543.012074 363.315777 
L 546.393892 400.466481 
L 549.77571 382.52166 
L 553.157528 378.427285 
L 556.539347 370.753842 
L 559.921165 358.951078 
L 563.302983 363.784878 
L 566.684801 392.396847 
L 570.066619 409.511562 
L 573.448437 396.697815 
L 576.830256 358.809904 
L 580.212074 330.844054 
L 583.593892 324.074644 
L 586.97571 323.50131 
L 603.884801 323.483597 
L 603.884801 323.483597 
" style="fill:none;stroke:#2ca02c;stroke-linecap:square;stroke-width:1.5;"/>
   </g>
   <g id="line2d_21"/>
   <g id="line2d_22"/>
   <g id="line2d_23"/>
   <g id="line2d_24"/>
   <g id="patch_3">
    <path d="M 71.248438 576.718125 
L 71.248438 22.318125 
" style="fill:none;stroke:#000000;stroke-linecap:square;stroke-linejoin:miter;stroke-width:0.8;"/>
   </g>
   <g id="patch_4">
    <path d="M 629.248438 576.718125 
L 629.248438 22.318125 
" style="fill:none;stroke:#000000;stroke-linecap:square;stroke-linejoin:miter;stroke-width:0.8;"/>
   </g>
   <g id="patch_5">
    <path d="M 71.248438 576.718125 
L 629.248438 576.718125 
" style="fill:none;stroke:#000000;stroke-linecap:square;stroke-linejoin:miter;stroke-width:0.8;"/>
   </g>
   <g id="patch_6">
    <path d="M 71.248438 22.318125 
L 629.248438 22.318125 
" style="fill:none;stroke:#000000;stroke-linecap:square;stroke-linejoin:miter;stroke-width:0.8;"/>
   </g>
   <g id="text_20">
    <!-- Changed enrichment coefficient of motif MA0657.1 KLF13 as a function of motif position in sequence -->
    <defs>
     <path d="M 54.890625 33.015625 
L 54.890625 0 
L 45.90625 0 
L 45.90625 32.71875 
Q 45.90625 40.484375 42.875 44.328125 
Q 39.84375 48.1875 33.796875 48.1875 
Q 26.515625 48.1875 22.3125 43.546875 
Q 18.109375 38.921875 18.109375 30.90625 
L 18.109375 0 
L 9.078125 0 
L 9.078125 75.984375 
L 18.109375 75.984375 
L 18.109375 46.1875 
Q 21.34375 51.125 25.703125 53.5625 
Q 30.078125 56 35.796875 56 
Q 45.21875 56 50.046875 50.171875 
Q 54.890625 44.34375 54.890625 33.015625 
z
" id="DejaVuSans-104"/>
     <path d="M 34.28125 27.484375 
Q 23.390625 27.484375 19.1875 25 
Q 14.984375 22.515625 14.984375 16.5 
Q 14.984375 11.71875 18.140625 8.90625 
Q 21.296875 6.109375 26.703125 6.109375 
Q 34.1875 6.109375 38.703125 11.40625 
Q 43.21875 16.703125 43.21875 25.484375 
L 43.21875 27.484375 
z
M 52.203125 31.203125 
L 52.203125 0 
L 43.21875 0 
L 43.21875 8.296875 
Q 40.140625 3.328125 35.546875 0.953125 
Q 30.953125 -1.421875 24.3125 -1.421875 
Q 15.921875 -1.421875 10.953125 3.296875 
Q 6 8.015625 6 15.921875 
Q 6 25.140625 12.171875 29.828125 
Q 18.359375 34.515625 30.609375 34.515625 
L 43.21875 34.515625 
L 43.21875 35.40625 
Q 43.21875 41.609375 39.140625 45 
Q 35.0625 48.390625 27.6875 48.390625 
Q 23 48.390625 18.546875 47.265625 
Q 14.109375 46.140625 10.015625 43.890625 
L 10.015625 52.203125 
Q 14.9375 54.109375 19.578125 55.046875 
Q 24.21875 56 28.609375 56 
Q 40.484375 56 46.34375 49.84375 
Q 52.203125 43.703125 52.203125 31.203125 
z
" id="DejaVuSans-97"/>
     <path d="M 45.40625 27.984375 
Q 45.40625 37.75 41.375 43.109375 
Q 37.359375 48.484375 30.078125 48.484375 
Q 22.859375 48.484375 18.828125 43.109375 
Q 14.796875 37.75 14.796875 27.984375 
Q 14.796875 18.265625 18.828125 12.890625 
Q 22.859375 7.515625 30.078125 7.515625 
Q 37.359375 7.515625 41.375 12.890625 
Q 45.40625 18.265625 45.40625 27.984375 
z
M 54.390625 6.78125 
Q 54.390625 -7.171875 48.1875 -13.984375 
Q 42 -20.796875 29.203125 -20.796875 
Q 24.46875 -20.796875 20.265625 -20.09375 
Q 16.0625 -19.390625 12.109375 -17.921875 
L 12.109375 -9.1875 
Q 16.0625 -11.328125 19.921875 -12.34375 
Q 23.78125 -13.375 27.78125 -13.375 
Q 36.625 -13.375 41.015625 -8.765625 
Q 45.40625 -4.15625 45.40625 5.171875 
L 45.40625 9.625 
Q 42.625 4.78125 38.28125 2.390625 
Q 33.9375 0 27.875 0 
Q 17.828125 0 11.671875 7.65625 
Q 5.515625 15.328125 5.515625 27.984375 
Q 5.515625 40.671875 11.671875 48.328125 
Q 17.828125 56 27.875 56 
Q 33.9375 56 38.28125 53.609375 
Q 42.625 51.21875 45.40625 46.390625 
L 45.40625 54.6875 
L 54.390625 54.6875 
z
" id="DejaVuSans-103"/>
     <path d="M 45.40625 46.390625 
L 45.40625 75.984375 
L 54.390625 75.984375 
L 54.390625 0 
L 45.40625 0 
L 45.40625 8.203125 
Q 42.578125 3.328125 38.25 0.953125 
Q 33.9375 -1.421875 27.875 -1.421875 
Q 17.96875 -1.421875 11.734375 6.484375 
Q 5.515625 14.40625 5.515625 27.296875 
Q 5.515625 40.1875 11.734375 48.09375 
Q 17.96875 56 27.875 56 
Q 33.9375 56 38.25 53.625 
Q 42.578125 51.265625 45.40625 46.390625 
z
M 14.796875 27.296875 
Q 14.796875 17.390625 18.875 11.75 
Q 22.953125 6.109375 30.078125 6.109375 
Q 37.203125 6.109375 41.296875 11.75 
Q 45.40625 17.390625 45.40625 27.296875 
Q 45.40625 37.203125 41.296875 42.84375 
Q 37.203125 48.484375 30.078125 48.484375 
Q 22.953125 48.484375 18.875 42.84375 
Q 14.796875 37.203125 14.796875 27.296875 
z
" id="DejaVuSans-100"/>
     <path d="M 41.109375 46.296875 
Q 39.59375 47.171875 37.8125 47.578125 
Q 36.03125 48 33.890625 48 
Q 26.265625 48 22.1875 43.046875 
Q 18.109375 38.09375 18.109375 28.8125 
L 18.109375 0 
L 9.078125 0 
L 9.078125 54.6875 
L 18.109375 54.6875 
L 18.109375 46.1875 
Q 20.953125 51.171875 25.484375 53.578125 
Q 30.03125 56 36.53125 56 
Q 37.453125 56 38.578125 55.875 
Q 39.703125 55.765625 41.0625 55.515625 
z
" id="DejaVuSans-114"/>
     <path d="M 52 44.1875 
Q 55.375 50.25 60.0625 53.125 
Q 64.75 56 71.09375 56 
Q 79.640625 56 84.28125 50.015625 
Q 88.921875 44.046875 88.921875 33.015625 
L 88.921875 0 
L 79.890625 0 
L 79.890625 32.71875 
Q 79.890625 40.578125 77.09375 44.375 
Q 74.3125 48.1875 68.609375 48.1875 
Q 61.625 48.1875 57.5625 43.546875 
Q 53.515625 38.921875 53.515625 30.90625 
L 53.515625 0 
L 44.484375 0 
L 44.484375 32.71875 
Q 44.484375 40.625 41.703125 44.40625 
Q 38.921875 48.1875 33.109375 48.1875 
Q 26.21875 48.1875 22.15625 43.53125 
Q 18.109375 38.875 18.109375 30.90625 
L 18.109375 0 
L 9.078125 0 
L 9.078125 54.6875 
L 18.109375 54.6875 
L 18.109375 46.1875 
Q 21.1875 51.21875 25.484375 53.609375 
Q 29.78125 56 35.6875 56 
Q 41.65625 56 45.828125 52.96875 
Q 50 49.953125 52 44.1875 
z
" id="DejaVuSans-109"/>
     <path d="M 34.1875 63.1875 
L 20.796875 26.90625 
L 47.609375 26.90625 
z
M 28.609375 72.90625 
L 39.796875 72.90625 
L 67.578125 0 
L 57.328125 0 
L 50.6875 18.703125 
L 17.828125 18.703125 
L 11.1875 0 
L 0.78125 0 
z
" id="DejaVuSans-65"/>
     <path d="M 9.8125 72.90625 
L 19.671875 72.90625 
L 19.671875 42.09375 
L 52.390625 72.90625 
L 65.09375 72.90625 
L 28.90625 38.921875 
L 67.671875 0 
L 54.6875 0 
L 19.671875 35.109375 
L 19.671875 0 
L 9.8125 0 
z
" id="DejaVuSans-75"/>
     <path d="M 9.8125 72.90625 
L 19.671875 72.90625 
L 19.671875 8.296875 
L 55.171875 8.296875 
L 55.171875 0 
L 9.8125 0 
z
" id="DejaVuSans-76"/>
     <path d="M 9.8125 72.90625 
L 51.703125 72.90625 
L 51.703125 64.59375 
L 19.671875 64.59375 
L 19.671875 43.109375 
L 48.578125 43.109375 
L 48.578125 34.8125 
L 19.671875 34.8125 
L 19.671875 0 
L 9.8125 0 
z
" id="DejaVuSans-70"/>
     <path d="M 40.578125 39.3125 
Q 47.65625 37.796875 51.625 33 
Q 55.609375 28.21875 55.609375 21.1875 
Q 55.609375 10.40625 48.1875 4.484375 
Q 40.765625 -1.421875 27.09375 -1.421875 
Q 22.515625 -1.421875 17.65625 -0.515625 
Q 12.796875 0.390625 7.625 2.203125 
L 7.625 11.71875 
Q 11.71875 9.328125 16.59375 8.109375 
Q 21.484375 6.890625 26.8125 6.890625 
Q 36.078125 6.890625 40.9375 10.546875 
Q 45.796875 14.203125 45.796875 21.1875 
Q 45.796875 27.640625 41.28125 31.265625 
Q 36.765625 34.90625 28.71875 34.90625 
L 20.21875 34.90625 
L 20.21875 43.015625 
L 29.109375 43.015625 
Q 36.375 43.015625 40.234375 45.921875 
Q 44.09375 48.828125 44.09375 54.296875 
Q 44.09375 59.90625 40.109375 62.90625 
Q 36.140625 65.921875 28.71875 65.921875 
Q 24.65625 65.921875 20.015625 65.03125 
Q 15.375 64.15625 9.8125 62.3125 
L 9.8125 71.09375 
Q 15.4375 72.65625 20.34375 73.4375 
Q 25.25 74.21875 29.59375 74.21875 
Q 40.828125 74.21875 47.359375 69.109375 
Q 53.90625 64.015625 53.90625 55.328125 
Q 53.90625 49.265625 50.4375 45.09375 
Q 46.96875 40.921875 40.578125 39.3125 
z
" id="DejaVuSans-51"/>
     <path d="M 8.5 21.578125 
L 8.5 54.6875 
L 17.484375 54.6875 
L 17.484375 21.921875 
Q 17.484375 14.15625 20.5 10.265625 
Q 23.53125 6.390625 29.59375 6.390625 
Q 36.859375 6.390625 41.078125 11.03125 
Q 45.3125 15.671875 45.3125 23.6875 
L 45.3125 54.6875 
L 54.296875 54.6875 
L 54.296875 0 
L 45.3125 0 
L 45.3125 8.40625 
Q 42.046875 3.421875 37.71875 1 
Q 33.40625 -1.421875 27.6875 -1.421875 
Q 18.265625 -1.421875 13.375 4.4375 
Q 8.5 10.296875 8.5 21.578125 
z
M 31.109375 56 
z
" id="DejaVuSans-117"/>
     <path d="M 18.109375 8.203125 
L 18.109375 -20.796875 
L 9.078125 -20.796875 
L 9.078125 54.6875 
L 18.109375 54.6875 
L 18.109375 46.390625 
Q 20.953125 51.265625 25.265625 53.625 
Q 29.59375 56 35.59375 56 
Q 45.5625 56 51.78125 48.09375 
Q 58.015625 40.1875 58.015625 27.296875 
Q 58.015625 14.40625 51.78125 6.484375 
Q 45.5625 -1.421875 35.59375 -1.421875 
Q 29.59375 -1.421875 25.265625 0.953125 
Q 20.953125 3.328125 18.109375 8.203125 
z
M 48.6875 27.296875 
Q 48.6875 37.203125 44.609375 42.84375 
Q 40.53125 48.484375 33.40625 48.484375 
Q 26.265625 48.484375 22.1875 42.84375 
Q 18.109375 37.203125 18.109375 27.296875 
Q 18.109375 17.390625 22.1875 11.75 
Q 26.265625 6.109375 33.40625 6.109375 
Q 40.53125 6.109375 44.609375 11.75 
Q 48.6875 17.390625 48.6875 27.296875 
z
" id="DejaVuSans-112"/>
     <path d="M 14.796875 27.296875 
Q 14.796875 17.390625 18.875 11.75 
Q 22.953125 6.109375 30.078125 6.109375 
Q 37.203125 6.109375 41.296875 11.75 
Q 45.40625 17.390625 45.40625 27.296875 
Q 45.40625 37.203125 41.296875 42.84375 
Q 37.203125 48.484375 30.078125 48.484375 
Q 22.953125 48.484375 18.875 42.84375 
Q 14.796875 37.203125 14.796875 27.296875 
z
M 45.40625 8.203125 
Q 42.578125 3.328125 38.25 0.953125 
Q 33.9375 -1.421875 27.875 -1.421875 
Q 17.96875 -1.421875 11.734375 6.484375 
Q 5.515625 14.40625 5.515625 27.296875 
Q 5.515625 40.1875 11.734375 48.09375 
Q 17.96875 56 27.875 56 
Q 33.9375 56 38.25 53.625 
Q 42.578125 51.265625 45.40625 46.390625 
L 45.40625 54.6875 
L 54.390625 54.6875 
L 54.390625 -20.796875 
L 45.40625 -20.796875 
z
" id="DejaVuSans-113"/>
    </defs>
    <g transform="translate(46.346563 16.318125)scale(0.12 -0.12)">
     <use xlink:href="#DejaVuSans-67"/>
     <use x="69.824219" xlink:href="#DejaVuSans-104"/>
     <use x="133.203125" xlink:href="#DejaVuSans-97"/>
     <use x="194.482422" xlink:href="#DejaVuSans-110"/>
     <use x="257.861328" xlink:href="#DejaVuSans-103"/>
     <use x="321.337891" xlink:href="#DejaVuSans-101"/>
     <use x="382.861328" xlink:href="#DejaVuSans-100"/>
     <use x="446.337891" xlink:href="#DejaVuSans-32"/>
     <use x="478.125" xlink:href="#DejaVuSans-101"/>
     <use x="539.648438" xlink:href="#DejaVuSans-110"/>
     <use x="603.027344" xlink:href="#DejaVuSans-114"/>
     <use x="644.140625" xlink:href="#DejaVuSans-105"/>
     <use x="671.923828" xlink:href="#DejaVuSans-99"/>
     <use x="726.904297" xlink:href="#DejaVuSans-104"/>
     <use x="790.283203" xlink:href="#DejaVuSans-109"/>
     <use x="887.695312" xlink:href="#DejaVuSans-101"/>
     <use x="949.21875" xlink:href="#DejaVuSans-110"/>
     <use x="1012.597656" xlink:href="#DejaVuSans-116"/>
     <use x="1051.806641" xlink:href="#DejaVuSans-32"/>
     <use x="1083.59375" xlink:href="#DejaVuSans-99"/>
     <use x="1138.574219" xlink:href="#DejaVuSans-111"/>
     <use x="1199.755859" xlink:href="#DejaVuSans-101"/>
     <use x="1261.279297" xlink:href="#DejaVuSans-102"/>
     <use x="1296.484375" xlink:href="#DejaVuSans-102"/>
     <use x="1331.689453" xlink:href="#DejaVuSans-105"/>
     <use x="1359.472656" xlink:href="#DejaVuSans-99"/>
     <use x="1414.453125" xlink:href="#DejaVuSans-105"/>
     <use x="1442.236328" xlink:href="#DejaVuSans-101"/>
     <use x="1503.759766" xlink:href="#DejaVuSans-110"/>
     <use x="1567.138672" xlink:href="#DejaVuSans-116"/>
     <use x="1606.347656" xlink:href="#DejaVuSans-32"/>
     <use x="1638.134766" xlink:href="#DejaVuSans-111"/>
     <use x="1699.316406" xlink:href="#DejaVuSans-102"/>
     <use x="1734.521484" xlink:href="#DejaVuSans-32"/>
     <use x="1766.308594" xlink:href="#DejaVuSans-109"/>
     <use x="1863.720703" xlink:href="#DejaVuSans-111"/>
     <use x="1924.902344" xlink:href="#DejaVuSans-116"/>
     <use x="1964.111328" xlink:href="#DejaVuSans-105"/>
     <use x="1991.894531" xlink:href="#DejaVuSans-102"/>
     <use x="2027.099609" xlink:href="#DejaVuSans-32"/>
     <use x="2058.886719" xlink:href="#DejaVuSans-77"/>
     <use x="2145.166016" xlink:href="#DejaVuSans-65"/>
     <use x="2213.574219" xlink:href="#DejaVuSans-48"/>
     <use x="2277.197266" xlink:href="#DejaVuSans-54"/>
     <use x="2340.820312" xlink:href="#DejaVuSans-53"/>
     <use x="2404.443359" xlink:href="#DejaVuSans-55"/>
     <use x="2468.066406" xlink:href="#DejaVuSans-46"/>
     <use x="2499.853516" xlink:href="#DejaVuSans-49"/>
     <use x="2563.476562" xlink:href="#DejaVuSans-32"/>
     <use x="2595.263672" xlink:href="#DejaVuSans-75"/>
     <use x="2660.839844" xlink:href="#DejaVuSans-76"/>
     <use x="2716.552734" xlink:href="#DejaVuSans-70"/>
     <use x="2774.072266" xlink:href="#DejaVuSans-49"/>
     <use x="2837.695312" xlink:href="#DejaVuSans-51"/>
     <use x="2901.318359" xlink:href="#DejaVuSans-32"/>
     <use x="2933.105469" xlink:href="#DejaVuSans-97"/>
     <use x="2994.384766" xlink:href="#DejaVuSans-115"/>
     <use x="3046.484375" xlink:href="#DejaVuSans-32"/>
     <use x="3078.271484" xlink:href="#DejaVuSans-97"/>
     <use x="3139.550781" xlink:href="#DejaVuSans-32"/>
     <use x="3171.337891" xlink:href="#DejaVuSans-102"/>
     <use x="3206.542969" xlink:href="#DejaVuSans-117"/>
     <use x="3269.921875" xlink:href="#DejaVuSans-110"/>
     <use x="3333.300781" xlink:href="#DejaVuSans-99"/>
     <use x="3388.28125" xlink:href="#DejaVuSans-116"/>
     <use x="3427.490234" xlink:href="#DejaVuSans-105"/>
     <use x="3455.273438" xlink:href="#DejaVuSans-111"/>
     <use x="3516.455078" xlink:href="#DejaVuSans-110"/>
     <use x="3579.833984" xlink:href="#DejaVuSans-32"/>
     <use x="3611.621094" xlink:href="#DejaVuSans-111"/>
     <use x="3672.802734" xlink:href="#DejaVuSans-102"/>
     <use x="3708.007812" xlink:href="#DejaVuSans-32"/>
     <use x="3739.794922" xlink:href="#DejaVuSans-109"/>
     <use x="3837.207031" xlink:href="#DejaVuSans-111"/>
     <use x="3898.388672" xlink:href="#DejaVuSans-116"/>
     <use x="3937.597656" xlink:href="#DejaVuSans-105"/>
     <use x="3965.380859" xlink:href="#DejaVuSans-102"/>
     <use x="4000.585938" xlink:href="#DejaVuSans-32"/>
     <use x="4032.373047" xlink:href="#DejaVuSans-112"/>
     <use x="4095.849609" xlink:href="#DejaVuSans-111"/>
     <use x="4157.03125" xlink:href="#DejaVuSans-115"/>
     <use x="4209.130859" xlink:href="#DejaVuSans-105"/>
     <use x="4236.914062" xlink:href="#DejaVuSans-116"/>
     <use x="4276.123047" xlink:href="#DejaVuSans-105"/>
     <use x="4303.90625" xlink:href="#DejaVuSans-111"/>
     <use x="4365.087891" xlink:href="#DejaVuSans-110"/>
     <use x="4428.466797" xlink:href="#DejaVuSans-32"/>
     <use x="4460.253906" xlink:href="#DejaVuSans-105"/>
     <use x="4488.037109" xlink:href="#DejaVuSans-110"/>
     <use x="4551.416016" xlink:href="#DejaVuSans-32"/>
     <use x="4583.203125" xlink:href="#DejaVuSans-115"/>
     <use x="4635.302734" xlink:href="#DejaVuSans-101"/>
     <use x="4696.826172" xlink:href="#DejaVuSans-113"/>
     <use x="4760.302734" xlink:href="#DejaVuSans-117"/>
     <use x="4823.681641" xlink:href="#DejaVuSans-101"/>
     <use x="4885.205078" xlink:href="#DejaVuSans-110"/>
     <use x="4948.583984" xlink:href="#DejaVuSans-99"/>
     <use x="5003.564453" xlink:href="#DejaVuSans-101"/>
    </g>
   </g>
   <g id="legend_1">
    <g id="patch_7">
     <path d="M 78.248438 89.030625 
L 275.732813 89.030625 
Q 277.732813 89.030625 277.732813 87.030625 
L 277.732813 29.318125 
Q 277.732813 27.318125 275.732813 27.318125 
L 78.248438 27.318125 
Q 76.248438 27.318125 76.248438 29.318125 
L 76.248438 87.030625 
Q 76.248438 89.030625 78.248438 89.030625 
z
" style="fill:#ffffff;opacity:0.8;stroke:#cccccc;stroke-linejoin:miter;"/>
    </g>
    <g id="line2d_25">
     <path d="M 80.248438 35.416562 
L 100.248438 35.416562 
" style="fill:none;"/>
    </g>
    <g id="line2d_26"/>
    <g id="text_21">
     <!-- Measurement -->
     <g transform="translate(108.248438 38.916562)scale(0.1 -0.1)">
      <use xlink:href="#DejaVuSans-77"/>
      <use x="86.279297" xlink:href="#DejaVuSans-101"/>
      <use x="147.802734" xlink:href="#DejaVuSans-97"/>
      <use x="209.082031" xlink:href="#DejaVuSans-115"/>
      <use x="261.181641" xlink:href="#DejaVuSans-117"/>
      <use x="324.560547" xlink:href="#DejaVuSans-114"/>
      <use x="363.423828" xlink:href="#DejaVuSans-101"/>
      <use x="424.947266" xlink:href="#DejaVuSans-109"/>
      <use x="522.359375" xlink:href="#DejaVuSans-101"/>
      <use x="583.882812" xlink:href="#DejaVuSans-110"/>
      <use x="647.261719" xlink:href="#DejaVuSans-116"/>
     </g>
    </g>
    <g id="line2d_27">
     <path d="M 80.248438 50.094687 
L 100.248438 50.094687 
" style="fill:none;stroke:#1f77b4;stroke-linecap:square;stroke-width:1.5;"/>
    </g>
    <g id="line2d_28"/>
    <g id="text_22">
     <!-- Positional Enrichment Coefficient -->
     <defs>
      <path d="M 9.421875 75.984375 
L 18.40625 75.984375 
L 18.40625 0 
L 9.421875 0 
z
" id="DejaVuSans-108"/>
      <path d="M 9.8125 72.90625 
L 55.90625 72.90625 
L 55.90625 64.59375 
L 19.671875 64.59375 
L 19.671875 43.015625 
L 54.390625 43.015625 
L 54.390625 34.71875 
L 19.671875 34.71875 
L 19.671875 8.296875 
L 56.78125 8.296875 
L 56.78125 0 
L 9.8125 0 
z
" id="DejaVuSans-69"/>
     </defs>
     <g transform="translate(108.248438 53.594687)scale(0.1 -0.1)">
      <use xlink:href="#DejaVuSans-80"/>
      <use x="56.677734" xlink:href="#DejaVuSans-111"/>
      <use x="117.859375" xlink:href="#DejaVuSans-115"/>
      <use x="169.958984" xlink:href="#DejaVuSans-105"/>
      <use x="197.742188" xlink:href="#DejaVuSans-116"/>
      <use x="236.951172" xlink:href="#DejaVuSans-105"/>
      <use x="264.734375" xlink:href="#DejaVuSans-111"/>
      <use x="325.916016" xlink:href="#DejaVuSans-110"/>
      <use x="389.294922" xlink:href="#DejaVuSans-97"/>
      <use x="450.574219" xlink:href="#DejaVuSans-108"/>
      <use x="478.357422" xlink:href="#DejaVuSans-32"/>
      <use x="510.144531" xlink:href="#DejaVuSans-69"/>
      <use x="573.328125" xlink:href="#DejaVuSans-110"/>
      <use x="636.707031" xlink:href="#DejaVuSans-114"/>
      <use x="677.820312" xlink:href="#DejaVuSans-105"/>
      <use x="705.603516" xlink:href="#DejaVuSans-99"/>
      <use x="760.583984" xlink:href="#DejaVuSans-104"/>
      <use x="823.962891" xlink:href="#DejaVuSans-109"/>
      <use x="921.375" xlink:href="#DejaVuSans-101"/>
      <use x="982.898438" xlink:href="#DejaVuSans-110"/>
      <use x="1046.277344" xlink:href="#DejaVuSans-116"/>
      <use x="1085.486328" xlink:href="#DejaVuSans-32"/>
      <use x="1117.273438" xlink:href="#DejaVuSans-67"/>
      <use x="1187.097656" xlink:href="#DejaVuSans-111"/>
      <use x="1248.279297" xlink:href="#DejaVuSans-101"/>
      <use x="1309.802734" xlink:href="#DejaVuSans-102"/>
      <use x="1345.007812" xlink:href="#DejaVuSans-102"/>
      <use x="1380.212891" xlink:href="#DejaVuSans-105"/>
      <use x="1407.996094" xlink:href="#DejaVuSans-99"/>
      <use x="1462.976562" xlink:href="#DejaVuSans-105"/>
      <use x="1490.759766" xlink:href="#DejaVuSans-101"/>
      <use x="1552.283203" xlink:href="#DejaVuSans-110"/>
      <use x="1615.662109" xlink:href="#DejaVuSans-116"/>
     </g>
    </g>
    <g id="line2d_29">
     <path d="M 80.248438 64.772812 
L 100.248438 64.772812 
" style="fill:none;stroke:#ff7f0e;stroke-linecap:square;stroke-width:1.5;"/>
    </g>
    <g id="line2d_30"/>
    <g id="text_23">
     <!-- 95% CI Upper -->
     <defs>
      <path d="M 10.984375 1.515625 
L 10.984375 10.5 
Q 14.703125 8.734375 18.5 7.8125 
Q 22.3125 6.890625 25.984375 6.890625 
Q 35.75 6.890625 40.890625 13.453125 
Q 46.046875 20.015625 46.78125 33.40625 
Q 43.953125 29.203125 39.59375 26.953125 
Q 35.25 24.703125 29.984375 24.703125 
Q 19.046875 24.703125 12.671875 31.3125 
Q 6.296875 37.9375 6.296875 49.421875 
Q 6.296875 60.640625 12.9375 67.421875 
Q 19.578125 74.21875 30.609375 74.21875 
Q 43.265625 74.21875 49.921875 64.515625 
Q 56.59375 54.828125 56.59375 36.375 
Q 56.59375 19.140625 48.40625 8.859375 
Q 40.234375 -1.421875 26.421875 -1.421875 
Q 22.703125 -1.421875 18.890625 -0.6875 
Q 15.09375 0.046875 10.984375 1.515625 
z
M 30.609375 32.421875 
Q 37.25 32.421875 41.125 36.953125 
Q 45.015625 41.5 45.015625 49.421875 
Q 45.015625 57.28125 41.125 61.84375 
Q 37.25 66.40625 30.609375 66.40625 
Q 23.96875 66.40625 20.09375 61.84375 
Q 16.21875 57.28125 16.21875 49.421875 
Q 16.21875 41.5 20.09375 36.953125 
Q 23.96875 32.421875 30.609375 32.421875 
z
" id="DejaVuSans-57"/>
      <path d="M 72.703125 32.078125 
Q 68.453125 32.078125 66.03125 28.46875 
Q 63.625 24.859375 63.625 18.40625 
Q 63.625 12.0625 66.03125 8.421875 
Q 68.453125 4.78125 72.703125 4.78125 
Q 76.859375 4.78125 79.265625 8.421875 
Q 81.6875 12.0625 81.6875 18.40625 
Q 81.6875 24.8125 79.265625 28.4375 
Q 76.859375 32.078125 72.703125 32.078125 
z
M 72.703125 38.28125 
Q 80.421875 38.28125 84.953125 32.90625 
Q 89.5 27.546875 89.5 18.40625 
Q 89.5 9.28125 84.9375 3.921875 
Q 80.375 -1.421875 72.703125 -1.421875 
Q 64.890625 -1.421875 60.34375 3.921875 
Q 55.8125 9.28125 55.8125 18.40625 
Q 55.8125 27.59375 60.375 32.9375 
Q 64.9375 38.28125 72.703125 38.28125 
z
M 22.3125 68.015625 
Q 18.109375 68.015625 15.6875 64.375 
Q 13.28125 60.75 13.28125 54.390625 
Q 13.28125 47.953125 15.671875 44.328125 
Q 18.0625 40.71875 22.3125 40.71875 
Q 26.5625 40.71875 28.96875 44.328125 
Q 31.390625 47.953125 31.390625 54.390625 
Q 31.390625 60.6875 28.953125 64.34375 
Q 26.515625 68.015625 22.3125 68.015625 
z
M 66.40625 74.21875 
L 74.21875 74.21875 
L 28.609375 -1.421875 
L 20.796875 -1.421875 
z
M 22.3125 74.21875 
Q 30.03125 74.21875 34.609375 68.875 
Q 39.203125 63.53125 39.203125 54.390625 
Q 39.203125 45.171875 34.640625 39.84375 
Q 30.078125 34.515625 22.3125 34.515625 
Q 14.546875 34.515625 10.03125 39.859375 
Q 5.515625 45.21875 5.515625 54.390625 
Q 5.515625 63.484375 10.046875 68.84375 
Q 14.59375 74.21875 22.3125 74.21875 
z
" id="DejaVuSans-37"/>
      <path d="M 9.8125 72.90625 
L 19.671875 72.90625 
L 19.671875 0 
L 9.8125 0 
z
" id="DejaVuSans-73"/>
      <path d="M 8.6875 72.90625 
L 18.609375 72.90625 
L 18.609375 28.609375 
Q 18.609375 16.890625 22.84375 11.734375 
Q 27.09375 6.59375 36.625 6.59375 
Q 46.09375 6.59375 50.34375 11.734375 
Q 54.59375 16.890625 54.59375 28.609375 
L 54.59375 72.90625 
L 64.5 72.90625 
L 64.5 27.390625 
Q 64.5 13.140625 57.4375 5.859375 
Q 50.390625 -1.421875 36.625 -1.421875 
Q 22.796875 -1.421875 15.734375 5.859375 
Q 8.6875 13.140625 8.6875 27.390625 
z
" id="DejaVuSans-85"/>
     </defs>
     <g transform="translate(108.248438 68.272812)scale(0.1 -0.1)">
      <use xlink:href="#DejaVuSans-57"/>
      <use x="63.623047" xlink:href="#DejaVuSans-53"/>
      <use x="127.246094" xlink:href="#DejaVuSans-37"/>
      <use x="222.265625" xlink:href="#DejaVuSans-32"/>
      <use x="254.052734" xlink:href="#DejaVuSans-67"/>
      <use x="323.876953" xlink:href="#DejaVuSans-73"/>
      <use x="353.369141" xlink:href="#DejaVuSans-32"/>
      <use x="385.15625" xlink:href="#DejaVuSans-85"/>
      <use x="458.349609" xlink:href="#DejaVuSans-112"/>
      <use x="521.826172" xlink:href="#DejaVuSans-112"/>
      <use x="585.302734" xlink:href="#DejaVuSans-101"/>
      <use x="646.826172" xlink:href="#DejaVuSans-114"/>
     </g>
    </g>
    <g id="line2d_31">
     <path d="M 80.248438 79.450937 
L 100.248438 79.450937 
" style="fill:none;stroke:#2ca02c;stroke-linecap:square;stroke-width:1.5;"/>
    </g>
    <g id="line2d_32"/>
    <g id="text_24">
     <!-- 95% CI Lower -->
     <defs>
      <path d="M 4.203125 54.6875 
L 13.1875 54.6875 
L 24.421875 12.015625 
L 35.59375 54.6875 
L 46.1875 54.6875 
L 57.421875 12.015625 
L 68.609375 54.6875 
L 77.59375 54.6875 
L 63.28125 0 
L 52.6875 0 
L 40.921875 44.828125 
L 29.109375 0 
L 18.5 0 
z
" id="DejaVuSans-119"/>
     </defs>
     <g transform="translate(108.248438 82.950937)scale(0.1 -0.1)">
      <use xlink:href="#DejaVuSans-57"/>
      <use x="63.623047" xlink:href="#DejaVuSans-53"/>
      <use x="127.246094" xlink:href="#DejaVuSans-37"/>
      <use x="222.265625" xlink:href="#DejaVuSans-32"/>
      <use x="254.052734" xlink:href="#DejaVuSans-67"/>
      <use x="323.876953" xlink:href="#DejaVuSans-73"/>
      <use x="353.369141" xlink:href="#DejaVuSans-32"/>
      <use x="385.15625" xlink:href="#DejaVuSans-76"/>
      <use x="439.119141" xlink:href="#DejaVuSans-111"/>
      <use x="500.300781" xlink:href="#DejaVuSans-119"/>
      <use x="582.087891" xlink:href="#DejaVuSans-101"/>
      <use x="643.611328" xlink:href="#DejaVuSans-114"/>
     </g>
    </g>
   </g>
  </g>
 </g>
 <defs>
  <clipPath id="pd4ac5fd0ad">
   <rect height="554.4" width="558" x="71.248438" y="22.318125"/>
  </clipPath>
 </defs>
</svg>
