<?xml version="1.0" encoding="utf-8" standalone="no"?>
<!DOCTYPE svg PUBLIC "-//W3C//DTD SVG 1.1//EN"
  "http://www.w3.org/Graphics/SVG/1.1/DTD/svg11.dtd">
<!-- Created with matplotlib (https://matplotlib.org/) -->
<svg height="614.274375pt" version="1.1" viewBox="0 0 658.534062 614.274375" width="658.534062pt" xmlns="http://www.w3.org/2000/svg" xmlns:xlink="http://www.w3.org/1999/xlink">
 <defs>
  <style type="text/css">
*{stroke-linecap:butt;stroke-linejoin:round;}
  </style>
 </defs>
 <g id="figure_1">
  <g id="patch_1">
   <path d="M 0 614.274375 
L 658.534062 614.274375 
L 658.534062 0 
L 0 0 
z
" style="fill:#ffffff;"/>
  </g>
  <g id="axes_1">
   <g id="patch_2">
    <path d="M 71.248438 576.718125 
L 629.248438 576.718125 
L 629.248438 22.318125 
L 71.248438 22.318125 
z
" style="fill:#ffffff;"/>
   </g>
   <g id="matplotlib.axis_1">
    <g id="xtick_1">
     <g id="line2d_1">
      <defs>
       <path d="M 0 0 
L 0 3.5 
" id="me323ba356d" style="stroke:#000000;stroke-width:0.8;"/>
      </defs>
      <g>
       <use style="stroke:#000000;stroke-width:0.8;" x="79.702983" xlink:href="#me323ba356d" y="576.718125"/>
      </g>
     </g>
     <g id="text_1">
      <!-- −80 -->
      <defs>
       <path d="M 10.59375 35.5 
L 73.1875 35.5 
L 73.1875 27.203125 
L 10.59375 27.203125 
z
" id="DejaVuSans-8722"/>
       <path d="M 31.78125 34.625 
Q 24.75 34.625 20.71875 30.859375 
Q 16.703125 27.09375 16.703125 20.515625 
Q 16.703125 13.921875 20.71875 10.15625 
Q 24.75 6.390625 31.78125 6.390625 
Q 38.8125 6.390625 42.859375 10.171875 
Q 46.921875 13.96875 46.921875 20.515625 
Q 46.921875 27.09375 42.890625 30.859375 
Q 38.875 34.625 31.78125 34.625 
z
M 21.921875 38.8125 
Q 15.578125 40.375 12.03125 44.71875 
Q 8.5 49.078125 8.5 55.328125 
Q 8.5 64.0625 14.71875 69.140625 
Q 20.953125 74.21875 31.78125 74.21875 
Q 42.671875 74.21875 48.875 69.140625 
Q 55.078125 64.0625 55.078125 55.328125 
Q 55.078125 49.078125 51.53125 44.71875 
Q 48 40.375 41.703125 38.8125 
Q 48.828125 37.15625 52.796875 32.3125 
Q 56.78125 27.484375 56.78125 20.515625 
Q 56.78125 9.90625 50.3125 4.234375 
Q 43.84375 -1.421875 31.78125 -1.421875 
Q 19.734375 -1.421875 13.25 4.234375 
Q 6.78125 9.90625 6.78125 20.515625 
Q 6.78125 27.484375 10.78125 32.3125 
Q 14.796875 37.15625 21.921875 38.8125 
z
M 18.3125 54.390625 
Q 18.3125 48.734375 21.84375 45.5625 
Q 25.390625 42.390625 31.78125 42.390625 
Q 38.140625 42.390625 41.71875 45.5625 
Q 45.3125 48.734375 45.3125 54.390625 
Q 45.3125 60.0625 41.71875 63.234375 
Q 38.140625 66.40625 31.78125 66.40625 
Q 25.390625 66.40625 21.84375 63.234375 
Q 18.3125 60.0625 18.3125 54.390625 
z
" id="DejaVuSans-56"/>
       <path d="M 31.78125 66.40625 
Q 24.171875 66.40625 20.328125 58.90625 
Q 16.5 51.421875 16.5 36.375 
Q 16.5 21.390625 20.328125 13.890625 
Q 24.171875 6.390625 31.78125 6.390625 
Q 39.453125 6.390625 43.28125 13.890625 
Q 47.125 21.390625 47.125 36.375 
Q 47.125 51.421875 43.28125 58.90625 
Q 39.453125 66.40625 31.78125 66.40625 
z
M 31.78125 74.21875 
Q 44.046875 74.21875 50.515625 64.515625 
Q 56.984375 54.828125 56.984375 36.375 
Q 56.984375 17.96875 50.515625 8.265625 
Q 44.046875 -1.421875 31.78125 -1.421875 
Q 19.53125 -1.421875 13.0625 8.265625 
Q 6.59375 17.96875 6.59375 36.375 
Q 6.59375 54.828125 13.0625 64.515625 
Q 19.53125 74.21875 31.78125 74.21875 
z
" id="DejaVuSans-48"/>
      </defs>
      <g transform="translate(69.150639 591.316563)scale(0.1 -0.1)">
       <use xlink:href="#DejaVuSans-8722"/>
       <use x="83.789062" xlink:href="#DejaVuSans-56"/>
       <use x="147.412109" xlink:href="#DejaVuSans-48"/>
      </g>
     </g>
    </g>
    <g id="xtick_2">
     <g id="line2d_2">
      <g>
       <use style="stroke:#000000;stroke-width:0.8;" x="147.339347" xlink:href="#me323ba356d" y="576.718125"/>
      </g>
     </g>
     <g id="text_2">
      <!-- −60 -->
      <defs>
       <path d="M 33.015625 40.375 
Q 26.375 40.375 22.484375 35.828125 
Q 18.609375 31.296875 18.609375 23.390625 
Q 18.609375 15.53125 22.484375 10.953125 
Q 26.375 6.390625 33.015625 6.390625 
Q 39.65625 6.390625 43.53125 10.953125 
Q 47.40625 15.53125 47.40625 23.390625 
Q 47.40625 31.296875 43.53125 35.828125 
Q 39.65625 40.375 33.015625 40.375 
z
M 52.59375 71.296875 
L 52.59375 62.3125 
Q 48.875 64.0625 45.09375 64.984375 
Q 41.3125 65.921875 37.59375 65.921875 
Q 27.828125 65.921875 22.671875 59.328125 
Q 17.53125 52.734375 16.796875 39.40625 
Q 19.671875 43.65625 24.015625 45.921875 
Q 28.375 48.1875 33.59375 48.1875 
Q 44.578125 48.1875 50.953125 41.515625 
Q 57.328125 34.859375 57.328125 23.390625 
Q 57.328125 12.15625 50.6875 5.359375 
Q 44.046875 -1.421875 33.015625 -1.421875 
Q 20.359375 -1.421875 13.671875 8.265625 
Q 6.984375 17.96875 6.984375 36.375 
Q 6.984375 53.65625 15.1875 63.9375 
Q 23.390625 74.21875 37.203125 74.21875 
Q 40.921875 74.21875 44.703125 73.484375 
Q 48.484375 72.75 52.59375 71.296875 
z
" id="DejaVuSans-54"/>
      </defs>
      <g transform="translate(136.787003 591.316563)scale(0.1 -0.1)">
       <use xlink:href="#DejaVuSans-8722"/>
       <use x="83.789062" xlink:href="#DejaVuSans-54"/>
       <use x="147.412109" xlink:href="#DejaVuSans-48"/>
      </g>
     </g>
    </g>
    <g id="xtick_3">
     <g id="line2d_3">
      <g>
       <use style="stroke:#000000;stroke-width:0.8;" x="214.97571" xlink:href="#me323ba356d" y="576.718125"/>
      </g>
     </g>
     <g id="text_3">
      <!-- −40 -->
      <defs>
       <path d="M 37.796875 64.3125 
L 12.890625 25.390625 
L 37.796875 25.390625 
z
M 35.203125 72.90625 
L 47.609375 72.90625 
L 47.609375 25.390625 
L 58.015625 25.390625 
L 58.015625 17.1875 
L 47.609375 17.1875 
L 47.609375 0 
L 37.796875 0 
L 37.796875 17.1875 
L 4.890625 17.1875 
L 4.890625 26.703125 
z
" id="DejaVuSans-52"/>
      </defs>
      <g transform="translate(204.423366 591.316563)scale(0.1 -0.1)">
       <use xlink:href="#DejaVuSans-8722"/>
       <use x="83.789062" xlink:href="#DejaVuSans-52"/>
       <use x="147.412109" xlink:href="#DejaVuSans-48"/>
      </g>
     </g>
    </g>
    <g id="xtick_4">
     <g id="line2d_4">
      <g>
       <use style="stroke:#000000;stroke-width:0.8;" x="282.612074" xlink:href="#me323ba356d" y="576.718125"/>
      </g>
     </g>
     <g id="text_4">
      <!-- −20 -->
      <defs>
       <path d="M 19.1875 8.296875 
L 53.609375 8.296875 
L 53.609375 0 
L 7.328125 0 
L 7.328125 8.296875 
Q 12.9375 14.109375 22.625 23.890625 
Q 32.328125 33.6875 34.8125 36.53125 
Q 39.546875 41.84375 41.421875 45.53125 
Q 43.3125 49.21875 43.3125 52.78125 
Q 43.3125 58.59375 39.234375 62.25 
Q 35.15625 65.921875 28.609375 65.921875 
Q 23.96875 65.921875 18.8125 64.3125 
Q 13.671875 62.703125 7.8125 59.421875 
L 7.8125 69.390625 
Q 13.765625 71.78125 18.9375 73 
Q 24.125 74.21875 28.421875 74.21875 
Q 39.75 74.21875 46.484375 68.546875 
Q 53.21875 62.890625 53.21875 53.421875 
Q 53.21875 48.921875 51.53125 44.890625 
Q 49.859375 40.875 45.40625 35.40625 
Q 44.1875 33.984375 37.640625 27.21875 
Q 31.109375 20.453125 19.1875 8.296875 
z
" id="DejaVuSans-50"/>
      </defs>
      <g transform="translate(272.05973 591.316563)scale(0.1 -0.1)">
       <use xlink:href="#DejaVuSans-8722"/>
       <use x="83.789062" xlink:href="#DejaVuSans-50"/>
       <use x="147.412109" xlink:href="#DejaVuSans-48"/>
      </g>
     </g>
    </g>
    <g id="xtick_5">
     <g id="line2d_5">
      <g>
       <use style="stroke:#000000;stroke-width:0.8;" x="350.248438" xlink:href="#me323ba356d" y="576.718125"/>
      </g>
     </g>
     <g id="text_5">
      <!-- 0 -->
      <g transform="translate(347.067188 591.316563)scale(0.1 -0.1)">
       <use xlink:href="#DejaVuSans-48"/>
      </g>
     </g>
    </g>
    <g id="xtick_6">
     <g id="line2d_6">
      <g>
       <use style="stroke:#000000;stroke-width:0.8;" x="417.884801" xlink:href="#me323ba356d" y="576.718125"/>
      </g>
     </g>
     <g id="text_6">
      <!-- 20 -->
      <g transform="translate(411.522301 591.316563)scale(0.1 -0.1)">
       <use xlink:href="#DejaVuSans-50"/>
       <use x="63.623047" xlink:href="#DejaVuSans-48"/>
      </g>
     </g>
    </g>
    <g id="xtick_7">
     <g id="line2d_7">
      <g>
       <use style="stroke:#000000;stroke-width:0.8;" x="485.521165" xlink:href="#me323ba356d" y="576.718125"/>
      </g>
     </g>
     <g id="text_7">
      <!-- 40 -->
      <g transform="translate(479.158665 591.316563)scale(0.1 -0.1)">
       <use xlink:href="#DejaVuSans-52"/>
       <use x="63.623047" xlink:href="#DejaVuSans-48"/>
      </g>
     </g>
    </g>
    <g id="xtick_8">
     <g id="line2d_8">
      <g>
       <use style="stroke:#000000;stroke-width:0.8;" x="553.157528" xlink:href="#me323ba356d" y="576.718125"/>
      </g>
     </g>
     <g id="text_8">
      <!-- 60 -->
      <g transform="translate(546.795028 591.316563)scale(0.1 -0.1)">
       <use xlink:href="#DejaVuSans-54"/>
       <use x="63.623047" xlink:href="#DejaVuSans-48"/>
      </g>
     </g>
    </g>
    <g id="xtick_9">
     <g id="line2d_9">
      <g>
       <use style="stroke:#000000;stroke-width:0.8;" x="620.793892" xlink:href="#me323ba356d" y="576.718125"/>
      </g>
     </g>
     <g id="text_9">
      <!-- 80 -->
      <g transform="translate(614.431392 591.316563)scale(0.1 -0.1)">
       <use xlink:href="#DejaVuSans-56"/>
       <use x="63.623047" xlink:href="#DejaVuSans-48"/>
      </g>
     </g>
    </g>
    <g id="text_10">
     <!-- Motif Position -->
     <defs>
      <path d="M 9.8125 72.90625 
L 24.515625 72.90625 
L 43.109375 23.296875 
L 61.8125 72.90625 
L 76.515625 72.90625 
L 76.515625 0 
L 66.890625 0 
L 66.890625 64.015625 
L 48.09375 14.015625 
L 38.1875 14.015625 
L 19.390625 64.015625 
L 19.390625 0 
L 9.8125 0 
z
" id="DejaVuSans-77"/>
      <path d="M 30.609375 48.390625 
Q 23.390625 48.390625 19.1875 42.75 
Q 14.984375 37.109375 14.984375 27.296875 
Q 14.984375 17.484375 19.15625 11.84375 
Q 23.34375 6.203125 30.609375 6.203125 
Q 37.796875 6.203125 41.984375 11.859375 
Q 46.1875 17.53125 46.1875 27.296875 
Q 46.1875 37.015625 41.984375 42.703125 
Q 37.796875 48.390625 30.609375 48.390625 
z
M 30.609375 56 
Q 42.328125 56 49.015625 48.375 
Q 55.71875 40.765625 55.71875 27.296875 
Q 55.71875 13.875 49.015625 6.21875 
Q 42.328125 -1.421875 30.609375 -1.421875 
Q 18.84375 -1.421875 12.171875 6.21875 
Q 5.515625 13.875 5.515625 27.296875 
Q 5.515625 40.765625 12.171875 48.375 
Q 18.84375 56 30.609375 56 
z
" id="DejaVuSans-111"/>
      <path d="M 18.3125 70.21875 
L 18.3125 54.6875 
L 36.8125 54.6875 
L 36.8125 47.703125 
L 18.3125 47.703125 
L 18.3125 18.015625 
Q 18.3125 11.328125 20.140625 9.421875 
Q 21.96875 7.515625 27.59375 7.515625 
L 36.8125 7.515625 
L 36.8125 0 
L 27.59375 0 
Q 17.1875 0 13.234375 3.875 
Q 9.28125 7.765625 9.28125 18.015625 
L 9.28125 47.703125 
L 2.6875 47.703125 
L 2.6875 54.6875 
L 9.28125 54.6875 
L 9.28125 70.21875 
z
" id="DejaVuSans-116"/>
      <path d="M 9.421875 54.6875 
L 18.40625 54.6875 
L 18.40625 0 
L 9.421875 0 
z
M 9.421875 75.984375 
L 18.40625 75.984375 
L 18.40625 64.59375 
L 9.421875 64.59375 
z
" id="DejaVuSans-105"/>
      <path d="M 37.109375 75.984375 
L 37.109375 68.5 
L 28.515625 68.5 
Q 23.6875 68.5 21.796875 66.546875 
Q 19.921875 64.59375 19.921875 59.515625 
L 19.921875 54.6875 
L 34.71875 54.6875 
L 34.71875 47.703125 
L 19.921875 47.703125 
L 19.921875 0 
L 10.890625 0 
L 10.890625 47.703125 
L 2.296875 47.703125 
L 2.296875 54.6875 
L 10.890625 54.6875 
L 10.890625 58.5 
Q 10.890625 67.625 15.140625 71.796875 
Q 19.390625 75.984375 28.609375 75.984375 
z
" id="DejaVuSans-102"/>
      <path id="DejaVuSans-32"/>
      <path d="M 19.671875 64.796875 
L 19.671875 37.40625 
L 32.078125 37.40625 
Q 38.96875 37.40625 42.71875 40.96875 
Q 46.484375 44.53125 46.484375 51.125 
Q 46.484375 57.671875 42.71875 61.234375 
Q 38.96875 64.796875 32.078125 64.796875 
z
M 9.8125 72.90625 
L 32.078125 72.90625 
Q 44.34375 72.90625 50.609375 67.359375 
Q 56.890625 61.8125 56.890625 51.125 
Q 56.890625 40.328125 50.609375 34.8125 
Q 44.34375 29.296875 32.078125 29.296875 
L 19.671875 29.296875 
L 19.671875 0 
L 9.8125 0 
z
" id="DejaVuSans-80"/>
      <path d="M 44.28125 53.078125 
L 44.28125 44.578125 
Q 40.484375 46.53125 36.375 47.5 
Q 32.28125 48.484375 27.875 48.484375 
Q 21.1875 48.484375 17.84375 46.4375 
Q 14.5 44.390625 14.5 40.28125 
Q 14.5 37.15625 16.890625 35.375 
Q 19.28125 33.59375 26.515625 31.984375 
L 29.59375 31.296875 
Q 39.15625 29.25 43.1875 25.515625 
Q 47.21875 21.78125 47.21875 15.09375 
Q 47.21875 7.46875 41.1875 3.015625 
Q 35.15625 -1.421875 24.609375 -1.421875 
Q 20.21875 -1.421875 15.453125 -0.5625 
Q 10.6875 0.296875 5.421875 2 
L 5.421875 11.28125 
Q 10.40625 8.6875 15.234375 7.390625 
Q 20.0625 6.109375 24.8125 6.109375 
Q 31.15625 6.109375 34.5625 8.28125 
Q 37.984375 10.453125 37.984375 14.40625 
Q 37.984375 18.0625 35.515625 20.015625 
Q 33.0625 21.96875 24.703125 23.78125 
L 21.578125 24.515625 
Q 13.234375 26.265625 9.515625 29.90625 
Q 5.8125 33.546875 5.8125 39.890625 
Q 5.8125 47.609375 11.28125 51.796875 
Q 16.75 56 26.8125 56 
Q 31.78125 56 36.171875 55.265625 
Q 40.578125 54.546875 44.28125 53.078125 
z
" id="DejaVuSans-115"/>
      <path d="M 54.890625 33.015625 
L 54.890625 0 
L 45.90625 0 
L 45.90625 32.71875 
Q 45.90625 40.484375 42.875 44.328125 
Q 39.84375 48.1875 33.796875 48.1875 
Q 26.515625 48.1875 22.3125 43.546875 
Q 18.109375 38.921875 18.109375 30.90625 
L 18.109375 0 
L 9.078125 0 
L 9.078125 54.6875 
L 18.109375 54.6875 
L 18.109375 46.1875 
Q 21.34375 51.125 25.703125 53.5625 
Q 30.078125 56 35.796875 56 
Q 45.21875 56 50.046875 50.171875 
Q 54.890625 44.34375 54.890625 33.015625 
z
" id="DejaVuSans-110"/>
     </defs>
     <g transform="translate(316.7125 604.994688)scale(0.1 -0.1)">
      <use xlink:href="#DejaVuSans-77"/>
      <use x="86.279297" xlink:href="#DejaVuSans-111"/>
      <use x="147.460938" xlink:href="#DejaVuSans-116"/>
      <use x="186.669922" xlink:href="#DejaVuSans-105"/>
      <use x="214.453125" xlink:href="#DejaVuSans-102"/>
      <use x="249.658203" xlink:href="#DejaVuSans-32"/>
      <use x="281.445312" xlink:href="#DejaVuSans-80"/>
      <use x="338.123047" xlink:href="#DejaVuSans-111"/>
      <use x="399.304688" xlink:href="#DejaVuSans-115"/>
      <use x="451.404297" xlink:href="#DejaVuSans-105"/>
      <use x="479.1875" xlink:href="#DejaVuSans-116"/>
      <use x="518.396484" xlink:href="#DejaVuSans-105"/>
      <use x="546.179688" xlink:href="#DejaVuSans-111"/>
      <use x="607.361328" xlink:href="#DejaVuSans-110"/>
     </g>
    </g>
   </g>
   <g id="matplotlib.axis_2">
    <g id="ytick_1">
     <g id="line2d_10">
      <defs>
       <path d="M 0 0 
L -3.5 0 
" id="ma9b79f10e3" style="stroke:#000000;stroke-width:0.8;"/>
      </defs>
      <g>
       <use style="stroke:#000000;stroke-width:0.8;" x="71.248438" xlink:href="#ma9b79f10e3" y="569.616447"/>
      </g>
     </g>
     <g id="text_11">
      <!-- −0.0100 -->
      <defs>
       <path d="M 10.6875 12.40625 
L 21 12.40625 
L 21 0 
L 10.6875 0 
z
" id="DejaVuSans-46"/>
       <path d="M 12.40625 8.296875 
L 28.515625 8.296875 
L 28.515625 63.921875 
L 10.984375 60.40625 
L 10.984375 69.390625 
L 28.421875 72.90625 
L 38.28125 72.90625 
L 38.28125 8.296875 
L 54.390625 8.296875 
L 54.390625 0 
L 12.40625 0 
z
" id="DejaVuSans-49"/>
      </defs>
      <g transform="translate(20.878125 573.415665)scale(0.1 -0.1)">
       <use xlink:href="#DejaVuSans-8722"/>
       <use x="83.789062" xlink:href="#DejaVuSans-48"/>
       <use x="147.412109" xlink:href="#DejaVuSans-46"/>
       <use x="179.199219" xlink:href="#DejaVuSans-48"/>
       <use x="242.822266" xlink:href="#DejaVuSans-49"/>
       <use x="306.445312" xlink:href="#DejaVuSans-48"/>
       <use x="370.068359" xlink:href="#DejaVuSans-48"/>
      </g>
     </g>
    </g>
    <g id="ytick_2">
     <g id="line2d_11">
      <g>
       <use style="stroke:#000000;stroke-width:0.8;" x="71.248438" xlink:href="#ma9b79f10e3" y="506.295929"/>
      </g>
     </g>
     <g id="text_12">
      <!-- −0.0075 -->
      <defs>
       <path d="M 8.203125 72.90625 
L 55.078125 72.90625 
L 55.078125 68.703125 
L 28.609375 0 
L 18.3125 0 
L 43.21875 64.59375 
L 8.203125 64.59375 
z
" id="DejaVuSans-55"/>
       <path d="M 10.796875 72.90625 
L 49.515625 72.90625 
L 49.515625 64.59375 
L 19.828125 64.59375 
L 19.828125 46.734375 
Q 21.96875 47.46875 24.109375 47.828125 
Q 26.265625 48.1875 28.421875 48.1875 
Q 40.625 48.1875 47.75 41.5 
Q 54.890625 34.8125 54.890625 23.390625 
Q 54.890625 11.625 47.5625 5.09375 
Q 40.234375 -1.421875 26.90625 -1.421875 
Q 22.3125 -1.421875 17.546875 -0.640625 
Q 12.796875 0.140625 7.71875 1.703125 
L 7.71875 11.625 
Q 12.109375 9.234375 16.796875 8.0625 
Q 21.484375 6.890625 26.703125 6.890625 
Q 35.15625 6.890625 40.078125 11.328125 
Q 45.015625 15.765625 45.015625 23.390625 
Q 45.015625 31 40.078125 35.4375 
Q 35.15625 39.890625 26.703125 39.890625 
Q 22.75 39.890625 18.8125 39.015625 
Q 14.890625 38.140625 10.796875 36.28125 
z
" id="DejaVuSans-53"/>
      </defs>
      <g transform="translate(20.878125 510.095148)scale(0.1 -0.1)">
       <use xlink:href="#DejaVuSans-8722"/>
       <use x="83.789062" xlink:href="#DejaVuSans-48"/>
       <use x="147.412109" xlink:href="#DejaVuSans-46"/>
       <use x="179.199219" xlink:href="#DejaVuSans-48"/>
       <use x="242.822266" xlink:href="#DejaVuSans-48"/>
       <use x="306.445312" xlink:href="#DejaVuSans-55"/>
       <use x="370.068359" xlink:href="#DejaVuSans-53"/>
      </g>
     </g>
    </g>
    <g id="ytick_3">
     <g id="line2d_12">
      <g>
       <use style="stroke:#000000;stroke-width:0.8;" x="71.248438" xlink:href="#ma9b79f10e3" y="442.975411"/>
      </g>
     </g>
     <g id="text_13">
      <!-- −0.0050 -->
      <g transform="translate(20.878125 446.77463)scale(0.1 -0.1)">
       <use xlink:href="#DejaVuSans-8722"/>
       <use x="83.789062" xlink:href="#DejaVuSans-48"/>
       <use x="147.412109" xlink:href="#DejaVuSans-46"/>
       <use x="179.199219" xlink:href="#DejaVuSans-48"/>
       <use x="242.822266" xlink:href="#DejaVuSans-48"/>
       <use x="306.445312" xlink:href="#DejaVuSans-53"/>
       <use x="370.068359" xlink:href="#DejaVuSans-48"/>
      </g>
     </g>
    </g>
    <g id="ytick_4">
     <g id="line2d_13">
      <g>
       <use style="stroke:#000000;stroke-width:0.8;" x="71.248438" xlink:href="#ma9b79f10e3" y="379.654893"/>
      </g>
     </g>
     <g id="text_14">
      <!-- −0.0025 -->
      <g transform="translate(20.878125 383.454112)scale(0.1 -0.1)">
       <use xlink:href="#DejaVuSans-8722"/>
       <use x="83.789062" xlink:href="#DejaVuSans-48"/>
       <use x="147.412109" xlink:href="#DejaVuSans-46"/>
       <use x="179.199219" xlink:href="#DejaVuSans-48"/>
       <use x="242.822266" xlink:href="#DejaVuSans-48"/>
       <use x="306.445312" xlink:href="#DejaVuSans-50"/>
       <use x="370.068359" xlink:href="#DejaVuSans-53"/>
      </g>
     </g>
    </g>
    <g id="ytick_5">
     <g id="line2d_14">
      <g>
       <use style="stroke:#000000;stroke-width:0.8;" x="71.248438" xlink:href="#ma9b79f10e3" y="316.334375"/>
      </g>
     </g>
     <g id="text_15">
      <!-- 0.0000 -->
      <g transform="translate(29.257813 320.133594)scale(0.1 -0.1)">
       <use xlink:href="#DejaVuSans-48"/>
       <use x="63.623047" xlink:href="#DejaVuSans-46"/>
       <use x="95.410156" xlink:href="#DejaVuSans-48"/>
       <use x="159.033203" xlink:href="#DejaVuSans-48"/>
       <use x="222.65625" xlink:href="#DejaVuSans-48"/>
       <use x="286.279297" xlink:href="#DejaVuSans-48"/>
      </g>
     </g>
    </g>
    <g id="ytick_6">
     <g id="line2d_15">
      <g>
       <use style="stroke:#000000;stroke-width:0.8;" x="71.248438" xlink:href="#ma9b79f10e3" y="253.013858"/>
      </g>
     </g>
     <g id="text_16">
      <!-- 0.0025 -->
      <g transform="translate(29.257813 256.813076)scale(0.1 -0.1)">
       <use xlink:href="#DejaVuSans-48"/>
       <use x="63.623047" xlink:href="#DejaVuSans-46"/>
       <use x="95.410156" xlink:href="#DejaVuSans-48"/>
       <use x="159.033203" xlink:href="#DejaVuSans-48"/>
       <use x="222.65625" xlink:href="#DejaVuSans-50"/>
       <use x="286.279297" xlink:href="#DejaVuSans-53"/>
      </g>
     </g>
    </g>
    <g id="ytick_7">
     <g id="line2d_16">
      <g>
       <use style="stroke:#000000;stroke-width:0.8;" x="71.248438" xlink:href="#ma9b79f10e3" y="189.69334"/>
      </g>
     </g>
     <g id="text_17">
      <!-- 0.0050 -->
      <g transform="translate(29.257813 193.492559)scale(0.1 -0.1)">
       <use xlink:href="#DejaVuSans-48"/>
       <use x="63.623047" xlink:href="#DejaVuSans-46"/>
       <use x="95.410156" xlink:href="#DejaVuSans-48"/>
       <use x="159.033203" xlink:href="#DejaVuSans-48"/>
       <use x="222.65625" xlink:href="#DejaVuSans-53"/>
       <use x="286.279297" xlink:href="#DejaVuSans-48"/>
      </g>
     </g>
    </g>
    <g id="ytick_8">
     <g id="line2d_17">
      <g>
       <use style="stroke:#000000;stroke-width:0.8;" x="71.248438" xlink:href="#ma9b79f10e3" y="126.372822"/>
      </g>
     </g>
     <g id="text_18">
      <!-- 0.0075 -->
      <g transform="translate(29.257813 130.172041)scale(0.1 -0.1)">
       <use xlink:href="#DejaVuSans-48"/>
       <use x="63.623047" xlink:href="#DejaVuSans-46"/>
       <use x="95.410156" xlink:href="#DejaVuSans-48"/>
       <use x="159.033203" xlink:href="#DejaVuSans-48"/>
       <use x="222.65625" xlink:href="#DejaVuSans-55"/>
       <use x="286.279297" xlink:href="#DejaVuSans-53"/>
      </g>
     </g>
    </g>
    <g id="ytick_9">
     <g id="line2d_18">
      <g>
       <use style="stroke:#000000;stroke-width:0.8;" x="71.248438" xlink:href="#ma9b79f10e3" y="63.052304"/>
      </g>
     </g>
     <g id="text_19">
      <!-- 0.0100 -->
      <g transform="translate(29.257813 66.851523)scale(0.1 -0.1)">
       <use xlink:href="#DejaVuSans-48"/>
       <use x="63.623047" xlink:href="#DejaVuSans-46"/>
       <use x="95.410156" xlink:href="#DejaVuSans-48"/>
       <use x="159.033203" xlink:href="#DejaVuSans-49"/>
       <use x="222.65625" xlink:href="#DejaVuSans-48"/>
       <use x="286.279297" xlink:href="#DejaVuSans-48"/>
      </g>
     </g>
    </g>
    <g id="text_20">
     <!-- Coefficient -->
     <defs>
      <path d="M 64.40625 67.28125 
L 64.40625 56.890625 
Q 59.421875 61.53125 53.78125 63.8125 
Q 48.140625 66.109375 41.796875 66.109375 
Q 29.296875 66.109375 22.65625 58.46875 
Q 16.015625 50.828125 16.015625 36.375 
Q 16.015625 21.96875 22.65625 14.328125 
Q 29.296875 6.6875 41.796875 6.6875 
Q 48.140625 6.6875 53.78125 8.984375 
Q 59.421875 11.28125 64.40625 15.921875 
L 64.40625 5.609375 
Q 59.234375 2.09375 53.4375 0.328125 
Q 47.65625 -1.421875 41.21875 -1.421875 
Q 24.65625 -1.421875 15.125 8.703125 
Q 5.609375 18.84375 5.609375 36.375 
Q 5.609375 53.953125 15.125 64.078125 
Q 24.65625 74.21875 41.21875 74.21875 
Q 47.75 74.21875 53.53125 72.484375 
Q 59.328125 70.75 64.40625 67.28125 
z
" id="DejaVuSans-67"/>
      <path d="M 56.203125 29.59375 
L 56.203125 25.203125 
L 14.890625 25.203125 
Q 15.484375 15.921875 20.484375 11.0625 
Q 25.484375 6.203125 34.421875 6.203125 
Q 39.59375 6.203125 44.453125 7.46875 
Q 49.3125 8.734375 54.109375 11.28125 
L 54.109375 2.78125 
Q 49.265625 0.734375 44.1875 -0.34375 
Q 39.109375 -1.421875 33.890625 -1.421875 
Q 20.796875 -1.421875 13.15625 6.1875 
Q 5.515625 13.8125 5.515625 26.8125 
Q 5.515625 40.234375 12.765625 48.109375 
Q 20.015625 56 32.328125 56 
Q 43.359375 56 49.78125 48.890625 
Q 56.203125 41.796875 56.203125 29.59375 
z
M 47.21875 32.234375 
Q 47.125 39.59375 43.09375 43.984375 
Q 39.0625 48.390625 32.421875 48.390625 
Q 24.90625 48.390625 20.390625 44.140625 
Q 15.875 39.890625 15.1875 32.171875 
z
" id="DejaVuSans-101"/>
      <path d="M 48.78125 52.59375 
L 48.78125 44.1875 
Q 44.96875 46.296875 41.140625 47.34375 
Q 37.3125 48.390625 33.40625 48.390625 
Q 24.65625 48.390625 19.8125 42.84375 
Q 14.984375 37.3125 14.984375 27.296875 
Q 14.984375 17.28125 19.8125 11.734375 
Q 24.65625 6.203125 33.40625 6.203125 
Q 37.3125 6.203125 41.140625 7.25 
Q 44.96875 8.296875 48.78125 10.40625 
L 48.78125 2.09375 
Q 45.015625 0.34375 40.984375 -0.53125 
Q 36.96875 -1.421875 32.421875 -1.421875 
Q 20.0625 -1.421875 12.78125 6.34375 
Q 5.515625 14.109375 5.515625 27.296875 
Q 5.515625 40.671875 12.859375 48.328125 
Q 20.21875 56 33.015625 56 
Q 37.15625 56 41.109375 55.140625 
Q 45.0625 54.296875 48.78125 52.59375 
z
" id="DejaVuSans-99"/>
     </defs>
     <g transform="translate(14.798438 326.398594)rotate(-90)scale(0.1 -0.1)">
      <use xlink:href="#DejaVuSans-67"/>
      <use x="69.824219" xlink:href="#DejaVuSans-111"/>
      <use x="131.005859" xlink:href="#DejaVuSans-101"/>
      <use x="192.529297" xlink:href="#DejaVuSans-102"/>
      <use x="227.734375" xlink:href="#DejaVuSans-102"/>
      <use x="262.939453" xlink:href="#DejaVuSans-105"/>
      <use x="290.722656" xlink:href="#DejaVuSans-99"/>
      <use x="345.703125" xlink:href="#DejaVuSans-105"/>
      <use x="373.486328" xlink:href="#DejaVuSans-101"/>
      <use x="435.009766" xlink:href="#DejaVuSans-110"/>
      <use x="498.388672" xlink:href="#DejaVuSans-116"/>
     </g>
    </g>
   </g>
   <g id="line2d_19">
    <path clip-path="url(#pd569040e72)" d="M 96.612074 316.334375 
L 110.139347 316.337743 
L 113.521165 316.449725 
L 116.902983 317.865494 
L 120.284801 324.71336 
L 123.666619 337.062814 
L 127.048438 344.535163 
L 130.430256 354.029694 
L 133.812074 356.402186 
L 137.193892 320.560384 
L 140.57571 288.511408 
L 143.957528 270.190346 
L 147.339347 263.483801 
L 150.721165 274.298936 
L 154.102983 288.731784 
L 157.484801 298.570248 
L 160.866619 304.280103 
L 164.248438 297.739768 
L 167.630256 296.022001 
L 171.012074 297.603582 
L 174.393892 294.559471 
L 177.77571 284.779692 
L 181.157528 279.456817 
L 184.539347 291.840432 
L 187.921165 309.312692 
L 191.302983 299.182206 
L 194.684801 281.94398 
L 198.066619 289.828976 
L 201.448438 298.016045 
L 204.830256 302.005337 
L 208.212074 300.66751 
L 211.593892 313.089618 
L 214.97571 352.686776 
L 218.357528 350.161053 
L 221.739347 317.831534 
L 225.121165 298.405109 
L 228.502983 306.508947 
L 231.884801 318.12811 
L 235.266619 324.776985 
L 242.030256 282.330376 
L 245.412074 321.174095 
L 248.793892 377.631418 
L 252.17571 385.031614 
L 255.557528 317.379725 
L 258.939347 253.049613 
L 262.321165 261.368542 
L 265.702983 296.069426 
L 269.084801 343.007756 
L 272.466619 354.223564 
L 275.848438 324.325961 
L 282.612074 293.536165 
L 285.993892 243.833234 
L 289.37571 213.658513 
L 292.757528 184.659502 
L 296.139347 146.595677 
L 299.521165 208.878682 
L 302.902983 314.381511 
L 306.284801 370.57106 
L 309.666619 363.237876 
L 313.048438 321.646501 
L 316.430256 307.420849 
L 319.812074 318.062619 
L 323.193892 327.889913 
L 326.57571 322.647813 
L 329.957528 311.155341 
L 333.339347 302.840598 
L 336.721165 335.987578 
L 340.102983 351.519574 
L 343.484801 292.144753 
L 346.866619 234.878371 
L 350.248438 208.421675 
L 353.630256 231.918289 
L 357.012074 272.861671 
L 360.393892 306.558174 
L 363.77571 328.851868 
L 367.157528 354.739796 
L 370.539347 371.289294 
L 373.921165 355.062155 
L 377.302983 302.360006 
L 380.684801 272.944227 
L 384.066619 312.217735 
L 390.830256 372.072011 
L 394.212074 422.205568 
L 397.593892 426.877639 
L 400.97571 391.157683 
L 404.357528 364.055502 
L 407.739347 361.882997 
L 411.121165 370.625849 
L 414.502983 361.307788 
L 417.884801 333.128028 
L 421.266619 340.662956 
L 424.648438 406.530425 
L 428.030256 447.937172 
L 431.412074 424.831531 
L 434.793892 383.622459 
L 438.17571 361.432846 
L 441.557528 356.393009 
L 444.939347 338.235395 
L 448.321165 314.250384 
L 451.702983 312.090444 
L 455.084801 335.154529 
L 458.466619 346.838236 
L 461.848438 329.34902 
L 465.230256 317.388027 
L 468.612074 358.414198 
L 471.993892 418.393035 
L 475.37571 403.606256 
L 478.757528 336.555429 
L 482.139347 282.000447 
L 485.521165 253.553117 
L 488.902983 259.29448 
L 492.284801 296.945867 
L 495.666619 310.685172 
L 499.048438 291.96525 
L 502.430256 292.16585 
L 505.812074 308.273621 
L 509.193892 303.174123 
L 512.57571 300.957101 
L 515.957528 330.368632 
L 519.339347 355.311925 
L 522.721165 348.566586 
L 526.102983 337.29037 
L 529.484801 343.538891 
L 532.866619 354.540915 
L 536.248438 350.294414 
L 539.630256 325.205789 
L 543.012074 297.817932 
L 546.393892 295.837197 
L 549.77571 288.357278 
L 553.157528 275.867491 
L 556.539347 280.928784 
L 559.921165 254.749173 
L 563.302983 180.213647 
L 566.684801 173.689328 
L 570.066619 264.823149 
L 573.448437 311.283025 
L 576.830256 304.153247 
L 580.212074 306.654547 
L 583.593892 314.043925 
L 586.97571 316.143453 
L 590.357528 316.328583 
L 603.884801 316.334375 
L 603.884801 316.334375 
" style="fill:none;stroke:#1f77b4;stroke-linecap:square;stroke-width:1.5;"/>
   </g>
   <g id="line2d_20">
    <path clip-path="url(#pd569040e72)" d="M 96.612074 316.334375 
L 110.139347 316.324776 
L 113.521165 316.020128 
L 116.902983 312.611808 
L 120.284801 300.458986 
L 123.666619 288.960296 
L 127.048438 288.051492 
L 130.430256 300.187942 
L 133.812074 295.45488 
L 137.193892 258.041034 
L 140.57571 223.003163 
L 143.957528 209.190464 
L 147.339347 199.265684 
L 150.721165 220.27689 
L 154.102983 240.552534 
L 157.484801 238.279401 
L 160.866619 241.730688 
L 164.248438 234.471315 
L 167.630256 242.502552 
L 171.012074 232.925089 
L 174.393892 220.975719 
L 177.77571 211.700136 
L 181.157528 205.798137 
L 184.539347 217.006256 
L 187.921165 241.636839 
L 191.302983 232.542652 
L 194.684801 217.414832 
L 198.066619 228.912439 
L 201.448438 229.836357 
L 204.830256 235.967351 
L 208.212074 227.61162 
L 211.593892 234.93168 
L 214.97571 270.973597 
L 218.357528 273.209375 
L 221.739347 251.489621 
L 225.121165 228.188139 
L 228.502983 237.423831 
L 231.884801 263.004385 
L 235.266619 256.958533 
L 238.648438 221.021327 
L 242.030256 202.64303 
L 245.412074 246.901818 
L 248.793892 297.562597 
L 252.17571 306.283607 
L 255.557528 241.349278 
L 258.939347 169.613065 
L 262.321165 173.887326 
L 265.702983 194.72462 
L 269.084801 261.585033 
L 272.466619 289.677166 
L 275.848438 255.500776 
L 279.230256 228.996106 
L 282.612074 196.316497 
L 285.993892 153.788815 
L 289.37571 112.758191 
L 296.139347 47.518125 
L 299.521165 108.85053 
L 302.902983 209.369365 
L 306.284801 276.478567 
L 309.666619 261.800333 
L 313.048438 214.600427 
L 316.430256 203.576102 
L 319.812074 206.072746 
L 323.193892 224.378473 
L 326.57571 234.744627 
L 329.957528 212.022926 
L 333.339347 194.948018 
L 336.721165 221.620444 
L 340.102983 232.791351 
L 343.484801 177.52837 
L 346.866619 133.428389 
L 350.248438 103.933832 
L 353.630256 122.751199 
L 357.012074 163.643804 
L 360.393892 200.935424 
L 363.77571 220.955076 
L 367.157528 248.864518 
L 370.539347 260.79979 
L 373.921165 241.491228 
L 377.302983 193.665022 
L 380.684801 176.142588 
L 384.066619 217.913567 
L 387.448438 247.988387 
L 390.830256 273.147137 
L 394.212074 306.510335 
L 397.593892 318.91704 
L 404.357528 274.398509 
L 407.739347 269.937217 
L 411.121165 276.364828 
L 414.502983 271.316316 
L 417.884801 246.469207 
L 421.266619 252.250947 
L 424.648438 304.54 
L 428.030256 344.356219 
L 431.412074 330.79071 
L 434.793892 298.54784 
L 438.17571 287.998701 
L 441.557528 286.681008 
L 444.939347 269.364511 
L 448.321165 239.683235 
L 451.702983 238.820139 
L 455.084801 258.022735 
L 458.466619 268.007713 
L 461.848438 249.132029 
L 465.230256 243.265209 
L 468.612074 286.840096 
L 471.993892 341.6515 
L 475.37571 326.743512 
L 478.757528 261.90954 
L 482.139347 211.171587 
L 485.521165 177.500657 
L 488.902983 172.311447 
L 492.284801 212.078194 
L 495.666619 239.881457 
L 499.048438 231.953409 
L 502.430256 233.396896 
L 505.812074 244.551812 
L 509.193892 236.013439 
L 512.57571 240.249399 
L 515.957528 269.824264 
L 519.339347 290.320277 
L 522.721165 287.761803 
L 526.102983 267.110046 
L 529.484801 266.724114 
L 532.866619 281.532626 
L 536.248438 281.792198 
L 539.630256 262.569863 
L 543.012074 245.619515 
L 546.393892 236.746718 
L 549.77571 233.525141 
L 553.157528 224.757101 
L 556.539347 231.048669 
L 559.921165 203.109584 
L 563.302983 118.282063 
L 566.684801 112.776418 
L 570.066619 211.962648 
L 573.448437 261.060971 
L 576.830256 252.432119 
L 580.212074 277.592407 
L 583.593892 307.626751 
L 586.97571 315.617417 
L 590.357528 316.3127 
L 603.884801 316.334375 
L 603.884801 316.334375 
" style="fill:none;stroke:#ff7f0e;stroke-linecap:square;stroke-width:1.5;"/>
   </g>
   <g id="line2d_21">
    <path clip-path="url(#pd569040e72)" d="M 96.612074 316.334375 
L 110.139347 316.350711 
L 113.521165 316.879321 
L 116.902983 323.119179 
L 120.284801 348.967734 
L 123.666619 385.165331 
L 127.048438 401.018833 
L 130.430256 407.871446 
L 133.812074 417.349491 
L 137.193892 383.079735 
L 140.57571 354.019653 
L 143.957528 331.190229 
L 147.339347 327.701918 
L 150.721165 328.320982 
L 154.102983 336.911034 
L 157.484801 358.861095 
L 160.866619 366.829518 
L 164.248438 361.00822 
L 167.630256 349.541449 
L 171.012074 362.282074 
L 174.393892 368.143223 
L 177.77571 357.859249 
L 181.157528 353.115497 
L 184.539347 366.674608 
L 187.921165 376.988546 
L 191.302983 365.821761 
L 194.684801 346.473129 
L 198.066619 350.745512 
L 201.448438 366.195733 
L 204.830256 368.043323 
L 208.212074 373.723401 
L 211.593892 391.247555 
L 214.97571 434.399955 
L 218.357528 427.112731 
L 221.739347 384.173448 
L 225.121165 368.622079 
L 228.502983 375.594062 
L 231.884801 373.251835 
L 235.266619 392.595438 
L 238.648438 385.597803 
L 242.030256 362.017723 
L 245.412074 395.446372 
L 248.793892 457.700238 
L 252.17571 463.779621 
L 255.557528 393.410173 
L 258.939347 336.486161 
L 262.321165 348.849759 
L 265.702983 397.414232 
L 269.084801 424.430479 
L 272.466619 418.769963 
L 275.848438 393.151147 
L 279.230256 388.771632 
L 282.612074 390.755833 
L 285.993892 333.877654 
L 289.37571 314.558835 
L 292.757528 289.290291 
L 296.139347 245.673229 
L 299.521165 308.906834 
L 302.902983 419.393657 
L 306.284801 464.663554 
L 309.666619 464.67542 
L 313.048438 428.692575 
L 316.430256 411.265597 
L 319.812074 430.052493 
L 323.193892 431.401354 
L 326.57571 410.550999 
L 329.957528 410.287756 
L 333.339347 410.733179 
L 336.721165 450.354711 
L 340.102983 470.247796 
L 343.484801 406.761136 
L 346.866619 336.328353 
L 350.248438 312.909517 
L 353.630256 341.08538 
L 357.012074 382.079538 
L 360.393892 412.180925 
L 367.157528 460.615073 
L 370.539347 481.778799 
L 373.921165 468.633082 
L 377.302983 411.054991 
L 380.684801 369.745867 
L 384.066619 406.521903 
L 387.448438 435.629898 
L 390.830256 470.996884 
L 394.212074 537.900801 
L 397.593892 534.838238 
L 400.97571 485.461167 
L 404.357528 453.712495 
L 407.739347 453.828778 
L 411.121165 464.886871 
L 414.502983 451.299259 
L 417.884801 419.786848 
L 421.266619 429.074964 
L 424.648438 508.52085 
L 428.030256 551.518125 
L 431.412074 518.872351 
L 434.793892 468.697079 
L 438.17571 434.866991 
L 441.557528 426.10501 
L 444.939347 407.106279 
L 448.321165 388.817533 
L 451.702983 385.360749 
L 455.084801 412.286323 
L 458.466619 425.66876 
L 461.848438 409.566011 
L 465.230256 391.510845 
L 468.612074 429.988301 
L 471.993892 495.13457 
L 475.37571 480.469 
L 478.757528 411.201319 
L 482.139347 352.829307 
L 485.521165 329.605578 
L 488.902983 346.277514 
L 492.284801 381.813539 
L 495.666619 381.488888 
L 499.048438 351.977092 
L 502.430256 350.934805 
L 505.812074 371.995431 
L 509.193892 370.334806 
L 512.57571 361.664803 
L 519.339347 420.303572 
L 522.721165 409.371368 
L 526.102983 407.470694 
L 529.484801 420.353668 
L 532.866619 427.549205 
L 536.248438 418.796629 
L 539.630256 387.841716 
L 543.012074 350.01635 
L 546.393892 354.927676 
L 549.77571 343.189415 
L 553.157528 326.977881 
L 556.539347 330.808899 
L 559.921165 306.388762 
L 563.302983 242.145231 
L 566.684801 234.602238 
L 570.066619 317.68365 
L 573.448437 361.505079 
L 576.830256 355.874376 
L 580.212074 335.716686 
L 583.593892 320.461098 
L 586.97571 316.669489 
L 590.357528 316.344465 
L 603.884801 316.334375 
L 603.884801 316.334375 
" style="fill:none;stroke:#2ca02c;stroke-linecap:square;stroke-width:1.5;"/>
   </g>
   <g id="line2d_22"/>
   <g id="line2d_23"/>
   <g id="line2d_24"/>
   <g id="line2d_25"/>
   <g id="patch_3">
    <path d="M 71.248438 576.718125 
L 71.248438 22.318125 
" style="fill:none;stroke:#000000;stroke-linecap:square;stroke-linejoin:miter;stroke-width:0.8;"/>
   </g>
   <g id="patch_4">
    <path d="M 629.248438 576.718125 
L 629.248438 22.318125 
" style="fill:none;stroke:#000000;stroke-linecap:square;stroke-linejoin:miter;stroke-width:0.8;"/>
   </g>
   <g id="patch_5">
    <path d="M 71.248438 576.718125 
L 629.248438 576.718125 
" style="fill:none;stroke:#000000;stroke-linecap:square;stroke-linejoin:miter;stroke-width:0.8;"/>
   </g>
   <g id="patch_6">
    <path d="M 71.248438 22.318125 
L 629.248438 22.318125 
" style="fill:none;stroke:#000000;stroke-linecap:square;stroke-linejoin:miter;stroke-width:0.8;"/>
   </g>
   <g id="text_21">
    <!-- Changed enrichment coefficient of motif MA0510.2 RFX5 as a function of motif position in sequence -->
    <defs>
     <path d="M 54.890625 33.015625 
L 54.890625 0 
L 45.90625 0 
L 45.90625 32.71875 
Q 45.90625 40.484375 42.875 44.328125 
Q 39.84375 48.1875 33.796875 48.1875 
Q 26.515625 48.1875 22.3125 43.546875 
Q 18.109375 38.921875 18.109375 30.90625 
L 18.109375 0 
L 9.078125 0 
L 9.078125 75.984375 
L 18.109375 75.984375 
L 18.109375 46.1875 
Q 21.34375 51.125 25.703125 53.5625 
Q 30.078125 56 35.796875 56 
Q 45.21875 56 50.046875 50.171875 
Q 54.890625 44.34375 54.890625 33.015625 
z
" id="DejaVuSans-104"/>
     <path d="M 34.28125 27.484375 
Q 23.390625 27.484375 19.1875 25 
Q 14.984375 22.515625 14.984375 16.5 
Q 14.984375 11.71875 18.140625 8.90625 
Q 21.296875 6.109375 26.703125 6.109375 
Q 34.1875 6.109375 38.703125 11.40625 
Q 43.21875 16.703125 43.21875 25.484375 
L 43.21875 27.484375 
z
M 52.203125 31.203125 
L 52.203125 0 
L 43.21875 0 
L 43.21875 8.296875 
Q 40.140625 3.328125 35.546875 0.953125 
Q 30.953125 -1.421875 24.3125 -1.421875 
Q 15.921875 -1.421875 10.953125 3.296875 
Q 6 8.015625 6 15.921875 
Q 6 25.140625 12.171875 29.828125 
Q 18.359375 34.515625 30.609375 34.515625 
L 43.21875 34.515625 
L 43.21875 35.40625 
Q 43.21875 41.609375 39.140625 45 
Q 35.0625 48.390625 27.6875 48.390625 
Q 23 48.390625 18.546875 47.265625 
Q 14.109375 46.140625 10.015625 43.890625 
L 10.015625 52.203125 
Q 14.9375 54.109375 19.578125 55.046875 
Q 24.21875 56 28.609375 56 
Q 40.484375 56 46.34375 49.84375 
Q 52.203125 43.703125 52.203125 31.203125 
z
" id="DejaVuSans-97"/>
     <path d="M 45.40625 27.984375 
Q 45.40625 37.75 41.375 43.109375 
Q 37.359375 48.484375 30.078125 48.484375 
Q 22.859375 48.484375 18.828125 43.109375 
Q 14.796875 37.75 14.796875 27.984375 
Q 14.796875 18.265625 18.828125 12.890625 
Q 22.859375 7.515625 30.078125 7.515625 
Q 37.359375 7.515625 41.375 12.890625 
Q 45.40625 18.265625 45.40625 27.984375 
z
M 54.390625 6.78125 
Q 54.390625 -7.171875 48.1875 -13.984375 
Q 42 -20.796875 29.203125 -20.796875 
Q 24.46875 -20.796875 20.265625 -20.09375 
Q 16.0625 -19.390625 12.109375 -17.921875 
L 12.109375 -9.1875 
Q 16.0625 -11.328125 19.921875 -12.34375 
Q 23.78125 -13.375 27.78125 -13.375 
Q 36.625 -13.375 41.015625 -8.765625 
Q 45.40625 -4.15625 45.40625 5.171875 
L 45.40625 9.625 
Q 42.625 4.78125 38.28125 2.390625 
Q 33.9375 0 27.875 0 
Q 17.828125 0 11.671875 7.65625 
Q 5.515625 15.328125 5.515625 27.984375 
Q 5.515625 40.671875 11.671875 48.328125 
Q 17.828125 56 27.875 56 
Q 33.9375 56 38.28125 53.609375 
Q 42.625 51.21875 45.40625 46.390625 
L 45.40625 54.6875 
L 54.390625 54.6875 
z
" id="DejaVuSans-103"/>
     <path d="M 45.40625 46.390625 
L 45.40625 75.984375 
L 54.390625 75.984375 
L 54.390625 0 
L 45.40625 0 
L 45.40625 8.203125 
Q 42.578125 3.328125 38.25 0.953125 
Q 33.9375 -1.421875 27.875 -1.421875 
Q 17.96875 -1.421875 11.734375 6.484375 
Q 5.515625 14.40625 5.515625 27.296875 
Q 5.515625 40.1875 11.734375 48.09375 
Q 17.96875 56 27.875 56 
Q 33.9375 56 38.25 53.625 
Q 42.578125 51.265625 45.40625 46.390625 
z
M 14.796875 27.296875 
Q 14.796875 17.390625 18.875 11.75 
Q 22.953125 6.109375 30.078125 6.109375 
Q 37.203125 6.109375 41.296875 11.75 
Q 45.40625 17.390625 45.40625 27.296875 
Q 45.40625 37.203125 41.296875 42.84375 
Q 37.203125 48.484375 30.078125 48.484375 
Q 22.953125 48.484375 18.875 42.84375 
Q 14.796875 37.203125 14.796875 27.296875 
z
" id="DejaVuSans-100"/>
     <path d="M 41.109375 46.296875 
Q 39.59375 47.171875 37.8125 47.578125 
Q 36.03125 48 33.890625 48 
Q 26.265625 48 22.1875 43.046875 
Q 18.109375 38.09375 18.109375 28.8125 
L 18.109375 0 
L 9.078125 0 
L 9.078125 54.6875 
L 18.109375 54.6875 
L 18.109375 46.1875 
Q 20.953125 51.171875 25.484375 53.578125 
Q 30.03125 56 36.53125 56 
Q 37.453125 56 38.578125 55.875 
Q 39.703125 55.765625 41.0625 55.515625 
z
" id="DejaVuSans-114"/>
     <path d="M 52 44.1875 
Q 55.375 50.25 60.0625 53.125 
Q 64.75 56 71.09375 56 
Q 79.640625 56 84.28125 50.015625 
Q 88.921875 44.046875 88.921875 33.015625 
L 88.921875 0 
L 79.890625 0 
L 79.890625 32.71875 
Q 79.890625 40.578125 77.09375 44.375 
Q 74.3125 48.1875 68.609375 48.1875 
Q 61.625 48.1875 57.5625 43.546875 
Q 53.515625 38.921875 53.515625 30.90625 
L 53.515625 0 
L 44.484375 0 
L 44.484375 32.71875 
Q 44.484375 40.625 41.703125 44.40625 
Q 38.921875 48.1875 33.109375 48.1875 
Q 26.21875 48.1875 22.15625 43.53125 
Q 18.109375 38.875 18.109375 30.90625 
L 18.109375 0 
L 9.078125 0 
L 9.078125 54.6875 
L 18.109375 54.6875 
L 18.109375 46.1875 
Q 21.1875 51.21875 25.484375 53.609375 
Q 29.78125 56 35.6875 56 
Q 41.65625 56 45.828125 52.96875 
Q 50 49.953125 52 44.1875 
z
" id="DejaVuSans-109"/>
     <path d="M 34.1875 63.1875 
L 20.796875 26.90625 
L 47.609375 26.90625 
z
M 28.609375 72.90625 
L 39.796875 72.90625 
L 67.578125 0 
L 57.328125 0 
L 50.6875 18.703125 
L 17.828125 18.703125 
L 11.1875 0 
L 0.78125 0 
z
" id="DejaVuSans-65"/>
     <path d="M 44.390625 34.1875 
Q 47.5625 33.109375 50.5625 29.59375 
Q 53.5625 26.078125 56.59375 19.921875 
L 66.609375 0 
L 56 0 
L 46.6875 18.703125 
Q 43.0625 26.03125 39.671875 28.421875 
Q 36.28125 30.8125 30.421875 30.8125 
L 19.671875 30.8125 
L 19.671875 0 
L 9.8125 0 
L 9.8125 72.90625 
L 32.078125 72.90625 
Q 44.578125 72.90625 50.734375 67.671875 
Q 56.890625 62.453125 56.890625 51.90625 
Q 56.890625 45.015625 53.6875 40.46875 
Q 50.484375 35.9375 44.390625 34.1875 
z
M 19.671875 64.796875 
L 19.671875 38.921875 
L 32.078125 38.921875 
Q 39.203125 38.921875 42.84375 42.21875 
Q 46.484375 45.515625 46.484375 51.90625 
Q 46.484375 58.296875 42.84375 61.546875 
Q 39.203125 64.796875 32.078125 64.796875 
z
" id="DejaVuSans-82"/>
     <path d="M 9.8125 72.90625 
L 51.703125 72.90625 
L 51.703125 64.59375 
L 19.671875 64.59375 
L 19.671875 43.109375 
L 48.578125 43.109375 
L 48.578125 34.8125 
L 19.671875 34.8125 
L 19.671875 0 
L 9.8125 0 
z
" id="DejaVuSans-70"/>
     <path d="M 6.296875 72.90625 
L 16.890625 72.90625 
L 35.015625 45.796875 
L 53.21875 72.90625 
L 63.8125 72.90625 
L 40.375 37.890625 
L 65.375 0 
L 54.78125 0 
L 34.28125 31 
L 13.625 0 
L 2.984375 0 
L 29 38.921875 
z
" id="DejaVuSans-88"/>
     <path d="M 8.5 21.578125 
L 8.5 54.6875 
L 17.484375 54.6875 
L 17.484375 21.921875 
Q 17.484375 14.15625 20.5 10.265625 
Q 23.53125 6.390625 29.59375 6.390625 
Q 36.859375 6.390625 41.078125 11.03125 
Q 45.3125 15.671875 45.3125 23.6875 
L 45.3125 54.6875 
L 54.296875 54.6875 
L 54.296875 0 
L 45.3125 0 
L 45.3125 8.40625 
Q 42.046875 3.421875 37.71875 1 
Q 33.40625 -1.421875 27.6875 -1.421875 
Q 18.265625 -1.421875 13.375 4.4375 
Q 8.5 10.296875 8.5 21.578125 
z
M 31.109375 56 
z
" id="DejaVuSans-117"/>
     <path d="M 18.109375 8.203125 
L 18.109375 -20.796875 
L 9.078125 -20.796875 
L 9.078125 54.6875 
L 18.109375 54.6875 
L 18.109375 46.390625 
Q 20.953125 51.265625 25.265625 53.625 
Q 29.59375 56 35.59375 56 
Q 45.5625 56 51.78125 48.09375 
Q 58.015625 40.1875 58.015625 27.296875 
Q 58.015625 14.40625 51.78125 6.484375 
Q 45.5625 -1.421875 35.59375 -1.421875 
Q 29.59375 -1.421875 25.265625 0.953125 
Q 20.953125 3.328125 18.109375 8.203125 
z
M 48.6875 27.296875 
Q 48.6875 37.203125 44.609375 42.84375 
Q 40.53125 48.484375 33.40625 48.484375 
Q 26.265625 48.484375 22.1875 42.84375 
Q 18.109375 37.203125 18.109375 27.296875 
Q 18.109375 17.390625 22.1875 11.75 
Q 26.265625 6.109375 33.40625 6.109375 
Q 40.53125 6.109375 44.609375 11.75 
Q 48.6875 17.390625 48.6875 27.296875 
z
" id="DejaVuSans-112"/>
     <path d="M 14.796875 27.296875 
Q 14.796875 17.390625 18.875 11.75 
Q 22.953125 6.109375 30.078125 6.109375 
Q 37.203125 6.109375 41.296875 11.75 
Q 45.40625 17.390625 45.40625 27.296875 
Q 45.40625 37.203125 41.296875 42.84375 
Q 37.203125 48.484375 30.078125 48.484375 
Q 22.953125 48.484375 18.875 42.84375 
Q 14.796875 37.203125 14.796875 27.296875 
z
M 45.40625 8.203125 
Q 42.578125 3.328125 38.25 0.953125 
Q 33.9375 -1.421875 27.875 -1.421875 
Q 17.96875 -1.421875 11.734375 6.484375 
Q 5.515625 14.40625 5.515625 27.296875 
Q 5.515625 40.1875 11.734375 48.09375 
Q 17.96875 56 27.875 56 
Q 33.9375 56 38.25 53.625 
Q 42.578125 51.265625 45.40625 46.390625 
L 45.40625 54.6875 
L 54.390625 54.6875 
L 54.390625 -20.796875 
L 45.40625 -20.796875 
z
" id="DejaVuSans-113"/>
    </defs>
    <g transform="translate(49.162813 16.318125)scale(0.12 -0.12)">
     <use xlink:href="#DejaVuSans-67"/>
     <use x="69.824219" xlink:href="#DejaVuSans-104"/>
     <use x="133.203125" xlink:href="#DejaVuSans-97"/>
     <use x="194.482422" xlink:href="#DejaVuSans-110"/>
     <use x="257.861328" xlink:href="#DejaVuSans-103"/>
     <use x="321.337891" xlink:href="#DejaVuSans-101"/>
     <use x="382.861328" xlink:href="#DejaVuSans-100"/>
     <use x="446.337891" xlink:href="#DejaVuSans-32"/>
     <use x="478.125" xlink:href="#DejaVuSans-101"/>
     <use x="539.648438" xlink:href="#DejaVuSans-110"/>
     <use x="603.027344" xlink:href="#DejaVuSans-114"/>
     <use x="644.140625" xlink:href="#DejaVuSans-105"/>
     <use x="671.923828" xlink:href="#DejaVuSans-99"/>
     <use x="726.904297" xlink:href="#DejaVuSans-104"/>
     <use x="790.283203" xlink:href="#DejaVuSans-109"/>
     <use x="887.695312" xlink:href="#DejaVuSans-101"/>
     <use x="949.21875" xlink:href="#DejaVuSans-110"/>
     <use x="1012.597656" xlink:href="#DejaVuSans-116"/>
     <use x="1051.806641" xlink:href="#DejaVuSans-32"/>
     <use x="1083.59375" xlink:href="#DejaVuSans-99"/>
     <use x="1138.574219" xlink:href="#DejaVuSans-111"/>
     <use x="1199.755859" xlink:href="#DejaVuSans-101"/>
     <use x="1261.279297" xlink:href="#DejaVuSans-102"/>
     <use x="1296.484375" xlink:href="#DejaVuSans-102"/>
     <use x="1331.689453" xlink:href="#DejaVuSans-105"/>
     <use x="1359.472656" xlink:href="#DejaVuSans-99"/>
     <use x="1414.453125" xlink:href="#DejaVuSans-105"/>
     <use x="1442.236328" xlink:href="#DejaVuSans-101"/>
     <use x="1503.759766" xlink:href="#DejaVuSans-110"/>
     <use x="1567.138672" xlink:href="#DejaVuSans-116"/>
     <use x="1606.347656" xlink:href="#DejaVuSans-32"/>
     <use x="1638.134766" xlink:href="#DejaVuSans-111"/>
     <use x="1699.316406" xlink:href="#DejaVuSans-102"/>
     <use x="1734.521484" xlink:href="#DejaVuSans-32"/>
     <use x="1766.308594" xlink:href="#DejaVuSans-109"/>
     <use x="1863.720703" xlink:href="#DejaVuSans-111"/>
     <use x="1924.902344" xlink:href="#DejaVuSans-116"/>
     <use x="1964.111328" xlink:href="#DejaVuSans-105"/>
     <use x="1991.894531" xlink:href="#DejaVuSans-102"/>
     <use x="2027.099609" xlink:href="#DejaVuSans-32"/>
     <use x="2058.886719" xlink:href="#DejaVuSans-77"/>
     <use x="2145.166016" xlink:href="#DejaVuSans-65"/>
     <use x="2213.574219" xlink:href="#DejaVuSans-48"/>
     <use x="2277.197266" xlink:href="#DejaVuSans-53"/>
     <use x="2340.820312" xlink:href="#DejaVuSans-49"/>
     <use x="2404.443359" xlink:href="#DejaVuSans-48"/>
     <use x="2468.066406" xlink:href="#DejaVuSans-46"/>
     <use x="2499.853516" xlink:href="#DejaVuSans-50"/>
     <use x="2563.476562" xlink:href="#DejaVuSans-32"/>
     <use x="2595.263672" xlink:href="#DejaVuSans-82"/>
     <use x="2664.746094" xlink:href="#DejaVuSans-70"/>
     <use x="2722.265625" xlink:href="#DejaVuSans-88"/>
     <use x="2790.771484" xlink:href="#DejaVuSans-53"/>
     <use x="2854.394531" xlink:href="#DejaVuSans-32"/>
     <use x="2886.181641" xlink:href="#DejaVuSans-97"/>
     <use x="2947.460938" xlink:href="#DejaVuSans-115"/>
     <use x="2999.560547" xlink:href="#DejaVuSans-32"/>
     <use x="3031.347656" xlink:href="#DejaVuSans-97"/>
     <use x="3092.626953" xlink:href="#DejaVuSans-32"/>
     <use x="3124.414062" xlink:href="#DejaVuSans-102"/>
     <use x="3159.619141" xlink:href="#DejaVuSans-117"/>
     <use x="3222.998047" xlink:href="#DejaVuSans-110"/>
     <use x="3286.376953" xlink:href="#DejaVuSans-99"/>
     <use x="3341.357422" xlink:href="#DejaVuSans-116"/>
     <use x="3380.566406" xlink:href="#DejaVuSans-105"/>
     <use x="3408.349609" xlink:href="#DejaVuSans-111"/>
     <use x="3469.53125" xlink:href="#DejaVuSans-110"/>
     <use x="3532.910156" xlink:href="#DejaVuSans-32"/>
     <use x="3564.697266" xlink:href="#DejaVuSans-111"/>
     <use x="3625.878906" xlink:href="#DejaVuSans-102"/>
     <use x="3661.083984" xlink:href="#DejaVuSans-32"/>
     <use x="3692.871094" xlink:href="#DejaVuSans-109"/>
     <use x="3790.283203" xlink:href="#DejaVuSans-111"/>
     <use x="3851.464844" xlink:href="#DejaVuSans-116"/>
     <use x="3890.673828" xlink:href="#DejaVuSans-105"/>
     <use x="3918.457031" xlink:href="#DejaVuSans-102"/>
     <use x="3953.662109" xlink:href="#DejaVuSans-32"/>
     <use x="3985.449219" xlink:href="#DejaVuSans-112"/>
     <use x="4048.925781" xlink:href="#DejaVuSans-111"/>
     <use x="4110.107422" xlink:href="#DejaVuSans-115"/>
     <use x="4162.207031" xlink:href="#DejaVuSans-105"/>
     <use x="4189.990234" xlink:href="#DejaVuSans-116"/>
     <use x="4229.199219" xlink:href="#DejaVuSans-105"/>
     <use x="4256.982422" xlink:href="#DejaVuSans-111"/>
     <use x="4318.164062" xlink:href="#DejaVuSans-110"/>
     <use x="4381.542969" xlink:href="#DejaVuSans-32"/>
     <use x="4413.330078" xlink:href="#DejaVuSans-105"/>
     <use x="4441.113281" xlink:href="#DejaVuSans-110"/>
     <use x="4504.492188" xlink:href="#DejaVuSans-32"/>
     <use x="4536.279297" xlink:href="#DejaVuSans-115"/>
     <use x="4588.378906" xlink:href="#DejaVuSans-101"/>
     <use x="4649.902344" xlink:href="#DejaVuSans-113"/>
     <use x="4713.378906" xlink:href="#DejaVuSans-117"/>
     <use x="4776.757812" xlink:href="#DejaVuSans-101"/>
     <use x="4838.28125" xlink:href="#DejaVuSans-110"/>
     <use x="4901.660156" xlink:href="#DejaVuSans-99"/>
     <use x="4956.640625" xlink:href="#DejaVuSans-101"/>
    </g>
   </g>
   <g id="legend_1">
    <g id="patch_7">
     <path d="M 424.764063 89.030625 
L 622.248438 89.030625 
Q 624.248438 89.030625 624.248438 87.030625 
L 624.248438 29.318125 
Q 624.248438 27.318125 622.248438 27.318125 
L 424.764063 27.318125 
Q 422.764063 27.318125 422.764063 29.318125 
L 422.764063 87.030625 
Q 422.764063 89.030625 424.764063 89.030625 
z
" style="fill:#ffffff;opacity:0.8;stroke:#cccccc;stroke-linejoin:miter;"/>
    </g>
    <g id="line2d_26">
     <path d="M 426.764063 35.416562 
L 446.764063 35.416562 
" style="fill:none;"/>
    </g>
    <g id="line2d_27"/>
    <g id="text_22">
     <!-- Measurement -->
     <g transform="translate(454.764063 38.916562)scale(0.1 -0.1)">
      <use xlink:href="#DejaVuSans-77"/>
      <use x="86.279297" xlink:href="#DejaVuSans-101"/>
      <use x="147.802734" xlink:href="#DejaVuSans-97"/>
      <use x="209.082031" xlink:href="#DejaVuSans-115"/>
      <use x="261.181641" xlink:href="#DejaVuSans-117"/>
      <use x="324.560547" xlink:href="#DejaVuSans-114"/>
      <use x="363.423828" xlink:href="#DejaVuSans-101"/>
      <use x="424.947266" xlink:href="#DejaVuSans-109"/>
      <use x="522.359375" xlink:href="#DejaVuSans-101"/>
      <use x="583.882812" xlink:href="#DejaVuSans-110"/>
      <use x="647.261719" xlink:href="#DejaVuSans-116"/>
     </g>
    </g>
    <g id="line2d_28">
     <path d="M 426.764063 50.094687 
L 446.764063 50.094687 
" style="fill:none;stroke:#1f77b4;stroke-linecap:square;stroke-width:1.5;"/>
    </g>
    <g id="line2d_29"/>
    <g id="text_23">
     <!-- Positional Enrichment Coefficient -->
     <defs>
      <path d="M 9.421875 75.984375 
L 18.40625 75.984375 
L 18.40625 0 
L 9.421875 0 
z
" id="DejaVuSans-108"/>
      <path d="M 9.8125 72.90625 
L 55.90625 72.90625 
L 55.90625 64.59375 
L 19.671875 64.59375 
L 19.671875 43.015625 
L 54.390625 43.015625 
L 54.390625 34.71875 
L 19.671875 34.71875 
L 19.671875 8.296875 
L 56.78125 8.296875 
L 56.78125 0 
L 9.8125 0 
z
" id="DejaVuSans-69"/>
     </defs>
     <g transform="translate(454.764063 53.594687)scale(0.1 -0.1)">
      <use xlink:href="#DejaVuSans-80"/>
      <use x="56.677734" xlink:href="#DejaVuSans-111"/>
      <use x="117.859375" xlink:href="#DejaVuSans-115"/>
      <use x="169.958984" xlink:href="#DejaVuSans-105"/>
      <use x="197.742188" xlink:href="#DejaVuSans-116"/>
      <use x="236.951172" xlink:href="#DejaVuSans-105"/>
      <use x="264.734375" xlink:href="#DejaVuSans-111"/>
      <use x="325.916016" xlink:href="#DejaVuSans-110"/>
      <use x="389.294922" xlink:href="#DejaVuSans-97"/>
      <use x="450.574219" xlink:href="#DejaVuSans-108"/>
      <use x="478.357422" xlink:href="#DejaVuSans-32"/>
      <use x="510.144531" xlink:href="#DejaVuSans-69"/>
      <use x="573.328125" xlink:href="#DejaVuSans-110"/>
      <use x="636.707031" xlink:href="#DejaVuSans-114"/>
      <use x="677.820312" xlink:href="#DejaVuSans-105"/>
      <use x="705.603516" xlink:href="#DejaVuSans-99"/>
      <use x="760.583984" xlink:href="#DejaVuSans-104"/>
      <use x="823.962891" xlink:href="#DejaVuSans-109"/>
      <use x="921.375" xlink:href="#DejaVuSans-101"/>
      <use x="982.898438" xlink:href="#DejaVuSans-110"/>
      <use x="1046.277344" xlink:href="#DejaVuSans-116"/>
      <use x="1085.486328" xlink:href="#DejaVuSans-32"/>
      <use x="1117.273438" xlink:href="#DejaVuSans-67"/>
      <use x="1187.097656" xlink:href="#DejaVuSans-111"/>
      <use x="1248.279297" xlink:href="#DejaVuSans-101"/>
      <use x="1309.802734" xlink:href="#DejaVuSans-102"/>
      <use x="1345.007812" xlink:href="#DejaVuSans-102"/>
      <use x="1380.212891" xlink:href="#DejaVuSans-105"/>
      <use x="1407.996094" xlink:href="#DejaVuSans-99"/>
      <use x="1462.976562" xlink:href="#DejaVuSans-105"/>
      <use x="1490.759766" xlink:href="#DejaVuSans-101"/>
      <use x="1552.283203" xlink:href="#DejaVuSans-110"/>
      <use x="1615.662109" xlink:href="#DejaVuSans-116"/>
     </g>
    </g>
    <g id="line2d_30">
     <path d="M 426.764063 64.772812 
L 446.764063 64.772812 
" style="fill:none;stroke:#ff7f0e;stroke-linecap:square;stroke-width:1.5;"/>
    </g>
    <g id="line2d_31"/>
    <g id="text_24">
     <!-- 95% CI Upper -->
     <defs>
      <path d="M 10.984375 1.515625 
L 10.984375 10.5 
Q 14.703125 8.734375 18.5 7.8125 
Q 22.3125 6.890625 25.984375 6.890625 
Q 35.75 6.890625 40.890625 13.453125 
Q 46.046875 20.015625 46.78125 33.40625 
Q 43.953125 29.203125 39.59375 26.953125 
Q 35.25 24.703125 29.984375 24.703125 
Q 19.046875 24.703125 12.671875 31.3125 
Q 6.296875 37.9375 6.296875 49.421875 
Q 6.296875 60.640625 12.9375 67.421875 
Q 19.578125 74.21875 30.609375 74.21875 
Q 43.265625 74.21875 49.921875 64.515625 
Q 56.59375 54.828125 56.59375 36.375 
Q 56.59375 19.140625 48.40625 8.859375 
Q 40.234375 -1.421875 26.421875 -1.421875 
Q 22.703125 -1.421875 18.890625 -0.6875 
Q 15.09375 0.046875 10.984375 1.515625 
z
M 30.609375 32.421875 
Q 37.25 32.421875 41.125 36.953125 
Q 45.015625 41.5 45.015625 49.421875 
Q 45.015625 57.28125 41.125 61.84375 
Q 37.25 66.40625 30.609375 66.40625 
Q 23.96875 66.40625 20.09375 61.84375 
Q 16.21875 57.28125 16.21875 49.421875 
Q 16.21875 41.5 20.09375 36.953125 
Q 23.96875 32.421875 30.609375 32.421875 
z
" id="DejaVuSans-57"/>
      <path d="M 72.703125 32.078125 
Q 68.453125 32.078125 66.03125 28.46875 
Q 63.625 24.859375 63.625 18.40625 
Q 63.625 12.0625 66.03125 8.421875 
Q 68.453125 4.78125 72.703125 4.78125 
Q 76.859375 4.78125 79.265625 8.421875 
Q 81.6875 12.0625 81.6875 18.40625 
Q 81.6875 24.8125 79.265625 28.4375 
Q 76.859375 32.078125 72.703125 32.078125 
z
M 72.703125 38.28125 
Q 80.421875 38.28125 84.953125 32.90625 
Q 89.5 27.546875 89.5 18.40625 
Q 89.5 9.28125 84.9375 3.921875 
Q 80.375 -1.421875 72.703125 -1.421875 
Q 64.890625 -1.421875 60.34375 3.921875 
Q 55.8125 9.28125 55.8125 18.40625 
Q 55.8125 27.59375 60.375 32.9375 
Q 64.9375 38.28125 72.703125 38.28125 
z
M 22.3125 68.015625 
Q 18.109375 68.015625 15.6875 64.375 
Q 13.28125 60.75 13.28125 54.390625 
Q 13.28125 47.953125 15.671875 44.328125 
Q 18.0625 40.71875 22.3125 40.71875 
Q 26.5625 40.71875 28.96875 44.328125 
Q 31.390625 47.953125 31.390625 54.390625 
Q 31.390625 60.6875 28.953125 64.34375 
Q 26.515625 68.015625 22.3125 68.015625 
z
M 66.40625 74.21875 
L 74.21875 74.21875 
L 28.609375 -1.421875 
L 20.796875 -1.421875 
z
M 22.3125 74.21875 
Q 30.03125 74.21875 34.609375 68.875 
Q 39.203125 63.53125 39.203125 54.390625 
Q 39.203125 45.171875 34.640625 39.84375 
Q 30.078125 34.515625 22.3125 34.515625 
Q 14.546875 34.515625 10.03125 39.859375 
Q 5.515625 45.21875 5.515625 54.390625 
Q 5.515625 63.484375 10.046875 68.84375 
Q 14.59375 74.21875 22.3125 74.21875 
z
" id="DejaVuSans-37"/>
      <path d="M 9.8125 72.90625 
L 19.671875 72.90625 
L 19.671875 0 
L 9.8125 0 
z
" id="DejaVuSans-73"/>
      <path d="M 8.6875 72.90625 
L 18.609375 72.90625 
L 18.609375 28.609375 
Q 18.609375 16.890625 22.84375 11.734375 
Q 27.09375 6.59375 36.625 6.59375 
Q 46.09375 6.59375 50.34375 11.734375 
Q 54.59375 16.890625 54.59375 28.609375 
L 54.59375 72.90625 
L 64.5 72.90625 
L 64.5 27.390625 
Q 64.5 13.140625 57.4375 5.859375 
Q 50.390625 -1.421875 36.625 -1.421875 
Q 22.796875 -1.421875 15.734375 5.859375 
Q 8.6875 13.140625 8.6875 27.390625 
z
" id="DejaVuSans-85"/>
     </defs>
     <g transform="translate(454.764063 68.272812)scale(0.1 -0.1)">
      <use xlink:href="#DejaVuSans-57"/>
      <use x="63.623047" xlink:href="#DejaVuSans-53"/>
      <use x="127.246094" xlink:href="#DejaVuSans-37"/>
      <use x="222.265625" xlink:href="#DejaVuSans-32"/>
      <use x="254.052734" xlink:href="#DejaVuSans-67"/>
      <use x="323.876953" xlink:href="#DejaVuSans-73"/>
      <use x="353.369141" xlink:href="#DejaVuSans-32"/>
      <use x="385.15625" xlink:href="#DejaVuSans-85"/>
      <use x="458.349609" xlink:href="#DejaVuSans-112"/>
      <use x="521.826172" xlink:href="#DejaVuSans-112"/>
      <use x="585.302734" xlink:href="#DejaVuSans-101"/>
      <use x="646.826172" xlink:href="#DejaVuSans-114"/>
     </g>
    </g>
    <g id="line2d_32">
     <path d="M 426.764063 79.450937 
L 446.764063 79.450937 
" style="fill:none;stroke:#2ca02c;stroke-linecap:square;stroke-width:1.5;"/>
    </g>
    <g id="line2d_33"/>
    <g id="text_25">
     <!-- 95% CI Lower -->
     <defs>
      <path d="M 9.8125 72.90625 
L 19.671875 72.90625 
L 19.671875 8.296875 
L 55.171875 8.296875 
L 55.171875 0 
L 9.8125 0 
z
" id="DejaVuSans-76"/>
      <path d="M 4.203125 54.6875 
L 13.1875 54.6875 
L 24.421875 12.015625 
L 35.59375 54.6875 
L 46.1875 54.6875 
L 57.421875 12.015625 
L 68.609375 54.6875 
L 77.59375 54.6875 
L 63.28125 0 
L 52.6875 0 
L 40.921875 44.828125 
L 29.109375 0 
L 18.5 0 
z
" id="DejaVuSans-119"/>
     </defs>
     <g transform="translate(454.764063 82.950937)scale(0.1 -0.1)">
      <use xlink:href="#DejaVuSans-57"/>
      <use x="63.623047" xlink:href="#DejaVuSans-53"/>
      <use x="127.246094" xlink:href="#DejaVuSans-37"/>
      <use x="222.265625" xlink:href="#DejaVuSans-32"/>
      <use x="254.052734" xlink:href="#DejaVuSans-67"/>
      <use x="323.876953" xlink:href="#DejaVuSans-73"/>
      <use x="353.369141" xlink:href="#DejaVuSans-32"/>
      <use x="385.15625" xlink:href="#DejaVuSans-76"/>
      <use x="439.119141" xlink:href="#DejaVuSans-111"/>
      <use x="500.300781" xlink:href="#DejaVuSans-119"/>
      <use x="582.087891" xlink:href="#DejaVuSans-101"/>
      <use x="643.611328" xlink:href="#DejaVuSans-114"/>
     </g>
    </g>
   </g>
  </g>
 </g>
 <defs>
  <clipPath id="pd569040e72">
   <rect height="554.4" width="558" x="71.248438" y="22.318125"/>
  </clipPath>
 </defs>
</svg>
