<?xml version="1.0" encoding="utf-8" standalone="no"?>
<!DOCTYPE svg PUBLIC "-//W3C//DTD SVG 1.1//EN"
  "http://www.w3.org/Graphics/SVG/1.1/DTD/svg11.dtd">
<!-- Created with matplotlib (https://matplotlib.org/) -->
<svg height="614.274375pt" version="1.1" viewBox="0 0 652.058125 614.274375" width="652.058125pt" xmlns="http://www.w3.org/2000/svg" xmlns:xlink="http://www.w3.org/1999/xlink">
 <defs>
  <style type="text/css">
*{stroke-linecap:butt;stroke-linejoin:round;}
  </style>
 </defs>
 <g id="figure_1">
  <g id="patch_1">
   <path d="M 0 614.274375 
L 652.058125 614.274375 
L 652.058125 0 
L 0 0 
z
" style="fill:#ffffff;"/>
  </g>
  <g id="axes_1">
   <g id="patch_2">
    <path d="M 64.885938 576.718125 
L 622.885937 576.718125 
L 622.885937 22.318125 
L 64.885938 22.318125 
z
" style="fill:#ffffff;"/>
   </g>
   <g id="matplotlib.axis_1">
    <g id="xtick_1">
     <g id="line2d_1">
      <defs>
       <path d="M 0 0 
L 0 3.5 
" id="m6fc41732f6" style="stroke:#000000;stroke-width:0.8;"/>
      </defs>
      <g>
       <use style="stroke:#000000;stroke-width:0.8;" x="73.340483" xlink:href="#m6fc41732f6" y="576.718125"/>
      </g>
     </g>
     <g id="text_1">
      <!-- −80 -->
      <defs>
       <path d="M 10.59375 35.5 
L 73.1875 35.5 
L 73.1875 27.203125 
L 10.59375 27.203125 
z
" id="DejaVuSans-8722"/>
       <path d="M 31.78125 34.625 
Q 24.75 34.625 20.71875 30.859375 
Q 16.703125 27.09375 16.703125 20.515625 
Q 16.703125 13.921875 20.71875 10.15625 
Q 24.75 6.390625 31.78125 6.390625 
Q 38.8125 6.390625 42.859375 10.171875 
Q 46.921875 13.96875 46.921875 20.515625 
Q 46.921875 27.09375 42.890625 30.859375 
Q 38.875 34.625 31.78125 34.625 
z
M 21.921875 38.8125 
Q 15.578125 40.375 12.03125 44.71875 
Q 8.5 49.078125 8.5 55.328125 
Q 8.5 64.0625 14.71875 69.140625 
Q 20.953125 74.21875 31.78125 74.21875 
Q 42.671875 74.21875 48.875 69.140625 
Q 55.078125 64.0625 55.078125 55.328125 
Q 55.078125 49.078125 51.53125 44.71875 
Q 48 40.375 41.703125 38.8125 
Q 48.828125 37.15625 52.796875 32.3125 
Q 56.78125 27.484375 56.78125 20.515625 
Q 56.78125 9.90625 50.3125 4.234375 
Q 43.84375 -1.421875 31.78125 -1.421875 
Q 19.734375 -1.421875 13.25 4.234375 
Q 6.78125 9.90625 6.78125 20.515625 
Q 6.78125 27.484375 10.78125 32.3125 
Q 14.796875 37.15625 21.921875 38.8125 
z
M 18.3125 54.390625 
Q 18.3125 48.734375 21.84375 45.5625 
Q 25.390625 42.390625 31.78125 42.390625 
Q 38.140625 42.390625 41.71875 45.5625 
Q 45.3125 48.734375 45.3125 54.390625 
Q 45.3125 60.0625 41.71875 63.234375 
Q 38.140625 66.40625 31.78125 66.40625 
Q 25.390625 66.40625 21.84375 63.234375 
Q 18.3125 60.0625 18.3125 54.390625 
z
" id="DejaVuSans-56"/>
       <path d="M 31.78125 66.40625 
Q 24.171875 66.40625 20.328125 58.90625 
Q 16.5 51.421875 16.5 36.375 
Q 16.5 21.390625 20.328125 13.890625 
Q 24.171875 6.390625 31.78125 6.390625 
Q 39.453125 6.390625 43.28125 13.890625 
Q 47.125 21.390625 47.125 36.375 
Q 47.125 51.421875 43.28125 58.90625 
Q 39.453125 66.40625 31.78125 66.40625 
z
M 31.78125 74.21875 
Q 44.046875 74.21875 50.515625 64.515625 
Q 56.984375 54.828125 56.984375 36.375 
Q 56.984375 17.96875 50.515625 8.265625 
Q 44.046875 -1.421875 31.78125 -1.421875 
Q 19.53125 -1.421875 13.0625 8.265625 
Q 6.59375 17.96875 6.59375 36.375 
Q 6.59375 54.828125 13.0625 64.515625 
Q 19.53125 74.21875 31.78125 74.21875 
z
" id="DejaVuSans-48"/>
      </defs>
      <g transform="translate(62.788139 591.316563)scale(0.1 -0.1)">
       <use xlink:href="#DejaVuSans-8722"/>
       <use x="83.789062" xlink:href="#DejaVuSans-56"/>
       <use x="147.412109" xlink:href="#DejaVuSans-48"/>
      </g>
     </g>
    </g>
    <g id="xtick_2">
     <g id="line2d_2">
      <g>
       <use style="stroke:#000000;stroke-width:0.8;" x="140.976847" xlink:href="#m6fc41732f6" y="576.718125"/>
      </g>
     </g>
     <g id="text_2">
      <!-- −60 -->
      <defs>
       <path d="M 33.015625 40.375 
Q 26.375 40.375 22.484375 35.828125 
Q 18.609375 31.296875 18.609375 23.390625 
Q 18.609375 15.53125 22.484375 10.953125 
Q 26.375 6.390625 33.015625 6.390625 
Q 39.65625 6.390625 43.53125 10.953125 
Q 47.40625 15.53125 47.40625 23.390625 
Q 47.40625 31.296875 43.53125 35.828125 
Q 39.65625 40.375 33.015625 40.375 
z
M 52.59375 71.296875 
L 52.59375 62.3125 
Q 48.875 64.0625 45.09375 64.984375 
Q 41.3125 65.921875 37.59375 65.921875 
Q 27.828125 65.921875 22.671875 59.328125 
Q 17.53125 52.734375 16.796875 39.40625 
Q 19.671875 43.65625 24.015625 45.921875 
Q 28.375 48.1875 33.59375 48.1875 
Q 44.578125 48.1875 50.953125 41.515625 
Q 57.328125 34.859375 57.328125 23.390625 
Q 57.328125 12.15625 50.6875 5.359375 
Q 44.046875 -1.421875 33.015625 -1.421875 
Q 20.359375 -1.421875 13.671875 8.265625 
Q 6.984375 17.96875 6.984375 36.375 
Q 6.984375 53.65625 15.1875 63.9375 
Q 23.390625 74.21875 37.203125 74.21875 
Q 40.921875 74.21875 44.703125 73.484375 
Q 48.484375 72.75 52.59375 71.296875 
z
" id="DejaVuSans-54"/>
      </defs>
      <g transform="translate(130.424503 591.316563)scale(0.1 -0.1)">
       <use xlink:href="#DejaVuSans-8722"/>
       <use x="83.789062" xlink:href="#DejaVuSans-54"/>
       <use x="147.412109" xlink:href="#DejaVuSans-48"/>
      </g>
     </g>
    </g>
    <g id="xtick_3">
     <g id="line2d_3">
      <g>
       <use style="stroke:#000000;stroke-width:0.8;" x="208.61321" xlink:href="#m6fc41732f6" y="576.718125"/>
      </g>
     </g>
     <g id="text_3">
      <!-- −40 -->
      <defs>
       <path d="M 37.796875 64.3125 
L 12.890625 25.390625 
L 37.796875 25.390625 
z
M 35.203125 72.90625 
L 47.609375 72.90625 
L 47.609375 25.390625 
L 58.015625 25.390625 
L 58.015625 17.1875 
L 47.609375 17.1875 
L 47.609375 0 
L 37.796875 0 
L 37.796875 17.1875 
L 4.890625 17.1875 
L 4.890625 26.703125 
z
" id="DejaVuSans-52"/>
      </defs>
      <g transform="translate(198.060866 591.316563)scale(0.1 -0.1)">
       <use xlink:href="#DejaVuSans-8722"/>
       <use x="83.789062" xlink:href="#DejaVuSans-52"/>
       <use x="147.412109" xlink:href="#DejaVuSans-48"/>
      </g>
     </g>
    </g>
    <g id="xtick_4">
     <g id="line2d_4">
      <g>
       <use style="stroke:#000000;stroke-width:0.8;" x="276.249574" xlink:href="#m6fc41732f6" y="576.718125"/>
      </g>
     </g>
     <g id="text_4">
      <!-- −20 -->
      <defs>
       <path d="M 19.1875 8.296875 
L 53.609375 8.296875 
L 53.609375 0 
L 7.328125 0 
L 7.328125 8.296875 
Q 12.9375 14.109375 22.625 23.890625 
Q 32.328125 33.6875 34.8125 36.53125 
Q 39.546875 41.84375 41.421875 45.53125 
Q 43.3125 49.21875 43.3125 52.78125 
Q 43.3125 58.59375 39.234375 62.25 
Q 35.15625 65.921875 28.609375 65.921875 
Q 23.96875 65.921875 18.8125 64.3125 
Q 13.671875 62.703125 7.8125 59.421875 
L 7.8125 69.390625 
Q 13.765625 71.78125 18.9375 73 
Q 24.125 74.21875 28.421875 74.21875 
Q 39.75 74.21875 46.484375 68.546875 
Q 53.21875 62.890625 53.21875 53.421875 
Q 53.21875 48.921875 51.53125 44.890625 
Q 49.859375 40.875 45.40625 35.40625 
Q 44.1875 33.984375 37.640625 27.21875 
Q 31.109375 20.453125 19.1875 8.296875 
z
" id="DejaVuSans-50"/>
      </defs>
      <g transform="translate(265.69723 591.316563)scale(0.1 -0.1)">
       <use xlink:href="#DejaVuSans-8722"/>
       <use x="83.789062" xlink:href="#DejaVuSans-50"/>
       <use x="147.412109" xlink:href="#DejaVuSans-48"/>
      </g>
     </g>
    </g>
    <g id="xtick_5">
     <g id="line2d_5">
      <g>
       <use style="stroke:#000000;stroke-width:0.8;" x="343.885938" xlink:href="#m6fc41732f6" y="576.718125"/>
      </g>
     </g>
     <g id="text_5">
      <!-- 0 -->
      <g transform="translate(340.704688 591.316563)scale(0.1 -0.1)">
       <use xlink:href="#DejaVuSans-48"/>
      </g>
     </g>
    </g>
    <g id="xtick_6">
     <g id="line2d_6">
      <g>
       <use style="stroke:#000000;stroke-width:0.8;" x="411.522301" xlink:href="#m6fc41732f6" y="576.718125"/>
      </g>
     </g>
     <g id="text_6">
      <!-- 20 -->
      <g transform="translate(405.159801 591.316563)scale(0.1 -0.1)">
       <use xlink:href="#DejaVuSans-50"/>
       <use x="63.623047" xlink:href="#DejaVuSans-48"/>
      </g>
     </g>
    </g>
    <g id="xtick_7">
     <g id="line2d_7">
      <g>
       <use style="stroke:#000000;stroke-width:0.8;" x="479.158665" xlink:href="#m6fc41732f6" y="576.718125"/>
      </g>
     </g>
     <g id="text_7">
      <!-- 40 -->
      <g transform="translate(472.796165 591.316563)scale(0.1 -0.1)">
       <use xlink:href="#DejaVuSans-52"/>
       <use x="63.623047" xlink:href="#DejaVuSans-48"/>
      </g>
     </g>
    </g>
    <g id="xtick_8">
     <g id="line2d_8">
      <g>
       <use style="stroke:#000000;stroke-width:0.8;" x="546.795028" xlink:href="#m6fc41732f6" y="576.718125"/>
      </g>
     </g>
     <g id="text_8">
      <!-- 60 -->
      <g transform="translate(540.432528 591.316563)scale(0.1 -0.1)">
       <use xlink:href="#DejaVuSans-54"/>
       <use x="63.623047" xlink:href="#DejaVuSans-48"/>
      </g>
     </g>
    </g>
    <g id="xtick_9">
     <g id="line2d_9">
      <g>
       <use style="stroke:#000000;stroke-width:0.8;" x="614.431392" xlink:href="#m6fc41732f6" y="576.718125"/>
      </g>
     </g>
     <g id="text_9">
      <!-- 80 -->
      <g transform="translate(608.068892 591.316563)scale(0.1 -0.1)">
       <use xlink:href="#DejaVuSans-56"/>
       <use x="63.623047" xlink:href="#DejaVuSans-48"/>
      </g>
     </g>
    </g>
    <g id="text_10">
     <!-- Motif Position -->
     <defs>
      <path d="M 9.8125 72.90625 
L 24.515625 72.90625 
L 43.109375 23.296875 
L 61.8125 72.90625 
L 76.515625 72.90625 
L 76.515625 0 
L 66.890625 0 
L 66.890625 64.015625 
L 48.09375 14.015625 
L 38.1875 14.015625 
L 19.390625 64.015625 
L 19.390625 0 
L 9.8125 0 
z
" id="DejaVuSans-77"/>
      <path d="M 30.609375 48.390625 
Q 23.390625 48.390625 19.1875 42.75 
Q 14.984375 37.109375 14.984375 27.296875 
Q 14.984375 17.484375 19.15625 11.84375 
Q 23.34375 6.203125 30.609375 6.203125 
Q 37.796875 6.203125 41.984375 11.859375 
Q 46.1875 17.53125 46.1875 27.296875 
Q 46.1875 37.015625 41.984375 42.703125 
Q 37.796875 48.390625 30.609375 48.390625 
z
M 30.609375 56 
Q 42.328125 56 49.015625 48.375 
Q 55.71875 40.765625 55.71875 27.296875 
Q 55.71875 13.875 49.015625 6.21875 
Q 42.328125 -1.421875 30.609375 -1.421875 
Q 18.84375 -1.421875 12.171875 6.21875 
Q 5.515625 13.875 5.515625 27.296875 
Q 5.515625 40.765625 12.171875 48.375 
Q 18.84375 56 30.609375 56 
z
" id="DejaVuSans-111"/>
      <path d="M 18.3125 70.21875 
L 18.3125 54.6875 
L 36.8125 54.6875 
L 36.8125 47.703125 
L 18.3125 47.703125 
L 18.3125 18.015625 
Q 18.3125 11.328125 20.140625 9.421875 
Q 21.96875 7.515625 27.59375 7.515625 
L 36.8125 7.515625 
L 36.8125 0 
L 27.59375 0 
Q 17.1875 0 13.234375 3.875 
Q 9.28125 7.765625 9.28125 18.015625 
L 9.28125 47.703125 
L 2.6875 47.703125 
L 2.6875 54.6875 
L 9.28125 54.6875 
L 9.28125 70.21875 
z
" id="DejaVuSans-116"/>
      <path d="M 9.421875 54.6875 
L 18.40625 54.6875 
L 18.40625 0 
L 9.421875 0 
z
M 9.421875 75.984375 
L 18.40625 75.984375 
L 18.40625 64.59375 
L 9.421875 64.59375 
z
" id="DejaVuSans-105"/>
      <path d="M 37.109375 75.984375 
L 37.109375 68.5 
L 28.515625 68.5 
Q 23.6875 68.5 21.796875 66.546875 
Q 19.921875 64.59375 19.921875 59.515625 
L 19.921875 54.6875 
L 34.71875 54.6875 
L 34.71875 47.703125 
L 19.921875 47.703125 
L 19.921875 0 
L 10.890625 0 
L 10.890625 47.703125 
L 2.296875 47.703125 
L 2.296875 54.6875 
L 10.890625 54.6875 
L 10.890625 58.5 
Q 10.890625 67.625 15.140625 71.796875 
Q 19.390625 75.984375 28.609375 75.984375 
z
" id="DejaVuSans-102"/>
      <path id="DejaVuSans-32"/>
      <path d="M 19.671875 64.796875 
L 19.671875 37.40625 
L 32.078125 37.40625 
Q 38.96875 37.40625 42.71875 40.96875 
Q 46.484375 44.53125 46.484375 51.125 
Q 46.484375 57.671875 42.71875 61.234375 
Q 38.96875 64.796875 32.078125 64.796875 
z
M 9.8125 72.90625 
L 32.078125 72.90625 
Q 44.34375 72.90625 50.609375 67.359375 
Q 56.890625 61.8125 56.890625 51.125 
Q 56.890625 40.328125 50.609375 34.8125 
Q 44.34375 29.296875 32.078125 29.296875 
L 19.671875 29.296875 
L 19.671875 0 
L 9.8125 0 
z
" id="DejaVuSans-80"/>
      <path d="M 44.28125 53.078125 
L 44.28125 44.578125 
Q 40.484375 46.53125 36.375 47.5 
Q 32.28125 48.484375 27.875 48.484375 
Q 21.1875 48.484375 17.84375 46.4375 
Q 14.5 44.390625 14.5 40.28125 
Q 14.5 37.15625 16.890625 35.375 
Q 19.28125 33.59375 26.515625 31.984375 
L 29.59375 31.296875 
Q 39.15625 29.25 43.1875 25.515625 
Q 47.21875 21.78125 47.21875 15.09375 
Q 47.21875 7.46875 41.1875 3.015625 
Q 35.15625 -1.421875 24.609375 -1.421875 
Q 20.21875 -1.421875 15.453125 -0.5625 
Q 10.6875 0.296875 5.421875 2 
L 5.421875 11.28125 
Q 10.40625 8.6875 15.234375 7.390625 
Q 20.0625 6.109375 24.8125 6.109375 
Q 31.15625 6.109375 34.5625 8.28125 
Q 37.984375 10.453125 37.984375 14.40625 
Q 37.984375 18.0625 35.515625 20.015625 
Q 33.0625 21.96875 24.703125 23.78125 
L 21.578125 24.515625 
Q 13.234375 26.265625 9.515625 29.90625 
Q 5.8125 33.546875 5.8125 39.890625 
Q 5.8125 47.609375 11.28125 51.796875 
Q 16.75 56 26.8125 56 
Q 31.78125 56 36.171875 55.265625 
Q 40.578125 54.546875 44.28125 53.078125 
z
" id="DejaVuSans-115"/>
      <path d="M 54.890625 33.015625 
L 54.890625 0 
L 45.90625 0 
L 45.90625 32.71875 
Q 45.90625 40.484375 42.875 44.328125 
Q 39.84375 48.1875 33.796875 48.1875 
Q 26.515625 48.1875 22.3125 43.546875 
Q 18.109375 38.921875 18.109375 30.90625 
L 18.109375 0 
L 9.078125 0 
L 9.078125 54.6875 
L 18.109375 54.6875 
L 18.109375 46.1875 
Q 21.34375 51.125 25.703125 53.5625 
Q 30.078125 56 35.796875 56 
Q 45.21875 56 50.046875 50.171875 
Q 54.890625 44.34375 54.890625 33.015625 
z
" id="DejaVuSans-110"/>
     </defs>
     <g transform="translate(310.35 604.994688)scale(0.1 -0.1)">
      <use xlink:href="#DejaVuSans-77"/>
      <use x="86.279297" xlink:href="#DejaVuSans-111"/>
      <use x="147.460938" xlink:href="#DejaVuSans-116"/>
      <use x="186.669922" xlink:href="#DejaVuSans-105"/>
      <use x="214.453125" xlink:href="#DejaVuSans-102"/>
      <use x="249.658203" xlink:href="#DejaVuSans-32"/>
      <use x="281.445312" xlink:href="#DejaVuSans-80"/>
      <use x="338.123047" xlink:href="#DejaVuSans-111"/>
      <use x="399.304688" xlink:href="#DejaVuSans-115"/>
      <use x="451.404297" xlink:href="#DejaVuSans-105"/>
      <use x="479.1875" xlink:href="#DejaVuSans-116"/>
      <use x="518.396484" xlink:href="#DejaVuSans-105"/>
      <use x="546.179688" xlink:href="#DejaVuSans-111"/>
      <use x="607.361328" xlink:href="#DejaVuSans-110"/>
     </g>
    </g>
   </g>
   <g id="matplotlib.axis_2">
    <g id="ytick_1">
     <g id="line2d_10">
      <defs>
       <path d="M 0 0 
L -3.5 0 
" id="m7878bb93ad" style="stroke:#000000;stroke-width:0.8;"/>
      </defs>
      <g>
       <use style="stroke:#000000;stroke-width:0.8;" x="64.885938" xlink:href="#m7878bb93ad" y="518.634926"/>
      </g>
     </g>
     <g id="text_11">
      <!-- −0.020 -->
      <defs>
       <path d="M 10.6875 12.40625 
L 21 12.40625 
L 21 0 
L 10.6875 0 
z
" id="DejaVuSans-46"/>
      </defs>
      <g transform="translate(20.878125 522.434144)scale(0.1 -0.1)">
       <use xlink:href="#DejaVuSans-8722"/>
       <use x="83.789062" xlink:href="#DejaVuSans-48"/>
       <use x="147.412109" xlink:href="#DejaVuSans-46"/>
       <use x="179.199219" xlink:href="#DejaVuSans-48"/>
       <use x="242.822266" xlink:href="#DejaVuSans-50"/>
       <use x="306.445312" xlink:href="#DejaVuSans-48"/>
      </g>
     </g>
    </g>
    <g id="ytick_2">
     <g id="line2d_11">
      <g>
       <use style="stroke:#000000;stroke-width:0.8;" x="64.885938" xlink:href="#m7878bb93ad" y="447.843838"/>
      </g>
     </g>
     <g id="text_12">
      <!-- −0.015 -->
      <defs>
       <path d="M 12.40625 8.296875 
L 28.515625 8.296875 
L 28.515625 63.921875 
L 10.984375 60.40625 
L 10.984375 69.390625 
L 28.421875 72.90625 
L 38.28125 72.90625 
L 38.28125 8.296875 
L 54.390625 8.296875 
L 54.390625 0 
L 12.40625 0 
z
" id="DejaVuSans-49"/>
       <path d="M 10.796875 72.90625 
L 49.515625 72.90625 
L 49.515625 64.59375 
L 19.828125 64.59375 
L 19.828125 46.734375 
Q 21.96875 47.46875 24.109375 47.828125 
Q 26.265625 48.1875 28.421875 48.1875 
Q 40.625 48.1875 47.75 41.5 
Q 54.890625 34.8125 54.890625 23.390625 
Q 54.890625 11.625 47.5625 5.09375 
Q 40.234375 -1.421875 26.90625 -1.421875 
Q 22.3125 -1.421875 17.546875 -0.640625 
Q 12.796875 0.140625 7.71875 1.703125 
L 7.71875 11.625 
Q 12.109375 9.234375 16.796875 8.0625 
Q 21.484375 6.890625 26.703125 6.890625 
Q 35.15625 6.890625 40.078125 11.328125 
Q 45.015625 15.765625 45.015625 23.390625 
Q 45.015625 31 40.078125 35.4375 
Q 35.15625 39.890625 26.703125 39.890625 
Q 22.75 39.890625 18.8125 39.015625 
Q 14.890625 38.140625 10.796875 36.28125 
z
" id="DejaVuSans-53"/>
      </defs>
      <g transform="translate(20.878125 451.643057)scale(0.1 -0.1)">
       <use xlink:href="#DejaVuSans-8722"/>
       <use x="83.789062" xlink:href="#DejaVuSans-48"/>
       <use x="147.412109" xlink:href="#DejaVuSans-46"/>
       <use x="179.199219" xlink:href="#DejaVuSans-48"/>
       <use x="242.822266" xlink:href="#DejaVuSans-49"/>
       <use x="306.445312" xlink:href="#DejaVuSans-53"/>
      </g>
     </g>
    </g>
    <g id="ytick_3">
     <g id="line2d_12">
      <g>
       <use style="stroke:#000000;stroke-width:0.8;" x="64.885938" xlink:href="#m7878bb93ad" y="377.05275"/>
      </g>
     </g>
     <g id="text_13">
      <!-- −0.010 -->
      <g transform="translate(20.878125 380.851969)scale(0.1 -0.1)">
       <use xlink:href="#DejaVuSans-8722"/>
       <use x="83.789062" xlink:href="#DejaVuSans-48"/>
       <use x="147.412109" xlink:href="#DejaVuSans-46"/>
       <use x="179.199219" xlink:href="#DejaVuSans-48"/>
       <use x="242.822266" xlink:href="#DejaVuSans-49"/>
       <use x="306.445312" xlink:href="#DejaVuSans-48"/>
      </g>
     </g>
    </g>
    <g id="ytick_4">
     <g id="line2d_13">
      <g>
       <use style="stroke:#000000;stroke-width:0.8;" x="64.885938" xlink:href="#m7878bb93ad" y="306.261663"/>
      </g>
     </g>
     <g id="text_14">
      <!-- −0.005 -->
      <g transform="translate(20.878125 310.060881)scale(0.1 -0.1)">
       <use xlink:href="#DejaVuSans-8722"/>
       <use x="83.789062" xlink:href="#DejaVuSans-48"/>
       <use x="147.412109" xlink:href="#DejaVuSans-46"/>
       <use x="179.199219" xlink:href="#DejaVuSans-48"/>
       <use x="242.822266" xlink:href="#DejaVuSans-48"/>
       <use x="306.445312" xlink:href="#DejaVuSans-53"/>
      </g>
     </g>
    </g>
    <g id="ytick_5">
     <g id="line2d_14">
      <g>
       <use style="stroke:#000000;stroke-width:0.8;" x="64.885938" xlink:href="#m7878bb93ad" y="235.470575"/>
      </g>
     </g>
     <g id="text_15">
      <!-- 0.000 -->
      <g transform="translate(29.257813 239.269794)scale(0.1 -0.1)">
       <use xlink:href="#DejaVuSans-48"/>
       <use x="63.623047" xlink:href="#DejaVuSans-46"/>
       <use x="95.410156" xlink:href="#DejaVuSans-48"/>
       <use x="159.033203" xlink:href="#DejaVuSans-48"/>
       <use x="222.65625" xlink:href="#DejaVuSans-48"/>
      </g>
     </g>
    </g>
    <g id="ytick_6">
     <g id="line2d_15">
      <g>
       <use style="stroke:#000000;stroke-width:0.8;" x="64.885938" xlink:href="#m7878bb93ad" y="164.679487"/>
      </g>
     </g>
     <g id="text_16">
      <!-- 0.005 -->
      <g transform="translate(29.257813 168.478706)scale(0.1 -0.1)">
       <use xlink:href="#DejaVuSans-48"/>
       <use x="63.623047" xlink:href="#DejaVuSans-46"/>
       <use x="95.410156" xlink:href="#DejaVuSans-48"/>
       <use x="159.033203" xlink:href="#DejaVuSans-48"/>
       <use x="222.65625" xlink:href="#DejaVuSans-53"/>
      </g>
     </g>
    </g>
    <g id="ytick_7">
     <g id="line2d_16">
      <g>
       <use style="stroke:#000000;stroke-width:0.8;" x="64.885938" xlink:href="#m7878bb93ad" y="93.8884"/>
      </g>
     </g>
     <g id="text_17">
      <!-- 0.010 -->
      <g transform="translate(29.257813 97.687618)scale(0.1 -0.1)">
       <use xlink:href="#DejaVuSans-48"/>
       <use x="63.623047" xlink:href="#DejaVuSans-46"/>
       <use x="95.410156" xlink:href="#DejaVuSans-48"/>
       <use x="159.033203" xlink:href="#DejaVuSans-49"/>
       <use x="222.65625" xlink:href="#DejaVuSans-48"/>
      </g>
     </g>
    </g>
    <g id="ytick_8">
     <g id="line2d_17">
      <g>
       <use style="stroke:#000000;stroke-width:0.8;" x="64.885938" xlink:href="#m7878bb93ad" y="23.097312"/>
      </g>
     </g>
     <g id="text_18">
      <!-- 0.015 -->
      <g transform="translate(29.257813 26.896531)scale(0.1 -0.1)">
       <use xlink:href="#DejaVuSans-48"/>
       <use x="63.623047" xlink:href="#DejaVuSans-46"/>
       <use x="95.410156" xlink:href="#DejaVuSans-48"/>
       <use x="159.033203" xlink:href="#DejaVuSans-49"/>
       <use x="222.65625" xlink:href="#DejaVuSans-53"/>
      </g>
     </g>
    </g>
    <g id="text_19">
     <!-- Coefficient -->
     <defs>
      <path d="M 64.40625 67.28125 
L 64.40625 56.890625 
Q 59.421875 61.53125 53.78125 63.8125 
Q 48.140625 66.109375 41.796875 66.109375 
Q 29.296875 66.109375 22.65625 58.46875 
Q 16.015625 50.828125 16.015625 36.375 
Q 16.015625 21.96875 22.65625 14.328125 
Q 29.296875 6.6875 41.796875 6.6875 
Q 48.140625 6.6875 53.78125 8.984375 
Q 59.421875 11.28125 64.40625 15.921875 
L 64.40625 5.609375 
Q 59.234375 2.09375 53.4375 0.328125 
Q 47.65625 -1.421875 41.21875 -1.421875 
Q 24.65625 -1.421875 15.125 8.703125 
Q 5.609375 18.84375 5.609375 36.375 
Q 5.609375 53.953125 15.125 64.078125 
Q 24.65625 74.21875 41.21875 74.21875 
Q 47.75 74.21875 53.53125 72.484375 
Q 59.328125 70.75 64.40625 67.28125 
z
" id="DejaVuSans-67"/>
      <path d="M 56.203125 29.59375 
L 56.203125 25.203125 
L 14.890625 25.203125 
Q 15.484375 15.921875 20.484375 11.0625 
Q 25.484375 6.203125 34.421875 6.203125 
Q 39.59375 6.203125 44.453125 7.46875 
Q 49.3125 8.734375 54.109375 11.28125 
L 54.109375 2.78125 
Q 49.265625 0.734375 44.1875 -0.34375 
Q 39.109375 -1.421875 33.890625 -1.421875 
Q 20.796875 -1.421875 13.15625 6.1875 
Q 5.515625 13.8125 5.515625 26.8125 
Q 5.515625 40.234375 12.765625 48.109375 
Q 20.015625 56 32.328125 56 
Q 43.359375 56 49.78125 48.890625 
Q 56.203125 41.796875 56.203125 29.59375 
z
M 47.21875 32.234375 
Q 47.125 39.59375 43.09375 43.984375 
Q 39.0625 48.390625 32.421875 48.390625 
Q 24.90625 48.390625 20.390625 44.140625 
Q 15.875 39.890625 15.1875 32.171875 
z
" id="DejaVuSans-101"/>
      <path d="M 48.78125 52.59375 
L 48.78125 44.1875 
Q 44.96875 46.296875 41.140625 47.34375 
Q 37.3125 48.390625 33.40625 48.390625 
Q 24.65625 48.390625 19.8125 42.84375 
Q 14.984375 37.3125 14.984375 27.296875 
Q 14.984375 17.28125 19.8125 11.734375 
Q 24.65625 6.203125 33.40625 6.203125 
Q 37.3125 6.203125 41.140625 7.25 
Q 44.96875 8.296875 48.78125 10.40625 
L 48.78125 2.09375 
Q 45.015625 0.34375 40.984375 -0.53125 
Q 36.96875 -1.421875 32.421875 -1.421875 
Q 20.0625 -1.421875 12.78125 6.34375 
Q 5.515625 14.109375 5.515625 27.296875 
Q 5.515625 40.671875 12.859375 48.328125 
Q 20.21875 56 33.015625 56 
Q 37.15625 56 41.109375 55.140625 
Q 45.0625 54.296875 48.78125 52.59375 
z
" id="DejaVuSans-99"/>
     </defs>
     <g transform="translate(14.798438 326.398594)rotate(-90)scale(0.1 -0.1)">
      <use xlink:href="#DejaVuSans-67"/>
      <use x="69.824219" xlink:href="#DejaVuSans-111"/>
      <use x="131.005859" xlink:href="#DejaVuSans-101"/>
      <use x="192.529297" xlink:href="#DejaVuSans-102"/>
      <use x="227.734375" xlink:href="#DejaVuSans-102"/>
      <use x="262.939453" xlink:href="#DejaVuSans-105"/>
      <use x="290.722656" xlink:href="#DejaVuSans-99"/>
      <use x="345.703125" xlink:href="#DejaVuSans-105"/>
      <use x="373.486328" xlink:href="#DejaVuSans-101"/>
      <use x="435.009766" xlink:href="#DejaVuSans-110"/>
      <use x="498.388672" xlink:href="#DejaVuSans-116"/>
     </g>
    </g>
   </g>
   <g id="line2d_18">
    <path clip-path="url(#p8e6ea86e45)" d="M 90.249574 235.470575 
L 113.922301 235.428696 
L 117.304119 234.623448 
L 120.685938 229.084363 
L 124.067756 217.005269 
L 127.449574 212.044463 
L 130.831392 211.223597 
L 134.21321 200.099516 
L 137.595028 200.565144 
L 140.976847 215.535933 
L 144.358665 219.057095 
L 147.740483 220.964775 
L 151.122301 241.346206 
L 154.504119 256.565935 
L 157.885938 253.392046 
L 161.267756 245.003549 
L 164.649574 230.340222 
L 168.031392 206.382386 
L 171.41321 185.312416 
L 174.795028 174.371871 
L 178.176847 174.502657 
L 181.558665 188.565772 
L 184.940483 192.881249 
L 188.322301 183.578782 
L 191.704119 167.640521 
L 195.085938 171.773035 
L 198.467756 192.734018 
L 201.849574 203.587359 
L 205.231392 205.773098 
L 208.61321 175.036172 
L 211.995028 134.943883 
L 215.376847 138.413297 
L 218.758665 175.060895 
L 222.140483 196.407368 
L 225.522301 198.166016 
L 228.904119 177.018849 
L 232.285938 133.657804 
L 235.667756 145.55531 
L 239.049574 205.910633 
L 242.431392 237.879641 
L 245.81321 241.797539 
L 249.195028 241.724257 
L 252.576847 239.876638 
L 255.958665 238.289724 
L 259.340483 247.072348 
L 262.722301 260.986704 
L 266.104119 250.693217 
L 269.485937 203.866519 
L 272.867756 181.709425 
L 276.249574 202.504777 
L 279.631392 214.09741 
L 283.01321 231.158738 
L 286.395028 264.26714 
L 289.776847 272.88383 
L 293.158665 258.673523 
L 296.540483 263.570549 
L 299.922301 280.77803 
L 303.304119 297.384502 
L 306.685938 321.342866 
L 310.067756 338.500727 
L 313.449574 345.657053 
L 316.831392 369.272805 
L 320.21321 413.567246 
L 323.595028 413.268532 
L 326.976847 349.138837 
L 330.358665 322.252533 
L 333.740483 367.335078 
L 337.122301 390.748628 
L 340.504119 373.564788 
L 343.885938 358.563174 
L 347.267756 366.492715 
L 350.649574 364.00186 
L 354.031392 349.972062 
L 357.41321 343.887638 
L 360.795028 336.725918 
L 364.176847 356.027522 
L 367.558665 395.033686 
L 370.940483 385.558489 
L 374.322301 333.294954 
L 377.704119 297.889905 
L 381.085938 275.048735 
L 384.467756 243.905768 
L 387.849574 175.948259 
L 391.231392 159.337664 
L 394.61321 217.07149 
L 397.995028 244.79171 
L 401.376847 239.625187 
L 404.758665 229.002052 
L 408.140483 226.648696 
L 411.522301 230.805182 
L 414.904119 234.594607 
L 418.285938 239.915955 
L 421.667756 246.977629 
L 425.049574 245.377378 
L 428.431392 235.773799 
L 431.81321 240.981182 
L 435.195028 241.287199 
L 438.576847 195.994598 
L 441.958665 120.949648 
L 445.340483 96.860307 
L 448.722301 153.666218 
L 452.104119 187.391613 
L 455.485937 176.375994 
L 458.867756 190.616829 
L 462.249574 202.459785 
L 465.631392 194.247838 
L 469.01321 202.984586 
L 472.395028 226.940314 
L 475.776847 245.624861 
L 479.158665 234.170297 
L 482.540483 171.222345 
L 485.922301 135.851215 
L 489.304119 177.050585 
L 492.685938 221.50229 
L 496.067756 233.350673 
L 499.449574 238.630643 
L 502.831392 244.175597 
L 506.21321 228.670533 
L 509.595028 181.037633 
L 512.976847 143.541422 
L 516.358665 166.097657 
L 519.740483 194.117895 
L 526.504119 163.509108 
L 529.885937 182.718491 
L 533.267756 188.58431 
L 536.649574 136.660805 
L 540.031392 114.4754 
L 543.41321 180.485324 
L 546.795028 231.304128 
L 550.176847 220.463507 
L 553.558665 216.093003 
L 556.940483 220.702838 
L 560.322301 217.623591 
L 563.704119 224.303582 
L 567.085938 232.451973 
L 570.467756 235.121492 
L 573.849574 235.454323 
L 597.522301 235.470575 
L 597.522301 235.470575 
" style="fill:none;stroke:#1f77b4;stroke-linecap:square;stroke-width:1.5;"/>
   </g>
   <g id="line2d_19">
    <path clip-path="url(#p8e6ea86e45)" d="M 90.249574 235.470575 
L 113.922301 235.375361 
L 117.304119 233.55156 
L 120.685938 221.131903 
L 124.067756 194.730866 
L 127.449574 183.946419 
L 130.831392 177.874213 
L 134.21321 157.354245 
L 137.595028 151.663608 
L 140.976847 175.87832 
L 144.358665 191.775476 
L 147.740483 186.070635 
L 151.122301 205.568567 
L 154.504119 222.742942 
L 157.885938 215.307205 
L 161.267756 212.595182 
L 164.649574 203.652756 
L 168.031392 167.943937 
L 171.41321 143.021218 
L 174.795028 132.387384 
L 178.176847 136.622478 
L 181.558665 162.759326 
L 184.940483 164.880594 
L 188.322301 152.182046 
L 191.704119 136.063911 
L 195.085938 124.513482 
L 201.849574 156.868349 
L 205.231392 160.403884 
L 208.61321 132.11946 
L 211.995028 91.465465 
L 215.376847 89.081527 
L 218.758665 129.116369 
L 222.140483 152.610816 
L 225.522301 149.789368 
L 228.904119 124.202284 
L 232.285938 81.290113 
L 235.667756 99.449914 
L 239.049574 161.379364 
L 242.431392 184.455908 
L 245.81321 181.109354 
L 249.195028 185.324073 
L 252.576847 185.521342 
L 255.958665 180.93331 
L 259.340483 190.966016 
L 262.722301 204.434616 
L 266.104119 189.506551 
L 269.485937 143.382292 
L 272.867756 120.433838 
L 276.249574 145.911863 
L 279.631392 155.673057 
L 283.01321 156.662186 
L 286.395028 180.815453 
L 289.776847 188.685958 
L 293.158665 174.682928 
L 296.540483 181.514247 
L 299.922301 194.565103 
L 303.304119 190.652265 
L 306.685938 206.972448 
L 310.067756 222.439199 
L 313.449574 222.186149 
L 316.831392 241.866577 
L 320.21321 279.906792 
L 323.595028 275.01894 
L 326.976847 205.475166 
L 330.358665 176.368193 
L 333.740483 224.545989 
L 337.122301 255.431129 
L 340.504119 239.755178 
L 343.885938 215.293574 
L 347.267756 224.093507 
L 350.649574 227.799333 
L 354.031392 214.67899 
L 357.41321 204.940983 
L 360.795028 200.132098 
L 364.176847 222.478538 
L 367.558665 259.644309 
L 370.940483 260.975475 
L 374.322301 220.349214 
L 377.704119 191.95977 
L 381.085938 174.59103 
L 384.467756 145.799569 
L 387.849574 86.181616 
L 391.231392 73.588433 
L 394.61321 133.70874 
L 397.995028 159.574395 
L 401.376847 149.081142 
L 404.758665 150.259017 
L 408.140483 163.05301 
L 411.522301 177.252925 
L 414.904119 188.197876 
L 418.285938 180.142952 
L 421.667756 178.522157 
L 425.049574 190.486774 
L 428.431392 188.009123 
L 431.81321 187.94287 
L 435.195028 200.529186 
L 438.576847 163.486707 
L 441.958665 74.451008 
L 445.340483 47.518125 
L 448.722301 109.106581 
L 452.104119 137.32729 
L 455.485937 126.250667 
L 458.867756 146.435189 
L 462.249574 157.376693 
L 465.631392 152.157118 
L 469.01321 169.122228 
L 472.395028 194.85444 
L 475.776847 214.780304 
L 479.158665 191.58361 
L 482.540483 122.012954 
L 485.922301 92.991037 
L 489.304119 139.850319 
L 492.685938 181.705537 
L 496.067756 187.089889 
L 499.449574 198.638247 
L 502.831392 210.81455 
L 506.21321 196.227813 
L 509.595028 148.712007 
L 512.976847 112.36042 
L 516.358665 140.181322 
L 519.740483 157.887689 
L 523.122301 132.696334 
L 526.504119 109.849352 
L 529.885937 136.124025 
L 533.267756 164.160498 
L 536.649574 105.173216 
L 540.031392 76.697761 
L 543.41321 144.433277 
L 546.795028 198.861017 
L 550.176847 191.45509 
L 553.558665 184.354935 
L 556.940483 188.43818 
L 560.322301 186.206631 
L 563.704119 201.310617 
L 567.085938 224.441351 
L 570.467756 234.045559 
L 573.849574 235.400808 
L 580.61321 235.470566 
L 597.522301 235.470575 
L 597.522301 235.470575 
" style="fill:none;stroke:#ff7f0e;stroke-linecap:square;stroke-width:1.5;"/>
   </g>
   <g id="line2d_20">
    <path clip-path="url(#p8e6ea86e45)" d="M 90.249574 235.470575 
L 113.922301 235.482032 
L 117.304119 235.695337 
L 120.685938 237.036823 
L 124.067756 239.279672 
L 127.449574 240.142506 
L 130.831392 244.572981 
L 134.21321 242.844787 
L 137.595028 249.46668 
L 140.976847 255.193545 
L 144.358665 246.338715 
L 147.740483 255.858916 
L 151.122301 277.123845 
L 154.504119 290.388929 
L 157.885938 291.476887 
L 161.267756 277.411916 
L 164.649574 257.027687 
L 168.031392 244.820835 
L 171.41321 227.603614 
L 174.795028 216.356358 
L 178.176847 212.382835 
L 181.558665 214.372219 
L 184.940483 220.881904 
L 188.322301 214.975517 
L 191.704119 199.217131 
L 195.085938 219.032588 
L 198.467756 244.88846 
L 201.849574 250.306369 
L 205.231392 251.142312 
L 208.61321 217.952883 
L 211.995028 178.4223 
L 215.376847 187.745067 
L 218.758665 221.005422 
L 222.140483 240.20392 
L 225.522301 246.542665 
L 228.904119 229.835415 
L 232.285938 186.025494 
L 235.667756 191.660707 
L 239.049574 250.441902 
L 242.431392 291.303374 
L 245.81321 302.485724 
L 249.195028 298.124441 
L 252.576847 294.231933 
L 255.958665 295.646138 
L 259.340483 303.178681 
L 262.722301 317.538791 
L 266.104119 311.879882 
L 269.485937 264.350745 
L 272.867756 242.985012 
L 276.249574 259.09769 
L 279.631392 272.521764 
L 283.01321 305.65529 
L 286.395028 347.718827 
L 289.776847 357.081701 
L 293.158665 342.664118 
L 296.540483 345.62685 
L 299.922301 366.990958 
L 303.304119 404.11674 
L 306.685938 435.713284 
L 310.067756 454.562256 
L 313.449574 469.127957 
L 316.831392 496.679034 
L 320.21321 547.2277 
L 323.595028 551.518125 
L 326.976847 492.802508 
L 330.358665 468.136873 
L 333.740483 510.124167 
L 337.122301 526.066127 
L 340.504119 507.374397 
L 343.885938 501.832774 
L 347.267756 508.891923 
L 350.649574 500.204388 
L 354.031392 485.265135 
L 357.41321 482.834292 
L 360.795028 473.319739 
L 364.176847 489.576506 
L 367.558665 530.423062 
L 370.940483 510.141502 
L 374.322301 446.240693 
L 377.704119 403.82004 
L 381.085938 375.506441 
L 384.467756 342.011966 
L 387.849574 265.714903 
L 391.231392 245.086894 
L 394.61321 300.434241 
L 397.995028 330.009025 
L 401.376847 330.169232 
L 404.758665 307.745087 
L 408.140483 290.244383 
L 411.522301 284.35744 
L 414.904119 280.991338 
L 418.285938 299.688958 
L 421.667756 315.433102 
L 425.049574 300.267981 
L 428.431392 283.538476 
L 431.81321 294.019494 
L 435.195028 282.045211 
L 438.576847 228.50249 
L 441.958665 167.448287 
L 445.340483 146.202489 
L 448.722301 198.225854 
L 452.104119 237.455935 
L 455.485937 226.50132 
L 458.867756 234.79847 
L 462.249574 247.542877 
L 465.631392 236.338557 
L 469.01321 236.846943 
L 472.395028 259.026188 
L 475.776847 276.469418 
L 479.158665 276.756984 
L 482.540483 220.431737 
L 485.922301 178.711393 
L 489.304119 214.250851 
L 492.685938 261.299042 
L 496.067756 279.611457 
L 502.831392 277.536644 
L 506.21321 261.113253 
L 509.595028 213.363259 
L 512.976847 174.722424 
L 516.358665 192.013992 
L 519.740483 230.348102 
L 523.122301 224.630799 
L 526.504119 217.168865 
L 529.885937 229.312957 
L 533.267756 213.008122 
L 536.649574 168.148394 
L 540.031392 152.253039 
L 543.41321 216.537371 
L 546.795028 263.747239 
L 550.176847 249.471924 
L 553.558665 247.831071 
L 556.940483 252.967496 
L 560.322301 249.040551 
L 563.704119 247.296547 
L 567.085938 240.462596 
L 570.467756 236.197425 
L 573.849574 235.507838 
L 587.376847 235.470575 
L 597.522301 235.470575 
L 597.522301 235.470575 
" style="fill:none;stroke:#2ca02c;stroke-linecap:square;stroke-width:1.5;"/>
   </g>
   <g id="line2d_21"/>
   <g id="line2d_22"/>
   <g id="line2d_23"/>
   <g id="line2d_24"/>
   <g id="patch_3">
    <path d="M 64.885938 576.718125 
L 64.885938 22.318125 
" style="fill:none;stroke:#000000;stroke-linecap:square;stroke-linejoin:miter;stroke-width:0.8;"/>
   </g>
   <g id="patch_4">
    <path d="M 622.885937 576.718125 
L 622.885937 22.318125 
" style="fill:none;stroke:#000000;stroke-linecap:square;stroke-linejoin:miter;stroke-width:0.8;"/>
   </g>
   <g id="patch_5">
    <path d="M 64.885938 576.718125 
L 622.885937 576.718125 
" style="fill:none;stroke:#000000;stroke-linecap:square;stroke-linejoin:miter;stroke-width:0.8;"/>
   </g>
   <g id="patch_6">
    <path d="M 64.885938 22.318125 
L 622.885937 22.318125 
" style="fill:none;stroke:#000000;stroke-linecap:square;stroke-linejoin:miter;stroke-width:0.8;"/>
   </g>
   <g id="text_20">
    <!-- Changed enrichment coefficient of motif MA0138.2 REST as a function of motif position in sequence -->
    <defs>
     <path d="M 54.890625 33.015625 
L 54.890625 0 
L 45.90625 0 
L 45.90625 32.71875 
Q 45.90625 40.484375 42.875 44.328125 
Q 39.84375 48.1875 33.796875 48.1875 
Q 26.515625 48.1875 22.3125 43.546875 
Q 18.109375 38.921875 18.109375 30.90625 
L 18.109375 0 
L 9.078125 0 
L 9.078125 75.984375 
L 18.109375 75.984375 
L 18.109375 46.1875 
Q 21.34375 51.125 25.703125 53.5625 
Q 30.078125 56 35.796875 56 
Q 45.21875 56 50.046875 50.171875 
Q 54.890625 44.34375 54.890625 33.015625 
z
" id="DejaVuSans-104"/>
     <path d="M 34.28125 27.484375 
Q 23.390625 27.484375 19.1875 25 
Q 14.984375 22.515625 14.984375 16.5 
Q 14.984375 11.71875 18.140625 8.90625 
Q 21.296875 6.109375 26.703125 6.109375 
Q 34.1875 6.109375 38.703125 11.40625 
Q 43.21875 16.703125 43.21875 25.484375 
L 43.21875 27.484375 
z
M 52.203125 31.203125 
L 52.203125 0 
L 43.21875 0 
L 43.21875 8.296875 
Q 40.140625 3.328125 35.546875 0.953125 
Q 30.953125 -1.421875 24.3125 -1.421875 
Q 15.921875 -1.421875 10.953125 3.296875 
Q 6 8.015625 6 15.921875 
Q 6 25.140625 12.171875 29.828125 
Q 18.359375 34.515625 30.609375 34.515625 
L 43.21875 34.515625 
L 43.21875 35.40625 
Q 43.21875 41.609375 39.140625 45 
Q 35.0625 48.390625 27.6875 48.390625 
Q 23 48.390625 18.546875 47.265625 
Q 14.109375 46.140625 10.015625 43.890625 
L 10.015625 52.203125 
Q 14.9375 54.109375 19.578125 55.046875 
Q 24.21875 56 28.609375 56 
Q 40.484375 56 46.34375 49.84375 
Q 52.203125 43.703125 52.203125 31.203125 
z
" id="DejaVuSans-97"/>
     <path d="M 45.40625 27.984375 
Q 45.40625 37.75 41.375 43.109375 
Q 37.359375 48.484375 30.078125 48.484375 
Q 22.859375 48.484375 18.828125 43.109375 
Q 14.796875 37.75 14.796875 27.984375 
Q 14.796875 18.265625 18.828125 12.890625 
Q 22.859375 7.515625 30.078125 7.515625 
Q 37.359375 7.515625 41.375 12.890625 
Q 45.40625 18.265625 45.40625 27.984375 
z
M 54.390625 6.78125 
Q 54.390625 -7.171875 48.1875 -13.984375 
Q 42 -20.796875 29.203125 -20.796875 
Q 24.46875 -20.796875 20.265625 -20.09375 
Q 16.0625 -19.390625 12.109375 -17.921875 
L 12.109375 -9.1875 
Q 16.0625 -11.328125 19.921875 -12.34375 
Q 23.78125 -13.375 27.78125 -13.375 
Q 36.625 -13.375 41.015625 -8.765625 
Q 45.40625 -4.15625 45.40625 5.171875 
L 45.40625 9.625 
Q 42.625 4.78125 38.28125 2.390625 
Q 33.9375 0 27.875 0 
Q 17.828125 0 11.671875 7.65625 
Q 5.515625 15.328125 5.515625 27.984375 
Q 5.515625 40.671875 11.671875 48.328125 
Q 17.828125 56 27.875 56 
Q 33.9375 56 38.28125 53.609375 
Q 42.625 51.21875 45.40625 46.390625 
L 45.40625 54.6875 
L 54.390625 54.6875 
z
" id="DejaVuSans-103"/>
     <path d="M 45.40625 46.390625 
L 45.40625 75.984375 
L 54.390625 75.984375 
L 54.390625 0 
L 45.40625 0 
L 45.40625 8.203125 
Q 42.578125 3.328125 38.25 0.953125 
Q 33.9375 -1.421875 27.875 -1.421875 
Q 17.96875 -1.421875 11.734375 6.484375 
Q 5.515625 14.40625 5.515625 27.296875 
Q 5.515625 40.1875 11.734375 48.09375 
Q 17.96875 56 27.875 56 
Q 33.9375 56 38.25 53.625 
Q 42.578125 51.265625 45.40625 46.390625 
z
M 14.796875 27.296875 
Q 14.796875 17.390625 18.875 11.75 
Q 22.953125 6.109375 30.078125 6.109375 
Q 37.203125 6.109375 41.296875 11.75 
Q 45.40625 17.390625 45.40625 27.296875 
Q 45.40625 37.203125 41.296875 42.84375 
Q 37.203125 48.484375 30.078125 48.484375 
Q 22.953125 48.484375 18.875 42.84375 
Q 14.796875 37.203125 14.796875 27.296875 
z
" id="DejaVuSans-100"/>
     <path d="M 41.109375 46.296875 
Q 39.59375 47.171875 37.8125 47.578125 
Q 36.03125 48 33.890625 48 
Q 26.265625 48 22.1875 43.046875 
Q 18.109375 38.09375 18.109375 28.8125 
L 18.109375 0 
L 9.078125 0 
L 9.078125 54.6875 
L 18.109375 54.6875 
L 18.109375 46.1875 
Q 20.953125 51.171875 25.484375 53.578125 
Q 30.03125 56 36.53125 56 
Q 37.453125 56 38.578125 55.875 
Q 39.703125 55.765625 41.0625 55.515625 
z
" id="DejaVuSans-114"/>
     <path d="M 52 44.1875 
Q 55.375 50.25 60.0625 53.125 
Q 64.75 56 71.09375 56 
Q 79.640625 56 84.28125 50.015625 
Q 88.921875 44.046875 88.921875 33.015625 
L 88.921875 0 
L 79.890625 0 
L 79.890625 32.71875 
Q 79.890625 40.578125 77.09375 44.375 
Q 74.3125 48.1875 68.609375 48.1875 
Q 61.625 48.1875 57.5625 43.546875 
Q 53.515625 38.921875 53.515625 30.90625 
L 53.515625 0 
L 44.484375 0 
L 44.484375 32.71875 
Q 44.484375 40.625 41.703125 44.40625 
Q 38.921875 48.1875 33.109375 48.1875 
Q 26.21875 48.1875 22.15625 43.53125 
Q 18.109375 38.875 18.109375 30.90625 
L 18.109375 0 
L 9.078125 0 
L 9.078125 54.6875 
L 18.109375 54.6875 
L 18.109375 46.1875 
Q 21.1875 51.21875 25.484375 53.609375 
Q 29.78125 56 35.6875 56 
Q 41.65625 56 45.828125 52.96875 
Q 50 49.953125 52 44.1875 
z
" id="DejaVuSans-109"/>
     <path d="M 34.1875 63.1875 
L 20.796875 26.90625 
L 47.609375 26.90625 
z
M 28.609375 72.90625 
L 39.796875 72.90625 
L 67.578125 0 
L 57.328125 0 
L 50.6875 18.703125 
L 17.828125 18.703125 
L 11.1875 0 
L 0.78125 0 
z
" id="DejaVuSans-65"/>
     <path d="M 40.578125 39.3125 
Q 47.65625 37.796875 51.625 33 
Q 55.609375 28.21875 55.609375 21.1875 
Q 55.609375 10.40625 48.1875 4.484375 
Q 40.765625 -1.421875 27.09375 -1.421875 
Q 22.515625 -1.421875 17.65625 -0.515625 
Q 12.796875 0.390625 7.625 2.203125 
L 7.625 11.71875 
Q 11.71875 9.328125 16.59375 8.109375 
Q 21.484375 6.890625 26.8125 6.890625 
Q 36.078125 6.890625 40.9375 10.546875 
Q 45.796875 14.203125 45.796875 21.1875 
Q 45.796875 27.640625 41.28125 31.265625 
Q 36.765625 34.90625 28.71875 34.90625 
L 20.21875 34.90625 
L 20.21875 43.015625 
L 29.109375 43.015625 
Q 36.375 43.015625 40.234375 45.921875 
Q 44.09375 48.828125 44.09375 54.296875 
Q 44.09375 59.90625 40.109375 62.90625 
Q 36.140625 65.921875 28.71875 65.921875 
Q 24.65625 65.921875 20.015625 65.03125 
Q 15.375 64.15625 9.8125 62.3125 
L 9.8125 71.09375 
Q 15.4375 72.65625 20.34375 73.4375 
Q 25.25 74.21875 29.59375 74.21875 
Q 40.828125 74.21875 47.359375 69.109375 
Q 53.90625 64.015625 53.90625 55.328125 
Q 53.90625 49.265625 50.4375 45.09375 
Q 46.96875 40.921875 40.578125 39.3125 
z
" id="DejaVuSans-51"/>
     <path d="M 44.390625 34.1875 
Q 47.5625 33.109375 50.5625 29.59375 
Q 53.5625 26.078125 56.59375 19.921875 
L 66.609375 0 
L 56 0 
L 46.6875 18.703125 
Q 43.0625 26.03125 39.671875 28.421875 
Q 36.28125 30.8125 30.421875 30.8125 
L 19.671875 30.8125 
L 19.671875 0 
L 9.8125 0 
L 9.8125 72.90625 
L 32.078125 72.90625 
Q 44.578125 72.90625 50.734375 67.671875 
Q 56.890625 62.453125 56.890625 51.90625 
Q 56.890625 45.015625 53.6875 40.46875 
Q 50.484375 35.9375 44.390625 34.1875 
z
M 19.671875 64.796875 
L 19.671875 38.921875 
L 32.078125 38.921875 
Q 39.203125 38.921875 42.84375 42.21875 
Q 46.484375 45.515625 46.484375 51.90625 
Q 46.484375 58.296875 42.84375 61.546875 
Q 39.203125 64.796875 32.078125 64.796875 
z
" id="DejaVuSans-82"/>
     <path d="M 9.8125 72.90625 
L 55.90625 72.90625 
L 55.90625 64.59375 
L 19.671875 64.59375 
L 19.671875 43.015625 
L 54.390625 43.015625 
L 54.390625 34.71875 
L 19.671875 34.71875 
L 19.671875 8.296875 
L 56.78125 8.296875 
L 56.78125 0 
L 9.8125 0 
z
" id="DejaVuSans-69"/>
     <path d="M 53.515625 70.515625 
L 53.515625 60.890625 
Q 47.90625 63.578125 42.921875 64.890625 
Q 37.9375 66.21875 33.296875 66.21875 
Q 25.25 66.21875 20.875 63.09375 
Q 16.5 59.96875 16.5 54.203125 
Q 16.5 49.359375 19.40625 46.890625 
Q 22.3125 44.4375 30.421875 42.921875 
L 36.375 41.703125 
Q 47.40625 39.59375 52.65625 34.296875 
Q 57.90625 29 57.90625 20.125 
Q 57.90625 9.515625 50.796875 4.046875 
Q 43.703125 -1.421875 29.984375 -1.421875 
Q 24.8125 -1.421875 18.96875 -0.25 
Q 13.140625 0.921875 6.890625 3.21875 
L 6.890625 13.375 
Q 12.890625 10.015625 18.65625 8.296875 
Q 24.421875 6.59375 29.984375 6.59375 
Q 38.421875 6.59375 43.015625 9.90625 
Q 47.609375 13.234375 47.609375 19.390625 
Q 47.609375 24.75 44.3125 27.78125 
Q 41.015625 30.8125 33.5 32.328125 
L 27.484375 33.5 
Q 16.453125 35.6875 11.515625 40.375 
Q 6.59375 45.0625 6.59375 53.421875 
Q 6.59375 63.09375 13.40625 68.65625 
Q 20.21875 74.21875 32.171875 74.21875 
Q 37.3125 74.21875 42.625 73.28125 
Q 47.953125 72.359375 53.515625 70.515625 
z
" id="DejaVuSans-83"/>
     <path d="M -0.296875 72.90625 
L 61.375 72.90625 
L 61.375 64.59375 
L 35.5 64.59375 
L 35.5 0 
L 25.59375 0 
L 25.59375 64.59375 
L -0.296875 64.59375 
z
" id="DejaVuSans-84"/>
     <path d="M 8.5 21.578125 
L 8.5 54.6875 
L 17.484375 54.6875 
L 17.484375 21.921875 
Q 17.484375 14.15625 20.5 10.265625 
Q 23.53125 6.390625 29.59375 6.390625 
Q 36.859375 6.390625 41.078125 11.03125 
Q 45.3125 15.671875 45.3125 23.6875 
L 45.3125 54.6875 
L 54.296875 54.6875 
L 54.296875 0 
L 45.3125 0 
L 45.3125 8.40625 
Q 42.046875 3.421875 37.71875 1 
Q 33.40625 -1.421875 27.6875 -1.421875 
Q 18.265625 -1.421875 13.375 4.4375 
Q 8.5 10.296875 8.5 21.578125 
z
M 31.109375 56 
z
" id="DejaVuSans-117"/>
     <path d="M 18.109375 8.203125 
L 18.109375 -20.796875 
L 9.078125 -20.796875 
L 9.078125 54.6875 
L 18.109375 54.6875 
L 18.109375 46.390625 
Q 20.953125 51.265625 25.265625 53.625 
Q 29.59375 56 35.59375 56 
Q 45.5625 56 51.78125 48.09375 
Q 58.015625 40.1875 58.015625 27.296875 
Q 58.015625 14.40625 51.78125 6.484375 
Q 45.5625 -1.421875 35.59375 -1.421875 
Q 29.59375 -1.421875 25.265625 0.953125 
Q 20.953125 3.328125 18.109375 8.203125 
z
M 48.6875 27.296875 
Q 48.6875 37.203125 44.609375 42.84375 
Q 40.53125 48.484375 33.40625 48.484375 
Q 26.265625 48.484375 22.1875 42.84375 
Q 18.109375 37.203125 18.109375 27.296875 
Q 18.109375 17.390625 22.1875 11.75 
Q 26.265625 6.109375 33.40625 6.109375 
Q 40.53125 6.109375 44.609375 11.75 
Q 48.6875 17.390625 48.6875 27.296875 
z
" id="DejaVuSans-112"/>
     <path d="M 14.796875 27.296875 
Q 14.796875 17.390625 18.875 11.75 
Q 22.953125 6.109375 30.078125 6.109375 
Q 37.203125 6.109375 41.296875 11.75 
Q 45.40625 17.390625 45.40625 27.296875 
Q 45.40625 37.203125 41.296875 42.84375 
Q 37.203125 48.484375 30.078125 48.484375 
Q 22.953125 48.484375 18.875 42.84375 
Q 14.796875 37.203125 14.796875 27.296875 
z
M 45.40625 8.203125 
Q 42.578125 3.328125 38.25 0.953125 
Q 33.9375 -1.421875 27.875 -1.421875 
Q 17.96875 -1.421875 11.734375 6.484375 
Q 5.515625 14.40625 5.515625 27.296875 
Q 5.515625 40.1875 11.734375 48.09375 
Q 17.96875 56 27.875 56 
Q 33.9375 56 38.25 53.625 
Q 42.578125 51.265625 45.40625 46.390625 
L 45.40625 54.6875 
L 54.390625 54.6875 
L 54.390625 -20.796875 
L 45.40625 -20.796875 
z
" id="DejaVuSans-113"/>
    </defs>
    <g transform="translate(42.91375 16.318125)scale(0.12 -0.12)">
     <use xlink:href="#DejaVuSans-67"/>
     <use x="69.824219" xlink:href="#DejaVuSans-104"/>
     <use x="133.203125" xlink:href="#DejaVuSans-97"/>
     <use x="194.482422" xlink:href="#DejaVuSans-110"/>
     <use x="257.861328" xlink:href="#DejaVuSans-103"/>
     <use x="321.337891" xlink:href="#DejaVuSans-101"/>
     <use x="382.861328" xlink:href="#DejaVuSans-100"/>
     <use x="446.337891" xlink:href="#DejaVuSans-32"/>
     <use x="478.125" xlink:href="#DejaVuSans-101"/>
     <use x="539.648438" xlink:href="#DejaVuSans-110"/>
     <use x="603.027344" xlink:href="#DejaVuSans-114"/>
     <use x="644.140625" xlink:href="#DejaVuSans-105"/>
     <use x="671.923828" xlink:href="#DejaVuSans-99"/>
     <use x="726.904297" xlink:href="#DejaVuSans-104"/>
     <use x="790.283203" xlink:href="#DejaVuSans-109"/>
     <use x="887.695312" xlink:href="#DejaVuSans-101"/>
     <use x="949.21875" xlink:href="#DejaVuSans-110"/>
     <use x="1012.597656" xlink:href="#DejaVuSans-116"/>
     <use x="1051.806641" xlink:href="#DejaVuSans-32"/>
     <use x="1083.59375" xlink:href="#DejaVuSans-99"/>
     <use x="1138.574219" xlink:href="#DejaVuSans-111"/>
     <use x="1199.755859" xlink:href="#DejaVuSans-101"/>
     <use x="1261.279297" xlink:href="#DejaVuSans-102"/>
     <use x="1296.484375" xlink:href="#DejaVuSans-102"/>
     <use x="1331.689453" xlink:href="#DejaVuSans-105"/>
     <use x="1359.472656" xlink:href="#DejaVuSans-99"/>
     <use x="1414.453125" xlink:href="#DejaVuSans-105"/>
     <use x="1442.236328" xlink:href="#DejaVuSans-101"/>
     <use x="1503.759766" xlink:href="#DejaVuSans-110"/>
     <use x="1567.138672" xlink:href="#DejaVuSans-116"/>
     <use x="1606.347656" xlink:href="#DejaVuSans-32"/>
     <use x="1638.134766" xlink:href="#DejaVuSans-111"/>
     <use x="1699.316406" xlink:href="#DejaVuSans-102"/>
     <use x="1734.521484" xlink:href="#DejaVuSans-32"/>
     <use x="1766.308594" xlink:href="#DejaVuSans-109"/>
     <use x="1863.720703" xlink:href="#DejaVuSans-111"/>
     <use x="1924.902344" xlink:href="#DejaVuSans-116"/>
     <use x="1964.111328" xlink:href="#DejaVuSans-105"/>
     <use x="1991.894531" xlink:href="#DejaVuSans-102"/>
     <use x="2027.099609" xlink:href="#DejaVuSans-32"/>
     <use x="2058.886719" xlink:href="#DejaVuSans-77"/>
     <use x="2145.166016" xlink:href="#DejaVuSans-65"/>
     <use x="2213.574219" xlink:href="#DejaVuSans-48"/>
     <use x="2277.197266" xlink:href="#DejaVuSans-49"/>
     <use x="2340.820312" xlink:href="#DejaVuSans-51"/>
     <use x="2404.443359" xlink:href="#DejaVuSans-56"/>
     <use x="2468.066406" xlink:href="#DejaVuSans-46"/>
     <use x="2499.853516" xlink:href="#DejaVuSans-50"/>
     <use x="2563.476562" xlink:href="#DejaVuSans-32"/>
     <use x="2595.263672" xlink:href="#DejaVuSans-82"/>
     <use x="2664.746094" xlink:href="#DejaVuSans-69"/>
     <use x="2727.929688" xlink:href="#DejaVuSans-83"/>
     <use x="2791.40625" xlink:href="#DejaVuSans-84"/>
     <use x="2852.490234" xlink:href="#DejaVuSans-32"/>
     <use x="2884.277344" xlink:href="#DejaVuSans-97"/>
     <use x="2945.556641" xlink:href="#DejaVuSans-115"/>
     <use x="2997.65625" xlink:href="#DejaVuSans-32"/>
     <use x="3029.443359" xlink:href="#DejaVuSans-97"/>
     <use x="3090.722656" xlink:href="#DejaVuSans-32"/>
     <use x="3122.509766" xlink:href="#DejaVuSans-102"/>
     <use x="3157.714844" xlink:href="#DejaVuSans-117"/>
     <use x="3221.09375" xlink:href="#DejaVuSans-110"/>
     <use x="3284.472656" xlink:href="#DejaVuSans-99"/>
     <use x="3339.453125" xlink:href="#DejaVuSans-116"/>
     <use x="3378.662109" xlink:href="#DejaVuSans-105"/>
     <use x="3406.445312" xlink:href="#DejaVuSans-111"/>
     <use x="3467.626953" xlink:href="#DejaVuSans-110"/>
     <use x="3531.005859" xlink:href="#DejaVuSans-32"/>
     <use x="3562.792969" xlink:href="#DejaVuSans-111"/>
     <use x="3623.974609" xlink:href="#DejaVuSans-102"/>
     <use x="3659.179688" xlink:href="#DejaVuSans-32"/>
     <use x="3690.966797" xlink:href="#DejaVuSans-109"/>
     <use x="3788.378906" xlink:href="#DejaVuSans-111"/>
     <use x="3849.560547" xlink:href="#DejaVuSans-116"/>
     <use x="3888.769531" xlink:href="#DejaVuSans-105"/>
     <use x="3916.552734" xlink:href="#DejaVuSans-102"/>
     <use x="3951.757812" xlink:href="#DejaVuSans-32"/>
     <use x="3983.544922" xlink:href="#DejaVuSans-112"/>
     <use x="4047.021484" xlink:href="#DejaVuSans-111"/>
     <use x="4108.203125" xlink:href="#DejaVuSans-115"/>
     <use x="4160.302734" xlink:href="#DejaVuSans-105"/>
     <use x="4188.085938" xlink:href="#DejaVuSans-116"/>
     <use x="4227.294922" xlink:href="#DejaVuSans-105"/>
     <use x="4255.078125" xlink:href="#DejaVuSans-111"/>
     <use x="4316.259766" xlink:href="#DejaVuSans-110"/>
     <use x="4379.638672" xlink:href="#DejaVuSans-32"/>
     <use x="4411.425781" xlink:href="#DejaVuSans-105"/>
     <use x="4439.208984" xlink:href="#DejaVuSans-110"/>
     <use x="4502.587891" xlink:href="#DejaVuSans-32"/>
     <use x="4534.375" xlink:href="#DejaVuSans-115"/>
     <use x="4586.474609" xlink:href="#DejaVuSans-101"/>
     <use x="4647.998047" xlink:href="#DejaVuSans-113"/>
     <use x="4711.474609" xlink:href="#DejaVuSans-117"/>
     <use x="4774.853516" xlink:href="#DejaVuSans-101"/>
     <use x="4836.376953" xlink:href="#DejaVuSans-110"/>
     <use x="4899.755859" xlink:href="#DejaVuSans-99"/>
     <use x="4954.736328" xlink:href="#DejaVuSans-101"/>
    </g>
   </g>
   <g id="legend_1">
    <g id="patch_7">
     <path d="M 71.885938 571.718125 
L 269.370313 571.718125 
Q 271.370313 571.718125 271.370313 569.718125 
L 271.370313 512.005625 
Q 271.370313 510.005625 269.370313 510.005625 
L 71.885938 510.005625 
Q 69.885938 510.005625 69.885938 512.005625 
L 69.885938 569.718125 
Q 69.885938 571.718125 71.885938 571.718125 
z
" style="fill:#ffffff;opacity:0.8;stroke:#cccccc;stroke-linejoin:miter;"/>
    </g>
    <g id="line2d_25">
     <path d="M 73.885938 518.104063 
L 93.885938 518.104063 
" style="fill:none;"/>
    </g>
    <g id="line2d_26"/>
    <g id="text_21">
     <!-- Measurement -->
     <g transform="translate(101.885938 521.604063)scale(0.1 -0.1)">
      <use xlink:href="#DejaVuSans-77"/>
      <use x="86.279297" xlink:href="#DejaVuSans-101"/>
      <use x="147.802734" xlink:href="#DejaVuSans-97"/>
      <use x="209.082031" xlink:href="#DejaVuSans-115"/>
      <use x="261.181641" xlink:href="#DejaVuSans-117"/>
      <use x="324.560547" xlink:href="#DejaVuSans-114"/>
      <use x="363.423828" xlink:href="#DejaVuSans-101"/>
      <use x="424.947266" xlink:href="#DejaVuSans-109"/>
      <use x="522.359375" xlink:href="#DejaVuSans-101"/>
      <use x="583.882812" xlink:href="#DejaVuSans-110"/>
      <use x="647.261719" xlink:href="#DejaVuSans-116"/>
     </g>
    </g>
    <g id="line2d_27">
     <path d="M 73.885938 532.782188 
L 93.885938 532.782188 
" style="fill:none;stroke:#1f77b4;stroke-linecap:square;stroke-width:1.5;"/>
    </g>
    <g id="line2d_28"/>
    <g id="text_22">
     <!-- Positional Enrichment Coefficient -->
     <defs>
      <path d="M 9.421875 75.984375 
L 18.40625 75.984375 
L 18.40625 0 
L 9.421875 0 
z
" id="DejaVuSans-108"/>
     </defs>
     <g transform="translate(101.885938 536.282188)scale(0.1 -0.1)">
      <use xlink:href="#DejaVuSans-80"/>
      <use x="56.677734" xlink:href="#DejaVuSans-111"/>
      <use x="117.859375" xlink:href="#DejaVuSans-115"/>
      <use x="169.958984" xlink:href="#DejaVuSans-105"/>
      <use x="197.742188" xlink:href="#DejaVuSans-116"/>
      <use x="236.951172" xlink:href="#DejaVuSans-105"/>
      <use x="264.734375" xlink:href="#DejaVuSans-111"/>
      <use x="325.916016" xlink:href="#DejaVuSans-110"/>
      <use x="389.294922" xlink:href="#DejaVuSans-97"/>
      <use x="450.574219" xlink:href="#DejaVuSans-108"/>
      <use x="478.357422" xlink:href="#DejaVuSans-32"/>
      <use x="510.144531" xlink:href="#DejaVuSans-69"/>
      <use x="573.328125" xlink:href="#DejaVuSans-110"/>
      <use x="636.707031" xlink:href="#DejaVuSans-114"/>
      <use x="677.820312" xlink:href="#DejaVuSans-105"/>
      <use x="705.603516" xlink:href="#DejaVuSans-99"/>
      <use x="760.583984" xlink:href="#DejaVuSans-104"/>
      <use x="823.962891" xlink:href="#DejaVuSans-109"/>
      <use x="921.375" xlink:href="#DejaVuSans-101"/>
      <use x="982.898438" xlink:href="#DejaVuSans-110"/>
      <use x="1046.277344" xlink:href="#DejaVuSans-116"/>
      <use x="1085.486328" xlink:href="#DejaVuSans-32"/>
      <use x="1117.273438" xlink:href="#DejaVuSans-67"/>
      <use x="1187.097656" xlink:href="#DejaVuSans-111"/>
      <use x="1248.279297" xlink:href="#DejaVuSans-101"/>
      <use x="1309.802734" xlink:href="#DejaVuSans-102"/>
      <use x="1345.007812" xlink:href="#DejaVuSans-102"/>
      <use x="1380.212891" xlink:href="#DejaVuSans-105"/>
      <use x="1407.996094" xlink:href="#DejaVuSans-99"/>
      <use x="1462.976562" xlink:href="#DejaVuSans-105"/>
      <use x="1490.759766" xlink:href="#DejaVuSans-101"/>
      <use x="1552.283203" xlink:href="#DejaVuSans-110"/>
      <use x="1615.662109" xlink:href="#DejaVuSans-116"/>
     </g>
    </g>
    <g id="line2d_29">
     <path d="M 73.885938 547.460313 
L 93.885938 547.460313 
" style="fill:none;stroke:#ff7f0e;stroke-linecap:square;stroke-width:1.5;"/>
    </g>
    <g id="line2d_30"/>
    <g id="text_23">
     <!-- 95% CI Upper -->
     <defs>
      <path d="M 10.984375 1.515625 
L 10.984375 10.5 
Q 14.703125 8.734375 18.5 7.8125 
Q 22.3125 6.890625 25.984375 6.890625 
Q 35.75 6.890625 40.890625 13.453125 
Q 46.046875 20.015625 46.78125 33.40625 
Q 43.953125 29.203125 39.59375 26.953125 
Q 35.25 24.703125 29.984375 24.703125 
Q 19.046875 24.703125 12.671875 31.3125 
Q 6.296875 37.9375 6.296875 49.421875 
Q 6.296875 60.640625 12.9375 67.421875 
Q 19.578125 74.21875 30.609375 74.21875 
Q 43.265625 74.21875 49.921875 64.515625 
Q 56.59375 54.828125 56.59375 36.375 
Q 56.59375 19.140625 48.40625 8.859375 
Q 40.234375 -1.421875 26.421875 -1.421875 
Q 22.703125 -1.421875 18.890625 -0.6875 
Q 15.09375 0.046875 10.984375 1.515625 
z
M 30.609375 32.421875 
Q 37.25 32.421875 41.125 36.953125 
Q 45.015625 41.5 45.015625 49.421875 
Q 45.015625 57.28125 41.125 61.84375 
Q 37.25 66.40625 30.609375 66.40625 
Q 23.96875 66.40625 20.09375 61.84375 
Q 16.21875 57.28125 16.21875 49.421875 
Q 16.21875 41.5 20.09375 36.953125 
Q 23.96875 32.421875 30.609375 32.421875 
z
" id="DejaVuSans-57"/>
      <path d="M 72.703125 32.078125 
Q 68.453125 32.078125 66.03125 28.46875 
Q 63.625 24.859375 63.625 18.40625 
Q 63.625 12.0625 66.03125 8.421875 
Q 68.453125 4.78125 72.703125 4.78125 
Q 76.859375 4.78125 79.265625 8.421875 
Q 81.6875 12.0625 81.6875 18.40625 
Q 81.6875 24.8125 79.265625 28.4375 
Q 76.859375 32.078125 72.703125 32.078125 
z
M 72.703125 38.28125 
Q 80.421875 38.28125 84.953125 32.90625 
Q 89.5 27.546875 89.5 18.40625 
Q 89.5 9.28125 84.9375 3.921875 
Q 80.375 -1.421875 72.703125 -1.421875 
Q 64.890625 -1.421875 60.34375 3.921875 
Q 55.8125 9.28125 55.8125 18.40625 
Q 55.8125 27.59375 60.375 32.9375 
Q 64.9375 38.28125 72.703125 38.28125 
z
M 22.3125 68.015625 
Q 18.109375 68.015625 15.6875 64.375 
Q 13.28125 60.75 13.28125 54.390625 
Q 13.28125 47.953125 15.671875 44.328125 
Q 18.0625 40.71875 22.3125 40.71875 
Q 26.5625 40.71875 28.96875 44.328125 
Q 31.390625 47.953125 31.390625 54.390625 
Q 31.390625 60.6875 28.953125 64.34375 
Q 26.515625 68.015625 22.3125 68.015625 
z
M 66.40625 74.21875 
L 74.21875 74.21875 
L 28.609375 -1.421875 
L 20.796875 -1.421875 
z
M 22.3125 74.21875 
Q 30.03125 74.21875 34.609375 68.875 
Q 39.203125 63.53125 39.203125 54.390625 
Q 39.203125 45.171875 34.640625 39.84375 
Q 30.078125 34.515625 22.3125 34.515625 
Q 14.546875 34.515625 10.03125 39.859375 
Q 5.515625 45.21875 5.515625 54.390625 
Q 5.515625 63.484375 10.046875 68.84375 
Q 14.59375 74.21875 22.3125 74.21875 
z
" id="DejaVuSans-37"/>
      <path d="M 9.8125 72.90625 
L 19.671875 72.90625 
L 19.671875 0 
L 9.8125 0 
z
" id="DejaVuSans-73"/>
      <path d="M 8.6875 72.90625 
L 18.609375 72.90625 
L 18.609375 28.609375 
Q 18.609375 16.890625 22.84375 11.734375 
Q 27.09375 6.59375 36.625 6.59375 
Q 46.09375 6.59375 50.34375 11.734375 
Q 54.59375 16.890625 54.59375 28.609375 
L 54.59375 72.90625 
L 64.5 72.90625 
L 64.5 27.390625 
Q 64.5 13.140625 57.4375 5.859375 
Q 50.390625 -1.421875 36.625 -1.421875 
Q 22.796875 -1.421875 15.734375 5.859375 
Q 8.6875 13.140625 8.6875 27.390625 
z
" id="DejaVuSans-85"/>
     </defs>
     <g transform="translate(101.885938 550.960313)scale(0.1 -0.1)">
      <use xlink:href="#DejaVuSans-57"/>
      <use x="63.623047" xlink:href="#DejaVuSans-53"/>
      <use x="127.246094" xlink:href="#DejaVuSans-37"/>
      <use x="222.265625" xlink:href="#DejaVuSans-32"/>
      <use x="254.052734" xlink:href="#DejaVuSans-67"/>
      <use x="323.876953" xlink:href="#DejaVuSans-73"/>
      <use x="353.369141" xlink:href="#DejaVuSans-32"/>
      <use x="385.15625" xlink:href="#DejaVuSans-85"/>
      <use x="458.349609" xlink:href="#DejaVuSans-112"/>
      <use x="521.826172" xlink:href="#DejaVuSans-112"/>
      <use x="585.302734" xlink:href="#DejaVuSans-101"/>
      <use x="646.826172" xlink:href="#DejaVuSans-114"/>
     </g>
    </g>
    <g id="line2d_31">
     <path d="M 73.885938 562.138438 
L 93.885938 562.138438 
" style="fill:none;stroke:#2ca02c;stroke-linecap:square;stroke-width:1.5;"/>
    </g>
    <g id="line2d_32"/>
    <g id="text_24">
     <!-- 95% CI Lower -->
     <defs>
      <path d="M 9.8125 72.90625 
L 19.671875 72.90625 
L 19.671875 8.296875 
L 55.171875 8.296875 
L 55.171875 0 
L 9.8125 0 
z
" id="DejaVuSans-76"/>
      <path d="M 4.203125 54.6875 
L 13.1875 54.6875 
L 24.421875 12.015625 
L 35.59375 54.6875 
L 46.1875 54.6875 
L 57.421875 12.015625 
L 68.609375 54.6875 
L 77.59375 54.6875 
L 63.28125 0 
L 52.6875 0 
L 40.921875 44.828125 
L 29.109375 0 
L 18.5 0 
z
" id="DejaVuSans-119"/>
     </defs>
     <g transform="translate(101.885938 565.638438)scale(0.1 -0.1)">
      <use xlink:href="#DejaVuSans-57"/>
      <use x="63.623047" xlink:href="#DejaVuSans-53"/>
      <use x="127.246094" xlink:href="#DejaVuSans-37"/>
      <use x="222.265625" xlink:href="#DejaVuSans-32"/>
      <use x="254.052734" xlink:href="#DejaVuSans-67"/>
      <use x="323.876953" xlink:href="#DejaVuSans-73"/>
      <use x="353.369141" xlink:href="#DejaVuSans-32"/>
      <use x="385.15625" xlink:href="#DejaVuSans-76"/>
      <use x="439.119141" xlink:href="#DejaVuSans-111"/>
      <use x="500.300781" xlink:href="#DejaVuSans-119"/>
      <use x="582.087891" xlink:href="#DejaVuSans-101"/>
      <use x="643.611328" xlink:href="#DejaVuSans-114"/>
     </g>
    </g>
   </g>
  </g>
 </g>
 <defs>
  <clipPath id="p8e6ea86e45">
   <rect height="554.4" width="558" x="64.885938" y="22.318125"/>
  </clipPath>
 </defs>
</svg>
