<?xml version="1.0" encoding="utf-8" standalone="no"?>
<!DOCTYPE svg PUBLIC "-//W3C//DTD SVG 1.1//EN"
  "http://www.w3.org/Graphics/SVG/1.1/DTD/svg11.dtd">
<!-- Created with matplotlib (https://matplotlib.org/) -->
<svg height="614.274375pt" version="1.1" viewBox="0 0 658.534062 614.274375" width="658.534062pt" xmlns="http://www.w3.org/2000/svg" xmlns:xlink="http://www.w3.org/1999/xlink">
 <defs>
  <style type="text/css">
*{stroke-linecap:butt;stroke-linejoin:round;}
  </style>
 </defs>
 <g id="figure_1">
  <g id="patch_1">
   <path d="M 0 614.274375 
L 658.534062 614.274375 
L 658.534062 0 
L 0 0 
z
" style="fill:#ffffff;"/>
  </g>
  <g id="axes_1">
   <g id="patch_2">
    <path d="M 71.248438 576.718125 
L 629.248438 576.718125 
L 629.248438 22.318125 
L 71.248438 22.318125 
z
" style="fill:#ffffff;"/>
   </g>
   <g id="matplotlib.axis_1">
    <g id="xtick_1">
     <g id="line2d_1">
      <defs>
       <path d="M 0 0 
L 0 3.5 
" id="mf96bf9f9fd" style="stroke:#000000;stroke-width:0.8;"/>
      </defs>
      <g>
       <use style="stroke:#000000;stroke-width:0.8;" x="79.702983" xlink:href="#mf96bf9f9fd" y="576.718125"/>
      </g>
     </g>
     <g id="text_1">
      <!-- −80 -->
      <defs>
       <path d="M 10.59375 35.5 
L 73.1875 35.5 
L 73.1875 27.203125 
L 10.59375 27.203125 
z
" id="DejaVuSans-8722"/>
       <path d="M 31.78125 34.625 
Q 24.75 34.625 20.71875 30.859375 
Q 16.703125 27.09375 16.703125 20.515625 
Q 16.703125 13.921875 20.71875 10.15625 
Q 24.75 6.390625 31.78125 6.390625 
Q 38.8125 6.390625 42.859375 10.171875 
Q 46.921875 13.96875 46.921875 20.515625 
Q 46.921875 27.09375 42.890625 30.859375 
Q 38.875 34.625 31.78125 34.625 
z
M 21.921875 38.8125 
Q 15.578125 40.375 12.03125 44.71875 
Q 8.5 49.078125 8.5 55.328125 
Q 8.5 64.0625 14.71875 69.140625 
Q 20.953125 74.21875 31.78125 74.21875 
Q 42.671875 74.21875 48.875 69.140625 
Q 55.078125 64.0625 55.078125 55.328125 
Q 55.078125 49.078125 51.53125 44.71875 
Q 48 40.375 41.703125 38.8125 
Q 48.828125 37.15625 52.796875 32.3125 
Q 56.78125 27.484375 56.78125 20.515625 
Q 56.78125 9.90625 50.3125 4.234375 
Q 43.84375 -1.421875 31.78125 -1.421875 
Q 19.734375 -1.421875 13.25 4.234375 
Q 6.78125 9.90625 6.78125 20.515625 
Q 6.78125 27.484375 10.78125 32.3125 
Q 14.796875 37.15625 21.921875 38.8125 
z
M 18.3125 54.390625 
Q 18.3125 48.734375 21.84375 45.5625 
Q 25.390625 42.390625 31.78125 42.390625 
Q 38.140625 42.390625 41.71875 45.5625 
Q 45.3125 48.734375 45.3125 54.390625 
Q 45.3125 60.0625 41.71875 63.234375 
Q 38.140625 66.40625 31.78125 66.40625 
Q 25.390625 66.40625 21.84375 63.234375 
Q 18.3125 60.0625 18.3125 54.390625 
z
" id="DejaVuSans-56"/>
       <path d="M 31.78125 66.40625 
Q 24.171875 66.40625 20.328125 58.90625 
Q 16.5 51.421875 16.5 36.375 
Q 16.5 21.390625 20.328125 13.890625 
Q 24.171875 6.390625 31.78125 6.390625 
Q 39.453125 6.390625 43.28125 13.890625 
Q 47.125 21.390625 47.125 36.375 
Q 47.125 51.421875 43.28125 58.90625 
Q 39.453125 66.40625 31.78125 66.40625 
z
M 31.78125 74.21875 
Q 44.046875 74.21875 50.515625 64.515625 
Q 56.984375 54.828125 56.984375 36.375 
Q 56.984375 17.96875 50.515625 8.265625 
Q 44.046875 -1.421875 31.78125 -1.421875 
Q 19.53125 -1.421875 13.0625 8.265625 
Q 6.59375 17.96875 6.59375 36.375 
Q 6.59375 54.828125 13.0625 64.515625 
Q 19.53125 74.21875 31.78125 74.21875 
z
" id="DejaVuSans-48"/>
      </defs>
      <g transform="translate(69.150639 591.316563)scale(0.1 -0.1)">
       <use xlink:href="#DejaVuSans-8722"/>
       <use x="83.789062" xlink:href="#DejaVuSans-56"/>
       <use x="147.412109" xlink:href="#DejaVuSans-48"/>
      </g>
     </g>
    </g>
    <g id="xtick_2">
     <g id="line2d_2">
      <g>
       <use style="stroke:#000000;stroke-width:0.8;" x="147.339347" xlink:href="#mf96bf9f9fd" y="576.718125"/>
      </g>
     </g>
     <g id="text_2">
      <!-- −60 -->
      <defs>
       <path d="M 33.015625 40.375 
Q 26.375 40.375 22.484375 35.828125 
Q 18.609375 31.296875 18.609375 23.390625 
Q 18.609375 15.53125 22.484375 10.953125 
Q 26.375 6.390625 33.015625 6.390625 
Q 39.65625 6.390625 43.53125 10.953125 
Q 47.40625 15.53125 47.40625 23.390625 
Q 47.40625 31.296875 43.53125 35.828125 
Q 39.65625 40.375 33.015625 40.375 
z
M 52.59375 71.296875 
L 52.59375 62.3125 
Q 48.875 64.0625 45.09375 64.984375 
Q 41.3125 65.921875 37.59375 65.921875 
Q 27.828125 65.921875 22.671875 59.328125 
Q 17.53125 52.734375 16.796875 39.40625 
Q 19.671875 43.65625 24.015625 45.921875 
Q 28.375 48.1875 33.59375 48.1875 
Q 44.578125 48.1875 50.953125 41.515625 
Q 57.328125 34.859375 57.328125 23.390625 
Q 57.328125 12.15625 50.6875 5.359375 
Q 44.046875 -1.421875 33.015625 -1.421875 
Q 20.359375 -1.421875 13.671875 8.265625 
Q 6.984375 17.96875 6.984375 36.375 
Q 6.984375 53.65625 15.1875 63.9375 
Q 23.390625 74.21875 37.203125 74.21875 
Q 40.921875 74.21875 44.703125 73.484375 
Q 48.484375 72.75 52.59375 71.296875 
z
" id="DejaVuSans-54"/>
      </defs>
      <g transform="translate(136.787003 591.316563)scale(0.1 -0.1)">
       <use xlink:href="#DejaVuSans-8722"/>
       <use x="83.789062" xlink:href="#DejaVuSans-54"/>
       <use x="147.412109" xlink:href="#DejaVuSans-48"/>
      </g>
     </g>
    </g>
    <g id="xtick_3">
     <g id="line2d_3">
      <g>
       <use style="stroke:#000000;stroke-width:0.8;" x="214.97571" xlink:href="#mf96bf9f9fd" y="576.718125"/>
      </g>
     </g>
     <g id="text_3">
      <!-- −40 -->
      <defs>
       <path d="M 37.796875 64.3125 
L 12.890625 25.390625 
L 37.796875 25.390625 
z
M 35.203125 72.90625 
L 47.609375 72.90625 
L 47.609375 25.390625 
L 58.015625 25.390625 
L 58.015625 17.1875 
L 47.609375 17.1875 
L 47.609375 0 
L 37.796875 0 
L 37.796875 17.1875 
L 4.890625 17.1875 
L 4.890625 26.703125 
z
" id="DejaVuSans-52"/>
      </defs>
      <g transform="translate(204.423366 591.316563)scale(0.1 -0.1)">
       <use xlink:href="#DejaVuSans-8722"/>
       <use x="83.789062" xlink:href="#DejaVuSans-52"/>
       <use x="147.412109" xlink:href="#DejaVuSans-48"/>
      </g>
     </g>
    </g>
    <g id="xtick_4">
     <g id="line2d_4">
      <g>
       <use style="stroke:#000000;stroke-width:0.8;" x="282.612074" xlink:href="#mf96bf9f9fd" y="576.718125"/>
      </g>
     </g>
     <g id="text_4">
      <!-- −20 -->
      <defs>
       <path d="M 19.1875 8.296875 
L 53.609375 8.296875 
L 53.609375 0 
L 7.328125 0 
L 7.328125 8.296875 
Q 12.9375 14.109375 22.625 23.890625 
Q 32.328125 33.6875 34.8125 36.53125 
Q 39.546875 41.84375 41.421875 45.53125 
Q 43.3125 49.21875 43.3125 52.78125 
Q 43.3125 58.59375 39.234375 62.25 
Q 35.15625 65.921875 28.609375 65.921875 
Q 23.96875 65.921875 18.8125 64.3125 
Q 13.671875 62.703125 7.8125 59.421875 
L 7.8125 69.390625 
Q 13.765625 71.78125 18.9375 73 
Q 24.125 74.21875 28.421875 74.21875 
Q 39.75 74.21875 46.484375 68.546875 
Q 53.21875 62.890625 53.21875 53.421875 
Q 53.21875 48.921875 51.53125 44.890625 
Q 49.859375 40.875 45.40625 35.40625 
Q 44.1875 33.984375 37.640625 27.21875 
Q 31.109375 20.453125 19.1875 8.296875 
z
" id="DejaVuSans-50"/>
      </defs>
      <g transform="translate(272.05973 591.316563)scale(0.1 -0.1)">
       <use xlink:href="#DejaVuSans-8722"/>
       <use x="83.789062" xlink:href="#DejaVuSans-50"/>
       <use x="147.412109" xlink:href="#DejaVuSans-48"/>
      </g>
     </g>
    </g>
    <g id="xtick_5">
     <g id="line2d_5">
      <g>
       <use style="stroke:#000000;stroke-width:0.8;" x="350.248438" xlink:href="#mf96bf9f9fd" y="576.718125"/>
      </g>
     </g>
     <g id="text_5">
      <!-- 0 -->
      <g transform="translate(347.067188 591.316563)scale(0.1 -0.1)">
       <use xlink:href="#DejaVuSans-48"/>
      </g>
     </g>
    </g>
    <g id="xtick_6">
     <g id="line2d_6">
      <g>
       <use style="stroke:#000000;stroke-width:0.8;" x="417.884801" xlink:href="#mf96bf9f9fd" y="576.718125"/>
      </g>
     </g>
     <g id="text_6">
      <!-- 20 -->
      <g transform="translate(411.522301 591.316563)scale(0.1 -0.1)">
       <use xlink:href="#DejaVuSans-50"/>
       <use x="63.623047" xlink:href="#DejaVuSans-48"/>
      </g>
     </g>
    </g>
    <g id="xtick_7">
     <g id="line2d_7">
      <g>
       <use style="stroke:#000000;stroke-width:0.8;" x="485.521165" xlink:href="#mf96bf9f9fd" y="576.718125"/>
      </g>
     </g>
     <g id="text_7">
      <!-- 40 -->
      <g transform="translate(479.158665 591.316563)scale(0.1 -0.1)">
       <use xlink:href="#DejaVuSans-52"/>
       <use x="63.623047" xlink:href="#DejaVuSans-48"/>
      </g>
     </g>
    </g>
    <g id="xtick_8">
     <g id="line2d_8">
      <g>
       <use style="stroke:#000000;stroke-width:0.8;" x="553.157528" xlink:href="#mf96bf9f9fd" y="576.718125"/>
      </g>
     </g>
     <g id="text_8">
      <!-- 60 -->
      <g transform="translate(546.795028 591.316563)scale(0.1 -0.1)">
       <use xlink:href="#DejaVuSans-54"/>
       <use x="63.623047" xlink:href="#DejaVuSans-48"/>
      </g>
     </g>
    </g>
    <g id="xtick_9">
     <g id="line2d_9">
      <g>
       <use style="stroke:#000000;stroke-width:0.8;" x="620.793892" xlink:href="#mf96bf9f9fd" y="576.718125"/>
      </g>
     </g>
     <g id="text_9">
      <!-- 80 -->
      <g transform="translate(614.431392 591.316563)scale(0.1 -0.1)">
       <use xlink:href="#DejaVuSans-56"/>
       <use x="63.623047" xlink:href="#DejaVuSans-48"/>
      </g>
     </g>
    </g>
    <g id="text_10">
     <!-- Motif Position -->
     <defs>
      <path d="M 9.8125 72.90625 
L 24.515625 72.90625 
L 43.109375 23.296875 
L 61.8125 72.90625 
L 76.515625 72.90625 
L 76.515625 0 
L 66.890625 0 
L 66.890625 64.015625 
L 48.09375 14.015625 
L 38.1875 14.015625 
L 19.390625 64.015625 
L 19.390625 0 
L 9.8125 0 
z
" id="DejaVuSans-77"/>
      <path d="M 30.609375 48.390625 
Q 23.390625 48.390625 19.1875 42.75 
Q 14.984375 37.109375 14.984375 27.296875 
Q 14.984375 17.484375 19.15625 11.84375 
Q 23.34375 6.203125 30.609375 6.203125 
Q 37.796875 6.203125 41.984375 11.859375 
Q 46.1875 17.53125 46.1875 27.296875 
Q 46.1875 37.015625 41.984375 42.703125 
Q 37.796875 48.390625 30.609375 48.390625 
z
M 30.609375 56 
Q 42.328125 56 49.015625 48.375 
Q 55.71875 40.765625 55.71875 27.296875 
Q 55.71875 13.875 49.015625 6.21875 
Q 42.328125 -1.421875 30.609375 -1.421875 
Q 18.84375 -1.421875 12.171875 6.21875 
Q 5.515625 13.875 5.515625 27.296875 
Q 5.515625 40.765625 12.171875 48.375 
Q 18.84375 56 30.609375 56 
z
" id="DejaVuSans-111"/>
      <path d="M 18.3125 70.21875 
L 18.3125 54.6875 
L 36.8125 54.6875 
L 36.8125 47.703125 
L 18.3125 47.703125 
L 18.3125 18.015625 
Q 18.3125 11.328125 20.140625 9.421875 
Q 21.96875 7.515625 27.59375 7.515625 
L 36.8125 7.515625 
L 36.8125 0 
L 27.59375 0 
Q 17.1875 0 13.234375 3.875 
Q 9.28125 7.765625 9.28125 18.015625 
L 9.28125 47.703125 
L 2.6875 47.703125 
L 2.6875 54.6875 
L 9.28125 54.6875 
L 9.28125 70.21875 
z
" id="DejaVuSans-116"/>
      <path d="M 9.421875 54.6875 
L 18.40625 54.6875 
L 18.40625 0 
L 9.421875 0 
z
M 9.421875 75.984375 
L 18.40625 75.984375 
L 18.40625 64.59375 
L 9.421875 64.59375 
z
" id="DejaVuSans-105"/>
      <path d="M 37.109375 75.984375 
L 37.109375 68.5 
L 28.515625 68.5 
Q 23.6875 68.5 21.796875 66.546875 
Q 19.921875 64.59375 19.921875 59.515625 
L 19.921875 54.6875 
L 34.71875 54.6875 
L 34.71875 47.703125 
L 19.921875 47.703125 
L 19.921875 0 
L 10.890625 0 
L 10.890625 47.703125 
L 2.296875 47.703125 
L 2.296875 54.6875 
L 10.890625 54.6875 
L 10.890625 58.5 
Q 10.890625 67.625 15.140625 71.796875 
Q 19.390625 75.984375 28.609375 75.984375 
z
" id="DejaVuSans-102"/>
      <path id="DejaVuSans-32"/>
      <path d="M 19.671875 64.796875 
L 19.671875 37.40625 
L 32.078125 37.40625 
Q 38.96875 37.40625 42.71875 40.96875 
Q 46.484375 44.53125 46.484375 51.125 
Q 46.484375 57.671875 42.71875 61.234375 
Q 38.96875 64.796875 32.078125 64.796875 
z
M 9.8125 72.90625 
L 32.078125 72.90625 
Q 44.34375 72.90625 50.609375 67.359375 
Q 56.890625 61.8125 56.890625 51.125 
Q 56.890625 40.328125 50.609375 34.8125 
Q 44.34375 29.296875 32.078125 29.296875 
L 19.671875 29.296875 
L 19.671875 0 
L 9.8125 0 
z
" id="DejaVuSans-80"/>
      <path d="M 44.28125 53.078125 
L 44.28125 44.578125 
Q 40.484375 46.53125 36.375 47.5 
Q 32.28125 48.484375 27.875 48.484375 
Q 21.1875 48.484375 17.84375 46.4375 
Q 14.5 44.390625 14.5 40.28125 
Q 14.5 37.15625 16.890625 35.375 
Q 19.28125 33.59375 26.515625 31.984375 
L 29.59375 31.296875 
Q 39.15625 29.25 43.1875 25.515625 
Q 47.21875 21.78125 47.21875 15.09375 
Q 47.21875 7.46875 41.1875 3.015625 
Q 35.15625 -1.421875 24.609375 -1.421875 
Q 20.21875 -1.421875 15.453125 -0.5625 
Q 10.6875 0.296875 5.421875 2 
L 5.421875 11.28125 
Q 10.40625 8.6875 15.234375 7.390625 
Q 20.0625 6.109375 24.8125 6.109375 
Q 31.15625 6.109375 34.5625 8.28125 
Q 37.984375 10.453125 37.984375 14.40625 
Q 37.984375 18.0625 35.515625 20.015625 
Q 33.0625 21.96875 24.703125 23.78125 
L 21.578125 24.515625 
Q 13.234375 26.265625 9.515625 29.90625 
Q 5.8125 33.546875 5.8125 39.890625 
Q 5.8125 47.609375 11.28125 51.796875 
Q 16.75 56 26.8125 56 
Q 31.78125 56 36.171875 55.265625 
Q 40.578125 54.546875 44.28125 53.078125 
z
" id="DejaVuSans-115"/>
      <path d="M 54.890625 33.015625 
L 54.890625 0 
L 45.90625 0 
L 45.90625 32.71875 
Q 45.90625 40.484375 42.875 44.328125 
Q 39.84375 48.1875 33.796875 48.1875 
Q 26.515625 48.1875 22.3125 43.546875 
Q 18.109375 38.921875 18.109375 30.90625 
L 18.109375 0 
L 9.078125 0 
L 9.078125 54.6875 
L 18.109375 54.6875 
L 18.109375 46.1875 
Q 21.34375 51.125 25.703125 53.5625 
Q 30.078125 56 35.796875 56 
Q 45.21875 56 50.046875 50.171875 
Q 54.890625 44.34375 54.890625 33.015625 
z
" id="DejaVuSans-110"/>
     </defs>
     <g transform="translate(316.7125 604.994688)scale(0.1 -0.1)">
      <use xlink:href="#DejaVuSans-77"/>
      <use x="86.279297" xlink:href="#DejaVuSans-111"/>
      <use x="147.460938" xlink:href="#DejaVuSans-116"/>
      <use x="186.669922" xlink:href="#DejaVuSans-105"/>
      <use x="214.453125" xlink:href="#DejaVuSans-102"/>
      <use x="249.658203" xlink:href="#DejaVuSans-32"/>
      <use x="281.445312" xlink:href="#DejaVuSans-80"/>
      <use x="338.123047" xlink:href="#DejaVuSans-111"/>
      <use x="399.304688" xlink:href="#DejaVuSans-115"/>
      <use x="451.404297" xlink:href="#DejaVuSans-105"/>
      <use x="479.1875" xlink:href="#DejaVuSans-116"/>
      <use x="518.396484" xlink:href="#DejaVuSans-105"/>
      <use x="546.179688" xlink:href="#DejaVuSans-111"/>
      <use x="607.361328" xlink:href="#DejaVuSans-110"/>
     </g>
    </g>
   </g>
   <g id="matplotlib.axis_2">
    <g id="ytick_1">
     <g id="line2d_10">
      <defs>
       <path d="M 0 0 
L -3.5 0 
" id="m76a23867f5" style="stroke:#000000;stroke-width:0.8;"/>
      </defs>
      <g>
       <use style="stroke:#000000;stroke-width:0.8;" x="71.248438" xlink:href="#m76a23867f5" y="535.563121"/>
      </g>
     </g>
     <g id="text_11">
      <!-- −0.0075 -->
      <defs>
       <path d="M 10.6875 12.40625 
L 21 12.40625 
L 21 0 
L 10.6875 0 
z
" id="DejaVuSans-46"/>
       <path d="M 8.203125 72.90625 
L 55.078125 72.90625 
L 55.078125 68.703125 
L 28.609375 0 
L 18.3125 0 
L 43.21875 64.59375 
L 8.203125 64.59375 
z
" id="DejaVuSans-55"/>
       <path d="M 10.796875 72.90625 
L 49.515625 72.90625 
L 49.515625 64.59375 
L 19.828125 64.59375 
L 19.828125 46.734375 
Q 21.96875 47.46875 24.109375 47.828125 
Q 26.265625 48.1875 28.421875 48.1875 
Q 40.625 48.1875 47.75 41.5 
Q 54.890625 34.8125 54.890625 23.390625 
Q 54.890625 11.625 47.5625 5.09375 
Q 40.234375 -1.421875 26.90625 -1.421875 
Q 22.3125 -1.421875 17.546875 -0.640625 
Q 12.796875 0.140625 7.71875 1.703125 
L 7.71875 11.625 
Q 12.109375 9.234375 16.796875 8.0625 
Q 21.484375 6.890625 26.703125 6.890625 
Q 35.15625 6.890625 40.078125 11.328125 
Q 45.015625 15.765625 45.015625 23.390625 
Q 45.015625 31 40.078125 35.4375 
Q 35.15625 39.890625 26.703125 39.890625 
Q 22.75 39.890625 18.8125 39.015625 
Q 14.890625 38.140625 10.796875 36.28125 
z
" id="DejaVuSans-53"/>
      </defs>
      <g transform="translate(20.878125 539.362339)scale(0.1 -0.1)">
       <use xlink:href="#DejaVuSans-8722"/>
       <use x="83.789062" xlink:href="#DejaVuSans-48"/>
       <use x="147.412109" xlink:href="#DejaVuSans-46"/>
       <use x="179.199219" xlink:href="#DejaVuSans-48"/>
       <use x="242.822266" xlink:href="#DejaVuSans-48"/>
       <use x="306.445312" xlink:href="#DejaVuSans-55"/>
       <use x="370.068359" xlink:href="#DejaVuSans-53"/>
      </g>
     </g>
    </g>
    <g id="ytick_2">
     <g id="line2d_11">
      <g>
       <use style="stroke:#000000;stroke-width:0.8;" x="71.248438" xlink:href="#m76a23867f5" y="464.908141"/>
      </g>
     </g>
     <g id="text_12">
      <!-- −0.0050 -->
      <g transform="translate(20.878125 468.70736)scale(0.1 -0.1)">
       <use xlink:href="#DejaVuSans-8722"/>
       <use x="83.789062" xlink:href="#DejaVuSans-48"/>
       <use x="147.412109" xlink:href="#DejaVuSans-46"/>
       <use x="179.199219" xlink:href="#DejaVuSans-48"/>
       <use x="242.822266" xlink:href="#DejaVuSans-48"/>
       <use x="306.445312" xlink:href="#DejaVuSans-53"/>
       <use x="370.068359" xlink:href="#DejaVuSans-48"/>
      </g>
     </g>
    </g>
    <g id="ytick_3">
     <g id="line2d_12">
      <g>
       <use style="stroke:#000000;stroke-width:0.8;" x="71.248438" xlink:href="#m76a23867f5" y="394.253161"/>
      </g>
     </g>
     <g id="text_13">
      <!-- −0.0025 -->
      <g transform="translate(20.878125 398.05238)scale(0.1 -0.1)">
       <use xlink:href="#DejaVuSans-8722"/>
       <use x="83.789062" xlink:href="#DejaVuSans-48"/>
       <use x="147.412109" xlink:href="#DejaVuSans-46"/>
       <use x="179.199219" xlink:href="#DejaVuSans-48"/>
       <use x="242.822266" xlink:href="#DejaVuSans-48"/>
       <use x="306.445312" xlink:href="#DejaVuSans-50"/>
       <use x="370.068359" xlink:href="#DejaVuSans-53"/>
      </g>
     </g>
    </g>
    <g id="ytick_4">
     <g id="line2d_13">
      <g>
       <use style="stroke:#000000;stroke-width:0.8;" x="71.248438" xlink:href="#m76a23867f5" y="323.598182"/>
      </g>
     </g>
     <g id="text_14">
      <!-- 0.0000 -->
      <g transform="translate(29.257813 327.3974)scale(0.1 -0.1)">
       <use xlink:href="#DejaVuSans-48"/>
       <use x="63.623047" xlink:href="#DejaVuSans-46"/>
       <use x="95.410156" xlink:href="#DejaVuSans-48"/>
       <use x="159.033203" xlink:href="#DejaVuSans-48"/>
       <use x="222.65625" xlink:href="#DejaVuSans-48"/>
       <use x="286.279297" xlink:href="#DejaVuSans-48"/>
      </g>
     </g>
    </g>
    <g id="ytick_5">
     <g id="line2d_14">
      <g>
       <use style="stroke:#000000;stroke-width:0.8;" x="71.248438" xlink:href="#m76a23867f5" y="252.943202"/>
      </g>
     </g>
     <g id="text_15">
      <!-- 0.0025 -->
      <g transform="translate(29.257813 256.742421)scale(0.1 -0.1)">
       <use xlink:href="#DejaVuSans-48"/>
       <use x="63.623047" xlink:href="#DejaVuSans-46"/>
       <use x="95.410156" xlink:href="#DejaVuSans-48"/>
       <use x="159.033203" xlink:href="#DejaVuSans-48"/>
       <use x="222.65625" xlink:href="#DejaVuSans-50"/>
       <use x="286.279297" xlink:href="#DejaVuSans-53"/>
      </g>
     </g>
    </g>
    <g id="ytick_6">
     <g id="line2d_15">
      <g>
       <use style="stroke:#000000;stroke-width:0.8;" x="71.248438" xlink:href="#m76a23867f5" y="182.288222"/>
      </g>
     </g>
     <g id="text_16">
      <!-- 0.0050 -->
      <g transform="translate(29.257813 186.087441)scale(0.1 -0.1)">
       <use xlink:href="#DejaVuSans-48"/>
       <use x="63.623047" xlink:href="#DejaVuSans-46"/>
       <use x="95.410156" xlink:href="#DejaVuSans-48"/>
       <use x="159.033203" xlink:href="#DejaVuSans-48"/>
       <use x="222.65625" xlink:href="#DejaVuSans-53"/>
       <use x="286.279297" xlink:href="#DejaVuSans-48"/>
      </g>
     </g>
    </g>
    <g id="ytick_7">
     <g id="line2d_16">
      <g>
       <use style="stroke:#000000;stroke-width:0.8;" x="71.248438" xlink:href="#m76a23867f5" y="111.633243"/>
      </g>
     </g>
     <g id="text_17">
      <!-- 0.0075 -->
      <g transform="translate(29.257813 115.432461)scale(0.1 -0.1)">
       <use xlink:href="#DejaVuSans-48"/>
       <use x="63.623047" xlink:href="#DejaVuSans-46"/>
       <use x="95.410156" xlink:href="#DejaVuSans-48"/>
       <use x="159.033203" xlink:href="#DejaVuSans-48"/>
       <use x="222.65625" xlink:href="#DejaVuSans-55"/>
       <use x="286.279297" xlink:href="#DejaVuSans-53"/>
      </g>
     </g>
    </g>
    <g id="ytick_8">
     <g id="line2d_17">
      <g>
       <use style="stroke:#000000;stroke-width:0.8;" x="71.248438" xlink:href="#m76a23867f5" y="40.978263"/>
      </g>
     </g>
     <g id="text_18">
      <!-- 0.0100 -->
      <defs>
       <path d="M 12.40625 8.296875 
L 28.515625 8.296875 
L 28.515625 63.921875 
L 10.984375 60.40625 
L 10.984375 69.390625 
L 28.421875 72.90625 
L 38.28125 72.90625 
L 38.28125 8.296875 
L 54.390625 8.296875 
L 54.390625 0 
L 12.40625 0 
z
" id="DejaVuSans-49"/>
      </defs>
      <g transform="translate(29.257813 44.777482)scale(0.1 -0.1)">
       <use xlink:href="#DejaVuSans-48"/>
       <use x="63.623047" xlink:href="#DejaVuSans-46"/>
       <use x="95.410156" xlink:href="#DejaVuSans-48"/>
       <use x="159.033203" xlink:href="#DejaVuSans-49"/>
       <use x="222.65625" xlink:href="#DejaVuSans-48"/>
       <use x="286.279297" xlink:href="#DejaVuSans-48"/>
      </g>
     </g>
    </g>
    <g id="text_19">
     <!-- Coefficient -->
     <defs>
      <path d="M 64.40625 67.28125 
L 64.40625 56.890625 
Q 59.421875 61.53125 53.78125 63.8125 
Q 48.140625 66.109375 41.796875 66.109375 
Q 29.296875 66.109375 22.65625 58.46875 
Q 16.015625 50.828125 16.015625 36.375 
Q 16.015625 21.96875 22.65625 14.328125 
Q 29.296875 6.6875 41.796875 6.6875 
Q 48.140625 6.6875 53.78125 8.984375 
Q 59.421875 11.28125 64.40625 15.921875 
L 64.40625 5.609375 
Q 59.234375 2.09375 53.4375 0.328125 
Q 47.65625 -1.421875 41.21875 -1.421875 
Q 24.65625 -1.421875 15.125 8.703125 
Q 5.609375 18.84375 5.609375 36.375 
Q 5.609375 53.953125 15.125 64.078125 
Q 24.65625 74.21875 41.21875 74.21875 
Q 47.75 74.21875 53.53125 72.484375 
Q 59.328125 70.75 64.40625 67.28125 
z
" id="DejaVuSans-67"/>
      <path d="M 56.203125 29.59375 
L 56.203125 25.203125 
L 14.890625 25.203125 
Q 15.484375 15.921875 20.484375 11.0625 
Q 25.484375 6.203125 34.421875 6.203125 
Q 39.59375 6.203125 44.453125 7.46875 
Q 49.3125 8.734375 54.109375 11.28125 
L 54.109375 2.78125 
Q 49.265625 0.734375 44.1875 -0.34375 
Q 39.109375 -1.421875 33.890625 -1.421875 
Q 20.796875 -1.421875 13.15625 6.1875 
Q 5.515625 13.8125 5.515625 26.8125 
Q 5.515625 40.234375 12.765625 48.109375 
Q 20.015625 56 32.328125 56 
Q 43.359375 56 49.78125 48.890625 
Q 56.203125 41.796875 56.203125 29.59375 
z
M 47.21875 32.234375 
Q 47.125 39.59375 43.09375 43.984375 
Q 39.0625 48.390625 32.421875 48.390625 
Q 24.90625 48.390625 20.390625 44.140625 
Q 15.875 39.890625 15.1875 32.171875 
z
" id="DejaVuSans-101"/>
      <path d="M 48.78125 52.59375 
L 48.78125 44.1875 
Q 44.96875 46.296875 41.140625 47.34375 
Q 37.3125 48.390625 33.40625 48.390625 
Q 24.65625 48.390625 19.8125 42.84375 
Q 14.984375 37.3125 14.984375 27.296875 
Q 14.984375 17.28125 19.8125 11.734375 
Q 24.65625 6.203125 33.40625 6.203125 
Q 37.3125 6.203125 41.140625 7.25 
Q 44.96875 8.296875 48.78125 10.40625 
L 48.78125 2.09375 
Q 45.015625 0.34375 40.984375 -0.53125 
Q 36.96875 -1.421875 32.421875 -1.421875 
Q 20.0625 -1.421875 12.78125 6.34375 
Q 5.515625 14.109375 5.515625 27.296875 
Q 5.515625 40.671875 12.859375 48.328125 
Q 20.21875 56 33.015625 56 
Q 37.15625 56 41.109375 55.140625 
Q 45.0625 54.296875 48.78125 52.59375 
z
" id="DejaVuSans-99"/>
     </defs>
     <g transform="translate(14.798438 326.398594)rotate(-90)scale(0.1 -0.1)">
      <use xlink:href="#DejaVuSans-67"/>
      <use x="69.824219" xlink:href="#DejaVuSans-111"/>
      <use x="131.005859" xlink:href="#DejaVuSans-101"/>
      <use x="192.529297" xlink:href="#DejaVuSans-102"/>
      <use x="227.734375" xlink:href="#DejaVuSans-102"/>
      <use x="262.939453" xlink:href="#DejaVuSans-105"/>
      <use x="290.722656" xlink:href="#DejaVuSans-99"/>
      <use x="345.703125" xlink:href="#DejaVuSans-105"/>
      <use x="373.486328" xlink:href="#DejaVuSans-101"/>
      <use x="435.009766" xlink:href="#DejaVuSans-110"/>
      <use x="498.388672" xlink:href="#DejaVuSans-116"/>
     </g>
    </g>
   </g>
   <g id="line2d_18">
    <path clip-path="url(#p74ac7e08ec)" d="M 96.612074 323.598182 
L 110.139347 323.591498 
L 113.521165 323.381276 
L 116.902983 321.101019 
L 120.284801 314.11392 
L 123.666619 314.818736 
L 127.048438 325.58369 
L 130.430256 319.227274 
L 133.812074 311.056496 
L 137.193892 321.236821 
L 140.57571 325.398595 
L 143.957528 294.384678 
L 147.339347 273.285925 
L 150.721165 281.192465 
L 154.102983 302.404286 
L 157.484801 319.872973 
L 160.866619 323.062772 
L 164.248438 308.046854 
L 167.630256 291.2293 
L 171.012074 284.783001 
L 174.393892 290.96728 
L 177.77571 306.958984 
L 181.157528 321.063859 
L 184.539347 319.884714 
L 187.921165 312.958367 
L 191.302983 280.876407 
L 194.684801 255.244731 
L 198.066619 282.47628 
L 201.448438 301.86148 
L 204.830256 278.232695 
L 208.212074 262.50752 
L 211.593892 312.218773 
L 214.97571 379.416517 
L 218.357528 374.218931 
L 221.739347 324.641667 
L 225.121165 305.168055 
L 228.502983 323.456404 
L 231.884801 339.934359 
L 235.266619 343.155605 
L 238.648438 309.60219 
L 242.030256 264.409947 
L 245.412074 280.036914 
L 248.793892 352.645554 
L 252.17571 381.550716 
L 255.557528 302.881342 
L 258.939347 237.969913 
L 262.321165 280.880188 
L 265.702983 351.673427 
L 269.084801 388.017088 
L 272.466619 345.240418 
L 275.848438 286.079585 
L 279.230256 290.620581 
L 282.612074 299.607663 
L 285.993892 257.611281 
L 289.37571 252.811089 
L 292.757528 275.96514 
L 296.139347 252.361657 
L 299.521165 269.650722 
L 302.902983 329.100737 
L 306.284801 368.965178 
L 309.666619 373.558239 
L 313.048438 357.108683 
L 316.430256 378.203699 
L 319.812074 395.449224 
L 323.193892 384.014971 
L 326.57571 371.936952 
L 329.957528 358.245044 
L 333.339347 343.190063 
L 336.721165 367.291763 
L 340.102983 347.076918 
L 343.484801 230.403599 
L 346.866619 163.086825 
L 350.248438 194.163942 
L 353.630256 248.115152 
L 357.012074 290.132358 
L 360.393892 346.511808 
L 363.77571 379.665634 
L 367.157528 389.539127 
L 370.539347 385.023372 
L 373.921165 360.700369 
L 377.302983 316.007019 
L 380.684801 299.808279 
L 384.066619 350.382131 
L 387.448438 381.234787 
L 390.830256 375.903649 
L 394.212074 373.449597 
L 397.593892 367.862351 
L 400.97571 380.800562 
L 404.357528 409.279117 
L 407.739347 419.277194 
L 411.121165 386.380168 
L 414.502983 339.647013 
L 417.884801 323.50069 
L 421.266619 363.346543 
L 424.648438 434.30035 
L 428.030256 441.857358 
L 431.412074 405.971733 
L 438.17571 351.067048 
L 441.557528 330.071273 
L 444.939347 315.772349 
L 448.321165 300.761905 
L 451.702983 278.030737 
L 455.084801 289.752788 
L 458.466619 333.198314 
L 461.848438 338.836685 
L 465.230256 329.118833 
L 468.612074 372.710463 
L 471.993892 438.855776 
L 475.37571 427.218024 
L 478.757528 362.972821 
L 482.139347 322.653411 
L 485.521165 308.165154 
L 488.902983 310.38157 
L 492.284801 315.173075 
L 495.666619 313.171344 
L 499.048438 305.168753 
L 502.430256 321.234469 
L 505.812074 335.614217 
L 509.193892 318.891472 
L 512.57571 307.459333 
L 515.957528 329.444919 
L 519.339347 341.275146 
L 522.721165 336.189833 
L 526.102983 349.692463 
L 529.484801 355.161604 
L 532.866619 334.220569 
L 536.248438 326.827477 
L 539.630256 316.886976 
L 543.012074 304.227324 
L 546.393892 309.686504 
L 549.77571 300.67929 
L 553.157528 280.47315 
L 556.539347 264.284153 
L 559.921165 211.667894 
L 563.302983 133.076825 
L 566.684801 133.765473 
L 570.066619 235.28582 
L 573.448437 289.577563 
L 576.830256 280.893457 
L 580.212074 295.702605 
L 583.593892 317.176757 
L 586.97571 323.065212 
L 590.357528 323.582023 
L 603.884801 323.598182 
L 603.884801 323.598182 
" style="fill:none;stroke:#1f77b4;stroke-linecap:square;stroke-width:1.5;"/>
   </g>
   <g id="line2d_19">
    <path clip-path="url(#p74ac7e08ec)" d="M 96.612074 323.598182 
L 110.139347 323.581042 
L 113.521165 323.034686 
L 116.902983 316.844283 
L 120.284801 293.892278 
L 123.666619 269.645954 
L 127.048438 265.288414 
L 130.430256 261.932838 
L 133.812074 242.842596 
L 137.193892 251.146831 
L 140.57571 251.790658 
L 143.957528 219.610993 
L 147.339347 199.009943 
L 150.721165 223.831289 
L 154.102983 254.505347 
L 157.484801 264.260952 
L 160.866619 257.951843 
L 164.248438 235.249661 
L 167.630256 230.320745 
L 171.012074 208.418525 
L 174.393892 212.111956 
L 177.77571 229.879402 
L 181.157528 244.424702 
L 184.539347 245.511871 
L 187.921165 241.564189 
L 191.302983 206.54132 
L 194.684801 188.633651 
L 198.066619 214.964222 
L 201.448438 234.027763 
L 204.830256 204.643305 
L 208.212074 181.774291 
L 211.593892 233.87673 
L 214.97571 295.524923 
L 218.357528 289.611164 
L 221.739347 246.516997 
L 225.121165 229.304063 
L 228.502983 248.202632 
L 231.884801 282.486607 
L 235.266619 265.799758 
L 238.648438 208.180828 
L 242.030256 170.107404 
L 245.412074 189.261226 
L 248.793892 263.09884 
L 252.17571 296.618366 
L 255.557528 211.606898 
L 258.939347 138.394844 
L 262.321165 185.155844 
L 265.702983 239.083158 
L 269.084801 291.223628 
L 272.466619 259.603665 
L 275.848438 199.09501 
L 279.230256 201.627095 
L 282.612074 197.962031 
L 285.993892 161.924432 
L 289.37571 147.132618 
L 292.757528 162.935775 
L 296.139347 143.576044 
L 299.521165 153.940901 
L 302.902983 205.368197 
L 306.284801 259.654513 
L 309.666619 256.081007 
L 313.048438 233.469338 
L 316.430256 258.122346 
L 319.812074 271.952693 
L 323.193892 266.263859 
L 326.57571 266.982352 
L 329.957528 247.582353 
L 333.339347 223.756963 
L 336.721165 243.27347 
L 340.102983 216.245706 
L 343.484801 102.103484 
L 346.866619 47.518125 
L 350.248438 75.920939 
L 353.630256 120.049533 
L 357.012074 158.001057 
L 360.393892 224.38464 
L 363.77571 258.998691 
L 367.157528 270.587096 
L 370.539347 262.442215 
L 373.921165 236.883899 
L 377.302983 198.012349 
L 380.684801 191.962673 
L 384.066619 240.700953 
L 387.448438 274.515114 
L 390.830256 261.545533 
L 394.212074 242.481802 
L 397.593892 253.64471 
L 400.97571 275.033176 
L 404.357528 302.413381 
L 407.739347 318.31438 
L 411.121165 283.438205 
L 414.502983 232.132871 
L 417.884801 216.061183 
L 421.266619 260.690094 
L 424.648438 325.246576 
L 428.030256 332.196591 
L 431.412074 305.107927 
L 434.793892 279.284498 
L 438.17571 270.374395 
L 441.557528 251.753015 
L 444.939347 234.49498 
L 451.702983 195.628683 
L 455.084801 204.997964 
L 458.466619 246.667646 
L 461.848438 253.038287 
L 465.230256 245.934115 
L 468.612074 287.690042 
L 471.993892 347.987016 
L 475.37571 339.638084 
L 478.757528 280.901139 
L 482.139347 243.534628 
L 485.521165 226.958802 
L 488.902983 226.220113 
L 492.284801 230.535603 
L 495.666619 242.617212 
L 499.048438 243.403802 
L 502.430256 254.79046 
L 505.812074 261.241346 
L 509.193892 244.579252 
L 512.57571 241.041351 
L 515.957528 268.208289 
L 519.339347 280.361145 
L 522.721165 275.851233 
L 526.102983 271.887471 
L 529.484801 265.322901 
L 532.866619 256.043096 
L 536.248438 257.807626 
L 539.630256 258.202701 
L 543.012074 249.921098 
L 546.393892 245.381402 
L 549.77571 246.443242 
L 553.157528 226.771802 
L 556.539347 208.961255 
L 559.921165 148.174585 
L 563.302983 65.386309 
L 566.684801 73.638013 
L 570.066619 187.027886 
L 573.448437 228.850309 
L 576.830256 219.401857 
L 580.212074 262.42497 
L 583.593892 309.877995 
L 586.97571 322.467446 
L 590.357528 323.563977 
L 603.884801 323.598182 
L 603.884801 323.598182 
" style="fill:none;stroke:#ff7f0e;stroke-linecap:square;stroke-width:1.5;"/>
   </g>
   <g id="line2d_20">
    <path clip-path="url(#p74ac7e08ec)" d="M 96.612074 323.598182 
L 110.139347 323.601953 
L 113.521165 323.727867 
L 116.902983 325.357755 
L 120.284801 334.335562 
L 127.048438 385.878965 
L 130.430256 376.52171 
L 133.812074 379.270395 
L 137.193892 391.326812 
L 140.57571 399.006532 
L 143.957528 369.158363 
L 147.339347 347.561907 
L 150.721165 338.553641 
L 154.102983 350.303226 
L 157.484801 375.484994 
L 160.866619 388.1737 
L 164.248438 380.844047 
L 167.630256 352.137855 
L 171.012074 361.147477 
L 174.393892 369.822603 
L 177.77571 384.038567 
L 181.157528 397.703016 
L 184.539347 394.257557 
L 187.921165 384.352546 
L 191.302983 355.211495 
L 194.684801 321.855811 
L 198.066619 349.988337 
L 201.448438 369.695197 
L 204.830256 351.822084 
L 208.212074 343.240749 
L 211.593892 390.560817 
L 214.97571 463.308111 
L 218.357528 458.826697 
L 221.739347 402.766337 
L 225.121165 381.032047 
L 228.502983 398.710175 
L 231.884801 397.382111 
L 235.266619 420.511453 
L 238.648438 411.023552 
L 242.030256 358.71249 
L 245.412074 370.812603 
L 248.793892 442.192268 
L 252.17571 466.483066 
L 255.557528 394.155785 
L 258.939347 337.544983 
L 262.321165 376.604532 
L 265.702983 464.263696 
L 269.084801 484.810547 
L 272.466619 430.877171 
L 275.848438 373.064159 
L 279.230256 379.614067 
L 282.612074 401.253294 
L 285.993892 353.29813 
L 289.37571 358.489559 
L 292.757528 388.994504 
L 296.139347 361.14727 
L 299.521165 385.360544 
L 302.902983 452.833276 
L 306.284801 478.275843 
L 309.666619 491.035471 
L 313.048438 480.748028 
L 316.430256 498.285052 
L 319.812074 518.945755 
L 323.193892 501.766083 
L 326.57571 476.891551 
L 329.957528 468.907736 
L 333.339347 462.623162 
L 336.721165 491.310056 
L 340.102983 477.90813 
L 343.484801 358.703715 
L 346.866619 278.655524 
L 350.248438 312.406945 
L 353.630256 376.180771 
L 360.393892 468.638976 
L 363.77571 500.332577 
L 367.157528 508.491158 
L 370.539347 507.604529 
L 373.921165 484.516838 
L 377.302983 434.001689 
L 380.684801 407.653886 
L 384.066619 460.063309 
L 387.448438 487.954461 
L 390.830256 490.261766 
L 394.212074 504.417391 
L 397.593892 482.079992 
L 400.97571 486.567948 
L 404.357528 516.144852 
L 407.739347 520.240008 
L 411.121165 489.322132 
L 414.502983 447.161154 
L 417.884801 430.940197 
L 421.266619 466.002992 
L 424.648438 543.354125 
L 428.030256 551.518125 
L 431.412074 506.83554 
L 434.793892 477.871223 
L 438.17571 431.759702 
L 441.557528 408.38953 
L 444.939347 397.049718 
L 448.321165 386.639913 
L 451.702983 360.432792 
L 455.084801 374.507613 
L 458.466619 419.728982 
L 461.848438 424.635082 
L 465.230256 412.303551 
L 468.612074 457.730885 
L 471.993892 529.724536 
L 475.37571 514.797965 
L 478.757528 445.044502 
L 482.139347 401.772195 
L 485.521165 389.371506 
L 492.284801 399.810547 
L 495.666619 383.725475 
L 499.048438 366.933704 
L 502.430256 387.678477 
L 505.812074 409.987089 
L 509.193892 393.203693 
L 512.57571 373.877314 
L 515.957528 390.681548 
L 519.339347 402.189147 
L 522.721165 396.528433 
L 526.102983 427.497456 
L 529.484801 445.000308 
L 532.866619 412.398042 
L 536.248438 395.847327 
L 539.630256 375.57125 
L 543.012074 358.533549 
L 546.393892 373.991606 
L 549.77571 354.915337 
L 553.157528 334.174497 
L 556.539347 319.607051 
L 559.921165 275.161204 
L 563.302983 200.767342 
L 566.684801 193.892933 
L 570.066619 283.543755 
L 573.448437 350.304817 
L 576.830256 342.385056 
L 580.212074 328.980239 
L 583.593892 324.47552 
L 586.97571 323.662978 
L 593.739347 323.598202 
L 603.884801 323.598182 
L 603.884801 323.598182 
" style="fill:none;stroke:#2ca02c;stroke-linecap:square;stroke-width:1.5;"/>
   </g>
   <g id="line2d_21"/>
   <g id="line2d_22"/>
   <g id="line2d_23"/>
   <g id="line2d_24"/>
   <g id="patch_3">
    <path d="M 71.248438 576.718125 
L 71.248438 22.318125 
" style="fill:none;stroke:#000000;stroke-linecap:square;stroke-linejoin:miter;stroke-width:0.8;"/>
   </g>
   <g id="patch_4">
    <path d="M 629.248438 576.718125 
L 629.248438 22.318125 
" style="fill:none;stroke:#000000;stroke-linecap:square;stroke-linejoin:miter;stroke-width:0.8;"/>
   </g>
   <g id="patch_5">
    <path d="M 71.248438 576.718125 
L 629.248438 576.718125 
" style="fill:none;stroke:#000000;stroke-linecap:square;stroke-linejoin:miter;stroke-width:0.8;"/>
   </g>
   <g id="patch_6">
    <path d="M 71.248438 22.318125 
L 629.248438 22.318125 
" style="fill:none;stroke:#000000;stroke-linecap:square;stroke-linejoin:miter;stroke-width:0.8;"/>
   </g>
   <g id="text_20">
    <!-- Changed enrichment coefficient of motif MA0600.2 RFX2 as a function of motif position in sequence -->
    <defs>
     <path d="M 54.890625 33.015625 
L 54.890625 0 
L 45.90625 0 
L 45.90625 32.71875 
Q 45.90625 40.484375 42.875 44.328125 
Q 39.84375 48.1875 33.796875 48.1875 
Q 26.515625 48.1875 22.3125 43.546875 
Q 18.109375 38.921875 18.109375 30.90625 
L 18.109375 0 
L 9.078125 0 
L 9.078125 75.984375 
L 18.109375 75.984375 
L 18.109375 46.1875 
Q 21.34375 51.125 25.703125 53.5625 
Q 30.078125 56 35.796875 56 
Q 45.21875 56 50.046875 50.171875 
Q 54.890625 44.34375 54.890625 33.015625 
z
" id="DejaVuSans-104"/>
     <path d="M 34.28125 27.484375 
Q 23.390625 27.484375 19.1875 25 
Q 14.984375 22.515625 14.984375 16.5 
Q 14.984375 11.71875 18.140625 8.90625 
Q 21.296875 6.109375 26.703125 6.109375 
Q 34.1875 6.109375 38.703125 11.40625 
Q 43.21875 16.703125 43.21875 25.484375 
L 43.21875 27.484375 
z
M 52.203125 31.203125 
L 52.203125 0 
L 43.21875 0 
L 43.21875 8.296875 
Q 40.140625 3.328125 35.546875 0.953125 
Q 30.953125 -1.421875 24.3125 -1.421875 
Q 15.921875 -1.421875 10.953125 3.296875 
Q 6 8.015625 6 15.921875 
Q 6 25.140625 12.171875 29.828125 
Q 18.359375 34.515625 30.609375 34.515625 
L 43.21875 34.515625 
L 43.21875 35.40625 
Q 43.21875 41.609375 39.140625 45 
Q 35.0625 48.390625 27.6875 48.390625 
Q 23 48.390625 18.546875 47.265625 
Q 14.109375 46.140625 10.015625 43.890625 
L 10.015625 52.203125 
Q 14.9375 54.109375 19.578125 55.046875 
Q 24.21875 56 28.609375 56 
Q 40.484375 56 46.34375 49.84375 
Q 52.203125 43.703125 52.203125 31.203125 
z
" id="DejaVuSans-97"/>
     <path d="M 45.40625 27.984375 
Q 45.40625 37.75 41.375 43.109375 
Q 37.359375 48.484375 30.078125 48.484375 
Q 22.859375 48.484375 18.828125 43.109375 
Q 14.796875 37.75 14.796875 27.984375 
Q 14.796875 18.265625 18.828125 12.890625 
Q 22.859375 7.515625 30.078125 7.515625 
Q 37.359375 7.515625 41.375 12.890625 
Q 45.40625 18.265625 45.40625 27.984375 
z
M 54.390625 6.78125 
Q 54.390625 -7.171875 48.1875 -13.984375 
Q 42 -20.796875 29.203125 -20.796875 
Q 24.46875 -20.796875 20.265625 -20.09375 
Q 16.0625 -19.390625 12.109375 -17.921875 
L 12.109375 -9.1875 
Q 16.0625 -11.328125 19.921875 -12.34375 
Q 23.78125 -13.375 27.78125 -13.375 
Q 36.625 -13.375 41.015625 -8.765625 
Q 45.40625 -4.15625 45.40625 5.171875 
L 45.40625 9.625 
Q 42.625 4.78125 38.28125 2.390625 
Q 33.9375 0 27.875 0 
Q 17.828125 0 11.671875 7.65625 
Q 5.515625 15.328125 5.515625 27.984375 
Q 5.515625 40.671875 11.671875 48.328125 
Q 17.828125 56 27.875 56 
Q 33.9375 56 38.28125 53.609375 
Q 42.625 51.21875 45.40625 46.390625 
L 45.40625 54.6875 
L 54.390625 54.6875 
z
" id="DejaVuSans-103"/>
     <path d="M 45.40625 46.390625 
L 45.40625 75.984375 
L 54.390625 75.984375 
L 54.390625 0 
L 45.40625 0 
L 45.40625 8.203125 
Q 42.578125 3.328125 38.25 0.953125 
Q 33.9375 -1.421875 27.875 -1.421875 
Q 17.96875 -1.421875 11.734375 6.484375 
Q 5.515625 14.40625 5.515625 27.296875 
Q 5.515625 40.1875 11.734375 48.09375 
Q 17.96875 56 27.875 56 
Q 33.9375 56 38.25 53.625 
Q 42.578125 51.265625 45.40625 46.390625 
z
M 14.796875 27.296875 
Q 14.796875 17.390625 18.875 11.75 
Q 22.953125 6.109375 30.078125 6.109375 
Q 37.203125 6.109375 41.296875 11.75 
Q 45.40625 17.390625 45.40625 27.296875 
Q 45.40625 37.203125 41.296875 42.84375 
Q 37.203125 48.484375 30.078125 48.484375 
Q 22.953125 48.484375 18.875 42.84375 
Q 14.796875 37.203125 14.796875 27.296875 
z
" id="DejaVuSans-100"/>
     <path d="M 41.109375 46.296875 
Q 39.59375 47.171875 37.8125 47.578125 
Q 36.03125 48 33.890625 48 
Q 26.265625 48 22.1875 43.046875 
Q 18.109375 38.09375 18.109375 28.8125 
L 18.109375 0 
L 9.078125 0 
L 9.078125 54.6875 
L 18.109375 54.6875 
L 18.109375 46.1875 
Q 20.953125 51.171875 25.484375 53.578125 
Q 30.03125 56 36.53125 56 
Q 37.453125 56 38.578125 55.875 
Q 39.703125 55.765625 41.0625 55.515625 
z
" id="DejaVuSans-114"/>
     <path d="M 52 44.1875 
Q 55.375 50.25 60.0625 53.125 
Q 64.75 56 71.09375 56 
Q 79.640625 56 84.28125 50.015625 
Q 88.921875 44.046875 88.921875 33.015625 
L 88.921875 0 
L 79.890625 0 
L 79.890625 32.71875 
Q 79.890625 40.578125 77.09375 44.375 
Q 74.3125 48.1875 68.609375 48.1875 
Q 61.625 48.1875 57.5625 43.546875 
Q 53.515625 38.921875 53.515625 30.90625 
L 53.515625 0 
L 44.484375 0 
L 44.484375 32.71875 
Q 44.484375 40.625 41.703125 44.40625 
Q 38.921875 48.1875 33.109375 48.1875 
Q 26.21875 48.1875 22.15625 43.53125 
Q 18.109375 38.875 18.109375 30.90625 
L 18.109375 0 
L 9.078125 0 
L 9.078125 54.6875 
L 18.109375 54.6875 
L 18.109375 46.1875 
Q 21.1875 51.21875 25.484375 53.609375 
Q 29.78125 56 35.6875 56 
Q 41.65625 56 45.828125 52.96875 
Q 50 49.953125 52 44.1875 
z
" id="DejaVuSans-109"/>
     <path d="M 34.1875 63.1875 
L 20.796875 26.90625 
L 47.609375 26.90625 
z
M 28.609375 72.90625 
L 39.796875 72.90625 
L 67.578125 0 
L 57.328125 0 
L 50.6875 18.703125 
L 17.828125 18.703125 
L 11.1875 0 
L 0.78125 0 
z
" id="DejaVuSans-65"/>
     <path d="M 44.390625 34.1875 
Q 47.5625 33.109375 50.5625 29.59375 
Q 53.5625 26.078125 56.59375 19.921875 
L 66.609375 0 
L 56 0 
L 46.6875 18.703125 
Q 43.0625 26.03125 39.671875 28.421875 
Q 36.28125 30.8125 30.421875 30.8125 
L 19.671875 30.8125 
L 19.671875 0 
L 9.8125 0 
L 9.8125 72.90625 
L 32.078125 72.90625 
Q 44.578125 72.90625 50.734375 67.671875 
Q 56.890625 62.453125 56.890625 51.90625 
Q 56.890625 45.015625 53.6875 40.46875 
Q 50.484375 35.9375 44.390625 34.1875 
z
M 19.671875 64.796875 
L 19.671875 38.921875 
L 32.078125 38.921875 
Q 39.203125 38.921875 42.84375 42.21875 
Q 46.484375 45.515625 46.484375 51.90625 
Q 46.484375 58.296875 42.84375 61.546875 
Q 39.203125 64.796875 32.078125 64.796875 
z
" id="DejaVuSans-82"/>
     <path d="M 9.8125 72.90625 
L 51.703125 72.90625 
L 51.703125 64.59375 
L 19.671875 64.59375 
L 19.671875 43.109375 
L 48.578125 43.109375 
L 48.578125 34.8125 
L 19.671875 34.8125 
L 19.671875 0 
L 9.8125 0 
z
" id="DejaVuSans-70"/>
     <path d="M 6.296875 72.90625 
L 16.890625 72.90625 
L 35.015625 45.796875 
L 53.21875 72.90625 
L 63.8125 72.90625 
L 40.375 37.890625 
L 65.375 0 
L 54.78125 0 
L 34.28125 31 
L 13.625 0 
L 2.984375 0 
L 29 38.921875 
z
" id="DejaVuSans-88"/>
     <path d="M 8.5 21.578125 
L 8.5 54.6875 
L 17.484375 54.6875 
L 17.484375 21.921875 
Q 17.484375 14.15625 20.5 10.265625 
Q 23.53125 6.390625 29.59375 6.390625 
Q 36.859375 6.390625 41.078125 11.03125 
Q 45.3125 15.671875 45.3125 23.6875 
L 45.3125 54.6875 
L 54.296875 54.6875 
L 54.296875 0 
L 45.3125 0 
L 45.3125 8.40625 
Q 42.046875 3.421875 37.71875 1 
Q 33.40625 -1.421875 27.6875 -1.421875 
Q 18.265625 -1.421875 13.375 4.4375 
Q 8.5 10.296875 8.5 21.578125 
z
M 31.109375 56 
z
" id="DejaVuSans-117"/>
     <path d="M 18.109375 8.203125 
L 18.109375 -20.796875 
L 9.078125 -20.796875 
L 9.078125 54.6875 
L 18.109375 54.6875 
L 18.109375 46.390625 
Q 20.953125 51.265625 25.265625 53.625 
Q 29.59375 56 35.59375 56 
Q 45.5625 56 51.78125 48.09375 
Q 58.015625 40.1875 58.015625 27.296875 
Q 58.015625 14.40625 51.78125 6.484375 
Q 45.5625 -1.421875 35.59375 -1.421875 
Q 29.59375 -1.421875 25.265625 0.953125 
Q 20.953125 3.328125 18.109375 8.203125 
z
M 48.6875 27.296875 
Q 48.6875 37.203125 44.609375 42.84375 
Q 40.53125 48.484375 33.40625 48.484375 
Q 26.265625 48.484375 22.1875 42.84375 
Q 18.109375 37.203125 18.109375 27.296875 
Q 18.109375 17.390625 22.1875 11.75 
Q 26.265625 6.109375 33.40625 6.109375 
Q 40.53125 6.109375 44.609375 11.75 
Q 48.6875 17.390625 48.6875 27.296875 
z
" id="DejaVuSans-112"/>
     <path d="M 14.796875 27.296875 
Q 14.796875 17.390625 18.875 11.75 
Q 22.953125 6.109375 30.078125 6.109375 
Q 37.203125 6.109375 41.296875 11.75 
Q 45.40625 17.390625 45.40625 27.296875 
Q 45.40625 37.203125 41.296875 42.84375 
Q 37.203125 48.484375 30.078125 48.484375 
Q 22.953125 48.484375 18.875 42.84375 
Q 14.796875 37.203125 14.796875 27.296875 
z
M 45.40625 8.203125 
Q 42.578125 3.328125 38.25 0.953125 
Q 33.9375 -1.421875 27.875 -1.421875 
Q 17.96875 -1.421875 11.734375 6.484375 
Q 5.515625 14.40625 5.515625 27.296875 
Q 5.515625 40.1875 11.734375 48.09375 
Q 17.96875 56 27.875 56 
Q 33.9375 56 38.25 53.625 
Q 42.578125 51.265625 45.40625 46.390625 
L 45.40625 54.6875 
L 54.390625 54.6875 
L 54.390625 -20.796875 
L 45.40625 -20.796875 
z
" id="DejaVuSans-113"/>
    </defs>
    <g transform="translate(49.162813 16.318125)scale(0.12 -0.12)">
     <use xlink:href="#DejaVuSans-67"/>
     <use x="69.824219" xlink:href="#DejaVuSans-104"/>
     <use x="133.203125" xlink:href="#DejaVuSans-97"/>
     <use x="194.482422" xlink:href="#DejaVuSans-110"/>
     <use x="257.861328" xlink:href="#DejaVuSans-103"/>
     <use x="321.337891" xlink:href="#DejaVuSans-101"/>
     <use x="382.861328" xlink:href="#DejaVuSans-100"/>
     <use x="446.337891" xlink:href="#DejaVuSans-32"/>
     <use x="478.125" xlink:href="#DejaVuSans-101"/>
     <use x="539.648438" xlink:href="#DejaVuSans-110"/>
     <use x="603.027344" xlink:href="#DejaVuSans-114"/>
     <use x="644.140625" xlink:href="#DejaVuSans-105"/>
     <use x="671.923828" xlink:href="#DejaVuSans-99"/>
     <use x="726.904297" xlink:href="#DejaVuSans-104"/>
     <use x="790.283203" xlink:href="#DejaVuSans-109"/>
     <use x="887.695312" xlink:href="#DejaVuSans-101"/>
     <use x="949.21875" xlink:href="#DejaVuSans-110"/>
     <use x="1012.597656" xlink:href="#DejaVuSans-116"/>
     <use x="1051.806641" xlink:href="#DejaVuSans-32"/>
     <use x="1083.59375" xlink:href="#DejaVuSans-99"/>
     <use x="1138.574219" xlink:href="#DejaVuSans-111"/>
     <use x="1199.755859" xlink:href="#DejaVuSans-101"/>
     <use x="1261.279297" xlink:href="#DejaVuSans-102"/>
     <use x="1296.484375" xlink:href="#DejaVuSans-102"/>
     <use x="1331.689453" xlink:href="#DejaVuSans-105"/>
     <use x="1359.472656" xlink:href="#DejaVuSans-99"/>
     <use x="1414.453125" xlink:href="#DejaVuSans-105"/>
     <use x="1442.236328" xlink:href="#DejaVuSans-101"/>
     <use x="1503.759766" xlink:href="#DejaVuSans-110"/>
     <use x="1567.138672" xlink:href="#DejaVuSans-116"/>
     <use x="1606.347656" xlink:href="#DejaVuSans-32"/>
     <use x="1638.134766" xlink:href="#DejaVuSans-111"/>
     <use x="1699.316406" xlink:href="#DejaVuSans-102"/>
     <use x="1734.521484" xlink:href="#DejaVuSans-32"/>
     <use x="1766.308594" xlink:href="#DejaVuSans-109"/>
     <use x="1863.720703" xlink:href="#DejaVuSans-111"/>
     <use x="1924.902344" xlink:href="#DejaVuSans-116"/>
     <use x="1964.111328" xlink:href="#DejaVuSans-105"/>
     <use x="1991.894531" xlink:href="#DejaVuSans-102"/>
     <use x="2027.099609" xlink:href="#DejaVuSans-32"/>
     <use x="2058.886719" xlink:href="#DejaVuSans-77"/>
     <use x="2145.166016" xlink:href="#DejaVuSans-65"/>
     <use x="2213.574219" xlink:href="#DejaVuSans-48"/>
     <use x="2277.197266" xlink:href="#DejaVuSans-54"/>
     <use x="2340.820312" xlink:href="#DejaVuSans-48"/>
     <use x="2404.443359" xlink:href="#DejaVuSans-48"/>
     <use x="2468.066406" xlink:href="#DejaVuSans-46"/>
     <use x="2499.853516" xlink:href="#DejaVuSans-50"/>
     <use x="2563.476562" xlink:href="#DejaVuSans-32"/>
     <use x="2595.263672" xlink:href="#DejaVuSans-82"/>
     <use x="2664.746094" xlink:href="#DejaVuSans-70"/>
     <use x="2722.265625" xlink:href="#DejaVuSans-88"/>
     <use x="2790.771484" xlink:href="#DejaVuSans-50"/>
     <use x="2854.394531" xlink:href="#DejaVuSans-32"/>
     <use x="2886.181641" xlink:href="#DejaVuSans-97"/>
     <use x="2947.460938" xlink:href="#DejaVuSans-115"/>
     <use x="2999.560547" xlink:href="#DejaVuSans-32"/>
     <use x="3031.347656" xlink:href="#DejaVuSans-97"/>
     <use x="3092.626953" xlink:href="#DejaVuSans-32"/>
     <use x="3124.414062" xlink:href="#DejaVuSans-102"/>
     <use x="3159.619141" xlink:href="#DejaVuSans-117"/>
     <use x="3222.998047" xlink:href="#DejaVuSans-110"/>
     <use x="3286.376953" xlink:href="#DejaVuSans-99"/>
     <use x="3341.357422" xlink:href="#DejaVuSans-116"/>
     <use x="3380.566406" xlink:href="#DejaVuSans-105"/>
     <use x="3408.349609" xlink:href="#DejaVuSans-111"/>
     <use x="3469.53125" xlink:href="#DejaVuSans-110"/>
     <use x="3532.910156" xlink:href="#DejaVuSans-32"/>
     <use x="3564.697266" xlink:href="#DejaVuSans-111"/>
     <use x="3625.878906" xlink:href="#DejaVuSans-102"/>
     <use x="3661.083984" xlink:href="#DejaVuSans-32"/>
     <use x="3692.871094" xlink:href="#DejaVuSans-109"/>
     <use x="3790.283203" xlink:href="#DejaVuSans-111"/>
     <use x="3851.464844" xlink:href="#DejaVuSans-116"/>
     <use x="3890.673828" xlink:href="#DejaVuSans-105"/>
     <use x="3918.457031" xlink:href="#DejaVuSans-102"/>
     <use x="3953.662109" xlink:href="#DejaVuSans-32"/>
     <use x="3985.449219" xlink:href="#DejaVuSans-112"/>
     <use x="4048.925781" xlink:href="#DejaVuSans-111"/>
     <use x="4110.107422" xlink:href="#DejaVuSans-115"/>
     <use x="4162.207031" xlink:href="#DejaVuSans-105"/>
     <use x="4189.990234" xlink:href="#DejaVuSans-116"/>
     <use x="4229.199219" xlink:href="#DejaVuSans-105"/>
     <use x="4256.982422" xlink:href="#DejaVuSans-111"/>
     <use x="4318.164062" xlink:href="#DejaVuSans-110"/>
     <use x="4381.542969" xlink:href="#DejaVuSans-32"/>
     <use x="4413.330078" xlink:href="#DejaVuSans-105"/>
     <use x="4441.113281" xlink:href="#DejaVuSans-110"/>
     <use x="4504.492188" xlink:href="#DejaVuSans-32"/>
     <use x="4536.279297" xlink:href="#DejaVuSans-115"/>
     <use x="4588.378906" xlink:href="#DejaVuSans-101"/>
     <use x="4649.902344" xlink:href="#DejaVuSans-113"/>
     <use x="4713.378906" xlink:href="#DejaVuSans-117"/>
     <use x="4776.757812" xlink:href="#DejaVuSans-101"/>
     <use x="4838.28125" xlink:href="#DejaVuSans-110"/>
     <use x="4901.660156" xlink:href="#DejaVuSans-99"/>
     <use x="4956.640625" xlink:href="#DejaVuSans-101"/>
    </g>
   </g>
   <g id="legend_1">
    <g id="patch_7">
     <path d="M 78.248438 89.030625 
L 275.732813 89.030625 
Q 277.732813 89.030625 277.732813 87.030625 
L 277.732813 29.318125 
Q 277.732813 27.318125 275.732813 27.318125 
L 78.248438 27.318125 
Q 76.248438 27.318125 76.248438 29.318125 
L 76.248438 87.030625 
Q 76.248438 89.030625 78.248438 89.030625 
z
" style="fill:#ffffff;opacity:0.8;stroke:#cccccc;stroke-linejoin:miter;"/>
    </g>
    <g id="line2d_25">
     <path d="M 80.248438 35.416562 
L 100.248438 35.416562 
" style="fill:none;"/>
    </g>
    <g id="line2d_26"/>
    <g id="text_21">
     <!-- Measurement -->
     <g transform="translate(108.248438 38.916562)scale(0.1 -0.1)">
      <use xlink:href="#DejaVuSans-77"/>
      <use x="86.279297" xlink:href="#DejaVuSans-101"/>
      <use x="147.802734" xlink:href="#DejaVuSans-97"/>
      <use x="209.082031" xlink:href="#DejaVuSans-115"/>
      <use x="261.181641" xlink:href="#DejaVuSans-117"/>
      <use x="324.560547" xlink:href="#DejaVuSans-114"/>
      <use x="363.423828" xlink:href="#DejaVuSans-101"/>
      <use x="424.947266" xlink:href="#DejaVuSans-109"/>
      <use x="522.359375" xlink:href="#DejaVuSans-101"/>
      <use x="583.882812" xlink:href="#DejaVuSans-110"/>
      <use x="647.261719" xlink:href="#DejaVuSans-116"/>
     </g>
    </g>
    <g id="line2d_27">
     <path d="M 80.248438 50.094687 
L 100.248438 50.094687 
" style="fill:none;stroke:#1f77b4;stroke-linecap:square;stroke-width:1.5;"/>
    </g>
    <g id="line2d_28"/>
    <g id="text_22">
     <!-- Positional Enrichment Coefficient -->
     <defs>
      <path d="M 9.421875 75.984375 
L 18.40625 75.984375 
L 18.40625 0 
L 9.421875 0 
z
" id="DejaVuSans-108"/>
      <path d="M 9.8125 72.90625 
L 55.90625 72.90625 
L 55.90625 64.59375 
L 19.671875 64.59375 
L 19.671875 43.015625 
L 54.390625 43.015625 
L 54.390625 34.71875 
L 19.671875 34.71875 
L 19.671875 8.296875 
L 56.78125 8.296875 
L 56.78125 0 
L 9.8125 0 
z
" id="DejaVuSans-69"/>
     </defs>
     <g transform="translate(108.248438 53.594687)scale(0.1 -0.1)">
      <use xlink:href="#DejaVuSans-80"/>
      <use x="56.677734" xlink:href="#DejaVuSans-111"/>
      <use x="117.859375" xlink:href="#DejaVuSans-115"/>
      <use x="169.958984" xlink:href="#DejaVuSans-105"/>
      <use x="197.742188" xlink:href="#DejaVuSans-116"/>
      <use x="236.951172" xlink:href="#DejaVuSans-105"/>
      <use x="264.734375" xlink:href="#DejaVuSans-111"/>
      <use x="325.916016" xlink:href="#DejaVuSans-110"/>
      <use x="389.294922" xlink:href="#DejaVuSans-97"/>
      <use x="450.574219" xlink:href="#DejaVuSans-108"/>
      <use x="478.357422" xlink:href="#DejaVuSans-32"/>
      <use x="510.144531" xlink:href="#DejaVuSans-69"/>
      <use x="573.328125" xlink:href="#DejaVuSans-110"/>
      <use x="636.707031" xlink:href="#DejaVuSans-114"/>
      <use x="677.820312" xlink:href="#DejaVuSans-105"/>
      <use x="705.603516" xlink:href="#DejaVuSans-99"/>
      <use x="760.583984" xlink:href="#DejaVuSans-104"/>
      <use x="823.962891" xlink:href="#DejaVuSans-109"/>
      <use x="921.375" xlink:href="#DejaVuSans-101"/>
      <use x="982.898438" xlink:href="#DejaVuSans-110"/>
      <use x="1046.277344" xlink:href="#DejaVuSans-116"/>
      <use x="1085.486328" xlink:href="#DejaVuSans-32"/>
      <use x="1117.273438" xlink:href="#DejaVuSans-67"/>
      <use x="1187.097656" xlink:href="#DejaVuSans-111"/>
      <use x="1248.279297" xlink:href="#DejaVuSans-101"/>
      <use x="1309.802734" xlink:href="#DejaVuSans-102"/>
      <use x="1345.007812" xlink:href="#DejaVuSans-102"/>
      <use x="1380.212891" xlink:href="#DejaVuSans-105"/>
      <use x="1407.996094" xlink:href="#DejaVuSans-99"/>
      <use x="1462.976562" xlink:href="#DejaVuSans-105"/>
      <use x="1490.759766" xlink:href="#DejaVuSans-101"/>
      <use x="1552.283203" xlink:href="#DejaVuSans-110"/>
      <use x="1615.662109" xlink:href="#DejaVuSans-116"/>
     </g>
    </g>
    <g id="line2d_29">
     <path d="M 80.248438 64.772812 
L 100.248438 64.772812 
" style="fill:none;stroke:#ff7f0e;stroke-linecap:square;stroke-width:1.5;"/>
    </g>
    <g id="line2d_30"/>
    <g id="text_23">
     <!-- 95% CI Upper -->
     <defs>
      <path d="M 10.984375 1.515625 
L 10.984375 10.5 
Q 14.703125 8.734375 18.5 7.8125 
Q 22.3125 6.890625 25.984375 6.890625 
Q 35.75 6.890625 40.890625 13.453125 
Q 46.046875 20.015625 46.78125 33.40625 
Q 43.953125 29.203125 39.59375 26.953125 
Q 35.25 24.703125 29.984375 24.703125 
Q 19.046875 24.703125 12.671875 31.3125 
Q 6.296875 37.9375 6.296875 49.421875 
Q 6.296875 60.640625 12.9375 67.421875 
Q 19.578125 74.21875 30.609375 74.21875 
Q 43.265625 74.21875 49.921875 64.515625 
Q 56.59375 54.828125 56.59375 36.375 
Q 56.59375 19.140625 48.40625 8.859375 
Q 40.234375 -1.421875 26.421875 -1.421875 
Q 22.703125 -1.421875 18.890625 -0.6875 
Q 15.09375 0.046875 10.984375 1.515625 
z
M 30.609375 32.421875 
Q 37.25 32.421875 41.125 36.953125 
Q 45.015625 41.5 45.015625 49.421875 
Q 45.015625 57.28125 41.125 61.84375 
Q 37.25 66.40625 30.609375 66.40625 
Q 23.96875 66.40625 20.09375 61.84375 
Q 16.21875 57.28125 16.21875 49.421875 
Q 16.21875 41.5 20.09375 36.953125 
Q 23.96875 32.421875 30.609375 32.421875 
z
" id="DejaVuSans-57"/>
      <path d="M 72.703125 32.078125 
Q 68.453125 32.078125 66.03125 28.46875 
Q 63.625 24.859375 63.625 18.40625 
Q 63.625 12.0625 66.03125 8.421875 
Q 68.453125 4.78125 72.703125 4.78125 
Q 76.859375 4.78125 79.265625 8.421875 
Q 81.6875 12.0625 81.6875 18.40625 
Q 81.6875 24.8125 79.265625 28.4375 
Q 76.859375 32.078125 72.703125 32.078125 
z
M 72.703125 38.28125 
Q 80.421875 38.28125 84.953125 32.90625 
Q 89.5 27.546875 89.5 18.40625 
Q 89.5 9.28125 84.9375 3.921875 
Q 80.375 -1.421875 72.703125 -1.421875 
Q 64.890625 -1.421875 60.34375 3.921875 
Q 55.8125 9.28125 55.8125 18.40625 
Q 55.8125 27.59375 60.375 32.9375 
Q 64.9375 38.28125 72.703125 38.28125 
z
M 22.3125 68.015625 
Q 18.109375 68.015625 15.6875 64.375 
Q 13.28125 60.75 13.28125 54.390625 
Q 13.28125 47.953125 15.671875 44.328125 
Q 18.0625 40.71875 22.3125 40.71875 
Q 26.5625 40.71875 28.96875 44.328125 
Q 31.390625 47.953125 31.390625 54.390625 
Q 31.390625 60.6875 28.953125 64.34375 
Q 26.515625 68.015625 22.3125 68.015625 
z
M 66.40625 74.21875 
L 74.21875 74.21875 
L 28.609375 -1.421875 
L 20.796875 -1.421875 
z
M 22.3125 74.21875 
Q 30.03125 74.21875 34.609375 68.875 
Q 39.203125 63.53125 39.203125 54.390625 
Q 39.203125 45.171875 34.640625 39.84375 
Q 30.078125 34.515625 22.3125 34.515625 
Q 14.546875 34.515625 10.03125 39.859375 
Q 5.515625 45.21875 5.515625 54.390625 
Q 5.515625 63.484375 10.046875 68.84375 
Q 14.59375 74.21875 22.3125 74.21875 
z
" id="DejaVuSans-37"/>
      <path d="M 9.8125 72.90625 
L 19.671875 72.90625 
L 19.671875 0 
L 9.8125 0 
z
" id="DejaVuSans-73"/>
      <path d="M 8.6875 72.90625 
L 18.609375 72.90625 
L 18.609375 28.609375 
Q 18.609375 16.890625 22.84375 11.734375 
Q 27.09375 6.59375 36.625 6.59375 
Q 46.09375 6.59375 50.34375 11.734375 
Q 54.59375 16.890625 54.59375 28.609375 
L 54.59375 72.90625 
L 64.5 72.90625 
L 64.5 27.390625 
Q 64.5 13.140625 57.4375 5.859375 
Q 50.390625 -1.421875 36.625 -1.421875 
Q 22.796875 -1.421875 15.734375 5.859375 
Q 8.6875 13.140625 8.6875 27.390625 
z
" id="DejaVuSans-85"/>
     </defs>
     <g transform="translate(108.248438 68.272812)scale(0.1 -0.1)">
      <use xlink:href="#DejaVuSans-57"/>
      <use x="63.623047" xlink:href="#DejaVuSans-53"/>
      <use x="127.246094" xlink:href="#DejaVuSans-37"/>
      <use x="222.265625" xlink:href="#DejaVuSans-32"/>
      <use x="254.052734" xlink:href="#DejaVuSans-67"/>
      <use x="323.876953" xlink:href="#DejaVuSans-73"/>
      <use x="353.369141" xlink:href="#DejaVuSans-32"/>
      <use x="385.15625" xlink:href="#DejaVuSans-85"/>
      <use x="458.349609" xlink:href="#DejaVuSans-112"/>
      <use x="521.826172" xlink:href="#DejaVuSans-112"/>
      <use x="585.302734" xlink:href="#DejaVuSans-101"/>
      <use x="646.826172" xlink:href="#DejaVuSans-114"/>
     </g>
    </g>
    <g id="line2d_31">
     <path d="M 80.248438 79.450937 
L 100.248438 79.450937 
" style="fill:none;stroke:#2ca02c;stroke-linecap:square;stroke-width:1.5;"/>
    </g>
    <g id="line2d_32"/>
    <g id="text_24">
     <!-- 95% CI Lower -->
     <defs>
      <path d="M 9.8125 72.90625 
L 19.671875 72.90625 
L 19.671875 8.296875 
L 55.171875 8.296875 
L 55.171875 0 
L 9.8125 0 
z
" id="DejaVuSans-76"/>
      <path d="M 4.203125 54.6875 
L 13.1875 54.6875 
L 24.421875 12.015625 
L 35.59375 54.6875 
L 46.1875 54.6875 
L 57.421875 12.015625 
L 68.609375 54.6875 
L 77.59375 54.6875 
L 63.28125 0 
L 52.6875 0 
L 40.921875 44.828125 
L 29.109375 0 
L 18.5 0 
z
" id="DejaVuSans-119"/>
     </defs>
     <g transform="translate(108.248438 82.950937)scale(0.1 -0.1)">
      <use xlink:href="#DejaVuSans-57"/>
      <use x="63.623047" xlink:href="#DejaVuSans-53"/>
      <use x="127.246094" xlink:href="#DejaVuSans-37"/>
      <use x="222.265625" xlink:href="#DejaVuSans-32"/>
      <use x="254.052734" xlink:href="#DejaVuSans-67"/>
      <use x="323.876953" xlink:href="#DejaVuSans-73"/>
      <use x="353.369141" xlink:href="#DejaVuSans-32"/>
      <use x="385.15625" xlink:href="#DejaVuSans-76"/>
      <use x="439.119141" xlink:href="#DejaVuSans-111"/>
      <use x="500.300781" xlink:href="#DejaVuSans-119"/>
      <use x="582.087891" xlink:href="#DejaVuSans-101"/>
      <use x="643.611328" xlink:href="#DejaVuSans-114"/>
     </g>
    </g>
   </g>
  </g>
 </g>
 <defs>
  <clipPath id="p74ac7e08ec">
   <rect height="554.4" width="558" x="71.248438" y="22.318125"/>
  </clipPath>
 </defs>
</svg>
