<?xml version="1.0" encoding="utf-8" standalone="no"?>
<!DOCTYPE svg PUBLIC "-//W3C//DTD SVG 1.1//EN"
  "http://www.w3.org/Graphics/SVG/1.1/DTD/svg11.dtd">
<!-- Created with matplotlib (https://matplotlib.org/) -->
<svg height="614.274375pt" version="1.1" viewBox="0 0 652.171562 614.274375" width="652.171562pt" xmlns="http://www.w3.org/2000/svg" xmlns:xlink="http://www.w3.org/1999/xlink">
 <defs>
  <style type="text/css">
*{stroke-linecap:butt;stroke-linejoin:round;}
  </style>
 </defs>
 <g id="figure_1">
  <g id="patch_1">
   <path d="M 0 614.274375 
L 652.171562 614.274375 
L 652.171562 0 
L 0 0 
z
" style="fill:#ffffff;"/>
  </g>
  <g id="axes_1">
   <g id="patch_2">
    <path d="M 64.885938 576.718125 
L 622.885937 576.718125 
L 622.885937 22.318125 
L 64.885938 22.318125 
z
" style="fill:#ffffff;"/>
   </g>
   <g id="matplotlib.axis_1">
    <g id="xtick_1">
     <g id="line2d_1">
      <defs>
       <path d="M 0 0 
L 0 3.5 
" id="me2940e50e4" style="stroke:#000000;stroke-width:0.8;"/>
      </defs>
      <g>
       <use style="stroke:#000000;stroke-width:0.8;" x="73.340483" xlink:href="#me2940e50e4" y="576.718125"/>
      </g>
     </g>
     <g id="text_1">
      <!-- −80 -->
      <defs>
       <path d="M 10.59375 35.5 
L 73.1875 35.5 
L 73.1875 27.203125 
L 10.59375 27.203125 
z
" id="DejaVuSans-8722"/>
       <path d="M 31.78125 34.625 
Q 24.75 34.625 20.71875 30.859375 
Q 16.703125 27.09375 16.703125 20.515625 
Q 16.703125 13.921875 20.71875 10.15625 
Q 24.75 6.390625 31.78125 6.390625 
Q 38.8125 6.390625 42.859375 10.171875 
Q 46.921875 13.96875 46.921875 20.515625 
Q 46.921875 27.09375 42.890625 30.859375 
Q 38.875 34.625 31.78125 34.625 
z
M 21.921875 38.8125 
Q 15.578125 40.375 12.03125 44.71875 
Q 8.5 49.078125 8.5 55.328125 
Q 8.5 64.0625 14.71875 69.140625 
Q 20.953125 74.21875 31.78125 74.21875 
Q 42.671875 74.21875 48.875 69.140625 
Q 55.078125 64.0625 55.078125 55.328125 
Q 55.078125 49.078125 51.53125 44.71875 
Q 48 40.375 41.703125 38.8125 
Q 48.828125 37.15625 52.796875 32.3125 
Q 56.78125 27.484375 56.78125 20.515625 
Q 56.78125 9.90625 50.3125 4.234375 
Q 43.84375 -1.421875 31.78125 -1.421875 
Q 19.734375 -1.421875 13.25 4.234375 
Q 6.78125 9.90625 6.78125 20.515625 
Q 6.78125 27.484375 10.78125 32.3125 
Q 14.796875 37.15625 21.921875 38.8125 
z
M 18.3125 54.390625 
Q 18.3125 48.734375 21.84375 45.5625 
Q 25.390625 42.390625 31.78125 42.390625 
Q 38.140625 42.390625 41.71875 45.5625 
Q 45.3125 48.734375 45.3125 54.390625 
Q 45.3125 60.0625 41.71875 63.234375 
Q 38.140625 66.40625 31.78125 66.40625 
Q 25.390625 66.40625 21.84375 63.234375 
Q 18.3125 60.0625 18.3125 54.390625 
z
" id="DejaVuSans-56"/>
       <path d="M 31.78125 66.40625 
Q 24.171875 66.40625 20.328125 58.90625 
Q 16.5 51.421875 16.5 36.375 
Q 16.5 21.390625 20.328125 13.890625 
Q 24.171875 6.390625 31.78125 6.390625 
Q 39.453125 6.390625 43.28125 13.890625 
Q 47.125 21.390625 47.125 36.375 
Q 47.125 51.421875 43.28125 58.90625 
Q 39.453125 66.40625 31.78125 66.40625 
z
M 31.78125 74.21875 
Q 44.046875 74.21875 50.515625 64.515625 
Q 56.984375 54.828125 56.984375 36.375 
Q 56.984375 17.96875 50.515625 8.265625 
Q 44.046875 -1.421875 31.78125 -1.421875 
Q 19.53125 -1.421875 13.0625 8.265625 
Q 6.59375 17.96875 6.59375 36.375 
Q 6.59375 54.828125 13.0625 64.515625 
Q 19.53125 74.21875 31.78125 74.21875 
z
" id="DejaVuSans-48"/>
      </defs>
      <g transform="translate(62.788139 591.316563)scale(0.1 -0.1)">
       <use xlink:href="#DejaVuSans-8722"/>
       <use x="83.789062" xlink:href="#DejaVuSans-56"/>
       <use x="147.412109" xlink:href="#DejaVuSans-48"/>
      </g>
     </g>
    </g>
    <g id="xtick_2">
     <g id="line2d_2">
      <g>
       <use style="stroke:#000000;stroke-width:0.8;" x="140.976847" xlink:href="#me2940e50e4" y="576.718125"/>
      </g>
     </g>
     <g id="text_2">
      <!-- −60 -->
      <defs>
       <path d="M 33.015625 40.375 
Q 26.375 40.375 22.484375 35.828125 
Q 18.609375 31.296875 18.609375 23.390625 
Q 18.609375 15.53125 22.484375 10.953125 
Q 26.375 6.390625 33.015625 6.390625 
Q 39.65625 6.390625 43.53125 10.953125 
Q 47.40625 15.53125 47.40625 23.390625 
Q 47.40625 31.296875 43.53125 35.828125 
Q 39.65625 40.375 33.015625 40.375 
z
M 52.59375 71.296875 
L 52.59375 62.3125 
Q 48.875 64.0625 45.09375 64.984375 
Q 41.3125 65.921875 37.59375 65.921875 
Q 27.828125 65.921875 22.671875 59.328125 
Q 17.53125 52.734375 16.796875 39.40625 
Q 19.671875 43.65625 24.015625 45.921875 
Q 28.375 48.1875 33.59375 48.1875 
Q 44.578125 48.1875 50.953125 41.515625 
Q 57.328125 34.859375 57.328125 23.390625 
Q 57.328125 12.15625 50.6875 5.359375 
Q 44.046875 -1.421875 33.015625 -1.421875 
Q 20.359375 -1.421875 13.671875 8.265625 
Q 6.984375 17.96875 6.984375 36.375 
Q 6.984375 53.65625 15.1875 63.9375 
Q 23.390625 74.21875 37.203125 74.21875 
Q 40.921875 74.21875 44.703125 73.484375 
Q 48.484375 72.75 52.59375 71.296875 
z
" id="DejaVuSans-54"/>
      </defs>
      <g transform="translate(130.424503 591.316563)scale(0.1 -0.1)">
       <use xlink:href="#DejaVuSans-8722"/>
       <use x="83.789062" xlink:href="#DejaVuSans-54"/>
       <use x="147.412109" xlink:href="#DejaVuSans-48"/>
      </g>
     </g>
    </g>
    <g id="xtick_3">
     <g id="line2d_3">
      <g>
       <use style="stroke:#000000;stroke-width:0.8;" x="208.61321" xlink:href="#me2940e50e4" y="576.718125"/>
      </g>
     </g>
     <g id="text_3">
      <!-- −40 -->
      <defs>
       <path d="M 37.796875 64.3125 
L 12.890625 25.390625 
L 37.796875 25.390625 
z
M 35.203125 72.90625 
L 47.609375 72.90625 
L 47.609375 25.390625 
L 58.015625 25.390625 
L 58.015625 17.1875 
L 47.609375 17.1875 
L 47.609375 0 
L 37.796875 0 
L 37.796875 17.1875 
L 4.890625 17.1875 
L 4.890625 26.703125 
z
" id="DejaVuSans-52"/>
      </defs>
      <g transform="translate(198.060866 591.316563)scale(0.1 -0.1)">
       <use xlink:href="#DejaVuSans-8722"/>
       <use x="83.789062" xlink:href="#DejaVuSans-52"/>
       <use x="147.412109" xlink:href="#DejaVuSans-48"/>
      </g>
     </g>
    </g>
    <g id="xtick_4">
     <g id="line2d_4">
      <g>
       <use style="stroke:#000000;stroke-width:0.8;" x="276.249574" xlink:href="#me2940e50e4" y="576.718125"/>
      </g>
     </g>
     <g id="text_4">
      <!-- −20 -->
      <defs>
       <path d="M 19.1875 8.296875 
L 53.609375 8.296875 
L 53.609375 0 
L 7.328125 0 
L 7.328125 8.296875 
Q 12.9375 14.109375 22.625 23.890625 
Q 32.328125 33.6875 34.8125 36.53125 
Q 39.546875 41.84375 41.421875 45.53125 
Q 43.3125 49.21875 43.3125 52.78125 
Q 43.3125 58.59375 39.234375 62.25 
Q 35.15625 65.921875 28.609375 65.921875 
Q 23.96875 65.921875 18.8125 64.3125 
Q 13.671875 62.703125 7.8125 59.421875 
L 7.8125 69.390625 
Q 13.765625 71.78125 18.9375 73 
Q 24.125 74.21875 28.421875 74.21875 
Q 39.75 74.21875 46.484375 68.546875 
Q 53.21875 62.890625 53.21875 53.421875 
Q 53.21875 48.921875 51.53125 44.890625 
Q 49.859375 40.875 45.40625 35.40625 
Q 44.1875 33.984375 37.640625 27.21875 
Q 31.109375 20.453125 19.1875 8.296875 
z
" id="DejaVuSans-50"/>
      </defs>
      <g transform="translate(265.69723 591.316563)scale(0.1 -0.1)">
       <use xlink:href="#DejaVuSans-8722"/>
       <use x="83.789062" xlink:href="#DejaVuSans-50"/>
       <use x="147.412109" xlink:href="#DejaVuSans-48"/>
      </g>
     </g>
    </g>
    <g id="xtick_5">
     <g id="line2d_5">
      <g>
       <use style="stroke:#000000;stroke-width:0.8;" x="343.885938" xlink:href="#me2940e50e4" y="576.718125"/>
      </g>
     </g>
     <g id="text_5">
      <!-- 0 -->
      <g transform="translate(340.704688 591.316563)scale(0.1 -0.1)">
       <use xlink:href="#DejaVuSans-48"/>
      </g>
     </g>
    </g>
    <g id="xtick_6">
     <g id="line2d_6">
      <g>
       <use style="stroke:#000000;stroke-width:0.8;" x="411.522301" xlink:href="#me2940e50e4" y="576.718125"/>
      </g>
     </g>
     <g id="text_6">
      <!-- 20 -->
      <g transform="translate(405.159801 591.316563)scale(0.1 -0.1)">
       <use xlink:href="#DejaVuSans-50"/>
       <use x="63.623047" xlink:href="#DejaVuSans-48"/>
      </g>
     </g>
    </g>
    <g id="xtick_7">
     <g id="line2d_7">
      <g>
       <use style="stroke:#000000;stroke-width:0.8;" x="479.158665" xlink:href="#me2940e50e4" y="576.718125"/>
      </g>
     </g>
     <g id="text_7">
      <!-- 40 -->
      <g transform="translate(472.796165 591.316563)scale(0.1 -0.1)">
       <use xlink:href="#DejaVuSans-52"/>
       <use x="63.623047" xlink:href="#DejaVuSans-48"/>
      </g>
     </g>
    </g>
    <g id="xtick_8">
     <g id="line2d_8">
      <g>
       <use style="stroke:#000000;stroke-width:0.8;" x="546.795028" xlink:href="#me2940e50e4" y="576.718125"/>
      </g>
     </g>
     <g id="text_8">
      <!-- 60 -->
      <g transform="translate(540.432528 591.316563)scale(0.1 -0.1)">
       <use xlink:href="#DejaVuSans-54"/>
       <use x="63.623047" xlink:href="#DejaVuSans-48"/>
      </g>
     </g>
    </g>
    <g id="xtick_9">
     <g id="line2d_9">
      <g>
       <use style="stroke:#000000;stroke-width:0.8;" x="614.431392" xlink:href="#me2940e50e4" y="576.718125"/>
      </g>
     </g>
     <g id="text_9">
      <!-- 80 -->
      <g transform="translate(608.068892 591.316563)scale(0.1 -0.1)">
       <use xlink:href="#DejaVuSans-56"/>
       <use x="63.623047" xlink:href="#DejaVuSans-48"/>
      </g>
     </g>
    </g>
    <g id="text_10">
     <!-- Motif Position -->
     <defs>
      <path d="M 9.8125 72.90625 
L 24.515625 72.90625 
L 43.109375 23.296875 
L 61.8125 72.90625 
L 76.515625 72.90625 
L 76.515625 0 
L 66.890625 0 
L 66.890625 64.015625 
L 48.09375 14.015625 
L 38.1875 14.015625 
L 19.390625 64.015625 
L 19.390625 0 
L 9.8125 0 
z
" id="DejaVuSans-77"/>
      <path d="M 30.609375 48.390625 
Q 23.390625 48.390625 19.1875 42.75 
Q 14.984375 37.109375 14.984375 27.296875 
Q 14.984375 17.484375 19.15625 11.84375 
Q 23.34375 6.203125 30.609375 6.203125 
Q 37.796875 6.203125 41.984375 11.859375 
Q 46.1875 17.53125 46.1875 27.296875 
Q 46.1875 37.015625 41.984375 42.703125 
Q 37.796875 48.390625 30.609375 48.390625 
z
M 30.609375 56 
Q 42.328125 56 49.015625 48.375 
Q 55.71875 40.765625 55.71875 27.296875 
Q 55.71875 13.875 49.015625 6.21875 
Q 42.328125 -1.421875 30.609375 -1.421875 
Q 18.84375 -1.421875 12.171875 6.21875 
Q 5.515625 13.875 5.515625 27.296875 
Q 5.515625 40.765625 12.171875 48.375 
Q 18.84375 56 30.609375 56 
z
" id="DejaVuSans-111"/>
      <path d="M 18.3125 70.21875 
L 18.3125 54.6875 
L 36.8125 54.6875 
L 36.8125 47.703125 
L 18.3125 47.703125 
L 18.3125 18.015625 
Q 18.3125 11.328125 20.140625 9.421875 
Q 21.96875 7.515625 27.59375 7.515625 
L 36.8125 7.515625 
L 36.8125 0 
L 27.59375 0 
Q 17.1875 0 13.234375 3.875 
Q 9.28125 7.765625 9.28125 18.015625 
L 9.28125 47.703125 
L 2.6875 47.703125 
L 2.6875 54.6875 
L 9.28125 54.6875 
L 9.28125 70.21875 
z
" id="DejaVuSans-116"/>
      <path d="M 9.421875 54.6875 
L 18.40625 54.6875 
L 18.40625 0 
L 9.421875 0 
z
M 9.421875 75.984375 
L 18.40625 75.984375 
L 18.40625 64.59375 
L 9.421875 64.59375 
z
" id="DejaVuSans-105"/>
      <path d="M 37.109375 75.984375 
L 37.109375 68.5 
L 28.515625 68.5 
Q 23.6875 68.5 21.796875 66.546875 
Q 19.921875 64.59375 19.921875 59.515625 
L 19.921875 54.6875 
L 34.71875 54.6875 
L 34.71875 47.703125 
L 19.921875 47.703125 
L 19.921875 0 
L 10.890625 0 
L 10.890625 47.703125 
L 2.296875 47.703125 
L 2.296875 54.6875 
L 10.890625 54.6875 
L 10.890625 58.5 
Q 10.890625 67.625 15.140625 71.796875 
Q 19.390625 75.984375 28.609375 75.984375 
z
" id="DejaVuSans-102"/>
      <path id="DejaVuSans-32"/>
      <path d="M 19.671875 64.796875 
L 19.671875 37.40625 
L 32.078125 37.40625 
Q 38.96875 37.40625 42.71875 40.96875 
Q 46.484375 44.53125 46.484375 51.125 
Q 46.484375 57.671875 42.71875 61.234375 
Q 38.96875 64.796875 32.078125 64.796875 
z
M 9.8125 72.90625 
L 32.078125 72.90625 
Q 44.34375 72.90625 50.609375 67.359375 
Q 56.890625 61.8125 56.890625 51.125 
Q 56.890625 40.328125 50.609375 34.8125 
Q 44.34375 29.296875 32.078125 29.296875 
L 19.671875 29.296875 
L 19.671875 0 
L 9.8125 0 
z
" id="DejaVuSans-80"/>
      <path d="M 44.28125 53.078125 
L 44.28125 44.578125 
Q 40.484375 46.53125 36.375 47.5 
Q 32.28125 48.484375 27.875 48.484375 
Q 21.1875 48.484375 17.84375 46.4375 
Q 14.5 44.390625 14.5 40.28125 
Q 14.5 37.15625 16.890625 35.375 
Q 19.28125 33.59375 26.515625 31.984375 
L 29.59375 31.296875 
Q 39.15625 29.25 43.1875 25.515625 
Q 47.21875 21.78125 47.21875 15.09375 
Q 47.21875 7.46875 41.1875 3.015625 
Q 35.15625 -1.421875 24.609375 -1.421875 
Q 20.21875 -1.421875 15.453125 -0.5625 
Q 10.6875 0.296875 5.421875 2 
L 5.421875 11.28125 
Q 10.40625 8.6875 15.234375 7.390625 
Q 20.0625 6.109375 24.8125 6.109375 
Q 31.15625 6.109375 34.5625 8.28125 
Q 37.984375 10.453125 37.984375 14.40625 
Q 37.984375 18.0625 35.515625 20.015625 
Q 33.0625 21.96875 24.703125 23.78125 
L 21.578125 24.515625 
Q 13.234375 26.265625 9.515625 29.90625 
Q 5.8125 33.546875 5.8125 39.890625 
Q 5.8125 47.609375 11.28125 51.796875 
Q 16.75 56 26.8125 56 
Q 31.78125 56 36.171875 55.265625 
Q 40.578125 54.546875 44.28125 53.078125 
z
" id="DejaVuSans-115"/>
      <path d="M 54.890625 33.015625 
L 54.890625 0 
L 45.90625 0 
L 45.90625 32.71875 
Q 45.90625 40.484375 42.875 44.328125 
Q 39.84375 48.1875 33.796875 48.1875 
Q 26.515625 48.1875 22.3125 43.546875 
Q 18.109375 38.921875 18.109375 30.90625 
L 18.109375 0 
L 9.078125 0 
L 9.078125 54.6875 
L 18.109375 54.6875 
L 18.109375 46.1875 
Q 21.34375 51.125 25.703125 53.5625 
Q 30.078125 56 35.796875 56 
Q 45.21875 56 50.046875 50.171875 
Q 54.890625 44.34375 54.890625 33.015625 
z
" id="DejaVuSans-110"/>
     </defs>
     <g transform="translate(310.35 604.994688)scale(0.1 -0.1)">
      <use xlink:href="#DejaVuSans-77"/>
      <use x="86.279297" xlink:href="#DejaVuSans-111"/>
      <use x="147.460938" xlink:href="#DejaVuSans-116"/>
      <use x="186.669922" xlink:href="#DejaVuSans-105"/>
      <use x="214.453125" xlink:href="#DejaVuSans-102"/>
      <use x="249.658203" xlink:href="#DejaVuSans-32"/>
      <use x="281.445312" xlink:href="#DejaVuSans-80"/>
      <use x="338.123047" xlink:href="#DejaVuSans-111"/>
      <use x="399.304688" xlink:href="#DejaVuSans-115"/>
      <use x="451.404297" xlink:href="#DejaVuSans-105"/>
      <use x="479.1875" xlink:href="#DejaVuSans-116"/>
      <use x="518.396484" xlink:href="#DejaVuSans-105"/>
      <use x="546.179688" xlink:href="#DejaVuSans-111"/>
      <use x="607.361328" xlink:href="#DejaVuSans-110"/>
     </g>
    </g>
   </g>
   <g id="matplotlib.axis_2">
    <g id="ytick_1">
     <g id="line2d_10">
      <defs>
       <path d="M 0 0 
L -3.5 0 
" id="m8db0a5cc69" style="stroke:#000000;stroke-width:0.8;"/>
      </defs>
      <g>
       <use style="stroke:#000000;stroke-width:0.8;" x="64.885938" xlink:href="#m8db0a5cc69" y="566.055282"/>
      </g>
     </g>
     <g id="text_11">
      <!-- −0.006 -->
      <defs>
       <path d="M 10.6875 12.40625 
L 21 12.40625 
L 21 0 
L 10.6875 0 
z
" id="DejaVuSans-46"/>
      </defs>
      <g transform="translate(20.878125 569.854501)scale(0.1 -0.1)">
       <use xlink:href="#DejaVuSans-8722"/>
       <use x="83.789062" xlink:href="#DejaVuSans-48"/>
       <use x="147.412109" xlink:href="#DejaVuSans-46"/>
       <use x="179.199219" xlink:href="#DejaVuSans-48"/>
       <use x="242.822266" xlink:href="#DejaVuSans-48"/>
       <use x="306.445312" xlink:href="#DejaVuSans-54"/>
      </g>
     </g>
    </g>
    <g id="ytick_2">
     <g id="line2d_11">
      <g>
       <use style="stroke:#000000;stroke-width:0.8;" x="64.885938" xlink:href="#m8db0a5cc69" y="477.677885"/>
      </g>
     </g>
     <g id="text_12">
      <!-- −0.004 -->
      <g transform="translate(20.878125 481.477104)scale(0.1 -0.1)">
       <use xlink:href="#DejaVuSans-8722"/>
       <use x="83.789062" xlink:href="#DejaVuSans-48"/>
       <use x="147.412109" xlink:href="#DejaVuSans-46"/>
       <use x="179.199219" xlink:href="#DejaVuSans-48"/>
       <use x="242.822266" xlink:href="#DejaVuSans-48"/>
       <use x="306.445312" xlink:href="#DejaVuSans-52"/>
      </g>
     </g>
    </g>
    <g id="ytick_3">
     <g id="line2d_12">
      <g>
       <use style="stroke:#000000;stroke-width:0.8;" x="64.885938" xlink:href="#m8db0a5cc69" y="389.300487"/>
      </g>
     </g>
     <g id="text_13">
      <!-- −0.002 -->
      <g transform="translate(20.878125 393.099706)scale(0.1 -0.1)">
       <use xlink:href="#DejaVuSans-8722"/>
       <use x="83.789062" xlink:href="#DejaVuSans-48"/>
       <use x="147.412109" xlink:href="#DejaVuSans-46"/>
       <use x="179.199219" xlink:href="#DejaVuSans-48"/>
       <use x="242.822266" xlink:href="#DejaVuSans-48"/>
       <use x="306.445312" xlink:href="#DejaVuSans-50"/>
      </g>
     </g>
    </g>
    <g id="ytick_4">
     <g id="line2d_13">
      <g>
       <use style="stroke:#000000;stroke-width:0.8;" x="64.885938" xlink:href="#m8db0a5cc69" y="300.92309"/>
      </g>
     </g>
     <g id="text_14">
      <!-- 0.000 -->
      <g transform="translate(29.257813 304.722308)scale(0.1 -0.1)">
       <use xlink:href="#DejaVuSans-48"/>
       <use x="63.623047" xlink:href="#DejaVuSans-46"/>
       <use x="95.410156" xlink:href="#DejaVuSans-48"/>
       <use x="159.033203" xlink:href="#DejaVuSans-48"/>
       <use x="222.65625" xlink:href="#DejaVuSans-48"/>
      </g>
     </g>
    </g>
    <g id="ytick_5">
     <g id="line2d_14">
      <g>
       <use style="stroke:#000000;stroke-width:0.8;" x="64.885938" xlink:href="#m8db0a5cc69" y="212.545692"/>
      </g>
     </g>
     <g id="text_15">
      <!-- 0.002 -->
      <g transform="translate(29.257813 216.344911)scale(0.1 -0.1)">
       <use xlink:href="#DejaVuSans-48"/>
       <use x="63.623047" xlink:href="#DejaVuSans-46"/>
       <use x="95.410156" xlink:href="#DejaVuSans-48"/>
       <use x="159.033203" xlink:href="#DejaVuSans-48"/>
       <use x="222.65625" xlink:href="#DejaVuSans-50"/>
      </g>
     </g>
    </g>
    <g id="ytick_6">
     <g id="line2d_15">
      <g>
       <use style="stroke:#000000;stroke-width:0.8;" x="64.885938" xlink:href="#m8db0a5cc69" y="124.168294"/>
      </g>
     </g>
     <g id="text_16">
      <!-- 0.004 -->
      <g transform="translate(29.257813 127.967513)scale(0.1 -0.1)">
       <use xlink:href="#DejaVuSans-48"/>
       <use x="63.623047" xlink:href="#DejaVuSans-46"/>
       <use x="95.410156" xlink:href="#DejaVuSans-48"/>
       <use x="159.033203" xlink:href="#DejaVuSans-48"/>
       <use x="222.65625" xlink:href="#DejaVuSans-52"/>
      </g>
     </g>
    </g>
    <g id="ytick_7">
     <g id="line2d_16">
      <g>
       <use style="stroke:#000000;stroke-width:0.8;" x="64.885938" xlink:href="#m8db0a5cc69" y="35.790897"/>
      </g>
     </g>
     <g id="text_17">
      <!-- 0.006 -->
      <g transform="translate(29.257813 39.590115)scale(0.1 -0.1)">
       <use xlink:href="#DejaVuSans-48"/>
       <use x="63.623047" xlink:href="#DejaVuSans-46"/>
       <use x="95.410156" xlink:href="#DejaVuSans-48"/>
       <use x="159.033203" xlink:href="#DejaVuSans-48"/>
       <use x="222.65625" xlink:href="#DejaVuSans-54"/>
      </g>
     </g>
    </g>
    <g id="text_18">
     <!-- Coefficient -->
     <defs>
      <path d="M 64.40625 67.28125 
L 64.40625 56.890625 
Q 59.421875 61.53125 53.78125 63.8125 
Q 48.140625 66.109375 41.796875 66.109375 
Q 29.296875 66.109375 22.65625 58.46875 
Q 16.015625 50.828125 16.015625 36.375 
Q 16.015625 21.96875 22.65625 14.328125 
Q 29.296875 6.6875 41.796875 6.6875 
Q 48.140625 6.6875 53.78125 8.984375 
Q 59.421875 11.28125 64.40625 15.921875 
L 64.40625 5.609375 
Q 59.234375 2.09375 53.4375 0.328125 
Q 47.65625 -1.421875 41.21875 -1.421875 
Q 24.65625 -1.421875 15.125 8.703125 
Q 5.609375 18.84375 5.609375 36.375 
Q 5.609375 53.953125 15.125 64.078125 
Q 24.65625 74.21875 41.21875 74.21875 
Q 47.75 74.21875 53.53125 72.484375 
Q 59.328125 70.75 64.40625 67.28125 
z
" id="DejaVuSans-67"/>
      <path d="M 56.203125 29.59375 
L 56.203125 25.203125 
L 14.890625 25.203125 
Q 15.484375 15.921875 20.484375 11.0625 
Q 25.484375 6.203125 34.421875 6.203125 
Q 39.59375 6.203125 44.453125 7.46875 
Q 49.3125 8.734375 54.109375 11.28125 
L 54.109375 2.78125 
Q 49.265625 0.734375 44.1875 -0.34375 
Q 39.109375 -1.421875 33.890625 -1.421875 
Q 20.796875 -1.421875 13.15625 6.1875 
Q 5.515625 13.8125 5.515625 26.8125 
Q 5.515625 40.234375 12.765625 48.109375 
Q 20.015625 56 32.328125 56 
Q 43.359375 56 49.78125 48.890625 
Q 56.203125 41.796875 56.203125 29.59375 
z
M 47.21875 32.234375 
Q 47.125 39.59375 43.09375 43.984375 
Q 39.0625 48.390625 32.421875 48.390625 
Q 24.90625 48.390625 20.390625 44.140625 
Q 15.875 39.890625 15.1875 32.171875 
z
" id="DejaVuSans-101"/>
      <path d="M 48.78125 52.59375 
L 48.78125 44.1875 
Q 44.96875 46.296875 41.140625 47.34375 
Q 37.3125 48.390625 33.40625 48.390625 
Q 24.65625 48.390625 19.8125 42.84375 
Q 14.984375 37.3125 14.984375 27.296875 
Q 14.984375 17.28125 19.8125 11.734375 
Q 24.65625 6.203125 33.40625 6.203125 
Q 37.3125 6.203125 41.140625 7.25 
Q 44.96875 8.296875 48.78125 10.40625 
L 48.78125 2.09375 
Q 45.015625 0.34375 40.984375 -0.53125 
Q 36.96875 -1.421875 32.421875 -1.421875 
Q 20.0625 -1.421875 12.78125 6.34375 
Q 5.515625 14.109375 5.515625 27.296875 
Q 5.515625 40.671875 12.859375 48.328125 
Q 20.21875 56 33.015625 56 
Q 37.15625 56 41.109375 55.140625 
Q 45.0625 54.296875 48.78125 52.59375 
z
" id="DejaVuSans-99"/>
     </defs>
     <g transform="translate(14.798438 326.398594)rotate(-90)scale(0.1 -0.1)">
      <use xlink:href="#DejaVuSans-67"/>
      <use x="69.824219" xlink:href="#DejaVuSans-111"/>
      <use x="131.005859" xlink:href="#DejaVuSans-101"/>
      <use x="192.529297" xlink:href="#DejaVuSans-102"/>
      <use x="227.734375" xlink:href="#DejaVuSans-102"/>
      <use x="262.939453" xlink:href="#DejaVuSans-105"/>
      <use x="290.722656" xlink:href="#DejaVuSans-99"/>
      <use x="345.703125" xlink:href="#DejaVuSans-105"/>
      <use x="373.486328" xlink:href="#DejaVuSans-101"/>
      <use x="435.009766" xlink:href="#DejaVuSans-110"/>
      <use x="498.388672" xlink:href="#DejaVuSans-116"/>
     </g>
    </g>
   </g>
   <g id="line2d_17">
    <path clip-path="url(#p10936f942c)" d="M 90.249574 300.92309 
L 103.776847 300.911053 
L 107.158665 300.527947 
L 110.540483 296.221897 
L 113.922301 281.15444 
L 117.304119 273.286321 
L 120.685938 288.253327 
L 124.067756 291.437368 
L 127.449574 282.204644 
L 130.831392 278.829521 
L 134.21321 288.05012 
L 137.595028 289.526175 
L 140.976847 275.817891 
L 144.358665 266.029693 
L 147.740483 292.412002 
L 151.122301 325.849347 
L 154.504119 351.034542 
L 157.885938 346.761514 
L 161.267756 307.234877 
L 164.649574 283.986087 
L 168.031392 296.732873 
L 171.41321 304.021606 
L 174.795028 309.674933 
L 178.176847 323.371925 
L 181.558665 298.794376 
L 184.940483 227.197646 
L 188.322301 213.960938 
L 191.704119 272.966374 
L 195.085938 296.5522 
L 198.467756 270.789775 
L 201.849574 246.933281 
L 205.231392 287.089588 
L 208.61321 348.133549 
L 211.995028 323.018466 
L 215.376847 276.404222 
L 218.758665 272.432175 
L 222.140483 280.767179 
L 225.522301 291.925825 
L 228.904119 312.657923 
L 232.285938 272.902816 
L 235.667756 192.49387 
L 239.049574 154.047055 
L 242.431392 211.327025 
L 245.81321 284.056038 
L 249.195028 265.620319 
L 252.576847 234.071237 
L 255.958665 297.271958 
L 259.340483 386.997916 
L 262.722301 408.716698 
L 266.104119 340.974091 
L 269.485937 287.853399 
L 272.867756 289.374619 
L 276.249574 293.276472 
L 279.631392 271.746546 
L 283.01321 268.744011 
L 286.395028 257.589322 
L 289.776847 214.559754 
L 293.158665 260.818902 
L 296.540483 359.496923 
L 299.922301 409.615561 
L 303.304119 390.946431 
L 306.685938 319.759297 
L 310.067756 285.662565 
L 313.449574 321.300562 
L 316.831392 351.928545 
L 320.21321 320.598575 
L 323.595028 307.434222 
L 326.976847 353.683627 
L 330.358665 413.922446 
L 333.740483 362.99968 
L 337.122301 226.427418 
L 340.504119 169.777542 
L 343.885938 210.638696 
L 347.267756 260.207693 
L 350.649574 281.51654 
L 354.031392 334.397203 
L 357.41321 378.80337 
L 360.795028 388.529433 
L 364.176847 368.329911 
L 367.558665 333.650152 
L 370.940483 284.132692 
L 374.322301 236.418073 
L 377.704119 272.985605 
L 381.085938 317.774889 
L 384.467756 338.034408 
L 387.849574 375.719077 
L 391.231392 387.773671 
L 394.61321 380.973292 
L 397.995028 401.17013 
L 401.376847 426.73993 
L 404.758665 405.961597 
L 408.140483 343.07988 
L 411.522301 306.102761 
L 414.904119 314.204046 
L 418.285938 362.952638 
L 421.667756 397.886457 
L 425.049574 388.463731 
L 428.431392 376.639214 
L 431.81321 342.894368 
L 435.195028 282.552528 
L 438.576847 245.654861 
L 441.958665 252.453968 
L 445.340483 249.760656 
L 448.722301 228.298655 
L 452.104119 245.742622 
L 455.485937 287.71948 
L 458.867756 304.963431 
L 462.249574 296.995028 
L 465.631392 308.645968 
L 469.01321 323.905493 
L 472.395028 293.092159 
L 475.776847 243.080971 
L 479.158665 216.87159 
L 482.540483 245.502614 
L 485.922301 310.509769 
L 489.304119 329.267407 
L 492.685938 283.751076 
L 496.067756 260.927408 
L 499.449574 264.736993 
L 502.831392 261.439951 
L 506.21321 262.749765 
L 509.595028 299.150068 
L 512.976847 341.064737 
L 516.358665 337.793811 
L 519.740483 321.268645 
L 523.122301 318.292919 
L 526.504119 303.890154 
L 529.885937 287.795966 
L 533.267756 254.494222 
L 536.649574 239.813389 
L 540.031392 276.902454 
L 543.41321 269.382931 
L 546.795028 239.438334 
L 550.176847 236.955286 
L 553.558665 200.056614 
L 556.940483 138.090933 
L 560.322301 138.975192 
L 563.704119 233.771398 
L 567.085938 281.954062 
L 570.467756 272.844537 
L 573.849574 282.16579 
L 577.231392 296.638441 
L 580.61321 300.569317 
L 583.995028 300.912388 
L 597.522301 300.92309 
L 597.522301 300.92309 
" style="fill:none;stroke:#1f77b4;stroke-linecap:square;stroke-width:1.5;"/>
   </g>
   <g id="line2d_18">
    <path clip-path="url(#p10936f942c)" d="M 90.249574 300.92309 
L 103.776847 300.892068 
L 107.158665 299.899065 
L 110.540483 288.539686 
L 113.922301 246.010216 
L 117.304119 206.764998 
L 120.685938 212.581365 
L 124.067756 211.068175 
L 127.449574 194.878831 
L 130.831392 187.780896 
L 134.21321 200.093725 
L 137.595028 198.848365 
L 140.976847 185.486869 
L 144.358665 188.739438 
L 147.740483 219.166644 
L 151.122301 234.680191 
L 154.504119 253.696207 
L 157.885938 251.435586 
L 161.267756 223.29309 
L 164.649574 185.028867 
L 168.031392 197.841593 
L 171.41321 202.063308 
L 174.795028 208.121496 
L 178.176847 224.970456 
L 181.558665 198.638221 
L 184.940483 117.914981 
L 188.322301 106.90958 
L 191.704119 172.73132 
L 195.085938 196.20687 
L 198.467756 176.964319 
L 201.849574 156.528602 
L 205.231392 191.844398 
L 208.61321 245.728226 
L 211.995028 218.82055 
L 215.376847 182.770049 
L 218.758665 174.498295 
L 222.140483 181.230334 
L 225.522301 206.28361 
L 228.904119 217.254139 
L 232.285938 166.795143 
L 235.667756 92.731622 
L 239.049574 50.129528 
L 242.431392 100.230783 
L 245.81321 172.293836 
L 249.195028 161.398613 
L 252.576847 128.811385 
L 255.958665 192.607449 
L 259.340483 264.01164 
L 262.722301 297.714253 
L 266.104119 238.467568 
L 269.485937 186.144024 
L 272.867756 182.013933 
L 276.249574 174.886215 
L 279.631392 164.811103 
L 283.01321 150.687283 
L 286.395028 132.178004 
L 289.776847 89.760211 
L 293.158665 130.673222 
L 296.540483 232.399279 
L 299.922301 291.058757 
L 303.304119 263.477897 
L 306.685938 188.323532 
L 310.067756 157.234142 
L 313.449574 183.848581 
L 316.831392 218.20767 
L 320.21321 203.041719 
L 323.595028 182.354669 
L 326.976847 222.101888 
L 330.358665 276.326767 
L 333.740483 228.015248 
L 337.122301 96.447607 
L 340.504119 47.527428 
L 343.885938 82.928604 
L 347.267756 115.216675 
L 350.649574 130.835731 
L 354.031392 199.672726 
L 357.41321 253.988662 
L 360.795028 265.260679 
L 364.176847 236.222866 
L 367.558665 198.197215 
L 370.940483 152.481063 
L 374.322301 114.772524 
L 377.704119 152.183959 
L 381.085938 199.286248 
L 384.467756 208.871024 
L 387.849574 237.455906 
L 391.231392 260.830358 
L 394.61321 264.110743 
L 397.995028 288.22879 
L 401.376847 309.552031 
L 404.758665 288.760106 
L 408.140483 226.843094 
L 411.522301 189.962244 
L 414.904119 202.241281 
L 418.285938 245.711546 
L 421.667756 279.634121 
L 425.049574 274.580385 
L 428.431392 268.378307 
L 431.81321 247.902072 
L 435.195028 186.623557 
L 438.576847 149.482353 
L 441.958665 150.663974 
L 445.340483 153.89083 
L 448.722301 123.107679 
L 452.104119 133.427658 
L 455.485937 179.405211 
L 458.867756 209.304192 
L 462.249574 202.726223 
L 465.631392 203.149524 
L 469.01321 218.18154 
L 472.395028 191.101299 
L 475.776847 144.346142 
L 479.158665 117.873587 
L 482.540483 138.304028 
L 485.922301 200.544203 
L 489.304119 231.119121 
L 492.685938 198.988143 
L 496.067756 169.192635 
L 499.449574 163.043079 
L 502.831392 159.692917 
L 506.21321 166.273569 
L 509.595028 208.685117 
L 512.976847 246.845886 
L 516.358665 243.276757 
L 519.740483 221.250397 
L 523.122301 214.085005 
L 526.504119 210.486725 
L 529.885937 197.465022 
L 533.267756 161.683119 
L 536.649574 151.11636 
L 540.031392 183.763119 
L 543.41321 185.747384 
L 546.795028 162.487595 
L 550.176847 159.287376 
L 553.558665 118.786807 
L 556.940483 47.518125 
L 560.322301 54.823544 
L 563.704119 154.007839 
L 567.085938 194.515254 
L 570.467756 202.980657 
L 573.849574 248.540637 
L 577.231392 289.429692 
L 580.61321 299.980808 
L 583.995028 300.894629 
L 597.522301 300.92309 
L 597.522301 300.92309 
" style="fill:none;stroke:#ff7f0e;stroke-linecap:square;stroke-width:1.5;"/>
   </g>
   <g id="line2d_19">
    <path clip-path="url(#p10936f942c)" d="M 90.249574 300.92309 
L 103.776847 300.930037 
L 107.158665 301.156829 
L 110.540483 303.904108 
L 113.922301 316.298663 
L 120.685938 363.92529 
L 124.067756 371.80656 
L 127.449574 369.530458 
L 130.831392 369.878146 
L 134.21321 376.006514 
L 137.595028 380.203985 
L 140.976847 366.148914 
L 144.358665 343.319948 
L 147.740483 365.657359 
L 151.122301 417.018503 
L 154.504119 448.372877 
L 157.885938 442.087442 
L 161.267756 391.176663 
L 164.649574 382.943307 
L 168.031392 395.624153 
L 171.41321 405.979904 
L 174.795028 411.228369 
L 178.176847 421.773395 
L 181.558665 398.950532 
L 184.940483 336.48031 
L 188.322301 321.012295 
L 191.704119 373.201429 
L 195.085938 396.897531 
L 198.467756 364.615231 
L 201.849574 337.33796 
L 205.231392 382.334778 
L 208.61321 450.538873 
L 211.995028 427.216382 
L 215.376847 370.038394 
L 218.758665 370.366055 
L 222.140483 380.304024 
L 225.522301 377.568039 
L 228.904119 408.061707 
L 232.285938 379.010488 
L 235.667756 292.256118 
L 239.049574 257.964581 
L 242.431392 322.423268 
L 245.81321 395.818239 
L 249.195028 369.842025 
L 252.576847 339.331088 
L 255.958665 401.936466 
L 259.340483 509.984192 
L 262.722301 519.719142 
L 266.104119 443.480613 
L 269.485937 389.562773 
L 272.867756 396.735305 
L 276.249574 411.666729 
L 279.631392 378.681988 
L 283.01321 386.80074 
L 286.395028 383.000639 
L 289.776847 339.359296 
L 293.158665 390.964582 
L 296.540483 486.594567 
L 299.922301 528.172365 
L 303.304119 518.414966 
L 306.685938 451.195063 
L 310.067756 414.090987 
L 313.449574 458.752542 
L 316.831392 485.649421 
L 320.21321 438.155431 
L 323.595028 432.513776 
L 326.976847 485.265366 
L 330.358665 551.518125 
L 333.740483 497.984113 
L 337.122301 356.407229 
L 340.504119 292.027655 
L 343.885938 338.348788 
L 347.267756 405.198711 
L 350.649574 432.19735 
L 354.031392 469.121679 
L 357.41321 503.618079 
L 360.795028 511.798186 
L 364.176847 500.436956 
L 367.558665 469.103089 
L 370.940483 415.784321 
L 374.322301 358.063621 
L 377.704119 393.78725 
L 381.085938 436.26353 
L 384.467756 467.197792 
L 387.849574 513.982248 
L 391.231392 514.716984 
L 394.61321 497.835841 
L 397.995028 514.111471 
L 401.376847 543.927829 
L 404.758665 523.163089 
L 408.140483 459.316666 
L 411.522301 422.243278 
L 414.904119 426.16681 
L 418.285938 480.193731 
L 421.667756 516.138793 
L 425.049574 502.347076 
L 428.431392 484.900121 
L 431.81321 437.886663 
L 435.195028 378.481498 
L 438.576847 341.827369 
L 441.958665 354.243961 
L 445.340483 345.630481 
L 448.722301 333.489631 
L 452.104119 358.057587 
L 455.485937 396.03375 
L 458.867756 400.622669 
L 462.249574 391.263833 
L 465.631392 414.142412 
L 469.01321 429.629447 
L 472.395028 395.08302 
L 475.776847 341.8158 
L 479.158665 315.869593 
L 482.540483 352.701201 
L 485.922301 420.475336 
L 489.304119 427.415693 
L 492.685938 368.514009 
L 496.067756 352.662181 
L 499.449574 366.430907 
L 502.831392 363.186984 
L 506.21321 359.225961 
L 509.595028 389.615019 
L 512.976847 435.283587 
L 516.358665 432.310865 
L 519.740483 421.286893 
L 523.122301 422.500832 
L 526.504119 397.293582 
L 529.885937 378.12691 
L 533.267756 347.305325 
L 536.649574 328.510417 
L 540.031392 370.041788 
L 543.41321 353.018477 
L 546.795028 316.389073 
L 550.176847 314.623196 
L 553.558665 281.326421 
L 556.940483 228.663742 
L 560.322301 223.12684 
L 563.704119 313.534957 
L 567.085938 369.392871 
L 573.849574 315.790943 
L 577.231392 303.847189 
L 580.61321 301.157825 
L 583.995028 300.930148 
L 597.522301 300.92309 
L 597.522301 300.92309 
" style="fill:none;stroke:#2ca02c;stroke-linecap:square;stroke-width:1.5;"/>
   </g>
   <g id="line2d_20"/>
   <g id="line2d_21"/>
   <g id="line2d_22"/>
   <g id="line2d_23"/>
   <g id="patch_3">
    <path d="M 64.885938 576.718125 
L 64.885938 22.318125 
" style="fill:none;stroke:#000000;stroke-linecap:square;stroke-linejoin:miter;stroke-width:0.8;"/>
   </g>
   <g id="patch_4">
    <path d="M 622.885937 576.718125 
L 622.885937 22.318125 
" style="fill:none;stroke:#000000;stroke-linecap:square;stroke-linejoin:miter;stroke-width:0.8;"/>
   </g>
   <g id="patch_5">
    <path d="M 64.885938 576.718125 
L 622.885937 576.718125 
" style="fill:none;stroke:#000000;stroke-linecap:square;stroke-linejoin:miter;stroke-width:0.8;"/>
   </g>
   <g id="patch_6">
    <path d="M 64.885938 22.318125 
L 622.885937 22.318125 
" style="fill:none;stroke:#000000;stroke-linecap:square;stroke-linejoin:miter;stroke-width:0.8;"/>
   </g>
   <g id="text_19">
    <!-- Changed enrichment coefficient of motif MA0798.1 RFX3 as a function of motif position in sequence -->
    <defs>
     <path d="M 54.890625 33.015625 
L 54.890625 0 
L 45.90625 0 
L 45.90625 32.71875 
Q 45.90625 40.484375 42.875 44.328125 
Q 39.84375 48.1875 33.796875 48.1875 
Q 26.515625 48.1875 22.3125 43.546875 
Q 18.109375 38.921875 18.109375 30.90625 
L 18.109375 0 
L 9.078125 0 
L 9.078125 75.984375 
L 18.109375 75.984375 
L 18.109375 46.1875 
Q 21.34375 51.125 25.703125 53.5625 
Q 30.078125 56 35.796875 56 
Q 45.21875 56 50.046875 50.171875 
Q 54.890625 44.34375 54.890625 33.015625 
z
" id="DejaVuSans-104"/>
     <path d="M 34.28125 27.484375 
Q 23.390625 27.484375 19.1875 25 
Q 14.984375 22.515625 14.984375 16.5 
Q 14.984375 11.71875 18.140625 8.90625 
Q 21.296875 6.109375 26.703125 6.109375 
Q 34.1875 6.109375 38.703125 11.40625 
Q 43.21875 16.703125 43.21875 25.484375 
L 43.21875 27.484375 
z
M 52.203125 31.203125 
L 52.203125 0 
L 43.21875 0 
L 43.21875 8.296875 
Q 40.140625 3.328125 35.546875 0.953125 
Q 30.953125 -1.421875 24.3125 -1.421875 
Q 15.921875 -1.421875 10.953125 3.296875 
Q 6 8.015625 6 15.921875 
Q 6 25.140625 12.171875 29.828125 
Q 18.359375 34.515625 30.609375 34.515625 
L 43.21875 34.515625 
L 43.21875 35.40625 
Q 43.21875 41.609375 39.140625 45 
Q 35.0625 48.390625 27.6875 48.390625 
Q 23 48.390625 18.546875 47.265625 
Q 14.109375 46.140625 10.015625 43.890625 
L 10.015625 52.203125 
Q 14.9375 54.109375 19.578125 55.046875 
Q 24.21875 56 28.609375 56 
Q 40.484375 56 46.34375 49.84375 
Q 52.203125 43.703125 52.203125 31.203125 
z
" id="DejaVuSans-97"/>
     <path d="M 45.40625 27.984375 
Q 45.40625 37.75 41.375 43.109375 
Q 37.359375 48.484375 30.078125 48.484375 
Q 22.859375 48.484375 18.828125 43.109375 
Q 14.796875 37.75 14.796875 27.984375 
Q 14.796875 18.265625 18.828125 12.890625 
Q 22.859375 7.515625 30.078125 7.515625 
Q 37.359375 7.515625 41.375 12.890625 
Q 45.40625 18.265625 45.40625 27.984375 
z
M 54.390625 6.78125 
Q 54.390625 -7.171875 48.1875 -13.984375 
Q 42 -20.796875 29.203125 -20.796875 
Q 24.46875 -20.796875 20.265625 -20.09375 
Q 16.0625 -19.390625 12.109375 -17.921875 
L 12.109375 -9.1875 
Q 16.0625 -11.328125 19.921875 -12.34375 
Q 23.78125 -13.375 27.78125 -13.375 
Q 36.625 -13.375 41.015625 -8.765625 
Q 45.40625 -4.15625 45.40625 5.171875 
L 45.40625 9.625 
Q 42.625 4.78125 38.28125 2.390625 
Q 33.9375 0 27.875 0 
Q 17.828125 0 11.671875 7.65625 
Q 5.515625 15.328125 5.515625 27.984375 
Q 5.515625 40.671875 11.671875 48.328125 
Q 17.828125 56 27.875 56 
Q 33.9375 56 38.28125 53.609375 
Q 42.625 51.21875 45.40625 46.390625 
L 45.40625 54.6875 
L 54.390625 54.6875 
z
" id="DejaVuSans-103"/>
     <path d="M 45.40625 46.390625 
L 45.40625 75.984375 
L 54.390625 75.984375 
L 54.390625 0 
L 45.40625 0 
L 45.40625 8.203125 
Q 42.578125 3.328125 38.25 0.953125 
Q 33.9375 -1.421875 27.875 -1.421875 
Q 17.96875 -1.421875 11.734375 6.484375 
Q 5.515625 14.40625 5.515625 27.296875 
Q 5.515625 40.1875 11.734375 48.09375 
Q 17.96875 56 27.875 56 
Q 33.9375 56 38.25 53.625 
Q 42.578125 51.265625 45.40625 46.390625 
z
M 14.796875 27.296875 
Q 14.796875 17.390625 18.875 11.75 
Q 22.953125 6.109375 30.078125 6.109375 
Q 37.203125 6.109375 41.296875 11.75 
Q 45.40625 17.390625 45.40625 27.296875 
Q 45.40625 37.203125 41.296875 42.84375 
Q 37.203125 48.484375 30.078125 48.484375 
Q 22.953125 48.484375 18.875 42.84375 
Q 14.796875 37.203125 14.796875 27.296875 
z
" id="DejaVuSans-100"/>
     <path d="M 41.109375 46.296875 
Q 39.59375 47.171875 37.8125 47.578125 
Q 36.03125 48 33.890625 48 
Q 26.265625 48 22.1875 43.046875 
Q 18.109375 38.09375 18.109375 28.8125 
L 18.109375 0 
L 9.078125 0 
L 9.078125 54.6875 
L 18.109375 54.6875 
L 18.109375 46.1875 
Q 20.953125 51.171875 25.484375 53.578125 
Q 30.03125 56 36.53125 56 
Q 37.453125 56 38.578125 55.875 
Q 39.703125 55.765625 41.0625 55.515625 
z
" id="DejaVuSans-114"/>
     <path d="M 52 44.1875 
Q 55.375 50.25 60.0625 53.125 
Q 64.75 56 71.09375 56 
Q 79.640625 56 84.28125 50.015625 
Q 88.921875 44.046875 88.921875 33.015625 
L 88.921875 0 
L 79.890625 0 
L 79.890625 32.71875 
Q 79.890625 40.578125 77.09375 44.375 
Q 74.3125 48.1875 68.609375 48.1875 
Q 61.625 48.1875 57.5625 43.546875 
Q 53.515625 38.921875 53.515625 30.90625 
L 53.515625 0 
L 44.484375 0 
L 44.484375 32.71875 
Q 44.484375 40.625 41.703125 44.40625 
Q 38.921875 48.1875 33.109375 48.1875 
Q 26.21875 48.1875 22.15625 43.53125 
Q 18.109375 38.875 18.109375 30.90625 
L 18.109375 0 
L 9.078125 0 
L 9.078125 54.6875 
L 18.109375 54.6875 
L 18.109375 46.1875 
Q 21.1875 51.21875 25.484375 53.609375 
Q 29.78125 56 35.6875 56 
Q 41.65625 56 45.828125 52.96875 
Q 50 49.953125 52 44.1875 
z
" id="DejaVuSans-109"/>
     <path d="M 34.1875 63.1875 
L 20.796875 26.90625 
L 47.609375 26.90625 
z
M 28.609375 72.90625 
L 39.796875 72.90625 
L 67.578125 0 
L 57.328125 0 
L 50.6875 18.703125 
L 17.828125 18.703125 
L 11.1875 0 
L 0.78125 0 
z
" id="DejaVuSans-65"/>
     <path d="M 8.203125 72.90625 
L 55.078125 72.90625 
L 55.078125 68.703125 
L 28.609375 0 
L 18.3125 0 
L 43.21875 64.59375 
L 8.203125 64.59375 
z
" id="DejaVuSans-55"/>
     <path d="M 10.984375 1.515625 
L 10.984375 10.5 
Q 14.703125 8.734375 18.5 7.8125 
Q 22.3125 6.890625 25.984375 6.890625 
Q 35.75 6.890625 40.890625 13.453125 
Q 46.046875 20.015625 46.78125 33.40625 
Q 43.953125 29.203125 39.59375 26.953125 
Q 35.25 24.703125 29.984375 24.703125 
Q 19.046875 24.703125 12.671875 31.3125 
Q 6.296875 37.9375 6.296875 49.421875 
Q 6.296875 60.640625 12.9375 67.421875 
Q 19.578125 74.21875 30.609375 74.21875 
Q 43.265625 74.21875 49.921875 64.515625 
Q 56.59375 54.828125 56.59375 36.375 
Q 56.59375 19.140625 48.40625 8.859375 
Q 40.234375 -1.421875 26.421875 -1.421875 
Q 22.703125 -1.421875 18.890625 -0.6875 
Q 15.09375 0.046875 10.984375 1.515625 
z
M 30.609375 32.421875 
Q 37.25 32.421875 41.125 36.953125 
Q 45.015625 41.5 45.015625 49.421875 
Q 45.015625 57.28125 41.125 61.84375 
Q 37.25 66.40625 30.609375 66.40625 
Q 23.96875 66.40625 20.09375 61.84375 
Q 16.21875 57.28125 16.21875 49.421875 
Q 16.21875 41.5 20.09375 36.953125 
Q 23.96875 32.421875 30.609375 32.421875 
z
" id="DejaVuSans-57"/>
     <path d="M 12.40625 8.296875 
L 28.515625 8.296875 
L 28.515625 63.921875 
L 10.984375 60.40625 
L 10.984375 69.390625 
L 28.421875 72.90625 
L 38.28125 72.90625 
L 38.28125 8.296875 
L 54.390625 8.296875 
L 54.390625 0 
L 12.40625 0 
z
" id="DejaVuSans-49"/>
     <path d="M 44.390625 34.1875 
Q 47.5625 33.109375 50.5625 29.59375 
Q 53.5625 26.078125 56.59375 19.921875 
L 66.609375 0 
L 56 0 
L 46.6875 18.703125 
Q 43.0625 26.03125 39.671875 28.421875 
Q 36.28125 30.8125 30.421875 30.8125 
L 19.671875 30.8125 
L 19.671875 0 
L 9.8125 0 
L 9.8125 72.90625 
L 32.078125 72.90625 
Q 44.578125 72.90625 50.734375 67.671875 
Q 56.890625 62.453125 56.890625 51.90625 
Q 56.890625 45.015625 53.6875 40.46875 
Q 50.484375 35.9375 44.390625 34.1875 
z
M 19.671875 64.796875 
L 19.671875 38.921875 
L 32.078125 38.921875 
Q 39.203125 38.921875 42.84375 42.21875 
Q 46.484375 45.515625 46.484375 51.90625 
Q 46.484375 58.296875 42.84375 61.546875 
Q 39.203125 64.796875 32.078125 64.796875 
z
" id="DejaVuSans-82"/>
     <path d="M 9.8125 72.90625 
L 51.703125 72.90625 
L 51.703125 64.59375 
L 19.671875 64.59375 
L 19.671875 43.109375 
L 48.578125 43.109375 
L 48.578125 34.8125 
L 19.671875 34.8125 
L 19.671875 0 
L 9.8125 0 
z
" id="DejaVuSans-70"/>
     <path d="M 6.296875 72.90625 
L 16.890625 72.90625 
L 35.015625 45.796875 
L 53.21875 72.90625 
L 63.8125 72.90625 
L 40.375 37.890625 
L 65.375 0 
L 54.78125 0 
L 34.28125 31 
L 13.625 0 
L 2.984375 0 
L 29 38.921875 
z
" id="DejaVuSans-88"/>
     <path d="M 40.578125 39.3125 
Q 47.65625 37.796875 51.625 33 
Q 55.609375 28.21875 55.609375 21.1875 
Q 55.609375 10.40625 48.1875 4.484375 
Q 40.765625 -1.421875 27.09375 -1.421875 
Q 22.515625 -1.421875 17.65625 -0.515625 
Q 12.796875 0.390625 7.625 2.203125 
L 7.625 11.71875 
Q 11.71875 9.328125 16.59375 8.109375 
Q 21.484375 6.890625 26.8125 6.890625 
Q 36.078125 6.890625 40.9375 10.546875 
Q 45.796875 14.203125 45.796875 21.1875 
Q 45.796875 27.640625 41.28125 31.265625 
Q 36.765625 34.90625 28.71875 34.90625 
L 20.21875 34.90625 
L 20.21875 43.015625 
L 29.109375 43.015625 
Q 36.375 43.015625 40.234375 45.921875 
Q 44.09375 48.828125 44.09375 54.296875 
Q 44.09375 59.90625 40.109375 62.90625 
Q 36.140625 65.921875 28.71875 65.921875 
Q 24.65625 65.921875 20.015625 65.03125 
Q 15.375 64.15625 9.8125 62.3125 
L 9.8125 71.09375 
Q 15.4375 72.65625 20.34375 73.4375 
Q 25.25 74.21875 29.59375 74.21875 
Q 40.828125 74.21875 47.359375 69.109375 
Q 53.90625 64.015625 53.90625 55.328125 
Q 53.90625 49.265625 50.4375 45.09375 
Q 46.96875 40.921875 40.578125 39.3125 
z
" id="DejaVuSans-51"/>
     <path d="M 8.5 21.578125 
L 8.5 54.6875 
L 17.484375 54.6875 
L 17.484375 21.921875 
Q 17.484375 14.15625 20.5 10.265625 
Q 23.53125 6.390625 29.59375 6.390625 
Q 36.859375 6.390625 41.078125 11.03125 
Q 45.3125 15.671875 45.3125 23.6875 
L 45.3125 54.6875 
L 54.296875 54.6875 
L 54.296875 0 
L 45.3125 0 
L 45.3125 8.40625 
Q 42.046875 3.421875 37.71875 1 
Q 33.40625 -1.421875 27.6875 -1.421875 
Q 18.265625 -1.421875 13.375 4.4375 
Q 8.5 10.296875 8.5 21.578125 
z
M 31.109375 56 
z
" id="DejaVuSans-117"/>
     <path d="M 18.109375 8.203125 
L 18.109375 -20.796875 
L 9.078125 -20.796875 
L 9.078125 54.6875 
L 18.109375 54.6875 
L 18.109375 46.390625 
Q 20.953125 51.265625 25.265625 53.625 
Q 29.59375 56 35.59375 56 
Q 45.5625 56 51.78125 48.09375 
Q 58.015625 40.1875 58.015625 27.296875 
Q 58.015625 14.40625 51.78125 6.484375 
Q 45.5625 -1.421875 35.59375 -1.421875 
Q 29.59375 -1.421875 25.265625 0.953125 
Q 20.953125 3.328125 18.109375 8.203125 
z
M 48.6875 27.296875 
Q 48.6875 37.203125 44.609375 42.84375 
Q 40.53125 48.484375 33.40625 48.484375 
Q 26.265625 48.484375 22.1875 42.84375 
Q 18.109375 37.203125 18.109375 27.296875 
Q 18.109375 17.390625 22.1875 11.75 
Q 26.265625 6.109375 33.40625 6.109375 
Q 40.53125 6.109375 44.609375 11.75 
Q 48.6875 17.390625 48.6875 27.296875 
z
" id="DejaVuSans-112"/>
     <path d="M 14.796875 27.296875 
Q 14.796875 17.390625 18.875 11.75 
Q 22.953125 6.109375 30.078125 6.109375 
Q 37.203125 6.109375 41.296875 11.75 
Q 45.40625 17.390625 45.40625 27.296875 
Q 45.40625 37.203125 41.296875 42.84375 
Q 37.203125 48.484375 30.078125 48.484375 
Q 22.953125 48.484375 18.875 42.84375 
Q 14.796875 37.203125 14.796875 27.296875 
z
M 45.40625 8.203125 
Q 42.578125 3.328125 38.25 0.953125 
Q 33.9375 -1.421875 27.875 -1.421875 
Q 17.96875 -1.421875 11.734375 6.484375 
Q 5.515625 14.40625 5.515625 27.296875 
Q 5.515625 40.1875 11.734375 48.09375 
Q 17.96875 56 27.875 56 
Q 33.9375 56 38.25 53.625 
Q 42.578125 51.265625 45.40625 46.390625 
L 45.40625 54.6875 
L 54.390625 54.6875 
L 54.390625 -20.796875 
L 45.40625 -20.796875 
z
" id="DejaVuSans-113"/>
    </defs>
    <g transform="translate(42.800313 16.318125)scale(0.12 -0.12)">
     <use xlink:href="#DejaVuSans-67"/>
     <use x="69.824219" xlink:href="#DejaVuSans-104"/>
     <use x="133.203125" xlink:href="#DejaVuSans-97"/>
     <use x="194.482422" xlink:href="#DejaVuSans-110"/>
     <use x="257.861328" xlink:href="#DejaVuSans-103"/>
     <use x="321.337891" xlink:href="#DejaVuSans-101"/>
     <use x="382.861328" xlink:href="#DejaVuSans-100"/>
     <use x="446.337891" xlink:href="#DejaVuSans-32"/>
     <use x="478.125" xlink:href="#DejaVuSans-101"/>
     <use x="539.648438" xlink:href="#DejaVuSans-110"/>
     <use x="603.027344" xlink:href="#DejaVuSans-114"/>
     <use x="644.140625" xlink:href="#DejaVuSans-105"/>
     <use x="671.923828" xlink:href="#DejaVuSans-99"/>
     <use x="726.904297" xlink:href="#DejaVuSans-104"/>
     <use x="790.283203" xlink:href="#DejaVuSans-109"/>
     <use x="887.695312" xlink:href="#DejaVuSans-101"/>
     <use x="949.21875" xlink:href="#DejaVuSans-110"/>
     <use x="1012.597656" xlink:href="#DejaVuSans-116"/>
     <use x="1051.806641" xlink:href="#DejaVuSans-32"/>
     <use x="1083.59375" xlink:href="#DejaVuSans-99"/>
     <use x="1138.574219" xlink:href="#DejaVuSans-111"/>
     <use x="1199.755859" xlink:href="#DejaVuSans-101"/>
     <use x="1261.279297" xlink:href="#DejaVuSans-102"/>
     <use x="1296.484375" xlink:href="#DejaVuSans-102"/>
     <use x="1331.689453" xlink:href="#DejaVuSans-105"/>
     <use x="1359.472656" xlink:href="#DejaVuSans-99"/>
     <use x="1414.453125" xlink:href="#DejaVuSans-105"/>
     <use x="1442.236328" xlink:href="#DejaVuSans-101"/>
     <use x="1503.759766" xlink:href="#DejaVuSans-110"/>
     <use x="1567.138672" xlink:href="#DejaVuSans-116"/>
     <use x="1606.347656" xlink:href="#DejaVuSans-32"/>
     <use x="1638.134766" xlink:href="#DejaVuSans-111"/>
     <use x="1699.316406" xlink:href="#DejaVuSans-102"/>
     <use x="1734.521484" xlink:href="#DejaVuSans-32"/>
     <use x="1766.308594" xlink:href="#DejaVuSans-109"/>
     <use x="1863.720703" xlink:href="#DejaVuSans-111"/>
     <use x="1924.902344" xlink:href="#DejaVuSans-116"/>
     <use x="1964.111328" xlink:href="#DejaVuSans-105"/>
     <use x="1991.894531" xlink:href="#DejaVuSans-102"/>
     <use x="2027.099609" xlink:href="#DejaVuSans-32"/>
     <use x="2058.886719" xlink:href="#DejaVuSans-77"/>
     <use x="2145.166016" xlink:href="#DejaVuSans-65"/>
     <use x="2213.574219" xlink:href="#DejaVuSans-48"/>
     <use x="2277.197266" xlink:href="#DejaVuSans-55"/>
     <use x="2340.820312" xlink:href="#DejaVuSans-57"/>
     <use x="2404.443359" xlink:href="#DejaVuSans-56"/>
     <use x="2468.066406" xlink:href="#DejaVuSans-46"/>
     <use x="2499.853516" xlink:href="#DejaVuSans-49"/>
     <use x="2563.476562" xlink:href="#DejaVuSans-32"/>
     <use x="2595.263672" xlink:href="#DejaVuSans-82"/>
     <use x="2664.746094" xlink:href="#DejaVuSans-70"/>
     <use x="2722.265625" xlink:href="#DejaVuSans-88"/>
     <use x="2790.771484" xlink:href="#DejaVuSans-51"/>
     <use x="2854.394531" xlink:href="#DejaVuSans-32"/>
     <use x="2886.181641" xlink:href="#DejaVuSans-97"/>
     <use x="2947.460938" xlink:href="#DejaVuSans-115"/>
     <use x="2999.560547" xlink:href="#DejaVuSans-32"/>
     <use x="3031.347656" xlink:href="#DejaVuSans-97"/>
     <use x="3092.626953" xlink:href="#DejaVuSans-32"/>
     <use x="3124.414062" xlink:href="#DejaVuSans-102"/>
     <use x="3159.619141" xlink:href="#DejaVuSans-117"/>
     <use x="3222.998047" xlink:href="#DejaVuSans-110"/>
     <use x="3286.376953" xlink:href="#DejaVuSans-99"/>
     <use x="3341.357422" xlink:href="#DejaVuSans-116"/>
     <use x="3380.566406" xlink:href="#DejaVuSans-105"/>
     <use x="3408.349609" xlink:href="#DejaVuSans-111"/>
     <use x="3469.53125" xlink:href="#DejaVuSans-110"/>
     <use x="3532.910156" xlink:href="#DejaVuSans-32"/>
     <use x="3564.697266" xlink:href="#DejaVuSans-111"/>
     <use x="3625.878906" xlink:href="#DejaVuSans-102"/>
     <use x="3661.083984" xlink:href="#DejaVuSans-32"/>
     <use x="3692.871094" xlink:href="#DejaVuSans-109"/>
     <use x="3790.283203" xlink:href="#DejaVuSans-111"/>
     <use x="3851.464844" xlink:href="#DejaVuSans-116"/>
     <use x="3890.673828" xlink:href="#DejaVuSans-105"/>
     <use x="3918.457031" xlink:href="#DejaVuSans-102"/>
     <use x="3953.662109" xlink:href="#DejaVuSans-32"/>
     <use x="3985.449219" xlink:href="#DejaVuSans-112"/>
     <use x="4048.925781" xlink:href="#DejaVuSans-111"/>
     <use x="4110.107422" xlink:href="#DejaVuSans-115"/>
     <use x="4162.207031" xlink:href="#DejaVuSans-105"/>
     <use x="4189.990234" xlink:href="#DejaVuSans-116"/>
     <use x="4229.199219" xlink:href="#DejaVuSans-105"/>
     <use x="4256.982422" xlink:href="#DejaVuSans-111"/>
     <use x="4318.164062" xlink:href="#DejaVuSans-110"/>
     <use x="4381.542969" xlink:href="#DejaVuSans-32"/>
     <use x="4413.330078" xlink:href="#DejaVuSans-105"/>
     <use x="4441.113281" xlink:href="#DejaVuSans-110"/>
     <use x="4504.492188" xlink:href="#DejaVuSans-32"/>
     <use x="4536.279297" xlink:href="#DejaVuSans-115"/>
     <use x="4588.378906" xlink:href="#DejaVuSans-101"/>
     <use x="4649.902344" xlink:href="#DejaVuSans-113"/>
     <use x="4713.378906" xlink:href="#DejaVuSans-117"/>
     <use x="4776.757812" xlink:href="#DejaVuSans-101"/>
     <use x="4838.28125" xlink:href="#DejaVuSans-110"/>
     <use x="4901.660156" xlink:href="#DejaVuSans-99"/>
     <use x="4956.640625" xlink:href="#DejaVuSans-101"/>
    </g>
   </g>
   <g id="legend_1">
    <g id="patch_7">
     <path d="M 71.885938 89.030625 
L 269.370313 89.030625 
Q 271.370313 89.030625 271.370313 87.030625 
L 271.370313 29.318125 
Q 271.370313 27.318125 269.370313 27.318125 
L 71.885938 27.318125 
Q 69.885938 27.318125 69.885938 29.318125 
L 69.885938 87.030625 
Q 69.885938 89.030625 71.885938 89.030625 
z
" style="fill:#ffffff;opacity:0.8;stroke:#cccccc;stroke-linejoin:miter;"/>
    </g>
    <g id="line2d_24">
     <path d="M 73.885938 35.416562 
L 93.885938 35.416562 
" style="fill:none;"/>
    </g>
    <g id="line2d_25"/>
    <g id="text_20">
     <!-- Measurement -->
     <g transform="translate(101.885938 38.916562)scale(0.1 -0.1)">
      <use xlink:href="#DejaVuSans-77"/>
      <use x="86.279297" xlink:href="#DejaVuSans-101"/>
      <use x="147.802734" xlink:href="#DejaVuSans-97"/>
      <use x="209.082031" xlink:href="#DejaVuSans-115"/>
      <use x="261.181641" xlink:href="#DejaVuSans-117"/>
      <use x="324.560547" xlink:href="#DejaVuSans-114"/>
      <use x="363.423828" xlink:href="#DejaVuSans-101"/>
      <use x="424.947266" xlink:href="#DejaVuSans-109"/>
      <use x="522.359375" xlink:href="#DejaVuSans-101"/>
      <use x="583.882812" xlink:href="#DejaVuSans-110"/>
      <use x="647.261719" xlink:href="#DejaVuSans-116"/>
     </g>
    </g>
    <g id="line2d_26">
     <path d="M 73.885938 50.094687 
L 93.885938 50.094687 
" style="fill:none;stroke:#1f77b4;stroke-linecap:square;stroke-width:1.5;"/>
    </g>
    <g id="line2d_27"/>
    <g id="text_21">
     <!-- Positional Enrichment Coefficient -->
     <defs>
      <path d="M 9.421875 75.984375 
L 18.40625 75.984375 
L 18.40625 0 
L 9.421875 0 
z
" id="DejaVuSans-108"/>
      <path d="M 9.8125 72.90625 
L 55.90625 72.90625 
L 55.90625 64.59375 
L 19.671875 64.59375 
L 19.671875 43.015625 
L 54.390625 43.015625 
L 54.390625 34.71875 
L 19.671875 34.71875 
L 19.671875 8.296875 
L 56.78125 8.296875 
L 56.78125 0 
L 9.8125 0 
z
" id="DejaVuSans-69"/>
     </defs>
     <g transform="translate(101.885938 53.594687)scale(0.1 -0.1)">
      <use xlink:href="#DejaVuSans-80"/>
      <use x="56.677734" xlink:href="#DejaVuSans-111"/>
      <use x="117.859375" xlink:href="#DejaVuSans-115"/>
      <use x="169.958984" xlink:href="#DejaVuSans-105"/>
      <use x="197.742188" xlink:href="#DejaVuSans-116"/>
      <use x="236.951172" xlink:href="#DejaVuSans-105"/>
      <use x="264.734375" xlink:href="#DejaVuSans-111"/>
      <use x="325.916016" xlink:href="#DejaVuSans-110"/>
      <use x="389.294922" xlink:href="#DejaVuSans-97"/>
      <use x="450.574219" xlink:href="#DejaVuSans-108"/>
      <use x="478.357422" xlink:href="#DejaVuSans-32"/>
      <use x="510.144531" xlink:href="#DejaVuSans-69"/>
      <use x="573.328125" xlink:href="#DejaVuSans-110"/>
      <use x="636.707031" xlink:href="#DejaVuSans-114"/>
      <use x="677.820312" xlink:href="#DejaVuSans-105"/>
      <use x="705.603516" xlink:href="#DejaVuSans-99"/>
      <use x="760.583984" xlink:href="#DejaVuSans-104"/>
      <use x="823.962891" xlink:href="#DejaVuSans-109"/>
      <use x="921.375" xlink:href="#DejaVuSans-101"/>
      <use x="982.898438" xlink:href="#DejaVuSans-110"/>
      <use x="1046.277344" xlink:href="#DejaVuSans-116"/>
      <use x="1085.486328" xlink:href="#DejaVuSans-32"/>
      <use x="1117.273438" xlink:href="#DejaVuSans-67"/>
      <use x="1187.097656" xlink:href="#DejaVuSans-111"/>
      <use x="1248.279297" xlink:href="#DejaVuSans-101"/>
      <use x="1309.802734" xlink:href="#DejaVuSans-102"/>
      <use x="1345.007812" xlink:href="#DejaVuSans-102"/>
      <use x="1380.212891" xlink:href="#DejaVuSans-105"/>
      <use x="1407.996094" xlink:href="#DejaVuSans-99"/>
      <use x="1462.976562" xlink:href="#DejaVuSans-105"/>
      <use x="1490.759766" xlink:href="#DejaVuSans-101"/>
      <use x="1552.283203" xlink:href="#DejaVuSans-110"/>
      <use x="1615.662109" xlink:href="#DejaVuSans-116"/>
     </g>
    </g>
    <g id="line2d_28">
     <path d="M 73.885938 64.772812 
L 93.885938 64.772812 
" style="fill:none;stroke:#ff7f0e;stroke-linecap:square;stroke-width:1.5;"/>
    </g>
    <g id="line2d_29"/>
    <g id="text_22">
     <!-- 95% CI Upper -->
     <defs>
      <path d="M 10.796875 72.90625 
L 49.515625 72.90625 
L 49.515625 64.59375 
L 19.828125 64.59375 
L 19.828125 46.734375 
Q 21.96875 47.46875 24.109375 47.828125 
Q 26.265625 48.1875 28.421875 48.1875 
Q 40.625 48.1875 47.75 41.5 
Q 54.890625 34.8125 54.890625 23.390625 
Q 54.890625 11.625 47.5625 5.09375 
Q 40.234375 -1.421875 26.90625 -1.421875 
Q 22.3125 -1.421875 17.546875 -0.640625 
Q 12.796875 0.140625 7.71875 1.703125 
L 7.71875 11.625 
Q 12.109375 9.234375 16.796875 8.0625 
Q 21.484375 6.890625 26.703125 6.890625 
Q 35.15625 6.890625 40.078125 11.328125 
Q 45.015625 15.765625 45.015625 23.390625 
Q 45.015625 31 40.078125 35.4375 
Q 35.15625 39.890625 26.703125 39.890625 
Q 22.75 39.890625 18.8125 39.015625 
Q 14.890625 38.140625 10.796875 36.28125 
z
" id="DejaVuSans-53"/>
      <path d="M 72.703125 32.078125 
Q 68.453125 32.078125 66.03125 28.46875 
Q 63.625 24.859375 63.625 18.40625 
Q 63.625 12.0625 66.03125 8.421875 
Q 68.453125 4.78125 72.703125 4.78125 
Q 76.859375 4.78125 79.265625 8.421875 
Q 81.6875 12.0625 81.6875 18.40625 
Q 81.6875 24.8125 79.265625 28.4375 
Q 76.859375 32.078125 72.703125 32.078125 
z
M 72.703125 38.28125 
Q 80.421875 38.28125 84.953125 32.90625 
Q 89.5 27.546875 89.5 18.40625 
Q 89.5 9.28125 84.9375 3.921875 
Q 80.375 -1.421875 72.703125 -1.421875 
Q 64.890625 -1.421875 60.34375 3.921875 
Q 55.8125 9.28125 55.8125 18.40625 
Q 55.8125 27.59375 60.375 32.9375 
Q 64.9375 38.28125 72.703125 38.28125 
z
M 22.3125 68.015625 
Q 18.109375 68.015625 15.6875 64.375 
Q 13.28125 60.75 13.28125 54.390625 
Q 13.28125 47.953125 15.671875 44.328125 
Q 18.0625 40.71875 22.3125 40.71875 
Q 26.5625 40.71875 28.96875 44.328125 
Q 31.390625 47.953125 31.390625 54.390625 
Q 31.390625 60.6875 28.953125 64.34375 
Q 26.515625 68.015625 22.3125 68.015625 
z
M 66.40625 74.21875 
L 74.21875 74.21875 
L 28.609375 -1.421875 
L 20.796875 -1.421875 
z
M 22.3125 74.21875 
Q 30.03125 74.21875 34.609375 68.875 
Q 39.203125 63.53125 39.203125 54.390625 
Q 39.203125 45.171875 34.640625 39.84375 
Q 30.078125 34.515625 22.3125 34.515625 
Q 14.546875 34.515625 10.03125 39.859375 
Q 5.515625 45.21875 5.515625 54.390625 
Q 5.515625 63.484375 10.046875 68.84375 
Q 14.59375 74.21875 22.3125 74.21875 
z
" id="DejaVuSans-37"/>
      <path d="M 9.8125 72.90625 
L 19.671875 72.90625 
L 19.671875 0 
L 9.8125 0 
z
" id="DejaVuSans-73"/>
      <path d="M 8.6875 72.90625 
L 18.609375 72.90625 
L 18.609375 28.609375 
Q 18.609375 16.890625 22.84375 11.734375 
Q 27.09375 6.59375 36.625 6.59375 
Q 46.09375 6.59375 50.34375 11.734375 
Q 54.59375 16.890625 54.59375 28.609375 
L 54.59375 72.90625 
L 64.5 72.90625 
L 64.5 27.390625 
Q 64.5 13.140625 57.4375 5.859375 
Q 50.390625 -1.421875 36.625 -1.421875 
Q 22.796875 -1.421875 15.734375 5.859375 
Q 8.6875 13.140625 8.6875 27.390625 
z
" id="DejaVuSans-85"/>
     </defs>
     <g transform="translate(101.885938 68.272812)scale(0.1 -0.1)">
      <use xlink:href="#DejaVuSans-57"/>
      <use x="63.623047" xlink:href="#DejaVuSans-53"/>
      <use x="127.246094" xlink:href="#DejaVuSans-37"/>
      <use x="222.265625" xlink:href="#DejaVuSans-32"/>
      <use x="254.052734" xlink:href="#DejaVuSans-67"/>
      <use x="323.876953" xlink:href="#DejaVuSans-73"/>
      <use x="353.369141" xlink:href="#DejaVuSans-32"/>
      <use x="385.15625" xlink:href="#DejaVuSans-85"/>
      <use x="458.349609" xlink:href="#DejaVuSans-112"/>
      <use x="521.826172" xlink:href="#DejaVuSans-112"/>
      <use x="585.302734" xlink:href="#DejaVuSans-101"/>
      <use x="646.826172" xlink:href="#DejaVuSans-114"/>
     </g>
    </g>
    <g id="line2d_30">
     <path d="M 73.885938 79.450937 
L 93.885938 79.450937 
" style="fill:none;stroke:#2ca02c;stroke-linecap:square;stroke-width:1.5;"/>
    </g>
    <g id="line2d_31"/>
    <g id="text_23">
     <!-- 95% CI Lower -->
     <defs>
      <path d="M 9.8125 72.90625 
L 19.671875 72.90625 
L 19.671875 8.296875 
L 55.171875 8.296875 
L 55.171875 0 
L 9.8125 0 
z
" id="DejaVuSans-76"/>
      <path d="M 4.203125 54.6875 
L 13.1875 54.6875 
L 24.421875 12.015625 
L 35.59375 54.6875 
L 46.1875 54.6875 
L 57.421875 12.015625 
L 68.609375 54.6875 
L 77.59375 54.6875 
L 63.28125 0 
L 52.6875 0 
L 40.921875 44.828125 
L 29.109375 0 
L 18.5 0 
z
" id="DejaVuSans-119"/>
     </defs>
     <g transform="translate(101.885938 82.950937)scale(0.1 -0.1)">
      <use xlink:href="#DejaVuSans-57"/>
      <use x="63.623047" xlink:href="#DejaVuSans-53"/>
      <use x="127.246094" xlink:href="#DejaVuSans-37"/>
      <use x="222.265625" xlink:href="#DejaVuSans-32"/>
      <use x="254.052734" xlink:href="#DejaVuSans-67"/>
      <use x="323.876953" xlink:href="#DejaVuSans-73"/>
      <use x="353.369141" xlink:href="#DejaVuSans-32"/>
      <use x="385.15625" xlink:href="#DejaVuSans-76"/>
      <use x="439.119141" xlink:href="#DejaVuSans-111"/>
      <use x="500.300781" xlink:href="#DejaVuSans-119"/>
      <use x="582.087891" xlink:href="#DejaVuSans-101"/>
      <use x="643.611328" xlink:href="#DejaVuSans-114"/>
     </g>
    </g>
   </g>
  </g>
 </g>
 <defs>
  <clipPath id="p10936f942c">
   <rect height="554.4" width="558" x="64.885938" y="22.318125"/>
  </clipPath>
 </defs>
</svg>
